<svg xmlns="http://www.w3.org/2000/svg" width="75" height="75.011" viewBox="0 0 75 75.011">
  <g id="anfitriones" transform="translate(0 0.009)">
    <g id="Grupo_461" data-name="Grupo 461" transform="translate(0 -0.009)">
      <g id="Grupo_454" data-name="Grupo 454" transform="translate(29.844 27.482)">
        <path id="Trazado_1398" data-name="Trazado 1398" d="M70.851,42.726,49.6,24.431a1.2,1.2,0,0,0-1.477,0L26.646,42.84a1.282,1.282,0,0,0-.341,1.25,1.092,1.092,0,0,0,1.023.8h2.045V70.567A1.074,1.074,0,0,0,30.51,71.7H67.1a1.074,1.074,0,0,0,1.136-1.136V44.885h2.045a1.074,1.074,0,0,0,1.136-1.136A1.193,1.193,0,0,0,70.851,42.726ZM48.805,26.817l18.409,15.8H30.4Zm-5.8,42.614V54.09h11.7V69.431Zm22.955,0H56.873V52.954a1.074,1.074,0,0,0-1.136-1.136H41.873a1.074,1.074,0,0,0-1.136,1.136V69.431H31.646V44.885H65.964Z" transform="translate(-26.263 -24.175)" fill="#3c3b3b"/>
      </g>
      <g id="Grupo_455" data-name="Grupo 455" transform="translate(47.728 34.442)">
        <path id="Trazado_1399" data-name="Trazado 1399" d="M46.659,39.618a4.608,4.608,0,0,0,4.659-4.659A4.68,4.68,0,0,0,46.659,30.3a4.659,4.659,0,1,0,0,9.318Zm0-6.932a2.33,2.33,0,0,1,2.386,2.386,2.4,2.4,0,0,1-2.386,2.386,2.33,2.33,0,0,1-2.386-2.386A2.4,2.4,0,0,1,46.659,32.686Z" transform="translate(-42 -30.3)" fill="#3c3b3b"/>
      </g>
      <g id="Grupo_456" data-name="Grupo 456" transform="translate(0 17.624)">
        <path id="Trazado_1400" data-name="Trazado 1400" d="M20.341,15.5H7.727C3.409,15.5,0,19.25,0,23.909V44.7a1.074,1.074,0,0,0,1.136,1.136H5.455V58.8a3.566,3.566,0,0,0,3.636,3.523h9.886A3.566,3.566,0,0,0,22.614,58.8V45.841h4.318A1.074,1.074,0,0,0,28.068,44.7v-20.8C28.068,19.25,24.659,15.5,20.341,15.5ZM25.8,43.568H22.614V33.114a1.136,1.136,0,1,0-2.273,0V58.8a1.29,1.29,0,0,1-1.364,1.25H15.114V45.387a1.136,1.136,0,1,0-2.273,0V60.046H9.091A1.29,1.29,0,0,1,7.727,58.8V33.114a1.074,1.074,0,0,0-1.136-1.136,1.074,1.074,0,0,0-1.136,1.136V43.568H2.273V23.909c0-3.409,2.5-6.136,5.455-6.136H20.341c3.068,0,5.455,2.727,5.455,6.136Z" transform="translate(0 -15.5)" fill="#3c3b3b"/>
      </g>
      <g id="Grupo_457" data-name="Grupo 457" transform="translate(5.682 0.01)">
        <path id="Trazado_1401" data-name="Trazado 1401" d="M13.3,16.364a8.245,8.245,0,0,0,8.3-8.182A8.245,8.245,0,0,0,13.3,0a8.183,8.183,0,1,0,0,16.364Zm0-14.091a5.966,5.966,0,0,1,6.023,5.909A5.966,5.966,0,0,1,13.3,14.091,6.04,6.04,0,0,1,7.273,8.182,5.966,5.966,0,0,1,13.3,2.273Z" transform="translate(-5)" fill="#3c3b3b"/>
      </g>
      <g id="Grupo_458" data-name="Grupo 458" transform="translate(2.273 67.738)">
        <path id="Trazado_1402" data-name="Trazado 1402" d="M24.387,59.6H3.136a1.136,1.136,0,1,0,0,2.273h21.25a1.074,1.074,0,0,0,1.136-1.136A1.139,1.139,0,0,0,24.387,59.6Z" transform="translate(-2 -59.6)" fill="#3c3b3b"/>
      </g>
      <g id="Grupo_459" data-name="Grupo 459" transform="translate(2.273 72.738)">
        <path id="Trazado_1403" data-name="Trazado 1403" d="M24.387,64H3.136a1.136,1.136,0,0,0,0,2.273h21.25a1.136,1.136,0,1,0,0-2.273Z" transform="translate(-2 -64)" fill="#3c3b3b"/>
      </g>
      <g id="Grupo_460" data-name="Grupo 460" transform="translate(25.88)">
        <path id="Trazado_1404" data-name="Trazado 1404" d="M23.258,12.615,37.8,23.183a1.045,1.045,0,0,0,1.136.114,1.193,1.193,0,0,0,.568-1.023V16.706H53.031a7.354,7.354,0,0,1,7.5,6.591,6.769,6.769,0,0,1-3.182,6.364,1.3,1.3,0,0,0-.455,1.364,1.145,1.145,0,0,0,1.25.682A12.573,12.573,0,0,0,68.713,18.751C68.6,12.274,62.69,6.819,55.758,6.819H39.508V1.138A1.193,1.193,0,0,0,38.94.115,1.045,1.045,0,0,0,37.8.229L23.258,10.8a1.034,1.034,0,0,0-.455.909A.835.835,0,0,0,23.258,12.615Zm13.977-9.2V7.956a1.074,1.074,0,0,0,1.136,1.136H55.645c5.8,0,10.682,4.432,10.909,9.886a10.437,10.437,0,0,1-4.659,9.091,9.047,9.047,0,0,0,1.023-4.886,9.683,9.683,0,0,0-9.773-8.75H38.372a1.074,1.074,0,0,0-1.136,1.136V20l-11.477-8.3Z" transform="translate(-22.774 0.009)" fill="#3c3b3b"/>
      </g>
    </g>
  </g>
</svg>
