<svg xmlns="http://www.w3.org/2000/svg" width="31.386" height="29.635" viewBox="0 0 31.386 29.635">
  <g id="download" transform="translate(-13.7 -15.628)">
    <g id="Grupo_610" data-name="Grupo 610" transform="translate(-1 -1.041)">
      <path id="Trazado_3013" data-name="Trazado 3013" d="M39.648,16.67A1.334,1.334,0,0,0,38.314,18V35.489l-4.744-4.1A1.335,1.335,0,0,0,31.824,33.4l6.935,6.011a1.334,1.334,0,0,0,1.747,0L47.468,33.4a1.335,1.335,0,0,0-1.747-2.018l-4.739,4.108V18A1.334,1.334,0,0,0,39.648,16.67Z" transform="translate(-9.255 0)" fill="#fff"/>
      <path id="Trazado_3014" data-name="Trazado 3014" d="M42.085,33H37.062a1.334,1.334,0,1,0,0,2.667h5.024A1.334,1.334,0,0,1,43.419,37V51.374a1.334,1.334,0,0,1-1.334,1.334H18.7a1.334,1.334,0,0,1-1.334-1.334V37A1.334,1.334,0,0,1,18.7,35.667h5.024a1.334,1.334,0,1,0,0-2.667H18.7a4,4,0,0,0-4,4V51.374a4,4,0,0,0,4,4H42.085a4,4,0,0,0,4-4V37A4,4,0,0,0,42.085,33Z" transform="translate(0 -9.07)" fill="#fff"/>
    </g>
  </g>
</svg>
