<svg xmlns="http://www.w3.org/2000/svg" width="45" height="45" viewBox="0 0 45 45">
  <g id="icon-desk" transform="translate(-244 -941)">
    <circle id="Elipse_9" data-name="Elipse 9" cx="22.5" cy="22.5" r="22.5" transform="translate(244 941)" fill="#fff"/>
    <path id="Trazado_1645" data-name="Trazado 1645" d="M26.307,12.911h0a3.647,3.647,0,0,0-2.794-3L24.5,8.254a1.555,1.555,0,1,0-.776-3L21.03,3.235c-1.811-2.328-5.278-.466-4.346.414l.621.621-.362.362a1.517,1.517,0,0,0,1.087,2.587,1.828,1.828,0,0,0,1.449-.828c.259.207.828,1.138,1.345.621a2.817,2.817,0,0,0,.828-2.018l1.242.983a1.542,1.542,0,0,0,.517,2.07L22.375,9.858a3.63,3.63,0,0,0-3.26,3.1H11.3V11.928h2.587a1.038,1.038,0,0,0,1.035-1.035V3.131A1.038,1.038,0,0,0,13.889,2.1H3.54a.964.964,0,0,0-1.035.983v7.762A1.038,1.038,0,0,0,3.54,11.876H6.127v1.035c-2.794.155-4.139-.362-4.139.517.155,1.811-.362,3.1.517,3.1H4.058c.207,9.21-.466,10.349.517,10.349h2.07c.983,0,.31-1.138.517-10.349H21.651c.207,9.21-.466,10.349.517,10.349,1.294-.1,2.587.31,2.587-.517V16.533c.88-.1,2.07.31,2.07-.517C26.67,14.2,27.187,12.911,26.307,12.911Zm-2.07-5.692h0a.518.518,0,0,1,0-1.035A.518.518,0,1,1,24.238,7.219Zm-6.571-1.19c-.466-.466.259-.931.362-1.035l.724.673C18.6,5.718,18.132,6.495,17.666,6.029Zm2.691-.155L17.822,3.338A1.857,1.857,0,0,1,20.357,5.874Zm4.864,7.037H20.15A2.591,2.591,0,0,1,25.221,12.911ZM3.54,3.079H13.889V8.771H3.54Zm0,6.727H13.889v1.035H3.54Zm3.622,2.07h3.1v1.035h-3.1ZM6.127,25.847H5.093V16.533H6.127Zm17.593,0H22.685V16.533H23.72ZM25.79,15.5H3.023V13.946H25.79Z" transform="translate(252.594 949.474)" fill="#4a4a4a"/>
  </g>
</svg>
