<svg xmlns="http://www.w3.org/2000/svg" width="76.33" height="76.33" viewBox="0 0 76.33 76.33">
  <g id="icon-check-disable" transform="translate(-8.821 2.9)">
    <g id="noun_Error_1892739" transform="translate(2.091 -9.63)">
      <path id="Trazado_1711" data-name="Trazado 1711" d="M53.58,44.895,79.665,18.838a3.1,3.1,0,0,0,0-4.357l-4.357-4.357a3.1,3.1,0,0,0-4.357,0L44.895,36.209,18.838,10.124a3.1,3.1,0,0,0-4.357,0l-4.357,4.357a3.1,3.1,0,0,0,0,4.357L36.209,44.895,10.124,70.952a3.1,3.1,0,0,0,0,4.357l4.357,4.357a3.1,3.1,0,0,0,4.357,0L44.895,53.58,70.952,79.665a3.1,3.1,0,0,0,4.357,0l4.357-4.357a3.1,3.1,0,0,0,0-4.357Z" transform="translate(0 0)" fill="#e1e1e1" stroke="#e1e1e1" stroke-width="5"/>
    </g>
  </g>
</svg>
