<svg xmlns="http://www.w3.org/2000/svg" width="45" height="45" viewBox="0 0 45 45">
  <g id="icon-citofono" transform="translate(-244 -941)">
    <circle id="Elipse_9" data-name="Elipse 9" cx="22.5" cy="22.5" r="22.5" transform="translate(244 941)" fill="#fff"/>
    <g id="noun_Phone_2308011" transform="translate(246.461 889.654)">
      <g id="Grupo_600" data-name="Grupo 600" transform="translate(7.802 61.405)">
        <g id="Grupo_599" data-name="Grupo 599">
          <g id="Grupo_588" data-name="Grupo 588" transform="translate(10.542 3.989)">
            <path id="Trazado_1683" data-name="Trazado 1683" d="M230.48,130.83a2.279,2.279,0,1,1,2.279-2.279A2.282,2.282,0,0,1,230.48,130.83Zm0-3.419a1.14,1.14,0,1,0,1.14,1.14A1.141,1.141,0,0,0,230.48,127.411Z" transform="translate(-228.201 -126.271)" fill="#4a4a4a"/>
          </g>
          <g id="Grupo_589" data-name="Grupo 589" transform="translate(3.419)">
            <path id="Trazado_1684" data-name="Trazado 1684" d="M129.123,85.338H112.94a.57.57,0,0,1-.57-.57V61.975a.57.57,0,0,1,.57-.57h16.183a2.054,2.054,0,0,1,2.051,2.051v19.83A2.054,2.054,0,0,1,129.123,85.338ZM113.51,84.2h15.613a.913.913,0,0,0,.912-.912V63.456a.913.913,0,0,0-.912-.912H113.51Z" transform="translate(-112.37 -61.405)" fill="#4a4a4a"/>
          </g>
          <g id="Grupo_590" data-name="Grupo 590" transform="translate(0 0)">
            <path id="Trazado_1685" data-name="Trazado 1685" d="M60.761,85.339H58.823a2.054,2.054,0,0,1-2.051-2.051V63.457a2.054,2.054,0,0,1,2.051-2.051h1.937a.57.57,0,0,1,.57.57V84.769A.57.57,0,0,1,60.761,85.339ZM58.823,62.546a.913.913,0,0,0-.912.912v19.83a.913.913,0,0,0,.912.912h1.368V62.546Z" transform="translate(-56.772 -61.406)" fill="#4a4a4a"/>
          </g>
          <g id="Grupo_591" data-name="Grupo 591" transform="translate(5.698 2.279)">
            <path id="Trazado_1686" data-name="Trazado 1686" d="M163.113,111.577H150.007a.57.57,0,0,1-.57-.57V99.041a.57.57,0,0,1,.57-.57h13.106a.57.57,0,0,1,.57.57v11.966A.57.57,0,0,1,163.113,111.577Zm-12.536-1.14h11.966V99.611H150.577Z" transform="translate(-149.437 -98.471)" fill="#4a4a4a"/>
          </g>
          <g id="Grupo_592" data-name="Grupo 592" transform="translate(9.117 8.547)">
            <path id="Trazado_1687" data-name="Trazado 1687" d="M211.872,205.53H205.6a.57.57,0,0,1-.57-.57v-2.384a2.177,2.177,0,0,1,2.175-2.175h3.058a2.177,2.177,0,0,1,2.175,2.175v2.384A.57.57,0,0,1,211.872,205.53Zm-5.7-1.14H211.3v-1.814a1.036,1.036,0,0,0-1.035-1.035h-3.058a1.036,1.036,0,0,0-1.035,1.035Z" transform="translate(-205.034 -200.401)" fill="#4a4a4a"/>
          </g>
          <g id="Grupo_593" data-name="Grupo 593" transform="translate(6.268 16.525)">
            <path id="Trazado_1688" data-name="Trazado 1688" d="M171.238,331.27H159.272a.57.57,0,1,1,0-1.14h11.966a.57.57,0,1,1,0,1.14Z" transform="translate(-158.702 -330.13)" fill="#4a4a4a"/>
          </g>
          <g id="Grupo_594" data-name="Grupo 594" transform="translate(6.268 18.235)">
            <path id="Trazado_1689" data-name="Trazado 1689" d="M171.238,359.07H159.272a.57.57,0,1,1,0-1.14h11.966a.57.57,0,1,1,0,1.14Z" transform="translate(-158.702 -357.93)" fill="#4a4a4a"/>
          </g>
          <g id="Grupo_595" data-name="Grupo 595" transform="translate(6.268 19.944)">
            <path id="Trazado_1690" data-name="Trazado 1690" d="M164.97,386.869h-5.7a.57.57,0,0,1,0-1.14h5.7a.57.57,0,1,1,0,1.14Z" transform="translate(-158.702 -385.729)" fill="#4a4a4a"/>
          </g>
          <g id="Grupo_596" data-name="Grupo 596" transform="translate(21.084 2.849)">
            <path id="Trazado_1691" data-name="Trazado 1691" d="M402.478,114.575H400.2a.57.57,0,0,1-.57-.57v-5.7a.57.57,0,0,1,.57-.57h2.279a.57.57,0,0,1,.57.57v5.7A.57.57,0,0,1,402.478,114.575Zm-1.709-1.14h1.14v-4.559h-1.14Z" transform="translate(-399.629 -107.737)" fill="#4a4a4a"/>
          </g>
          <g id="Grupo_597" data-name="Grupo 597" transform="translate(21.084 10.827)">
            <path id="Trazado_1692" data-name="Trazado 1692" d="M402.478,242.026H400.2a.57.57,0,0,1-.57-.57v-3.419a.57.57,0,0,1,.57-.57h2.279a.57.57,0,0,1,.57.57v3.419A.57.57,0,0,1,402.478,242.026Zm-1.709-1.14h1.14v-2.279h-1.14Z" transform="translate(-399.629 -237.467)" fill="#4a4a4a"/>
          </g>
          <g id="Grupo_598" data-name="Grupo 598" transform="translate(21.084 16.525)">
            <path id="Trazado_1693" data-name="Trazado 1693" d="M402.478,334.689H400.2a.57.57,0,0,1-.57-.57V330.7a.57.57,0,0,1,.57-.57h2.279a.57.57,0,0,1,.57.57v3.419A.57.57,0,0,1,402.478,334.689Zm-1.709-1.14h1.14V331.27h-1.14Z" transform="translate(-399.629 -330.13)" fill="#4a4a4a"/>
          </g>
        </g>
      </g>
    </g>
  </g>
</svg>
