<svg xmlns="http://www.w3.org/2000/svg" width="45" height="45" viewBox="0 0 45 45">
  <g id="icon-securitycamera" transform="translate(-244 -941)">
    <circle id="Elipse_9" data-name="Elipse 9" cx="22.5" cy="22.5" r="22.5" transform="translate(244 941)" fill="#fff"/>
    <g id="noun_CCTV_1407960" transform="translate(250.595 950.427)">
      <g id="Grupo_586" data-name="Grupo 586" transform="translate(0 -0.002)">
        <path id="Trazado_1681" data-name="Trazado 1681" d="M26.6,11.827l3.347,3.366a.352.352,0,0,1,0,.494l-5.728,5.7a.348.348,0,0,1-.494,0l-3.347-3.366ZM11.181,1.917A4.737,4.737,0,0,0,9.5.756C4.873-.9,5.936,11.419,5.92,13.934c-.051,1.33-1.6,1.573-2.727,1.5v-2H0v12.1H3.194V21.086H8.6c1.958,3.762,7.635,1.3,6.364-2.656l2.307-2.3L23.1,22a1.219,1.219,0,0,0,1.722,0l.632-.628,1.612,1.62.612-.6,1.612,1.62,3.245-3.225L30.927,19.16l.608-.6-1.612-1.62.636-.632a1.219,1.219,0,0,0,0-1.722L16.419.352a1.231,1.231,0,0,0-1.726,0l-1.252,1.24c-1.036-.914-1.475-.455-2.26.326ZM3.194,16.307c1.593.078,3.594-.443,3.594-2.358C6.8,12.208,5.955.41,9.208,1.576a3.881,3.881,0,0,1,1.354.957c-.789.781-1.263,1.22-.349,2.272L8.965,6.048A1.223,1.223,0,0,0,8.957,7.77l6.1,6.136-2.323,2.307A3.389,3.389,0,0,0,8.6,17.892H3.194V16.307ZM10.82,4.2c-.169-.173-.318-.384-.1-.6l1.518-1.507c.22-.22.432-.063.6.106Zm2.723,13.5a2.59,2.59,0,1,1-4.166,2.99,2.791,2.791,0,0,1,.471-3.033,2.6,2.6,0,0,1,3.7.043Zm2.13-3.174.989,1-2.091,2.075a3.49,3.49,0,0,0-.989-.989ZM3.194,18.763h5.1a3.617,3.617,0,0,0,0,1.452h-5.1ZM.871,14.31H2.323V24.668H.871Zm29.44,5.465,1,1-2.013,2-1-1Zm-1-2.228,1,1-3.233,3.213-1-1Zm-3.323-6.336L19.757,17.4,9.577,7.158a.348.348,0,0,1,0-.494l5.732-5.7a.363.363,0,0,1,.494,0Z" transform="translate(0 0.002)" fill="#4a4a4a" stroke="#4a4a4a" stroke-width="0.2"/>
      </g>
    </g>
  </g>
</svg>
