<svg xmlns="http://www.w3.org/2000/svg" width="79" height="78" viewBox="0 0 79 78">
  <g id="icon-close-white" transform="translate(-9.091 3.4)">
    <g id="noun_Error_1892739" transform="translate(10.495 -2.996)">
      <path id="Trazado_1711" data-name="Trazado 1711" d="M45.331,38.261,66.565,17.051a2.523,2.523,0,0,0,0-3.546L63.018,9.958a2.523,2.523,0,0,0-3.546,0L38.261,31.191,17.051,9.958a2.523,2.523,0,0,0-3.546,0L9.958,13.5a2.523,2.523,0,0,0,0,3.546L31.191,38.261,9.958,59.472a2.523,2.523,0,0,0,0,3.546L13.5,66.565a2.523,2.523,0,0,0,3.546,0L38.261,45.331,59.472,66.565a2.523,2.523,0,0,0,3.546,0l3.546-3.546a2.523,2.523,0,0,0,0-3.546Z" transform="translate(0 0)" fill="#fff" stroke="#fff" stroke-width="5"/>
    </g>
    <rect id="Rectángulo_1204" data-name="Rectángulo 1204" width="79" height="78" transform="translate(9.091 -3.4)" fill="none"/>
  </g>
</svg>
