<svg xmlns="http://www.w3.org/2000/svg" width="17" height="12" viewBox="0 0 17 12">
  <g id="icon" transform="translate(-658 -3184)">
    <rect id="Rectángulo_1172" data-name="Rectángulo 1172" width="17" height="12" transform="translate(658 3184)" fill="none"/>
    <path id="icon-arrow-down" d="M7.089,6.466l-5.341,5.34a.659.659,0,0,1-.933,0l-.623-.623a.66.66,0,0,1,0-.932L4.425,6,.192,1.748a.66.66,0,0,1,0-.932L.816.193a.659.659,0,0,1,.933,0l5.34,5.34A.66.66,0,0,1,7.089,6.466Z" transform="translate(672.641 3186.359) rotate(90)" fill="#3c3b3b"/>
  </g>
</svg>
