<svg xmlns="http://www.w3.org/2000/svg" width="73.612" height="84.2" viewBox="0 0 73.612 84.2">
  <path id="icon-iso" d="M558.584,232.486,524.62,208.015a2.48,2.48,0,0,0-2.876-.014l-34.7,24.472A2.472,2.472,0,0,0,486,234.495v23.01a6.866,6.866,0,0,0,6.859,6.859h7.1a23.161,23.161,0,0,0,5.166,10.33,2.6,2.6,0,0,0,.353.455l15.557,15.856a2.475,2.475,0,0,0,3.535,0l15.556-15.856a1.663,1.663,0,0,0,.28-.357,23.354,23.354,0,0,0,5.24-10.428h7.1a6.866,6.866,0,0,0,6.859-6.859v-23.01A2.479,2.479,0,0,0,558.584,232.486Zm-35.048,31.878a2.476,2.476,0,1,0,0-4.953H504.382a18.424,18.424,0,1,1,32.1,12.343.739.739,0,0,0-.136.176l-13.543,13.806-13.47-13.716a2.238,2.238,0,0,0-.208-.266,18.386,18.386,0,0,1-4.048-7.39Zm31.123-6.859a1.907,1.907,0,0,1-1.906,1.906h-6.571a23.375,23.375,0,1,0-46.751,0h-6.573a1.909,1.909,0,0,1-1.906-1.906V235.778l32.205-22.713,31.5,22.7Z" transform="translate(-486 -207.548)" fill="#fff"/>
</svg>
