<svg xmlns="http://www.w3.org/2000/svg" width="42.693" height="45.788" viewBox="0 0 42.693 45.788">
  <g id="icon-robot" transform="translate(-1.277 -0.5)">
    <path id="Trazado_1716" data-name="Trazado 1716" d="M1.277,9.964V44.795A1.493,1.493,0,0,0,2.77,46.288H42.477a1.493,1.493,0,0,0,1.493-1.493V9.964a1.493,1.493,0,0,0-1.493-1.493h-3.2c0-.031.018-.058.018-.089V1.993A1.493,1.493,0,0,0,37.8.5H28.694A1.493,1.493,0,0,0,27.2,1.993V8.381c0,.032.016.058.018.089H18.028c0-.031.018-.058.018-.089V1.993A1.493,1.493,0,0,0,16.553.5H7.447A1.493,1.493,0,0,0,5.954,1.993V8.381c0,.032.016.058.018.089H2.77A1.493,1.493,0,0,0,1.277,9.964Zm28.91-1.583v-4.9h6.12v4.9c0,.032.016.058.018.089H30.169C30.171,8.44,30.187,8.413,30.187,8.381Zm-21.247,0v-4.9h6.12v4.9c0,.032.016.058.018.089H8.922C8.924,8.44,8.94,8.413,8.94,8.381ZM4.263,11.457h36.72V43.3H4.263Z" transform="translate(0)" fill="#fff"/>
    <path id="Trazado_1717" data-name="Trazado 1717" d="M15.932,8.511H6v9.913h9.931V8.511Zm-2.986,6.927H8.986V11.5h3.959Z" transform="translate(4.679 7.937)" fill="#fff"/>
    <path id="Trazado_1718" data-name="Trazado 1718" d="M12.977,18.424h9.93V8.511h-9.93ZM15.963,11.5h3.958v3.941H15.963Z" transform="translate(11.592 7.937)" fill="#fff"/>
    <path id="Trazado_1719" data-name="Trazado 1719" d="M28.135,15H7.254a1.493,1.493,0,0,0-1.493,1.493v8.025a1.493,1.493,0,0,0,1.493,1.493H28.135a1.493,1.493,0,0,0,1.493-1.493V16.489A1.493,1.493,0,0,0,28.135,15Zm-8.461,2.986v5.039H15.693V17.982Zm-10.927,0h3.959v5.039H8.747Zm17.895,5.039H22.66V17.982h3.982Z" transform="translate(4.442 14.362)" fill="#fff"/>
  </g>
</svg>
