<svg xmlns="http://www.w3.org/2000/svg" width="45" height="45" viewBox="0 0 45 45">
  <g id="icon-resbalin" transform="translate(-244 -941)">
    <circle id="Elipse_9" data-name="Elipse 9" cx="22.5" cy="22.5" r="22.5" transform="translate(244 941)" fill="#fff"/>
    <path id="Trazado_1694" data-name="Trazado 1694" d="M39.634,18.572H38.556a2.015,2.015,0,0,0-2.013,2.013v1.633H34.381V20.585a2.015,2.015,0,0,0-2.013-2.013H31.29a2.015,2.015,0,0,0-2.013,2.013v2.169L19.255,40.4a.729.729,0,0,0,.634,1.089h7.266a.729.729,0,0,0,.634-.369l5.133-9.038v8.678a.729.729,0,1,0,1.458,0v-1.5h5.808v1.5a.729.729,0,1,0,1.458,0V20.585A2.016,2.016,0,0,0,39.634,18.572Zm-1.937,5.1h2.492v2.438H36.312Zm-2.213,3.9h4.705V30.01H34.381v-.5Zm-1.1,3.9h5.808v2.438H34.381V31.469ZM38.556,20.03h1.078a.555.555,0,0,1,.555.555v1.633H38V20.585A.555.555,0,0,1,38.556,20.03Zm-7.266,0h1.078a.555.555,0,0,1,.555.555v1.633H30.735V20.585A.555.555,0,0,1,31.29,20.03Zm-4.559,20H21.142L30.43,23.676H36.02Zm7.65-2.227V35.365h5.808V37.8Z" transform="translate(235.352 933.367)" fill="#4a4a4a"/>
  </g>
</svg>
