<svg xmlns="http://www.w3.org/2000/svg" width="31.855" height="48.059" viewBox="0 0 31.855 48.059">
  <g id="icon-drag" transform="translate(-16 3.778)">
    <path id="Trazado_1452" data-name="Trazado 1452" d="M43.226,34.865,43.2,26.208a3.016,3.016,0,0,0-2.91-3.1,2.915,2.915,0,0,0-1.7.529,2.888,2.888,0,0,0-2.836-2.57,2.783,2.783,0,0,0-1.733.6,2.866,2.866,0,0,0-2.769-2.206,2.785,2.785,0,0,0-1.626.517V11.256a2.88,2.88,0,1,0-5.752,0V25.148a18.754,18.754,0,0,0-1.583-2.191A2.939,2.939,0,0,0,17.4,26.213l.057.1.087.073a10.28,10.28,0,0,1,3.068,6.034c.081.565.149,1.07.211,1.53a29.866,29.866,0,0,0,.582,3.4l.617,1.59a.616.616,0,0,0,.106.174c.86,1.92,3.281,5.166,9.809,5.166H33.5c5.869,0,9.67-3.651,9.718-9.309,0-.015,0-.03,0-.046v-.06S43.226,34.866,43.226,34.865ZM33.5,43.033H31.941c-4.558,0-7.79-1.8-8.868-4.926a.625.625,0,0,0-.106-.188l-.357-.912a29.56,29.56,0,0,1-.545-3.223c-.063-.463-.132-.972-.213-1.541a11.479,11.479,0,0,0-3.408-6.731,1.692,1.692,0,0,1,2.9-1.74,15.936,15.936,0,0,1,2.531,4.162v1.437a.624.624,0,0,0,1.249,0V11.256a1.634,1.634,0,1,1,3.254,0v16.61a.624.624,0,0,0,1.249,0V22.492a1.634,1.634,0,1,1,3.253,0v5.375a.624.624,0,1,0,1.249,0V24.1a1.631,1.631,0,1,1,3.248,0V28.23a.624.624,0,1,0,1.249,0V26.068a1.635,1.635,0,0,1,1.664-1.716,1.769,1.769,0,0,1,1.661,1.858l.026,8.664C41.973,40.889,37.6,43.033,33.5,43.033Z" transform="translate(1.028)" fill="rgba(0,168,45,0.5)"/>
    <g id="Grupo_496" data-name="Grupo 496" transform="translate(0.378)">
      <path id="Trazado_1455" data-name="Trazado 1455" d="M82.919,20.459c.016-.053.035-.1.046-.16A12.5,12.5,0,0,0,83,19.973a1.478,1.478,0,0,0-.015-.157,1.414,1.414,0,0,0-.018-.169c-.011-.054-.03-.106-.046-.16a1.592,1.592,0,0,0-.047-.154,1.665,1.665,0,0,0-.13-.247c-.009-.015-.014-.03-.024-.045l0,0,0-.006-3.2-4.845a1.693,1.693,0,0,0-2.827,1.865l1.472,2.229H71.537a1.693,1.693,0,1,0,0,3.386h6.622L76.687,23.9a1.693,1.693,0,1,0,2.827,1.865l3.2-4.847,0-.006,0,0c.01-.015.015-.03.024-.045a1.668,1.668,0,0,0,.13-.247C82.892,20.563,82.9,20.511,82.919,20.459Z" transform="translate(-35.521 -17.204)" fill="rgba(0,168,45,0.5)"/>
      <path id="Trazado_1456" data-name="Trazado 1456" d="M53.363,19.465a1.714,1.714,0,0,0-.053.184c-.01.051-.011.1-.017.152a1.484,1.484,0,0,0-.016.174c0,.047.009.095.012.142a1.677,1.677,0,0,0,.02.183c.01.05.027.1.042.146a1.688,1.688,0,0,0,.052.167,1.67,1.67,0,0,0,.109.209c.016.027.025.055.043.082l.006.008h0l3.195,4.847A1.694,1.694,0,0,0,59.585,23.9l-1.471-2.232h6.62a1.693,1.693,0,1,0,0-3.386h-6.62l1.47-2.229a1.693,1.693,0,1,0-2.827-1.864l-3.191,4.841a.047.047,0,0,0-.008.012h0a.077.077,0,0,0-.007.014,1.631,1.631,0,0,0-.148.281C53.385,19.378,53.376,19.422,53.363,19.465Z" transform="translate(-37.655 -17.203)" fill="rgba(0,168,45,0.5)"/>
    </g>
  </g>
</svg>
