<svg xmlns="http://www.w3.org/2000/svg" xmlns:xlink="http://www.w3.org/1999/xlink" width="100" height="100" viewBox="0 0 100 100">
  <defs>
    <filter id="Trazado_1322" x="0" y="0" width="100" height="100" filterUnits="userSpaceOnUse">
      <feOffset dy="3" input="SourceAlpha"/>
      <feGaussianBlur stdDeviation="3" result="blur"/>
      <feFlood flood-opacity="0.161"/>
      <feComposite operator="in" in2="blur"/>
      <feComposite in="SourceGraphic"/>
    </filter>
  </defs>
  <g id="icon-play-tour" transform="translate(9 6)">
    <g transform="matrix(1, 0, 0, 1, -9, -6)" filter="url(#Trazado_1322)">
      <path id="Trazado_1322-2" data-name="Trazado 1322" d="M63.085,48.577,37.065,63.558a1.577,1.577,0,0,1-2.681-1.577V32.019a1.577,1.577,0,0,1,2.681-1.577L63.085,45.423a1.735,1.735,0,0,1,0,3.154ZM88,47A41,41,0,1,1,47,6,41,41,0,0,1,88,47Zm-6.308,0A34.692,34.692,0,1,0,47,81.692,34.692,34.692,0,0,0,81.692,47Z" transform="translate(3 0)" fill="#fff"/>
    </g>
  </g>
</svg>
