<svg xmlns="http://www.w3.org/2000/svg" width="33.407" height="24.878" viewBox="0 0 33.407 24.878">
  <g id="icon-testimonial" transform="translate(43.907 45.678) rotate(180)">
    <path id="Trazado_1451" data-name="Trazado 1451" d="M11.922,25.776A9.992,9.992,0,0,1,20.2,31.462H15.476a3.551,3.551,0,0,0-3.554,3.554v7.108a3.551,3.551,0,0,0,3.554,3.554h7.108a3.551,3.551,0,0,0,3.554-3.554V35.016A14.2,14.2,0,0,0,11.922,20.8,1.392,1.392,0,0,0,10.5,22.222v2.132A1.392,1.392,0,0,0,11.922,25.776Zm17.77,0a9.992,9.992,0,0,1,8.279,5.686H33.245a3.551,3.551,0,0,0-3.554,3.554v7.108a3.551,3.551,0,0,0,3.554,3.554h7.108a3.551,3.551,0,0,0,3.554-3.554V35.016A14.2,14.2,0,0,0,29.691,20.8a1.392,1.392,0,0,0-1.422,1.422v2.132A1.392,1.392,0,0,0,29.691,25.776Z" fill="#00a82d" fill-rule="evenodd"/>
  </g>
</svg>
