<svg xmlns="http://www.w3.org/2000/svg" width="17.424" height="15.3" viewBox="0 0 17.424 15.3">
  <g id="Icon-filter" transform="translate(-1302 -877)">
    <g id="Grupo_329" data-name="Grupo 329" transform="translate(1302 877)">
      <path id="Trazado_1305" data-name="Trazado 1305" d="M21.117,20.1a2.28,2.28,0,0,0-2.175,1.637H16.614a.612.612,0,0,0-.614.64.633.633,0,0,0,.64.64h2.328a2.256,2.256,0,0,0,2.175,1.637,2.287,2.287,0,0,0,2.2-1.637h9.441a.64.64,0,1,0,0-1.279H23.343A2.342,2.342,0,0,0,21.117,20.1Zm.026,1.279a1,1,0,1,1-1,1A1,1,0,0,1,21.143,21.379Z" transform="translate(-16 -20.1)" fill="#3c3b3b"/>
    </g>
    <g id="Grupo_330" data-name="Grupo 330" transform="translate(1302 882.117)">
      <path id="Trazado_1306" data-name="Trazado 1306" d="M28.818,40.1a2.28,2.28,0,0,0-2.175,1.637h-10a.618.618,0,0,0-.64.64.633.633,0,0,0,.64.64h10a2.256,2.256,0,0,0,2.175,1.637,2.287,2.287,0,0,0,2.2-1.637h1.765a.64.64,0,1,0,0-1.279H31.019A2.287,2.287,0,0,0,28.818,40.1Zm.026,1.279a1,1,0,1,1-1,1A.983.983,0,0,1,28.844,41.379Z" transform="translate(-16 -40.1)" fill="#3c3b3b"/>
    </g>
    <g id="Grupo_331" data-name="Grupo 331" transform="translate(1302 887.746)">
      <path id="Trazado_1307" data-name="Trazado 1307" d="M24.187,62.1a2.28,2.28,0,0,0-2.175,1.637H16.64a.618.618,0,0,0-.64.64.633.633,0,0,0,.64.64h5.4a2.256,2.256,0,0,0,2.175,1.637,2.287,2.287,0,0,0,2.2-1.637h6.371a.64.64,0,1,0,0-1.279h-6.4A2.287,2.287,0,0,0,24.187,62.1Zm.026,1.279a1,1,0,1,1-1,1A1.016,1.016,0,0,1,24.213,63.379Z" transform="translate(-16 -62.1)" fill="#3c3b3b"/>
    </g>
  </g>
</svg>
