<svg xmlns="http://www.w3.org/2000/svg" width="45" height="45" viewBox="0 0 45 45">
  <g id="icon-parking" transform="translate(-244 -941)">
    <circle id="Elipse_9" data-name="Elipse 9" cx="22.5" cy="22.5" r="22.5" transform="translate(244 941)" fill="#fff"/>
    <g id="noun_Parking_322169" transform="translate(244.349 936.261)">
      <path id="Trazado_1655" data-name="Trazado 1655" d="M29.2,63.181a2.433,2.433,0,0,0,2.485-2.221c0-.038.038-.113,0-.188a.477.477,0,0,0-.038-.226A2.375,2.375,0,0,0,29.272,58.4a2.391,2.391,0,0,0-.075,4.781Zm1.318-2.372a1.224,1.224,0,0,1-2.447,0A1.224,1.224,0,0,1,30.514,60.809Z" transform="translate(-13.609 -27.285)" fill="#4a4a4a"/>
      <path id="Trazado_1656" data-name="Trazado 1656" d="M62.7,63.181a2.433,2.433,0,0,0,2.485-2.221c0-.038.038-.113,0-.188a.477.477,0,0,0-.038-.226A2.375,2.375,0,0,0,62.772,58.4a2.391,2.391,0,0,0-.075,4.781Zm1.318-2.372a1.224,1.224,0,0,1-2.447,0A1.224,1.224,0,0,1,64.014,60.809Z" transform="translate(-34.498 -27.285)" fill="#4a4a4a"/>
      <path id="Trazado_1657" data-name="Trazado 1657" d="M38.663,24.226c-4.63-2.823-9.3-5.647-13.929-8.47a6.741,6.741,0,0,0-1.92-1.016,3.811,3.811,0,0,0-2.974.678c-2.56,1.543-5.12,3.125-7.717,4.668-2.259,1.355-4.517,2.748-6.776,4.1a.592.592,0,0,0,.6,1.016L19.5,16.961c.527-.3,1.054-.715,1.581-.979,1.167-.527,1.92.075,2.823.6,2.6,1.581,5.157,3.125,7.755,4.706,2.146,1.28,4.254,2.6,6.4,3.877C38.7,25.619,39.3,24.6,38.663,24.226Z" transform="translate(0 0)" fill="#4a4a4a"/>
      <path id="Trazado_1658" data-name="Trazado 1658" d="M13.365,52.165a.584.584,0,0,0,0,1.167H40.657a.584.584,0,0,0,0-1.167H36.441a.788.788,0,0,0,.151-.226,3.226,3.226,0,0,0,.188-1.581A2,2,0,0,0,38.1,48.513V44.372A1.977,1.977,0,0,0,36.7,42.49l-2.108-5.5A2.808,2.808,0,0,0,32.149,35.3H21.5a2.764,2.764,0,0,0-2.447,1.694l-2.108,5.5a2.025,2.025,0,0,0-1.393,1.882v4.141A1.991,1.991,0,0,0,16.9,50.4a3.225,3.225,0,0,0,.188,1.581c.038.075.113.151.151.226h-.527C15.586,52.165,14.456,52.165,13.365,52.165Zm21.307-1.694h.9c.038.452.113,1.129-.452,1.129S34.634,50.885,34.672,50.471ZM20.141,37.333a1.636,1.636,0,0,1,1.355-.941H32.112a1.636,1.636,0,0,1,1.355.941l1.882,5.007H18.258Zm-3.388,7a.836.836,0,0,1,.828-.828H36.064a.836.836,0,0,1,.828.828v4.141a.836.836,0,0,1-.828.828H17.543a.836.836,0,0,1-.828-.828V44.335ZM18.522,51.6c-.565,0-.489-.678-.452-1.129h.9C19.011,50.885,19.124,51.6,18.522,51.6Zm1.468.339a3.234,3.234,0,0,0,.188-1.468H33.542a2.794,2.794,0,0,0,.188,1.468c.038.075.113.151.151.226h-14A.325.325,0,0,1,19.99,51.939Z" transform="translate(-4.817 -12.881)" fill="#4a4a4a"/>
    </g>
  </g>
</svg>
