<svg xmlns="http://www.w3.org/2000/svg" width="79" height="78" viewBox="0 0 79 78">
  <g id="icon-dislike-white" transform="translate(-9.091 3.4)">
    <rect id="Rect치ngulo_1204" data-name="Rect치ngulo 1204" width="79" height="78" transform="translate(9.091 -3.4)" fill="none"/>
    <g id="Grupo_606" data-name="Grupo 606" transform="translate(9.817 3.649)">
      <path id="Trazado_1712" data-name="Trazado 1712" d="M63.239,37.1a6.491,6.491,0,0,0-3.361-4.644,6.594,6.594,0,0,0-2.155-10.981,6.568,6.568,0,0,0-4.413-10.93,6.645,6.645,0,0,0,1.257-5.131A6.671,6.671,0,0,0,47.922,0H27.884a23.63,23.63,0,0,0-9.211,1.873L10.72,7.082A2.566,2.566,0,0,0,9.54,9.237V32.584h0a2.566,2.566,0,0,0,.949,1.77,143.673,143.673,0,0,1,9.185,11.468,38.484,38.484,0,0,1,2.283,3.823,9.365,9.365,0,0,1,.847,2.9,84.664,84.664,0,0,1,.718,9.262,1.283,1.283,0,0,0,.436.949,5.131,5.131,0,0,0,2.566,1.283h.718c4.156,0,7.056-5.567,7.389-6.235a14.368,14.368,0,0,0,1.283-4,18.755,18.755,0,0,0-.616-9.57l21.6.513a6.44,6.44,0,0,0,4.9-2.258A6.645,6.645,0,0,0,63.239,37.1Z" transform="translate(14.936 0)" fill="#fff"/>
      <rect id="Rect치ngulo_1205" data-name="Rect치ngulo 1205" width="20.525" height="41.051" rx="1.5" transform="translate(0 1.283)" fill="#fff"/>
    </g>
  </g>
</svg>
