<svg xmlns="http://www.w3.org/2000/svg" width="45" height="45" viewBox="0 0 45 45">
  <g id="icon-porton" transform="translate(-244 -941)">
    <circle id="Elipse_9" data-name="Elipse 9" cx="22.5" cy="22.5" r="22.5" transform="translate(244 941)" fill="#fff"/>
    <g id="Grupo_580" data-name="Grupo 580" transform="translate(0 1)">
      <path id="Trazado_1649" data-name="Trazado 1649" d="M32.1,17.307a.653.653,0,0,0-.654.654v4.575H30.143V19.268a.653.653,0,0,0-.654-.654,13.206,13.206,0,0,1-5.7-1.321A12.732,12.732,0,0,0,18.379,16a12.732,12.732,0,0,0-5.409,1.293,13.206,13.206,0,0,1-5.7,1.321.653.653,0,0,0-.654.654v3.268H5.307V17.961a.654.654,0,0,0-1.307,0v18.3a.654.654,0,0,0,1.307,0V32.993H6.614v3.268a.653.653,0,0,0,.654.654H29.489a.653.653,0,0,0,.654-.654V32.993H31.45v3.268a.654.654,0,0,0,1.307,0v-18.3a.653.653,0,0,0-.654-.654ZM26.221,19.54V35.607H24.914V19.146C25.325,19.292,25.758,19.425,26.221,19.54Zm-2.614-.9V35.607H22.3V18.1c.328.128.652.263.979.4Zm-5.882,5.208a.653.653,0,0,0-.654.654v3.921a.653.653,0,0,0,.654.654v6.536H15.764V17.657a9.831,9.831,0,0,1,1.961-.3Zm1.307,5.229a.653.653,0,0,0,.654-.654V24.5a.653.653,0,0,0-.654-.654v-6.49a9.831,9.831,0,0,1,1.961.3v17.95H19.032ZM14.457,18.1v17.51H13.15V18.635l.328-.137C13.805,18.359,14.129,18.225,14.457,18.1Zm-2.614,17.51H10.536V19.54c.464-.115.9-.248,1.307-.394ZM5.307,31.686V23.843H6.614v7.843ZM7.921,19.908c.469-.019.9-.065,1.307-.121v15.82H7.921Zm20.914,15.7H27.529V19.787c.41.056.838.1,1.307.121Zm1.307-3.921V23.843H31.45v7.843Z" transform="translate(248.6 938.8)" fill="#4a4a4a"/>
      <g id="icon-arrow-r" transform="translate(238 -34.758)">
        <path id="Trazado_1636" data-name="Trazado 1636" d="M32.853,985.254l-2.228-2.705a.488.488,0,0,0-.674-.067.5.5,0,0,0-.067.674l1.586,1.925H25.477a.477.477,0,1,0,0,.955H31.47l-1.586,1.925a.5.5,0,0,0,.067.674.488.488,0,0,0,.674-.067l2.228-2.705A.494.494,0,0,0,32.853,985.254Z" transform="translate(0 0)" fill="#4a4a4a"/>
      </g>
    </g>
  </g>
</svg>
