<svg xmlns="http://www.w3.org/2000/svg" width="103" height="87.003" viewBox="0 0 103 87.003">
  <g id="img-comision" transform="translate(22 3)">
    <g id="Grupo_376" data-name="Grupo 376" transform="translate(-22 -6)" opacity="0.4">
      <path id="Trazado_1375" data-name="Trazado 1375" d="M186.145,218.877a2.728,2.728,0,1,0,2.728,2.728A2.728,2.728,0,0,0,186.145,218.877Zm0,3.832a1.1,1.1,0,1,1,1.1-1.1A1.1,1.1,0,0,1,186.145,222.709Z" transform="translate(-168.951 -152.369)" fill="#00be62"/>
      <path id="Trazado_1376" data-name="Trazado 1376" d="M302.892,236.507a2.728,2.728,0,1,0,2.728,2.728A2.728,2.728,0,0,0,302.892,236.507Zm0,3.832a1.1,1.1,0,1,1,1.1-1.1A1.1,1.1,0,0,1,302.892,240.339Z" transform="translate(-214.595 -151.96)" fill="#00be62"/>
      <path id="Trazado_1377" data-name="Trazado 1377" d="M338.917,168.839a2.089,2.089,0,1,0,2.089,2.089A2.089,2.089,0,0,0,338.917,168.839Zm0,2.934a.845.845,0,1,1,.845-.845A.845.845,0,0,1,338.917,171.773Z" transform="translate(-238.006 -131.663)" fill="#00be62"/>
      <path id="Trazado_1378" data-name="Trazado 1378" d="M280.108,115.477a2.208,2.208,0,1,0,2.208,2.208A2.208,2.208,0,0,0,280.108,115.477Zm0,3.1a.894.894,0,1,1,.894-.894A.894.894,0,0,1,280.108,118.58Z" transform="translate(-204.272 -109.715)" fill="#00be62"/>
      <path id="Trazado_1379" data-name="Trazado 1379" d="M167.222,197.656a2.322,2.322,0,1,0,2.322,2.322A2.322,2.322,0,0,0,167.222,197.656Z" transform="translate(-155.029 -148.436)" fill="#00be62"/>
      <path id="Trazado_1380" data-name="Trazado 1380" d="M316.376,209.931a1.689,1.689,0,1,0,1.689,1.689A1.689,1.689,0,0,0,316.376,209.931Z" transform="translate(-218.024 -147.025)" fill="#00be62"/>
      <path id="Trazado_1381" data-name="Trazado 1381" d="M226.594,116.586a2.468,2.468,0,1,0,2.468,2.468A2.468,2.468,0,0,0,226.594,116.586Z" transform="translate(-209.17 -111.129)" fill="#00be62"/>
      <path id="Trazado_1383" data-name="Trazado 1383" d="M303.512,131.79a2.111,2.111,0,1,0,2.111,2.111A2.111,2.111,0,0,0,303.512,131.79Z" transform="translate(-213.058 -115.813)" fill="#00be62"/>
      <circle id="Elipse_13" data-name="Elipse 13" cx="1.202" cy="1.202" r="1.202" transform="translate(26.477 46.39)" fill="#00be62"/>
      <path id="Trazado_1384" data-name="Trazado 1384" d="M340.105,152.026a2.05,2.05,0,1,0,2.05,2.051A2.05,2.05,0,0,0,340.105,152.026Z" transform="translate(-254.76 -113.378)" fill="#00be62"/>
      <circle id="Elipse_14" data-name="Elipse 14" cx="1.308" cy="1.308" r="1.308" transform="translate(2.733 39.496)" fill="#00be62"/>
      <path id="Trazado_1385" data-name="Trazado 1385" d="M252.734,108.346l.822-.822a.732.732,0,1,0-1.035-1.036l-.822.822-.822-.822a.732.732,0,1,0-1.036,1.036l.822.822-.822.822a.732.732,0,1,0,1.036,1.036l.822-.822.822.822a.732.732,0,1,0,1.035-1.036Z" transform="translate(-194.703 -103.275)" fill="#00be62"/>
      <path id="Trazado_1386" data-name="Trazado 1386" d="M163.421,148l.822-.822a.732.732,0,0,0-1.036-1.036l-.822.822-.822-.822a.732.732,0,0,0-1.036,1.036l.822.822-.822.822a.732.732,0,0,0,1.036,1.036l.822-.822.822.822a.732.732,0,0,0,1.036-1.036Z" transform="translate(-160.315 -121.097)" fill="#00be62"/>
      <path id="Trazado_1387" data-name="Trazado 1387" d="M318.452,228.3l.7-.7a.62.62,0,0,0-.877-.877l-.7.7-.7-.7a.62.62,0,1,0-.877.877l.7.7-.7.7a.62.62,0,1,0,.877.877l.7-.7.7.7a.62.62,0,0,0,.877-.877Z" transform="translate(-218.449 -151.237)" fill="#00be62"/>
    </g>
    <g id="noun_commission_2070169" transform="translate(-0.536 7)">
      <path id="Trazado_1431" data-name="Trazado 1431" d="M50.594,47.625V33.867A17.221,17.221,0,0,0,39.339,17.741l3.633-8.175a1.076,1.076,0,0,0-.723-1.48l-2.318-.581a6.617,6.617,0,0,0-4.554.5,4.5,4.5,0,0,1-1.993.469v2.151a6.654,6.654,0,0,0,2.954-.7,4.46,4.46,0,0,1,3.07-.338l1.076.27-3.227,7.253a17.132,17.132,0,0,0-3.872-.457v2.151A15.075,15.075,0,0,1,48.443,33.867V47.2a13.4,13.4,0,0,0-7.89,1.573l-.272.148H32.309a4.3,4.3,0,0,0-4.152,5.43l-8.68-3.98a4.1,4.1,0,0,0-1.151-.312v-16.2a15.073,15.073,0,0,1,.538-4.015l-2.074-.574a17.241,17.241,0,0,0-.615,4.59V50.346a4.039,4.039,0,0,0-2.188,2.229,4.1,4.1,0,0,0,1.7,5.055l12.381,7.429a7.529,7.529,0,0,0,3.872,1.076H65.652V63.983h-9.68V52.152h9.68V50H55.263a13.457,13.457,0,0,0-4.669-2.376Zm-21.415,15.6L16.8,55.788a1.957,1.957,0,0,1-.813-2.415,1.928,1.928,0,0,1,2.6-1.039l11.128,5.1a1.068,1.068,0,0,0,.447.1H40.913a1.076,1.076,0,0,0,0-2.151h-8.6a2.151,2.151,0,0,1,0-4.3h8.247a1.076,1.076,0,0,0,.515-.131l.512-.28a11.214,11.214,0,0,1,12.238.928v12.39H31.945a5.378,5.378,0,0,1-2.766-.767Z" transform="translate(0.884 0.401)" fill="#00a82d" stroke="#00a82d" stroke-width="0.5"/>
      <rect id="Rect치ngulo_1147" data-name="Rect치ngulo 1147" width="2.151" height="2.151" transform="translate(59.007 60.082)" fill="#00a82d" stroke="#00a82d" stroke-width="0.5"/>
      <path id="Trazado_1432" data-name="Trazado 1432" d="M31.3,24v2.151h-.568a3.734,3.734,0,0,0-1.67,7.075l5.666,2.832a1.583,1.583,0,0,1-.709,3H28.076V41.21H31.3v2.151h2.151V41.21h.568a3.734,3.734,0,0,0,1.67-7.075L30.026,31.3a1.583,1.583,0,0,1,.709-3h5.946V26.151H33.454V24Z" transform="translate(1.89 1.663)" fill="#00a82d" stroke="#00a82d" stroke-width="0.5"/>
      <path id="Trazado_1433" data-name="Trazado 1433" d="M14.549,23.512l8.318,6.238a1.076,1.076,0,0,0,1.706-1.037l-.866-5.2h3.032a5.384,5.384,0,0,0,5.378-5.378V7.378A5.384,5.384,0,0,0,26.739,2H7.378A5.384,5.384,0,0,0,2,7.378V18.134a5.384,5.384,0,0,0,5.378,5.378Zm-10.4-5.378V7.378A3.227,3.227,0,0,1,7.378,4.151H26.739a3.227,3.227,0,0,1,3.227,3.227V18.134a3.227,3.227,0,0,1-3.227,3.227h-4.3a1.076,1.076,0,0,0-1.061,1.252l.63,3.8-6.454-4.84a1.076,1.076,0,0,0-.645-.215H7.378a3.227,3.227,0,0,1-3.227-3.227Z" fill="#00a82d" stroke="#00a82d" stroke-width="0.5"/>
      <rect id="Rect치ngulo_1148" data-name="Rect치ngulo 1148" width="15.211" height="2.151" transform="translate(10.92 17.373) rotate(-45)" fill="#00a82d" stroke="#00a82d" stroke-width="0.5"/>
      <path id="Trazado_1434" data-name="Trazado 1434" d="M11.227,12.454A3.227,3.227,0,1,0,8,9.227,3.227,3.227,0,0,0,11.227,12.454Zm0-4.3a1.076,1.076,0,1,1-1.076,1.076A1.076,1.076,0,0,1,11.227,8.151Z" transform="translate(0.454 0.302)" fill="#00a82d" stroke="#00a82d" stroke-width="0.5"/>
      <path id="Trazado_1435" data-name="Trazado 1435" d="M18,15.227A3.227,3.227,0,1,0,21.227,12,3.227,3.227,0,0,0,18,15.227Zm4.3,0a1.076,1.076,0,1,1-1.076-1.076A1.076,1.076,0,0,1,22.3,15.227Z" transform="translate(1.21 0.756)" fill="#00a82d" stroke="#00a82d" stroke-width="0.5"/>
      <path id="Trazado_1436" data-name="Trazado 1436" d="M2,66.385,63.847,4" transform="translate(0 0.151)" fill="none" stroke="#00a82d" stroke-width="3"/>
    </g>
  </g>
</svg>
