<svg xmlns="http://www.w3.org/2000/svg" width="115.395" height="87.003" viewBox="0 0 115.395 87.003">
  <g id="img-flexible" transform="translate(22 6)">
    <g id="Grupo_376" data-name="Grupo 376" transform="translate(-22 -6)" opacity="0.4">
      <path id="Trazado_1375" data-name="Trazado 1375" d="M186.145,218.877a2.728,2.728,0,1,0,2.728,2.728A2.728,2.728,0,0,0,186.145,218.877Zm0,3.832a1.1,1.1,0,1,1,1.1-1.1A1.1,1.1,0,0,1,186.145,222.709Z" transform="translate(-168.951 -148.369)" fill="#00be62"/>
      <path id="Trazado_1376" data-name="Trazado 1376" d="M302.892,236.507a2.728,2.728,0,1,0,2.728,2.728A2.728,2.728,0,0,0,302.892,236.507Zm0,3.832a1.1,1.1,0,1,1,1.1-1.1A1.1,1.1,0,0,1,302.892,240.339Z" transform="translate(-212.595 -154.96)" fill="#00be62"/>
      <path id="Trazado_1377" data-name="Trazado 1377" d="M338.917,168.839a2.089,2.089,0,1,0,2.089,2.089A2.089,2.089,0,0,0,338.917,168.839Zm0,2.934a.845.845,0,1,1,.845-.845A.845.845,0,0,1,338.917,171.773Z" transform="translate(-226.302 -129.663)" fill="#00be62"/>
      <path id="Trazado_1378" data-name="Trazado 1378" d="M280.108,115.477a2.208,2.208,0,1,0,2.208,2.208A2.208,2.208,0,0,0,280.108,115.477Zm0,3.1a.894.894,0,1,1,.894-.894A.894.894,0,0,1,280.108,118.58Z" transform="translate(-204.272 -109.715)" fill="#00be62"/>
      <path id="Trazado_1379" data-name="Trazado 1379" d="M167.222,197.656a2.322,2.322,0,1,0,2.322,2.322A2.322,2.322,0,0,0,167.222,197.656Z" transform="translate(-162.029 -140.436)" fill="#00be62"/>
      <path id="Trazado_1380" data-name="Trazado 1380" d="M316.376,209.931a1.689,1.689,0,1,0,1.689,1.689A1.689,1.689,0,0,0,316.376,209.931Z" transform="translate(-218.024 -145.025)" fill="#00be62"/>
      <path id="Trazado_1381" data-name="Trazado 1381" d="M226.594,116.586a2.468,2.468,0,1,0,2.468,2.468A2.468,2.468,0,0,0,226.594,116.586Z" transform="translate(-184.17 -110.129)" fill="#00be62"/>
      <path id="Trazado_1383" data-name="Trazado 1383" d="M303.512,131.79a2.111,2.111,0,1,0,2.111,2.111A2.111,2.111,0,0,0,303.512,131.79Z" transform="translate(-213.058 -115.813)" fill="#00be62"/>
      <circle id="Elipse_13" data-name="Elipse 13" cx="1.202" cy="1.202" r="1.202" transform="translate(14.477 32.39)" fill="#00be62"/>
      <path id="Trazado_1384" data-name="Trazado 1384" d="M340.105,152.026a2.05,2.05,0,1,0,2.05,2.051A2.05,2.05,0,0,0,340.105,152.026Z" transform="translate(-226.76 -123.378)" fill="#00be62"/>
      <circle id="Elipse_14" data-name="Elipse 14" cx="1.308" cy="1.308" r="1.308" transform="translate(2.733 39.496)" fill="#00be62"/>
      <path id="Trazado_1385" data-name="Trazado 1385" d="M252.734,108.346l.822-.822a.732.732,0,1,0-1.035-1.036l-.822.822-.822-.822a.732.732,0,1,0-1.036,1.036l.822.822-.822.822a.732.732,0,1,0,1.036,1.036l.822-.822.822.822a.732.732,0,1,0,1.035-1.036Z" transform="translate(-193.703 -106.275)" fill="#00be62"/>
      <path id="Trazado_1386" data-name="Trazado 1386" d="M163.421,148l.822-.822a.732.732,0,0,0-1.036-1.036l-.822.822-.822-.822a.732.732,0,0,0-1.036,1.036l.822.822-.822.822a.732.732,0,0,0,1.036,1.036l.822-.822.822.822a.732.732,0,0,0,1.036-1.036Z" transform="translate(-160.315 -121.097)" fill="#00be62"/>
      <path id="Trazado_1387" data-name="Trazado 1387" d="M318.452,228.3l.7-.7a.62.62,0,0,0-.877-.877l-.7.7-.7-.7a.62.62,0,1,0-.877.877l.7.7-.7.7a.62.62,0,1,0,.877.877l.7-.7.7.7a.62.62,0,0,0,.877-.877Z" transform="translate(-218.449 -151.237)" fill="#00be62"/>
      <circle id="Elipse_24" data-name="Elipse 24" cx="1.202" cy="1.202" r="1.202" transform="translate(25.477 54.39)" fill="#00be62"/>
      <circle id="Elipse_25" data-name="Elipse 25" cx="1.202" cy="1.202" r="1.202" transform="translate(93.477 42.39)" fill="#00be62"/>
    </g>
    <g id="noun_Check_998567" transform="translate(7 6)">
      <g id="Grupo_488" data-name="Grupo 488" transform="translate(9 3)">
        <path id="Trazado_1444" data-name="Trazado 1444" d="M41.039,8h9a2.565,2.565,0,0,1,2.565,2.565V58.022a2.565,2.565,0,0,1-2.565,2.565H11.565A2.565,2.565,0,0,1,9,58.022V10.565A2.565,2.565,0,0,1,11.565,8h8.978" transform="translate(-9 -1.587)" fill="none" stroke="#00a82c" stroke-miterlimit="10" stroke-width="2.5"/>
        <path id="Trazado_1445" data-name="Trazado 1445" d="M13,20.848l2.565,2.565L23.261,17" transform="translate(-7.87 0.957)" fill="none" stroke="#00a82c" stroke-miterlimit="10" stroke-width="2.5"/>
        <path id="Trazado_1446" data-name="Trazado 1446" d="M13,30.848l2.565,2.565L23.261,27" transform="translate(-7.87 3.783)" fill="none" stroke="#00a82c" stroke-miterlimit="10" stroke-width="2.5"/>
        <path id="Trazado_1447" data-name="Trazado 1447" d="M13,40.848l2.565,2.565L23.261,37" transform="translate(-7.87 6.609)" fill="none" stroke="#00a82c" stroke-miterlimit="10" stroke-width="2.5"/>
        <line id="Línea_54" data-name="Línea 54" x2="16.674" transform="translate(21.804 19.239)" fill="none" stroke="#00a82c" stroke-miterlimit="10" stroke-width="2.5"/>
        <line id="Línea_55" data-name="Línea 55" x2="16.674" transform="translate(21.804 32.065)" fill="none" stroke="#00a82c" stroke-miterlimit="10" stroke-width="2.5"/>
        <line id="Línea_56" data-name="Línea 56" x2="16.674" transform="translate(21.804 44.891)" fill="none" stroke="#00a82c" stroke-miterlimit="10" stroke-width="2.5"/>
        <line id="Línea_57" data-name="Línea 57" x2="16.674" transform="translate(21.804 24.37)" fill="none" stroke="#00a82c" stroke-miterlimit="10" stroke-width="2.5"/>
        <line id="Línea_58" data-name="Línea 58" x2="16.674" transform="translate(21.804 37.196)" fill="none" stroke="#00a82c" stroke-miterlimit="10" stroke-width="2.5"/>
        <line id="Línea_59" data-name="Línea 59" x2="16.674" transform="translate(21.804 50.022)" fill="none" stroke="#00a82c" stroke-miterlimit="10" stroke-width="2.5"/>
        <path id="Trazado_1448" data-name="Trazado 1448" d="M35.957,5.565H32.318A2.034,2.034,0,0,1,30.54,4.386a2.566,2.566,0,0,0-4.558,0A2.034,2.034,0,0,1,24.2,5.565H20.565A2.565,2.565,0,0,0,18,8.13v5.13H38.522V8.13A2.565,2.565,0,0,0,35.957,5.565Z" transform="translate(-6.457 -3)" fill="none" stroke="#00a82c" stroke-miterlimit="10" stroke-width="2.5"/>
      </g>
    </g>
  </g>
</svg>
