<svg xmlns="http://www.w3.org/2000/svg" width="404" height="386.02" viewBox="0 0 404 386.02">
  <g id="img-Mail" transform="translate(-160.315 -102.301)">
    <g id="Grupo_375" data-name="Grupo 375" transform="translate(163.877 102.301)">
      <g id="Grupo_364" data-name="Grupo 364" transform="translate(3.581)">
        <path id="Trazado_1388" data-name="Trazado 1388" d="M136.479,0A136.479,136.479,0,1,1,0,136.479,136.479,136.479,0,0,1,136.479,0Z" transform="translate(0 193.01) rotate(-45)" fill="#4a4a4a"/>
      </g>
      <g id="Grupo_374" data-name="Grupo 374" transform="translate(0 17.906)">
        <g id="Grupo_365" data-name="Grupo 365" transform="translate(2.348)">
          <path id="Trazado_1354" data-name="Trazado 1354" d="M163.011,110.469l40.05,93.97,29.272-20.025L249.3,209.063l3.061-41.58L287.783,145.9Z" transform="translate(-163.011 -110.469)" fill="#ffab00"/>
          <path id="Trazado_1355" data-name="Trazado 1355" d="M220.931,167.244,185.17,191.717l29.272-20.025,16.964,24.649,3.061-41.58-56.45-33.619Z" transform="translate(-145.12 -97.746)" fill="#ff9433"/>
          <path id="Trazado_1356" data-name="Trazado 1356" d="M233.717,164.952l-55.7-43.811,56.45,33.619Z" transform="translate(-145.12 -97.746)" fill="#f73"/>
        </g>
        <g id="Grupo_366" data-name="Grupo 366" transform="translate(34.408 104.15)">
          <path id="Trazado_1357" data-name="Trazado 1357" d="M203.345,164.143c-.316-1.83-.717-3.657-1.19-5.43l2.747-.734c.5,1.855.914,3.766,1.245,5.68Z" transform="translate(-148.402 -157.978)" fill="#00a82d"/>
          <path id="Trazado_1358" data-name="Trazado 1358" d="M199.415,218.565A23.494,23.494,0,0,1,188,214.754l1.572-2.368a20.666,20.666,0,0,0,10.034,3.341Zm11.809-2.319-1.254-2.55a28.615,28.615,0,0,0,8.5-6.7l2.115,1.9A31.337,31.337,0,0,1,211.224,216.245Zm-31.138-10.569a23.442,23.442,0,0,1-2.451-10.33c0-.287.007-.577.018-.864l.035-.616,2.835.208-.029.517c-.009.257-.015.506-.015.754a20.561,20.561,0,0,0,2.157,9.071Zm109.994-.649-.013-2.843c3.7-.018,7.513-.169,11.325-.449l.208,2.835C297.725,204.857,293.849,205.01,290.08,205.028Zm-11.531-.373-1.815-.14c-3.494-.292-6.662-.684-9.681-1.208l.482-2.8c2.938.509,6.024.892,9.433,1.177l1.778.134Zm34.505-1.293-.384-2.817c3.657-.5,7.425-1.12,11.2-1.848l.537,2.791C320.585,202.226,316.764,202.857,313.055,203.361Zm-57.3-2.874a55.065,55.065,0,0,1-9.313-4.126c-.445-.25-.89-.511-1.328-.776l1.469-2.436c.414.25.831.5,1.254.732a52.237,52.237,0,0,0,8.835,3.915Zm-28.372-1.131-2.466-1.416a63.84,63.84,0,0,0,4.689-10.139l2.675.965A66.945,66.945,0,0,1,227.385,199.356Zm108.263-.316-.669-2.762c3.556-.864,7.256-1.844,11-2.913l.783,2.734C342.979,197.179,339.243,198.168,335.648,199.041Zm22.091-6.3-.877-2.705q5.419-1.756,10.786-3.668l.951,2.681Q363.2,190.97,357.739,192.745ZM235.624,189a78.688,78.688,0,0,0-8.464-5.568l-.951-.5,1.3-2.528c.34.173.677.355,1.013.537A82.346,82.346,0,0,1,237.3,186.7Zm-51.118-4.275-1.988-2.032a24.286,24.286,0,0,1,10.463-5.614l.956,2.681C189.758,180.981,186.638,182.634,184.505,184.723Zm31.318-5.551a45.168,45.168,0,0,0-9.852-1.09l-1.153.013-.07-2.841a48.092,48.092,0,0,1,11.7,1.144Zm19.463-1.675-2.8-.5a66,66,0,0,0,1.008-11.132l2.843.013A68.762,68.762,0,0,1,235.286,177.5Z" transform="translate(-177.635 -148.571)" fill="#00a82d"/>
          <path id="Trazado_1359" data-name="Trazado 1359" d="M270.259,177.175l-1.011-2.657q2.654-1.013,5.3-2.05l1.033,2.65Q272.928,176.154,270.259,177.175Z" transform="translate(-68.413 -140.703)" fill="#00c8b7"/>
        </g>
        <path id="Trazado_1360" data-name="Trazado 1360" d="M312.081,222.4a2.842,2.842,0,0,1-.274-5.671,67.533,67.533,0,0,0,44.509-23.1,2.842,2.842,0,0,1,4.286,3.733,73.164,73.164,0,0,1-48.244,25.02Q312.216,222.4,312.081,222.4Z" transform="translate(13.674 -12.487)" fill="#00a82d"/>
        <g id="Grupo_370" data-name="Grupo 370" transform="translate(93.019 79.801)">
          <g id="Grupo_369" data-name="Grupo 369">
            <path id="Trazado_1361" data-name="Trazado 1361" d="M402.457,248.676l-99.044,58.407-99.042-58.407a.567.567,0,0,1,.015-.16c.081-.371,5.548-4.935,13.885-11.709.079-.064.145-.127.226-.193,27.348-22.2,84.916-67.678,84.916-67.678s57.57,45.473,84.918,67.678c8.466,6.87,14.03,11.514,14.111,11.9A.565.565,0,0,1,402.457,248.676Z" transform="translate(-204.371 -120.565)" fill="#7a4c08"/>
            <g id="Grupo_367" data-name="Grupo 367" transform="translate(16.317)">
              <path id="Trazado_1362" data-name="Trazado 1362" d="M335.273,146.871H228.411a16.6,16.6,0,0,0-16.6,16.6V325.041a16.6,16.6,0,0,0,16.6,16.6h133.9a16.6,16.6,0,0,0,16.6-16.6V190.507Z" transform="translate(-211.814 -146.871)" fill="#fff"/>
              <path id="Trazado_1363" data-name="Trazado 1363" d="M268.131,173.912a16.6,16.6,0,0,0,16.6,16.6h27.039l-43.636-43.636Z" transform="translate(-144.672 -146.871)" fill="#e6e8e8"/>
              <rect id="Rectángulo_673" data-name="Rectángulo 673" width="48.692" height="48.692" rx="2.697" transform="translate(25.278 27.312)" fill="#f5f5f5"/>
              <path id="Trazado_1364" data-name="Trazado 1364" d="M316.6,187.713H228.135a4.764,4.764,0,0,0-4.764,4.764h0a4.764,4.764,0,0,0,4.764,4.764H316.6a4.764,4.764,0,0,0,4.764-4.764h0A4.764,4.764,0,0,0,316.6,187.713Z" transform="translate(-198.036 -98.179)" fill="#d9dbdb"/>
              <path id="Trazado_1365" data-name="Trazado 1365" d="M316.6,198.537H228.135a4.764,4.764,0,0,0-4.764,4.764h0a4.764,4.764,0,0,0,4.764,4.764H316.6a4.764,4.764,0,0,0,4.764-4.764h0A4.764,4.764,0,0,0,316.6,198.537Z" transform="translate(-198.036 -85.274)" fill="#d9dbdb"/>
              <path id="Trazado_1366" data-name="Trazado 1366" d="M276.423,209.037H228.135a4.764,4.764,0,0,0-4.764,4.764h0a4.764,4.764,0,0,0,4.764,4.764h48.288a4.764,4.764,0,0,0,4.764-4.764h0A4.764,4.764,0,0,0,276.423,209.037Z" transform="translate(-198.036 -72.756)" fill="#d9dbdb"/>
            </g>
            <g id="Grupo_368" data-name="Grupo 368" transform="translate(0.011 128.109)">
              <path id="Trazado_1367" data-name="Trazado 1367" d="M402.462,205.309v95.019a12.1,12.1,0,0,1-12.07,12.068H216.413a12.072,12.072,0,0,1-12.037-12.068V205.309l99.042,58.4Z" transform="translate(-204.376 -205.309)" fill="#ffab00"/>
              <path id="Trazado_1368" data-name="Trazado 1368" d="M397.3,287.105l-63.747-63.747L301.607,242.2l-31.96-18.844L205.9,287.1a11.961,11.961,0,0,0,8.707,3.784H388.581A12.008,12.008,0,0,0,397.3,287.105Z" transform="translate(-202.565 -183.799)" fill="#ff9433"/>
            </g>
          </g>
        </g>
        <g id="Grupo_373" data-name="Grupo 373" transform="translate(257.638 77.175)">
          <g id="Grupo_372" data-name="Grupo 372">
            <path id="Trazado_1369" data-name="Trazado 1369" d="M332.946,145.969a59.748,59.748,0,0,0-53.328,54.876,59.08,59.08,0,0,0,10.437,38.118,14.43,14.43,0,0,1,1.374,13.754l-4.7,11.321,19.219-4.983a14.487,14.487,0,0,1,9.409.728,59.5,59.5,0,1,0,17.59-113.813Z" transform="translate(-279.463 -145.673)" fill="#00a82d"/>
            <path id="Trazado_1393" data-name="Trazado 1393" d="M544.544,227.663,517.15,207.925a2,2,0,0,0-2.32-.011l-27.985,19.738a1.994,1.994,0,0,0-.845,1.631v18.559a5.537,5.537,0,0,0,5.532,5.532h5.73a18.681,18.681,0,0,0,4.167,8.332,2.1,2.1,0,0,0,.285.367l12.548,12.789a2,2,0,0,0,2.851,0l12.547-12.789a1.342,1.342,0,0,0,.225-.288,18.837,18.837,0,0,0,4.226-8.411h5.73a5.538,5.538,0,0,0,5.532-5.532V229.282A2,2,0,0,0,544.544,227.663Zm-28.268,25.711a2,2,0,1,0,0-3.995H500.826a14.86,14.86,0,1,1,25.893,9.955.594.594,0,0,0-.109.142l-10.924,11.135-10.864-11.063a1.815,1.815,0,0,0-.168-.214,14.829,14.829,0,0,1-3.265-5.961Zm25.1-5.532a1.538,1.538,0,0,1-1.537,1.538h-5.3a18.854,18.854,0,1,0-37.708,0h-5.3a1.539,1.539,0,0,1-1.537-1.538V230.318L515.97,212,541.379,230.3Z" transform="translate(-456.573 -179.192)" fill="#fff"/>
          </g>
        </g>
      </g>
    </g>
    <g id="Grupo_376" data-name="Grupo 376" transform="translate(160.315 111.012)" opacity="0.4">
      <path id="Trazado_1375" data-name="Trazado 1375" d="M192.968,218.877a9.55,9.55,0,1,0,9.549,9.551A9.55,9.55,0,0,0,192.968,218.877Zm0,13.416a3.866,3.866,0,1,1,3.865-3.865A3.866,3.866,0,0,1,192.968,232.293Z" transform="translate(-132.772 27.971)" fill="#00be62"/>
      <path id="Trazado_1376" data-name="Trazado 1376" d="M309.715,236.507a9.55,9.55,0,1,0,9.549,9.549A9.549,9.549,0,0,0,309.715,236.507Zm0,13.416a3.866,3.866,0,1,1,3.865-3.867A3.868,3.868,0,0,1,309.715,249.923Z" transform="translate(6.416 48.99)" fill="#00be62"/>
      <path id="Trazado_1377" data-name="Trazado 1377" d="M344.14,168.839a7.313,7.313,0,1,0,7.313,7.313A7.312,7.312,0,0,0,344.14,168.839Zm0,10.273a2.959,2.959,0,1,1,2.96-2.959A2.96,2.96,0,0,1,344.14,179.112Z" transform="translate(50.128 -31.685)" fill="#00be62"/>
      <path id="Trazado_1378" data-name="Trazado 1378" d="M285.632,115.477a7.732,7.732,0,1,0,7.732,7.732A7.732,7.732,0,0,0,285.632,115.477Zm0,10.862a3.129,3.129,0,1,1,3.128-3.13A3.13,3.13,0,0,1,285.632,126.339Z" transform="translate(-20.128 -95.304)" fill="#00be62"/>
      <path id="Trazado_1379" data-name="Trazado 1379" d="M173.029,197.656a8.129,8.129,0,1,0,8.131,8.129A8.128,8.128,0,0,0,173.029,197.656Z" transform="translate(-154.848 2.671)" fill="#00be62"/>
      <path id="Trazado_1380" data-name="Trazado 1380" d="M320.6,209.931a5.912,5.912,0,1,0,5.912,5.912A5.912,5.912,0,0,0,320.6,209.931Z" transform="translate(23.73 17.306)" fill="#00be62"/>
      <path id="Trazado_1381" data-name="Trazado 1381" d="M232.768,116.586a8.642,8.642,0,1,0,8.642,8.642A8.642,8.642,0,0,0,232.768,116.586Z" transform="translate(-84.238 -93.982)" fill="#00be62"/>
      <path id="Trazado_1383" data-name="Trazado 1383" d="M308.791,131.79a7.391,7.391,0,1,0,7.392,7.392A7.391,7.391,0,0,0,308.791,131.79Z" transform="translate(7.891 -75.855)" fill="#00be62"/>
      <circle id="Elipse_13" data-name="Elipse 13" cx="4.207" cy="4.207" r="4.207" transform="translate(50.685 113.396)" fill="#00be62"/>
      <path id="Trazado_1384" data-name="Trazado 1384" d="M345.232,152.026a7.177,7.177,0,1,0,7.177,7.18A7.178,7.178,0,0,0,345.232,152.026Z" transform="translate(51.59 -51.729)" fill="#00be62"/>
      <circle id="Elipse_14" data-name="Elipse 14" cx="4.58" cy="4.58" r="4.58" transform="translate(9.569 138.277)" fill="#00be62"/>
      <path id="Trazado_1385" data-name="Trazado 1385" d="M260.5,113.525l2.876-2.876a2.563,2.563,0,0,0-3.624-3.626l-2.876,2.876L254,107.023a2.564,2.564,0,0,0-3.626,3.626l2.876,2.876-2.876,2.876A2.564,2.564,0,0,0,254,120.027l2.876-2.876,2.876,2.876a2.563,2.563,0,0,0,3.624-3.626Z" transform="translate(-53.834 -106.275)" fill="#00be62"/>
      <path id="Trazado_1386" data-name="Trazado 1386" d="M171.191,153.175l2.876-2.876a2.564,2.564,0,0,0-3.626-3.626l-2.876,2.876-2.876-2.876a2.564,2.564,0,0,0-3.626,3.626l2.876,2.876-2.876,2.876a2.564,2.564,0,1,0,3.626,3.626l2.876-2.876,2.876,2.876a2.564,2.564,0,1,0,3.626-3.626Z" transform="translate(-160.315 -59.003)" fill="#00be62"/>
      <path id="Trazado_1387" data-name="Trazado 1387" d="M325.032,232.688l2.438-2.436a2.172,2.172,0,0,0-3.071-3.071l-2.436,2.436-2.436-2.436a2.172,2.172,0,0,0-3.071,3.071l2.436,2.436-2.436,2.436a2.172,2.172,0,0,0,3.071,3.071l2.436-2.436,2.436,2.436a2.172,2.172,0,0,0,3.071-3.071Z" transform="translate(25.083 37.117)" fill="#00be62"/>
    </g>
  </g>
</svg>
