<svg xmlns="http://www.w3.org/2000/svg" width="176" height="50.585" viewBox="0 0 176 50.585">
  <g id="Logo" transform="translate(-674.766 -556.514)">
    <g id="Grupo_61" data-name="Grupo 61" transform="translate(674.766 556.514)">
      <path id="Trazado_1313" data-name="Trazado 1313" d="M529.609,222.53l-20.406-14.7a1.49,1.49,0,0,0-1.728-.008l-20.846,14.7a1.485,1.485,0,0,0-.63,1.215v13.824a4.125,4.125,0,0,0,4.121,4.121h4.268a13.915,13.915,0,0,0,3.1,6.206,1.563,1.563,0,0,0,.212.273l9.347,9.526a1.487,1.487,0,0,0,2.124,0l9.346-9.526a1,1,0,0,0,.168-.215,14.03,14.03,0,0,0,3.148-6.265h4.268a4.125,4.125,0,0,0,4.121-4.121V223.737A1.489,1.489,0,0,0,529.609,222.53Zm-21.057,19.151a1.488,1.488,0,1,0,0-2.975H497.044a11.069,11.069,0,1,1,19.288,7.415.443.443,0,0,0-.082.106l-8.137,8.294-8.093-8.24a1.348,1.348,0,0,0-.125-.16,11.045,11.045,0,0,1-2.432-4.44Zm18.7-4.121a1.146,1.146,0,0,1-1.145,1.145h-3.948a14.044,14.044,0,0,0-28.088,0h-3.949a1.147,1.147,0,0,1-1.145-1.145V224.508l19.349-13.645L527.251,224.5Z" transform="translate(-486 -207.548)" fill="#00a82d"/>
      <g id="Grupo_60" data-name="Grupo 60" transform="translate(54.176 8.075)">
        <path id="Trazado_1314" data-name="Trazado 1314" d="M547.181,217.4a8.875,8.875,0,0,0-3.239-1.746,15.167,15.167,0,0,0-4.5-.6h-7.789a.48.48,0,0,0-.48.48v26.386a.481.481,0,0,0,.48.48h3.555a.48.48,0,0,0,.478-.48v-9.39h3.756a13.8,13.8,0,0,0,4.369-.642,9.277,9.277,0,0,0,3.25-1.818,7.764,7.764,0,0,0,2.011-2.805,9.092,9.092,0,0,0,.682-3.557,9.6,9.6,0,0,0-.632-3.546A7.146,7.146,0,0,0,547.181,217.4Zm-7.738,11.333h-3.756v-9.9h3.756a6.381,6.381,0,0,1,4.382,1.293,4.569,4.569,0,0,1,1.4,3.586,5.487,5.487,0,0,1-.372,2.051,4.229,4.229,0,0,1-1.076,1.564,5.032,5.032,0,0,1-1.794,1.033A7.766,7.766,0,0,1,539.443,228.729Z" transform="translate(-531.174 -214.129)" fill="#3c3b3b"/>
        <path id="Trazado_1315" data-name="Trazado 1315" d="M559.99,221.413a6.06,6.06,0,0,0-5.127,1,8.175,8.175,0,0,0-1.711,1.851l-.107-1.4a1.668,1.668,0,0,0-.413-.969,1.458,1.458,0,0,0-1.074-.342H549.68a.48.48,0,0,0-.48.48v18.654a.48.48,0,0,0,.48.48h3.278a.48.48,0,0,0,.478-.48V228.9a6.961,6.961,0,0,1,1.759-2.624,3.725,3.725,0,0,1,2.55-.878,4.556,4.556,0,0,1,1.342.152,3.222,3.222,0,0,0,.941.2,1.043,1.043,0,0,0,1.043-.857l.423-2.449a.482.482,0,0,0-.23-.5A5.432,5.432,0,0,0,559.99,221.413Z" transform="translate(-527.582 -212.899)" fill="#3c3b3b"/>
        <path id="Trazado_1316" data-name="Trazado 1316" d="M576.675,224.021a8.313,8.313,0,0,0-2.969-2.052,10.856,10.856,0,0,0-7.75,0,8.371,8.371,0,0,0-2.978,2.051,9.126,9.126,0,0,0-1.887,3.195,13.4,13.4,0,0,0,0,8.267,9.159,9.159,0,0,0,1.887,3.185,8.289,8.289,0,0,0,2.98,2.042,10.968,10.968,0,0,0,7.745,0,8.2,8.2,0,0,0,2.972-2.045,9.1,9.1,0,0,0,1.867-3.185,13.594,13.594,0,0,0,0-8.262A9.086,9.086,0,0,0,576.675,224.021Zm-6.844.768a4.292,4.292,0,0,1,3.737,1.663,10.072,10.072,0,0,1,0,9.79,4.3,4.3,0,0,1-3.738,1.655,5.293,5.293,0,0,1-2.228-.433,4.082,4.082,0,0,1-1.545-1.232,5.555,5.555,0,0,1-.946-2.027,12.6,12.6,0,0,1,0-5.7,5.661,5.661,0,0,1,.947-2.047,4.024,4.024,0,0,1,1.543-1.238A5.275,5.275,0,0,1,569.831,224.788Z" transform="translate(-525.343 -212.892)" fill="#3c3b3b"/>
        <path id="Trazado_1317" data-name="Trazado 1317" d="M594.734,223.708a6.867,6.867,0,0,0-2.376-2.008,6.706,6.706,0,0,0-3.042-.694,7.632,7.632,0,0,0-3.7.869,9.973,9.973,0,0,0-2.112,1.548l-.181-.862a1.432,1.432,0,0,0-.613-.926,1.837,1.837,0,0,0-1.016-.279h-2.781a.479.479,0,0,0-.479.48V246.9a.479.479,0,0,0,.479.48h4.549a.48.48,0,0,0,.48-.48v-6.7a7.05,7.05,0,0,0,1.325.76,7.242,7.242,0,0,0,2.908.529,7.831,7.831,0,0,0,6.295-3,10.122,10.122,0,0,0,1.713-3.285,13.507,13.507,0,0,0,.594-4.067,15.714,15.714,0,0,0-.525-4.247A9.492,9.492,0,0,0,594.734,223.708Zm-3.615,7.426a10.965,10.965,0,0,1-.3,2.724,5.342,5.342,0,0,1-.815,1.835,3.14,3.14,0,0,1-1.232,1.028,4.525,4.525,0,0,1-3.447,0,3.743,3.743,0,0,1-1.387-1.064v-8.128a6.427,6.427,0,0,1,1.635-1.443,4.2,4.2,0,0,1,2.175-.53,3.3,3.3,0,0,1,1.409.287,2.54,2.54,0,0,1,1.013.887,4.963,4.963,0,0,1,.692,1.7A12.2,12.2,0,0,1,591.12,231.134Z" transform="translate(-521.756 -212.942)" fill="#3c3b3b"/>
        <rect id="Rectángulo_729" data-name="Rectángulo 729" width="5.507" height="19.851" rx="0.4" transform="translate(77.797 8.414)" fill="#3c3b3b"/>
        <path id="Trazado_1318" data-name="Trazado 1318" d="M601.311,215.264a3.551,3.551,0,0,0-1.074-.715,3.375,3.375,0,0,0-2.638,0,3.377,3.377,0,0,0-1.776,1.787,3.339,3.339,0,0,0-.269,1.332,3.154,3.154,0,0,0,.271,1.3,3.475,3.475,0,0,0,.716,1.047,3.416,3.416,0,0,0,1.058.717,3.235,3.235,0,0,0,1.307.271,3.356,3.356,0,0,0,1.331-.27,3.572,3.572,0,0,0,1.076-.715,3.527,3.527,0,0,0,.734-1.042,3.063,3.063,0,0,0,.284-1.307,3.256,3.256,0,0,0-.281-1.338A3.458,3.458,0,0,0,601.311,215.264Z" transform="translate(-518.345 -214.282)" fill="#3c3b3b"/>
        <path id="Trazado_1319" data-name="Trazado 1319" d="M619.8,223.22a5.923,5.923,0,0,0-2.172-1.6,7.263,7.263,0,0,0-2.936-.565,8.507,8.507,0,0,0-1.874.2,7.354,7.354,0,0,0-1.624.571,8.936,8.936,0,0,0-1.421.877c-.213.161-.423.331-.627.511l-.149-.7a1.6,1.6,0,0,0-1.615-1.156H604.6a.48.48,0,0,0-.48.48v18.892a.48.48,0,0,0,.48.48h4.548a.48.48,0,0,0,.48-.48V227.258a7.343,7.343,0,0,1,1.693-1.232,4.286,4.286,0,0,1,1.988-.48,2.5,2.5,0,0,1,2.036.777,3.6,3.6,0,0,1,.688,2.37v12.025a.48.48,0,0,0,.48.48h4.548a.48.48,0,0,0,.48-.48V228.694a10.134,10.134,0,0,0-.437-3.044A6.953,6.953,0,0,0,619.8,223.22Z" transform="translate(-516.638 -212.932)" fill="#3c3b3b"/>
        <path id="Trazado_1320" data-name="Trazado 1320" d="M634.815,232.571a4.983,4.983,0,0,0-1.162-1.539,6.458,6.458,0,0,0-1.6-1.035c-.562-.255-1.148-.487-1.739-.688s-1.154-.381-1.711-.549a9.857,9.857,0,0,1-1.412-.534,3.15,3.15,0,0,1-.911-.627.942.942,0,0,1-.263-.691,1.29,1.29,0,0,1,.578-1.106,3.064,3.064,0,0,1,1.834-.477,5.023,5.023,0,0,1,1.367.165,7.773,7.773,0,0,1,1.064.389c.329.152.617.289.866.41a1.8,1.8,0,0,0,1.678.048,1.651,1.651,0,0,0,.55-.574l1.03-1.637a.48.48,0,0,0-.07-.6,8.533,8.533,0,0,0-2.828-1.8,9.967,9.967,0,0,0-3.732-.679,9.811,9.811,0,0,0-3.244.5,7.239,7.239,0,0,0-2.384,1.343,5.69,5.69,0,0,0-1.476,2,5.928,5.928,0,0,0-.5,2.4,5.7,5.7,0,0,0,.438,2.333,5.03,5.03,0,0,0,1.161,1.647,6.3,6.3,0,0,0,1.612,1.085,16.557,16.557,0,0,0,1.765.712c.589.2,1.164.38,1.731.549a9.681,9.681,0,0,1,1.419.533,3.028,3.028,0,0,1,.907.632,1.058,1.058,0,0,1,.267.759,1.709,1.709,0,0,1-.137.669,1.418,1.418,0,0,1-.416.544,2.475,2.475,0,0,1-.8.421,3.971,3.971,0,0,1-1.238.169,4.72,4.72,0,0,1-1.544-.212,7.492,7.492,0,0,1-1.1-.481c-.321-.181-.606-.347-.851-.5a1.847,1.847,0,0,0-2.647.561l-1.049,1.732a.482.482,0,0,0,.09.606,8.2,8.2,0,0,0,1.359.977,10.367,10.367,0,0,0,1.66.774,11.751,11.751,0,0,0,1.863.508,10.9,10.9,0,0,0,2,.184,10.731,10.731,0,0,0,3.383-.494,7.336,7.336,0,0,0,2.53-1.4,6.044,6.044,0,0,0,1.578-2.159,6.774,6.774,0,0,0,.536-2.7A4.906,4.906,0,0,0,634.815,232.571Z" transform="translate(-513.435 -212.932)" fill="#3c3b3b"/>
      </g>
    </g>
  </g>
</svg>
