<svg xmlns="http://www.w3.org/2000/svg" width="281.912" height="79.525" viewBox="0 0 281.912 79.525">
  <g id="Grupo_2256" data-name="Grupo 2256" transform="translate(-129.088 -19.394)">
    <g id="Grupo_2141" data-name="Grupo 2141" transform="translate(131.588 22)">
      <path id="Trazado_1" data-name="Trazado 1" d="M3842.56,255.563H3811.15a3.15,3.15,0,0,1-3.15-3.15V230.369a3.15,3.15,0,0,1,1.4-2.621l31.359-20.905a3.149,3.149,0,0,1,3.563.047l29.541,20.852a3.151,3.151,0,0,1,1.334,2.574v22.1a3.15,3.15,0,0,1-3.15,3.15h-10.29" transform="translate(-3808 -206.314)" fill="none" stroke="#fff" stroke-linecap="round" stroke-miterlimit="10" stroke-width="5"/>
      <path id="Trazado_2" data-name="Trazado 2" d="M3875.12,345.367l13.051-13.051a19.564,19.564,0,0,0,5.823-15.41c-.65-7.541-4.7-18.3-20.114-18.3-13.44,0-18.24,8.16-19.68,14.4a19.412,19.412,0,0,0,4.837,17.273l13.663,15.03A1.671,1.671,0,0,0,3875.12,345.367Z" transform="translate(-3840.281 -271.437)" fill="none" stroke="#fff" stroke-miterlimit="10" stroke-width="5"/>
    </g>
    <text id="Text_field" data-name="Text field" transform="translate(204 76)" fill="#fff" font-size="52" font-family="Comfortaa-Bold, Comfortaa" font-weight="700"><tspan x="0" y="0">Propins</tspan></text>
  </g>
</svg>
