<svg xmlns="http://www.w3.org/2000/svg" width="111.704" height="87.003" viewBox="0 0 111.704 87.003">
  <g id="modelo-2" transform="translate(-408 -442)">
    <g id="noun_panorama_736042" transform="translate(423.397 449.331)">
      <g id="Grupo_519" data-name="Grupo 519" transform="translate(5.21 7.669)">
        <path id="Trazado_1490" data-name="Trazado 1490" d="M68.629,64.7a34.66,34.66,0,0,0,6.259-12.519h1.335c1,0,2.086,0,3.088-.083a.459.459,0,0,0,.417-.25.552.552,0,0,0,.083-.5,148.772,148.772,0,0,0-4.423-17.192c-.334-1.085-.751-2.253-1.252-3.589a.618.618,0,0,0-1.168,0,132.8,132.8,0,0,1-4.674,14.1q-1.127,3-2.5,6.009a.532.532,0,0,0,0,.5.833.833,0,0,0,.417.334c1.586.167,3.171.334,4.757.417A31.962,31.962,0,0,1,65.541,62.36,31.342,31.342,0,0,1,44.26,74.377,31.806,31.806,0,0,1,36.832,11.2a1.685,1.685,0,0,0,1.5-2,1.685,1.685,0,0,0-2-1.5A35.433,35.433,0,0,0,40.588,78.3a40.424,40.424,0,0,0,4.423-.25A34.719,34.719,0,0,0,68.629,64.7Z" transform="translate(-5.21 -7.669)" fill="#00a82d"/>
        <path id="Trazado_1491" data-name="Trazado 1491" d="M34.65,32.023H31.4a8.1,8.1,0,0,0-8.1,8.1v13.27a8.1,8.1,0,0,0,8.1,8.1H55.848a8.1,8.1,0,0,0,8.1-8.1V40.035a8.1,8.1,0,0,0-8.1-8.1H52.594A8.166,8.166,0,0,0,45.5,27.6H41.911A8.4,8.4,0,0,0,34.65,32.023Zm2.838,2.253a4.486,4.486,0,0,1,4.256-3.088h3.589a4.486,4.486,0,0,1,4.256,3.088,1.7,1.7,0,0,0,1.669,1.168h4.423a4.488,4.488,0,0,1,4.507,4.507v13.27a4.488,4.488,0,0,1-4.507,4.507H31.4a4.488,4.488,0,0,1-4.507-4.507V40.035A4.488,4.488,0,0,1,31.4,35.528h4.423A1.778,1.778,0,0,0,37.488,34.277Z" transform="translate(-8.203 -10.966)" fill="#00a82d"/>
        <path id="Trazado_1492" data-name="Trazado 1492" d="M45.631,57.963A9.931,9.931,0,1,0,35.7,48.031,9.9,9.9,0,0,0,45.631,57.963Zm0-16.274a6.343,6.343,0,1,1-6.343,6.343A6.34,6.34,0,0,1,45.631,41.689Z" transform="translate(-10.254 -12.703)" fill="#00a82d"/>
      </g>
    </g>
    <g id="Grupo_376" data-name="Grupo 376" transform="translate(408 442)" opacity="0.4">
      <path id="Trazado_1375" data-name="Trazado 1375" d="M186.145,218.877a2.728,2.728,0,1,0,2.728,2.728A2.728,2.728,0,0,0,186.145,218.877Zm0,3.832a1.1,1.1,0,1,1,1.1-1.1A1.1,1.1,0,0,1,186.145,222.709Z" transform="translate(-168.951 -148.369)" fill="#00be62"/>
      <path id="Trazado_1376" data-name="Trazado 1376" d="M302.892,236.507a2.728,2.728,0,1,0,2.728,2.728A2.728,2.728,0,0,0,302.892,236.507Zm0,3.832a1.1,1.1,0,1,1,1.1-1.1A1.1,1.1,0,0,1,302.892,240.339Z" transform="translate(-212.595 -154.96)" fill="#00be62"/>
      <path id="Trazado_1377" data-name="Trazado 1377" d="M338.917,168.839a2.089,2.089,0,1,0,2.089,2.089A2.089,2.089,0,0,0,338.917,168.839Zm0,2.934a.845.845,0,1,1,.845-.845A.845.845,0,0,1,338.917,171.773Z" transform="translate(-229.302 -120.663)" fill="#00be62"/>
      <path id="Trazado_1378" data-name="Trazado 1378" d="M280.108,115.477a2.208,2.208,0,1,0,2.208,2.208A2.208,2.208,0,0,0,280.108,115.477Zm0,3.1a.894.894,0,1,1,.894-.894A.894.894,0,0,1,280.108,118.58Z" transform="translate(-209.272 -96.715)" fill="#00be62"/>
      <path id="Trazado_1379" data-name="Trazado 1379" d="M167.222,197.656a2.322,2.322,0,1,0,2.322,2.322A2.322,2.322,0,0,0,167.222,197.656Z" transform="translate(-162.029 -140.436)" fill="#00be62"/>
      <path id="Trazado_1380" data-name="Trazado 1380" d="M316.376,209.931a1.689,1.689,0,1,0,1.689,1.689A1.689,1.689,0,0,0,316.376,209.931Z" transform="translate(-218.024 -145.025)" fill="#00be62"/>
      <path id="Trazado_1381" data-name="Trazado 1381" d="M226.594,116.586a2.468,2.468,0,1,0,2.468,2.468A2.468,2.468,0,0,0,226.594,116.586Z" transform="translate(-184.17 -110.129)" fill="#00be62"/>
      <path id="Trazado_1383" data-name="Trazado 1383" d="M303.512,131.79a2.111,2.111,0,1,0,2.111,2.111A2.111,2.111,0,0,0,303.512,131.79Z" transform="translate(-213.058 -112.813)" fill="#00be62"/>
      <circle id="Elipse_13" data-name="Elipse 13" cx="1.202" cy="1.202" r="1.202" transform="translate(14.477 32.39)" fill="#00be62"/>
      <path id="Trazado_1384" data-name="Trazado 1384" d="M340.105,152.026a2.05,2.05,0,1,0,2.05,2.051A2.05,2.05,0,0,0,340.105,152.026Z" transform="translate(-236.76 -122.378)" fill="#00be62"/>
      <circle id="Elipse_14" data-name="Elipse 14" cx="1.308" cy="1.308" r="1.308" transform="translate(2.733 39.496)" fill="#00be62"/>
      <path id="Trazado_1385" data-name="Trazado 1385" d="M252.734,108.346l.822-.822a.732.732,0,1,0-1.035-1.036l-.822.822-.822-.822a.732.732,0,1,0-1.036,1.036l.822.822-.822.822a.732.732,0,1,0,1.036,1.036l.822-.822.822.822a.732.732,0,1,0,1.035-1.036Z" transform="translate(-193.703 -106.275)" fill="#00be62"/>
      <path id="Trazado_1386" data-name="Trazado 1386" d="M163.421,148l.822-.822a.732.732,0,0,0-1.036-1.036l-.822.822-.822-.822a.732.732,0,0,0-1.036,1.036l.822.822-.822.822a.732.732,0,0,0,1.036,1.036l.822-.822.822.822a.732.732,0,0,0,1.036-1.036Z" transform="translate(-160.315 -121.097)" fill="#00be62"/>
      <path id="Trazado_1387" data-name="Trazado 1387" d="M318.452,228.3l.7-.7a.62.62,0,0,0-.877-.877l-.7.7-.7-.7a.62.62,0,1,0-.877.877l.7.7-.7.7a.62.62,0,1,0,.877.877l.7-.7.7.7a.62.62,0,0,0,.877-.877Z" transform="translate(-218.449 -151.237)" fill="#00be62"/>
    </g>
  </g>
</svg>
