<svg xmlns="http://www.w3.org/2000/svg" width="74.998" height="75" viewBox="0 0 74.998 75">
  <g id="planos" transform="translate(0 0.001)">
    <g id="Grupo_473" data-name="Grupo 473" transform="translate(0 0)">
      <g id="Grupo_472" data-name="Grupo 472">
        <g id="Grupo_465" data-name="Grupo 465" transform="translate(21.875 28.126)">
          <path id="Trazado_1411" data-name="Trazado 1411" d="M52.312,40.249H8.562A1.563,1.563,0,0,1,7,38.687V10.562a1.562,1.562,0,0,1,3.125,0V37.125H50.749V10.562a1.562,1.562,0,0,1,3.125,0V38.687A1.563,1.563,0,0,1,52.312,40.249Z" transform="translate(-7 -9)" fill="#3c3b3b"/>
        </g>
        <g id="Grupo_466" data-name="Grupo 466" transform="translate(15.626 0)">
          <path id="Trazado_1412" data-name="Trazado 1412" d="M62.811,31.25H6.562a1.564,1.564,0,0,1-1.106-2.669L33.58.457a1.564,1.564,0,0,1,2.209,0L63.914,28.581a1.564,1.564,0,0,1-1.1,2.669ZM10.334,28.125H59.039L34.687,3.772Z" transform="translate(-5 0)" fill="#3c3b3b"/>
        </g>
        <g id="Grupo_467" data-name="Grupo 467" transform="translate(21.875 65.624)">
          <path id="Trazado_1413" data-name="Trazado 1413" d="M49.187,30.375a1.561,1.561,0,0,1-1.106-2.666l.459-.459H12.334l.456.456a1.562,1.562,0,1,1-2.209,2.209L7.466,26.8a.936.936,0,0,1-.094-.1h0a1.556,1.556,0,0,1-.359-.825A1.358,1.358,0,0,1,7,25.6H7a1.563,1.563,0,0,1,.447-1h.006a0,0,0,0,0,0,0l3.125-3.125a1.564,1.564,0,0,1,2.209,0,1.52,1.52,0,0,1,.456,1.094,1.569,1.569,0,0,1-.456,1.106l-.459.456H48.54l-.456-.456a1.562,1.562,0,1,1,2.206-2.212l3.125,3.125a0,0,0,0,1,0,0h.006a1.57,1.57,0,0,1,.447,1h0a1.35,1.35,0,0,1-.009.275,1.556,1.556,0,0,1-.359.825h0c-.031.034-.062.069-.094.1L50.293,29.9A1.522,1.522,0,0,1,49.187,30.375Z" transform="translate(-7 -21)" fill="#3c3b3b"/>
        </g>
        <g id="Grupo_468" data-name="Grupo 468" transform="translate(0 31.251)">
          <path id="Trazado_1414" data-name="Trazado 1414" d="M4.688,38.125q-.094,0-.187-.009h0a1.561,1.561,0,0,1-.822-.359h0c-.037-.031-.069-.063-.1-.094L.457,34.546a1.562,1.562,0,0,1,2.209-2.209l.459.453V15.334l-.456.456a1.564,1.564,0,0,1-2.209,0A1.547,1.547,0,0,1,0,14.687a1.569,1.569,0,0,1,.456-1.106l3.125-3.125A1.56,1.56,0,0,1,4.594,10h0c.091,0,.181,0,.278.009h0a1.561,1.561,0,0,1,.822.359h0c.037.031.069.062.1.094l3.116,3.116A1.562,1.562,0,1,1,6.71,15.787l-.459-.453V32.79l.456-.456a1.564,1.564,0,0,1,2.209,0,1.547,1.547,0,0,1,.459,1.1,1.569,1.569,0,0,1-.456,1.106L5.794,37.668a1.56,1.56,0,0,1-1.012.456H4.688Z" transform="translate(0 -10)" fill="#3c3b3b"/>
        </g>
        <g id="Grupo_469" data-name="Grupo 469">
          <path id="Trazado_1415" data-name="Trazado 1415" d="M4.688,31.25q-.094,0-.187-.009h0a1.561,1.561,0,0,1-.822-.359h0c-.037-.031-.069-.063-.1-.094L.457,27.669A1.562,1.562,0,0,1,2.666,25.46l.459.456V5.335l-.456.459A1.564,1.564,0,0,1,.457,3.582L3.582.457A1.56,1.56,0,0,1,4.594,0h0A2.1,2.1,0,0,1,4.875.01h0A1.561,1.561,0,0,1,5.7.37h0c.037.031.069.062.1.094L8.919,3.579A1.562,1.562,0,0,1,6.71,5.788L6.25,5.335V25.916l.456-.456a1.564,1.564,0,0,1,2.209,0,1.547,1.547,0,0,1,.459,1.1,1.569,1.569,0,0,1-.456,1.106L5.794,30.794a1.56,1.56,0,0,1-1.012.456H4.688Z" transform="translate(0 0)" fill="#3c3b3b"/>
        </g>
        <g id="Grupo_470" data-name="Grupo 470" transform="translate(46.875 40.625)">
          <path id="Trazado_1416" data-name="Trazado 1416" d="M25.937,31.75H16.562A1.563,1.563,0,0,1,15,30.187V14.562A1.563,1.563,0,0,1,16.562,13h9.375A1.563,1.563,0,0,1,27.5,14.562V30.187A1.563,1.563,0,0,1,25.937,31.75Zm-7.812-3.125h6.25v-12.5h-6.25Z" transform="translate(-15 -13)" fill="#3c3b3b"/>
        </g>
        <g id="Grupo_471" data-name="Grupo 471" transform="translate(31.25 37.501)">
          <path id="Trazado_1417" data-name="Trazado 1417" d="M17.812,21.375h-6.25A1.563,1.563,0,0,1,10,19.812v-6.25A1.563,1.563,0,0,1,11.562,12h6.25a1.563,1.563,0,0,1,1.562,1.562v6.25A1.563,1.563,0,0,1,17.812,21.375ZM13.125,18.25H16.25V15.125H13.125Z" transform="translate(-10 -12)" fill="#3c3b3b"/>
        </g>
      </g>
    </g>
  </g>
</svg>
