<svg xmlns="http://www.w3.org/2000/svg" width="74.764" height="74.74" viewBox="0 0 74.764 74.74">
  <g id="publicidad" transform="translate(0 0)">
    <g id="Grupo_474" data-name="Grupo 474">
      <path id="Trazado_1420" data-name="Trazado 1420" d="M73.338,59.947h0a4.91,4.91,0,0,0,1.4-3.737,4.82,4.82,0,0,0-1.868-3.581h0a5.7,5.7,0,0,0,1.4-4.36,5.137,5.137,0,0,0-2.8-4.2V4.048A3.8,3.8,0,0,0,67.577,0H4.048A4.122,4.122,0,0,0,0,4.048V47.491a3.989,3.989,0,0,0,4.048,3.893H7.474V63.84a1.561,1.561,0,0,0,2.647,1.09L23.668,51.383h1.868v21.8a1.471,1.471,0,0,0,1.557,1.557H38.148a1.471,1.471,0,0,0,1.557-1.557v-.467a11.853,11.853,0,0,1,3.27.467,14.021,14.021,0,0,0,2.491.467c2.958.311,6.228.623,9.342.779.311,0,.623.156.934.156h10.9a4.608,4.608,0,0,0,4.671-4.2A3.95,3.95,0,0,0,71,68.511,4.966,4.966,0,0,0,74.584,64a5.291,5.291,0,0,0-1.246-4.048Zm-36.9-9.187V71.625H28.494V49.359h7.941Zm1.557-4.516H26.937A1.471,1.471,0,0,0,25.38,47.8v.467H22.889a1.414,1.414,0,0,0-1.09.467L10.432,60.1V49.826a1.471,1.471,0,0,0-1.557-1.557H4.048a.872.872,0,0,1-.934-.779V4.048a1,1,0,0,1,.934-.934H67.733a1.01,1.01,0,0,1,.779.934V43.287H58.235a12.317,12.317,0,0,1,.779-2.024c.156-.311,3.114-6.228,1.557-11.678a6.423,6.423,0,0,0-4.048-4.2,1.882,1.882,0,0,0-1.4-.467c-.623,0-2.8.311-3.114,3.27v.156s0,6.073-2.8,8.72a22.768,22.768,0,0,0-2.491,2.958c-.934,1.4-2.491,3.426-3.737,5.605a7.712,7.712,0,0,1-2.958,2.958.572.572,0,0,1-.467.156v-1.09A1.438,1.438,0,0,0,37.993,46.245ZM69.6,61.5a1.518,1.518,0,0,1,1.4.623c.311.467.623.934.467,1.4A2.075,2.075,0,0,1,69.29,65.4H66.643a1.557,1.557,0,0,0,0,3.114,1.414,1.414,0,0,1,1.09.467.963.963,0,0,1,.311,1.09,1.536,1.536,0,0,1-1.557,1.4H54.965a87.155,87.155,0,0,1-9.342-.779c-.779-.156-1.557-.311-2.18-.467a36.367,36.367,0,0,0-4.048-.623V52.162a17.462,17.462,0,0,0,2.024-.779,9.617,9.617,0,0,0,4.048-4.2c1.246-2.024,2.491-4.048,3.426-5.294a29.892,29.892,0,0,1,2.18-2.336c3.581-3.426,3.581-9.81,3.581-10.9a.682.682,0,0,1,.156-.467h.311a3.172,3.172,0,0,1,2.024,2.18c1.246,4.2-1.246,9.342-1.246,9.5-1.09,2.491-1.4,4.048-.934,5.138a1.69,1.69,0,0,0,1.246,1.246c.156,0,.467.156.623.156H68.356A2.47,2.47,0,0,1,71,48.736a3.129,3.129,0,0,1-.623,2.024,2.579,2.579,0,0,1-1.868.779,1.557,1.557,0,1,0,0,3.114h.623a1.98,1.98,0,0,1,2.18,1.868,1.518,1.518,0,0,1-.623,1.4,1.691,1.691,0,0,1-1.4.623A1.471,1.471,0,0,0,67.733,60.1,2.181,2.181,0,0,0,69.6,61.5Z" fill="#3c3b3b"/>
      <path id="Trazado_1421" data-name="Trazado 1421" d="M21.457,33A1.471,1.471,0,0,0,19.9,34.557v2.024a1.557,1.557,0,1,0,3.114,0V34.557A1.56,1.56,0,0,0,21.457,33Z" transform="translate(11.086 18.383)" fill="#3c3b3b"/>
    </g>
  </g>
</svg>
