<?xml version="1.0" encoding="utf-8"?>
<!-- Generator: Adobe Illustrator 21.0.0, SVG Export Plug-In . SVG Version: 6.00 Build 0)  -->
<svg version="1.1" id="Layer_1" xmlns="http://www.w3.org/2000/svg" xmlns:xlink="http://www.w3.org/1999/xlink" x="0px" y="0px"
	 viewBox="0 0 225 85" style="enable-background:new 0 0 225 85;" xml:space="preserve">
<style type="text/css">
	.st0{fill:#ED3E4B;}
	.st1{fill:#484749;}
</style>
<path class="st0" d="M38.5,42.6L45.4,55l5.2,9.4c5.8-5.5,9.5-13.2,9.5-21.9c0-8.6-3.7-16.4-9.5-21.9L45.3,30L38.5,42.6z"/>
<path class="st0" d="M30.2,57.9L30.2,57.9l-9.4-7.6L12,43.1l-0.6-0.5l0,0l0,0l2-1.6l7.3-6.1l9.1-7.5l6.2-5.1l7.9-6.4
	c-4.1-2.2-8.9-3.4-13.9-3.4c-16.6,0-30,13.4-30,30c0,16.6,13.4,30,30,30c5,0,9.8-1.2,13.9-3.4l-7.8-6.4L30.2,57.9z"/>
<path class="st0" d="M60.8,2.1L43.9,15.9c2.4,1.3,4.7,2.9,6.7,4.7L60.8,2.1z"/>
<polygon class="st0" points="20.8,50.3 30.2,57.9 30.2,57.9 12,43.1 "/>
<path class="st0" d="M50.5,64.4c-2,1.9-4.2,3.4-6.6,4.7l16.8,13.8L50.5,64.4z"/>
<g>
	<g>
		<path class="st0" d="M81.5,32.6c0.6,0,1.2,0,1.6,0.1l-0.4,4.5c-0.4-0.1-0.9-0.2-1.4-0.2c-1.5,0-2.7,0.4-3.5,1.2
			c-0.8,0.8-1.3,1.9-1.3,3.3v8.9h-4.8V32.9h3.6l0.7,2.9h0.2c0.5-1,1.3-1.8,2.2-2.4S80.4,32.6,81.5,32.6z"/>
	</g>
	<g>
		<path class="st0" d="M94,50.7c-2.8,0-5-0.8-6.6-2.3c-1.6-1.5-2.4-3.7-2.4-6.6c0-2.9,0.7-5.2,2.2-6.8c1.5-1.6,3.5-2.4,6.1-2.4
			c2.5,0,4.4,0.7,5.7,2.1c1.4,1.4,2.1,3.3,2.1,5.8v2.3H89.9c0.1,1.4,0.5,2.4,1.2,3.2c0.7,0.8,1.8,1.1,3.1,1.1c1,0,2-0.1,3-0.3
			c0.9-0.2,1.9-0.6,2.9-1v3.7c-0.8,0.4-1.7,0.7-2.7,0.9C96.5,50.6,95.4,50.7,94,50.7z M93.3,36c-1,0-1.8,0.3-2.4,1
			c-0.6,0.6-0.9,1.5-1,2.7h6.7c0-1.2-0.3-2.1-0.9-2.7C95.2,36.3,94.4,36,93.3,36z"/>
	</g>
	<g>
		<path class="st0" d="M120.5,50.3h-4.8V40.2c0-1.3-0.2-2.2-0.6-2.8c-0.4-0.6-1.1-0.9-2-0.9c-1.2,0-2.1,0.4-2.6,1.3
			s-0.8,2.4-0.8,4.4v8.2h-4.8V32.9h3.6l0.6,2.2h0.3c0.5-0.8,1.1-1.4,2-1.9c0.9-0.5,1.9-0.7,3-0.7c2.6,0,4.4,0.9,5.3,2.6h0.4
			c0.5-0.8,1.2-1.4,2.1-1.9c0.9-0.4,1.9-0.7,3.1-0.7c2,0,3.5,0.5,4.5,1.5c1,1,1.5,2.6,1.5,4.9v11.4h-4.8V40.2c0-1.3-0.2-2.2-0.6-2.8
			c-0.4-0.6-1.1-0.9-2-0.9c-1.2,0-2,0.4-2.6,1.2c-0.6,0.8-0.9,2.1-0.9,4V50.3z"/>
	</g>
	<g>
		<path class="st0" d="M147.1,50.3l-0.9-2.4h-0.1c-0.8,1-1.6,1.7-2.5,2.1c-0.8,0.4-2,0.6-3.3,0.6c-1.7,0-3-0.5-3.9-1.4
			c-1-1-1.4-2.3-1.4-4.1c0-1.8,0.6-3.2,1.9-4.1c1.3-0.9,3.2-1.4,5.8-1.5l3-0.1v-0.8c0-1.8-0.9-2.6-2.7-2.6c-1.4,0-3,0.4-4.9,1.3
			l-1.6-3.2c2-1,4.2-1.6,6.7-1.6c2.3,0,4.1,0.5,5.4,1.5c1.2,1,1.9,2.6,1.9,4.6v11.6H147.1z M145.7,42.3l-1.8,0.1
			c-1.4,0-2.4,0.3-3.1,0.7c-0.7,0.5-1,1.2-1,2.1c0,1.3,0.8,2,2.3,2c1.1,0,2-0.3,2.6-1c0.7-0.6,1-1.5,1-2.5V42.3z"/>
	</g>
</g>
<g>
	<path class="st1" d="M162.4,46.9c0.8,0,1.8-0.2,3-0.5v3.5c-1.2,0.5-2.6,0.8-4.4,0.8c-1.9,0-3.3-0.5-4.2-1.4c-0.9-1-1.3-2.4-1.3-4.3
		v-8.4h-2.3v-2l2.6-1.6l1.4-3.7h3v3.7h4.9v3.6h-4.9v8.4c0,0.7,0.2,1.2,0.6,1.5S161.8,46.9,162.4,46.9z"/>
	<path class="st1" d="M168.6,28.4c0-1.5,0.9-2.3,2.6-2.3c1.7,0,2.6,0.8,2.6,2.3c0,0.7-0.2,1.3-0.6,1.7c-0.4,0.4-1.1,0.6-1.9,0.6
		C169.5,30.8,168.6,30,168.6,28.4z M173.5,50.3h-4.8V32.9h4.8V50.3z"/>
	<path class="st1" d="M194,50.3h-4.8V40.2c0-1.3-0.2-2.2-0.6-2.8c-0.4-0.6-1.1-0.9-2-0.9c-1.2,0-2.1,0.4-2.6,1.3
		c-0.5,0.9-0.8,2.4-0.8,4.4v8.2h-4.8V32.9h3.6l0.6,2.2h0.3c0.5-0.8,1.1-1.4,2-1.9c0.9-0.5,1.9-0.7,3-0.7c2.6,0,4.4,0.9,5.3,2.6h0.4
		c0.5-0.8,1.2-1.4,2.1-1.9c0.9-0.4,1.9-0.7,3.1-0.7c2,0,3.5,0.5,4.5,1.5c1,1,1.5,2.6,1.5,4.9v11.4h-4.8V40.2c0-1.3-0.2-2.2-0.6-2.8
		c-0.4-0.6-1.1-0.9-2-0.9c-1.2,0-2,0.4-2.6,1.2c-0.6,0.8-0.9,2.1-0.9,4V50.3z"/>
	<path class="st1" d="M217.5,50.7c-2.8,0-5-0.8-6.6-2.3c-1.6-1.5-2.4-3.7-2.4-6.6c0-2.9,0.7-5.2,2.2-6.8c1.5-1.6,3.5-2.4,6.1-2.4
		c2.5,0,4.4,0.7,5.7,2.1c1.4,1.4,2.1,3.3,2.1,5.8v2.3h-11.2c0.1,1.4,0.5,2.4,1.2,3.2c0.7,0.8,1.8,1.1,3.1,1.1c1,0,2-0.1,3-0.3
		c0.9-0.2,1.9-0.6,2.9-1v3.7c-0.8,0.4-1.7,0.7-2.7,0.9C220,50.6,218.8,50.7,217.5,50.7z M216.8,36c-1,0-1.8,0.3-2.4,1
		s-0.9,1.5-1,2.7h6.7c0-1.2-0.3-2.1-0.9-2.7C218.6,36.3,217.8,36,216.8,36z"/>
</g>
<g>
	<path d="M83.1,62.6c0,0.7-0.2,1.2-0.7,1.5c-0.4,0.4-1.1,0.5-1.9,0.5h-1.1v2.8H79v-6.8h1.7C82.3,60.6,83.1,61.3,83.1,62.6z
		 M79.5,64.2h0.9c0.8,0,1.3-0.1,1.7-0.4s0.5-0.7,0.5-1.2c0-0.5-0.2-0.9-0.5-1.2s-0.8-0.4-1.5-0.4h-1.1V64.2z"/>
	<path d="M85.6,64.5v3h-0.5v-6.8h1.6c0.8,0,1.5,0.2,1.9,0.5c0.4,0.3,0.6,0.8,0.6,1.4c0,0.5-0.1,0.8-0.4,1.2
		c-0.2,0.3-0.6,0.5-1.1,0.7l1.8,3.1H89l-1.8-3H85.6z M85.6,64.1h1.3c0.6,0,1-0.1,1.3-0.4c0.3-0.3,0.5-0.6,0.5-1.1
		c0-0.5-0.2-0.9-0.5-1.1c-0.3-0.2-0.8-0.4-1.5-0.4h-1.1V64.1z"/>
	<path d="M94.9,67.4h-3.7v-6.8h3.7v0.4h-3.2v2.6h3.1v0.4h-3.1V67h3.2V67.4z"/>
	<path d="M99.9,61c-0.9,0-1.5,0.3-2,0.8c-0.5,0.5-0.7,1.3-0.7,2.2c0,1,0.2,1.7,0.7,2.3s1.1,0.8,2,0.8c0.6,0,1.1-0.1,1.6-0.2v0.4
		c-0.5,0.2-1,0.2-1.7,0.2c-1,0-1.7-0.3-2.3-0.9c-0.5-0.6-0.8-1.5-0.8-2.6c0-0.7,0.1-1.3,0.4-1.8s0.6-0.9,1.1-1.2
		c0.5-0.3,1.1-0.4,1.7-0.4c0.7,0,1.3,0.1,1.8,0.4l-0.2,0.4C100.9,61.1,100.4,61,99.9,61z"/>
	<path d="M103.3,67.4v-6.8h0.5v6.8H103.3z"/>
	<path d="M111.9,64c0,1.1-0.3,1.9-0.8,2.6c-0.5,0.6-1.3,0.9-2.2,0.9c-0.9,0-1.7-0.3-2.2-0.9c-0.5-0.6-0.8-1.5-0.8-2.6
		c0-1.1,0.3-1.9,0.8-2.6c0.5-0.6,1.3-0.9,2.2-0.9c0.9,0,1.7,0.3,2.2,0.9C111.7,62.1,111.9,62.9,111.9,64z M106.4,64
		c0,1,0.2,1.7,0.7,2.3s1.1,0.8,1.9,0.8c0.8,0,1.4-0.3,1.9-0.8s0.6-1.3,0.6-2.3c0-1-0.2-1.7-0.6-2.3c-0.4-0.5-1.1-0.8-1.9-0.8
		c-0.8,0-1.4,0.3-1.9,0.8C106.6,62.3,106.4,63.1,106.4,64z"/>
	<path d="M117.7,65.7c0,0.6-0.2,1-0.6,1.4c-0.4,0.3-1,0.5-1.7,0.5c-0.8,0-1.5-0.1-1.9-0.3v-0.5c0.5,0.2,1.1,0.3,1.9,0.3
		c0.6,0,1-0.1,1.3-0.4c0.3-0.3,0.5-0.6,0.5-1c0-0.3-0.1-0.5-0.2-0.6c-0.1-0.2-0.3-0.3-0.5-0.5s-0.6-0.3-1.1-0.5
		c-0.7-0.2-1.2-0.5-1.4-0.8c-0.3-0.3-0.4-0.6-0.4-1.1c0-0.5,0.2-0.9,0.6-1.2c0.4-0.3,0.9-0.5,1.5-0.5c0.6,0,1.2,0.1,1.8,0.4
		l-0.2,0.4c-0.6-0.2-1.1-0.4-1.6-0.4c-0.5,0-0.9,0.1-1.2,0.3c-0.3,0.2-0.4,0.5-0.4,1c0,0.3,0,0.5,0.1,0.6c0.1,0.2,0.2,0.3,0.4,0.4
		c0.2,0.1,0.6,0.3,1.1,0.5c0.5,0.2,0.9,0.4,1.2,0.5c0.3,0.2,0.5,0.4,0.6,0.6C117.7,65.1,117.7,65.4,117.7,65.7z"/>
	<path d="M125.5,61c-0.9,0-1.5,0.3-2,0.8c-0.5,0.5-0.7,1.3-0.7,2.2c0,1,0.2,1.7,0.7,2.3c0.5,0.5,1.1,0.8,2,0.8
		c0.6,0,1.1-0.1,1.6-0.2v0.4c-0.5,0.2-1,0.2-1.7,0.2c-1,0-1.7-0.3-2.3-0.9c-0.5-0.6-0.8-1.5-0.8-2.6c0-0.7,0.1-1.3,0.4-1.8
		c0.3-0.5,0.6-0.9,1.1-1.2c0.5-0.3,1.1-0.4,1.7-0.4c0.7,0,1.3,0.1,1.8,0.4l-0.2,0.4C126.6,61.1,126,61,125.5,61z"/>
	<path d="M134.7,64c0,1.1-0.3,1.9-0.8,2.6c-0.5,0.6-1.3,0.9-2.2,0.9c-0.9,0-1.7-0.3-2.2-0.9c-0.5-0.6-0.8-1.5-0.8-2.6
		c0-1.1,0.3-1.9,0.8-2.6c0.5-0.6,1.3-0.9,2.2-0.9c0.9,0,1.7,0.3,2.2,0.9C134.4,62.1,134.7,62.9,134.7,64z M129.1,64
		c0,1,0.2,1.7,0.7,2.3s1.1,0.8,1.9,0.8c0.8,0,1.4-0.3,1.9-0.8c0.4-0.5,0.6-1.3,0.6-2.3c0-1-0.2-1.7-0.6-2.3
		c-0.4-0.5-1.1-0.8-1.9-0.8c-0.8,0-1.4,0.3-1.9,0.8C129.4,62.3,129.1,63.1,129.1,64z"/>
	<path d="M141.7,67.4h-0.5l-4-6h0c0,0.7,0.1,1.3,0.1,1.6v4.4h-0.5v-6.8h0.5l4,6h0c0-0.6,0-1.1,0-1.6v-4.4h0.5V67.4z"/>
	<path d="M145.9,67.4h-0.5v-6.4h-2.2v-0.4h4.9v0.4h-2.2V67.4z"/>
	<path d="M150,64.5v3h-0.5v-6.8h1.6c0.8,0,1.5,0.2,1.9,0.5c0.4,0.3,0.6,0.8,0.6,1.4c0,0.5-0.1,0.8-0.4,1.2s-0.6,0.5-1.1,0.7l1.8,3.1
		h-0.6l-1.8-3H150z M150,64.1h1.3c0.6,0,1-0.1,1.3-0.4s0.5-0.6,0.5-1.1c0-0.5-0.2-0.9-0.5-1.1c-0.3-0.2-0.8-0.4-1.5-0.4H150V64.1z"
		/>
	<path d="M159,65h-2.8l-1,2.4h-0.5l2.7-6.8h0.3l2.7,6.8h-0.5L159,65z M156.4,64.6h2.4l-0.9-2.5c-0.1-0.2-0.2-0.5-0.3-0.8
		c-0.1,0.3-0.2,0.6-0.3,0.8L156.4,64.6z"/>
	<path d="M168.6,67.4h-3.7v-6.8h3.7v0.4h-3.2v2.6h3.1v0.4h-3.1V67h3.2V67.4z"/>
	<path d="M170.6,67.4v-6.8h0.5V67h3.2v0.4H170.6z"/>
	<path d="M180.7,67.4h-0.5v-6.4H178v-0.4h4.9v0.4h-2.2V67.4z"/>
	<path d="M184.4,67.4v-6.8h0.5v6.8H184.4z"/>
	<path d="M191,67.4h-3.7v-6.8h3.7v0.4h-3.2v2.6h3.1v0.4h-3.1V67h3.2V67.4z"/>
	<path d="M196,67.4l-2.5-6.3h0c0,0.4,0,0.8,0,1.2v5.1H193v-6.8h0.7l2.4,6h0l2.4-6h0.7v6.8h-0.5v-5.2c0-0.4,0-0.7,0.1-1.1h0l-2.5,6.3
		H196z"/>
	<path d="M205.8,62.6c0,0.7-0.2,1.2-0.7,1.5c-0.4,0.4-1.1,0.5-1.9,0.5h-1.1v2.8h-0.5v-6.8h1.7C205,60.6,205.8,61.3,205.8,62.6z
		 M202.2,64.2h0.9c0.8,0,1.3-0.1,1.7-0.4c0.3-0.3,0.5-0.7,0.5-1.2c0-0.5-0.2-0.9-0.5-1.2c-0.3-0.3-0.8-0.4-1.5-0.4h-1.1V64.2z"/>
	<path d="M213.5,64c0,1.1-0.3,1.9-0.8,2.6c-0.5,0.6-1.3,0.9-2.2,0.9c-0.9,0-1.7-0.3-2.2-0.9c-0.5-0.6-0.8-1.5-0.8-2.6
		c0-1.1,0.3-1.9,0.8-2.6c0.5-0.6,1.3-0.9,2.2-0.9c0.9,0,1.7,0.3,2.2,0.9C213.2,62.1,213.5,62.9,213.5,64z M207.9,64
		c0,1,0.2,1.7,0.7,2.3s1.1,0.8,1.9,0.8c0.8,0,1.4-0.3,1.9-0.8c0.4-0.5,0.6-1.3,0.6-2.3c0-1-0.2-1.7-0.6-2.3
		c-0.4-0.5-1.1-0.8-1.9-0.8c-0.8,0-1.4,0.3-1.9,0.8C208.1,62.3,207.9,63.1,207.9,64z"/>
</g>
</svg>
