<?xml version="1.0" encoding="UTF-8" standalone="no"?>
<!-- Generator: Adobe Illustrator 16.0.0, SVG Export Plug-In . SVG Version: 6.00 Build 0)  -->

<svg
   xmlns:dc="http://purl.org/dc/elements/1.1/"
   xmlns:cc="http://creativecommons.org/ns#"
   xmlns:rdf="http://www.w3.org/1999/02/22-rdf-syntax-ns#"
   xmlns:svg="http://www.w3.org/2000/svg"
   xmlns="http://www.w3.org/2000/svg"
   xmlns:sodipodi="http://sodipodi.sourceforge.net/DTD/sodipodi-0.dtd"
   xmlns:inkscape="http://www.inkscape.org/namespaces/inkscape"
   version="1.1"
   id="Capa_1"
   x="0px"
   y="0px"
   width="405.07px"
   height="405.07px"
   viewBox="0 0 405.07 405.07"
   style="enable-background:new 0 0 405.07 405.07;"
   xml:space="preserve"
   sodipodi:docname="round_2.svg"
   inkscape:version="0.92.4 (5da689c313, 2019-01-14)"><metadata
   id="metadata3811"><rdf:RDF><cc:Work
       rdf:about=""><dc:format>image/svg+xml</dc:format><dc:type
         rdf:resource="http://purl.org/dc/dcmitype/StillImage" /></cc:Work></rdf:RDF></metadata><defs
   id="defs3809" /><sodipodi:namedview
   pagecolor="#ffffff"
   bordercolor="#666666"
   borderopacity="1"
   objecttolerance="10"
   gridtolerance="10"
   guidetolerance="10"
   inkscape:pageopacity="0"
   inkscape:pageshadow="2"
   inkscape:window-width="1920"
   inkscape:window-height="1017"
   id="namedview3807"
   showgrid="false"
   inkscape:zoom="0.5"
   inkscape:cx="-130.465"
   inkscape:cy="202.535"
   inkscape:window-x="-8"
   inkscape:window-y="-8"
   inkscape:window-maximized="1"
   inkscape:current-layer="Capa_1" />
<g
   id="g3774"
   style="fill:#cccccc">
	<path
   d="M202.531,0C90.676,0,0,90.678,0,202.535C0,314.393,90.676,405.07,202.531,405.07c111.859,0,202.539-90.678,202.539-202.535   C405.07,90.678,314.391,0,202.531,0z M243.192,312.198c0,8.284-6.716,15-15,15h-27.629c-8.284,0-15-6.716-15-15v-168.35   l-17.1,9.231c-4.069,2.197-8.924,2.393-13.155,0.536c-4.233-1.858-7.373-5.565-8.51-10.046l-5.459-21.518   c-1.695-6.683,1.383-13.66,7.461-16.913l47.626-25.491c2.177-1.166,4.608-1.775,7.078-1.775h24.688c8.284,0,15,6.716,15,15V312.198   z"
   id="path3772"
   style="fill:#cccccc" />
</g>
<g
   id="g3776">
</g>
<g
   id="g3778">
</g>
<g
   id="g3780">
</g>
<g
   id="g3782">
</g>
<g
   id="g3784">
</g>
<g
   id="g3786">
</g>
<g
   id="g3788">
</g>
<g
   id="g3790">
</g>
<g
   id="g3792">
</g>
<g
   id="g3794">
</g>
<g
   id="g3796">
</g>
<g
   id="g3798">
</g>
<g
   id="g3800">
</g>
<g
   id="g3802">
</g>
<g
   id="g3804">
</g>
<path
   style="fill:#cccccc;stroke-width:2"
   d="m 190.335,321.735 c -3.87739,-3.8774 -4,-6.66666 -4,-91 0,-47.85 -0.59592,-87 -1.32428,-87 -0.72836,0 -5.25725,2.30487 -10.0642,5.12193 -16.83157,9.86396 -26.33433,4.24707 -30.82698,-18.22122 -3.95639,-19.78643 -3.52557,-20.36411 27.6829,-37.119161 L 199.335,78.735004 h 17.67671 c 27.7848,0 25.32329,-12.074762 25.32329,124.221566 0,136.16053 3.05183,122.77843 -28,122.77843 -17.33333,0 -20.53333,-0.53334 -24,-4 z"
   id="path3829"
   inkscape:connector-curvature="0" /><path
   style="fill:#cccccc;stroke-width:2"
   d="m 149.25277,149.60194 c -2.15255,-3.48288 0.29904,-4.22048 3.04212,-0.91527 1.5775,1.90077 1.72922,3.04833 0.40304,3.04833 -1.16977,0 -2.7201,-0.95987 -3.44516,-2.13306 z"
   id="path3831"
   inkscape:connector-curvature="0" /><path
   style="fill:#cccccc;stroke-width:2"
   d="M 160.335,399.81644 C 85.46027,383.7971 26.712574,327.1882 6.9055377,251.97276 0.82777326,228.893 -0.48550874,187.9222 4.1092107,164.735 19.67579,86.178458 80.9362,22.856336 158.09766,5.5640889 222.05796,-8.7697147 291.84448,10.162299 340.25298,54.980038 437.26016,144.79158 421.30938,303.88858 308.2473,374.21222 265.92992,400.53326 209.41294,410.31658 160.335,399.81644 Z m 77.59866,-76.1368 c 2.3941,-2.23044 4.84518,-6.05544 5.44684,-8.5 0.60166,-2.44454 0.83756,-55.14956 0.52422,-117.12222 L 243.335,85.379834 238.61344,81.557418 c -3.8511,-3.1177 -7.97518,-3.822414 -22.36934,-3.822414 h -17.64778 l -25.63065,13.80635 c -30.55603,16.459476 -34.20105,20.289066 -31.01222,32.582596 l 2.23363,8.61105 -0.94181,-8.4508 c -1.3021,-11.68378 4.43785,-17.36892 32.85311,-32.539344 l 22.76338,-12.152984 18.21504,0.571566 c 18.02134,0.565488 18.24664,0.635376 21.18484,6.571566 2.46386,4.97781 3.0933,21.843936 3.69464,98.999996 0.79502,102.0019 -0.74842,132.90316 -6.86812,137.50682 -5.63518,4.23918 -39.52589,2.57736 -44.27512,-2.171 -3.15868,-3.15812 -3.58072,-11.32154 -4.59636,-88.90662 l -1.11831,-85.4292 -0.38169,83.63148 c -0.39128,85.73694 -0.13628,88.98418 7.44501,94.80492 1.96945,1.5121 10.42795,2.46052 22.29619,2.5 16.49842,0.0548 19.72028,-0.49296 23.47578,-3.99176 z m -63.3333,-173.0791 c 5.57281,-2.82396 9.67098,-5.59587 9.10704,-6.15981 -0.56394,-0.56393 -3.243,0.42773 -5.95348,2.2037 -7.2616,4.75799 -15.85102,6.75887 -20.93737,4.8773 -4.61128,-1.70582 -6.50962,1.06159 -1.98155,2.88871 5.17854,2.08959 9.93108,1.17351 19.76536,-3.8099 z m -26.86694,-10.12237 c -1.22496,-3.99126 -2.52027,-6.37759 -2.87849,-5.30296 -0.70384,2.11152 2.82615,12.55979 4.24337,12.55979 0.47427,0 -0.13994,-3.26557 -1.36488,-7.25683 z"
   id="path3833"
   inkscape:connector-curvature="0" /><path
   style="fill:#cccccc;stroke-width:2"
   d="M 167.6545,401.75564 C 48.409882,380.31372 -26.338492,257.77178 9.7068867,142.81749 38.274024,51.712466 128.99492,-8.5359011 222.17314,1.7171931 c 49.05564,5.3979564 88.6673,24.2927129 123.39546,58.8595989 26.07864,25.957544 41.97488,53.553218 52.30752,90.805238 4.76796,17.18987 5.3654,22.81789 5.34522,50.35297 -0.0272,36.9793 -4.04692,56.32108 -17.69152,85.1251 -11.68816,24.67394 -23.00058,40.89342 -41.094,58.91962 -25.29972,25.20572 -55.92742,42.71886 -91.28396,52.19686 -17.64486,4.73004 -67.86412,6.94978 -85.49736,3.77906 z m 70.06898,-78.8465 5.61152,-4.82584 0.60102,-108.67416 c 0.33056,-59.77077 0.0508,-112.496796 -0.62176,-117.168936 -0.8085,-5.616746 -2.58486,-9.223754 -5.24304,-10.64637 -3.962,-2.120402 -3.96748,-2.07108 -0.37824,3.404724 3.37172,5.143922 3.69138,12.762012 4.3072,102.646372 0.7122,103.95599 -0.67338,130.90013 -6.97534,135.64319 -5.57368,4.19494 -39.49946,2.49396 -44.2118,-2.2167 -3.07352,-3.0724 -3.61877,-9.92358 -4.68803,-58.9066 l -1.21,-55.42982 0.21,55.67534 0.20999,55.67536 5.61153,4.82464 c 5.02083,4.3168 7.48281,4.82466 23.38847,4.82466 15.90726,0 18.36714,-0.50756 23.38848,-4.82586 z M 169.39924,152.83706 c 3.81467,-1.59387 6.93576,-3.34795 6.93576,-3.89795 0,-0.55 -3.15757,0.31932 -7.01684,1.93182 -3.91172,1.63443 -9.44327,2.40273 -12.5,1.73618 -4.22468,-0.92122 -4.79461,-0.70651 -2.48316,0.9355 4.02467,2.85904 6.84962,2.72673 15.06424,-0.70555 z m -23.0737,-14.5267 c -2.17921,-3.39858 -2.23565,-3.39422 -1.14155,0.0882 0.63306,2.01496 1.22207,4.71496 1.30891,6 0.11396,1.68632 0.43159,1.66177 1.14155,-0.0882 0.54101,-1.33356 -0.048,-4.03356 -1.30891,-6 z m 4.55734,-31.74498 c 2.76034,-2.10671 6.69129,-4.96817 8.73546,-6.35881 2.04416,-1.390642 0.66801,-1.078584 -3.05813,0.69346 -8.8005,4.18526 -16.24578,12.31302 -16.14692,17.62702 0.0625,3.36086 0.61905,2.96596 2.76454,-1.96167 1.47744,-3.3933 4.94471,-7.8933 7.70505,-10 z M 184.335,86.653708 c 0,-0.55 -3.6,0.836584 -8,3.081296 -4.4,2.244712 -8,4.531296 -8,5.081296 0,0.55 3.6,-0.836584 8,-3.081296 4.4,-2.244712 8,-4.531296 8,-5.081296 z m 39.43966,-8.391248 c -5.2582,-0.413352 -13.3582,-0.408366 -18,0.011 -4.64182,0.419448 -0.33966,0.757646 9.56034,0.751552 9.9,-0.006 13.69784,-0.34928 8.43966,-0.762634 z"
   id="path3835"
   inkscape:connector-curvature="0" /><path
   style="fill:#cccccc;stroke-width:2"
   d="M 160.335,400.62928 C 63.641898,379.89438 -3.7924426,291.89352 1.0273187,192.735 3.5442209,140.95396 22.740118,97.402198 59.286976,60.555168 88.801308,30.798426 122.75919,12.507588 165.335,3.4341999 c 15.24447,-3.24876784 58.31424,-3.21703824 74,0.054516 C 333.22488,23.07117 399.50538,98.61769 403.77158,190.91352 c 1.82568,39.4975 -4.69344,70.97216 -21.47938,103.70346 -28.62804,55.82248 -80.15174,94.49246 -141.63314,106.2996 -18.56408,3.56512 -63.10193,3.40582 -80.32406,-0.2873 z m 61.5,-74.35122 c -4.125,-0.43148 -10.875,-0.43148 -15,0 -4.125,0.4315 -0.75,0.78452 7.5,0.78452 8.25,0 11.625,-0.35302 7.5,-0.78452 z m -25.5,-1.9695 c -1.65,-0.61086 -4.35,-2.1148 -6,-3.3421 -2.60691,-1.93908 -2.64034,-1.77286 -0.25511,1.26854 1.50969,1.925 4.20969,3.42894 6,3.3421 2.72289,-0.132 2.76461,-0.33948 0.25511,-1.26854 z m 45.75048,-15.31844 -0.2495,-10.25512 -1.5074,10.29764 c -0.82906,5.6637 -2.23954,11.5137 -3.1344,13 -1.335,2.21734 -1.01966,2.2097 1.7569,-0.0426 2.45476,-1.9912 3.3154,-5.56078 3.1344,-13 z m -54.54214,3.28654 c -0.66459,-0.66458 -1.13728,0.51668 -1.05044,2.625 0.096,2.3299 0.56988,2.8038 1.20833,1.20834 0.57774,-1.44376 0.50669,-3.16874 -0.1579,-3.83334 z M 239.23098,83.936036 c -3.1186,-2.968186 -3.20076,-2.883262 -1.1296,1.167486 1.22848,2.402684 2.39086,7.802684 2.58304,12 0.34734,7.586438 0.35402,7.579548 1.1296,-1.167486 0.56752,-6.400528 -0.1366,-9.67151 -2.58304,-12 z"
   id="path3837"
   inkscape:connector-curvature="0" /><path
   style="fill:#cccccc;stroke-width:2"
   d="M 160.335,400.62928 C 63.173906,379.79402 -4.583044,290.58646 1.0027263,190.85532 3.8207063,140.5417 23.427188,96.709486 59.286976,60.555168 c 81.143604,-81.81006 210.776444,-80.164144 290.296404,3.68582 23.38368,24.656948 37.95466,50.420672 47.78664,84.494012 6.49832,22.52034 8.68812,58.36244 5.07528,83.07088 -12.44446,85.1081 -77.28336,152.88242 -161.78624,169.1107 -18.56408,3.56512 -63.10193,3.40582 -80.32406,-0.2873 z m 57.5,-74.27294 c -1.925,-0.50304 -5.075,-0.50304 -7,0 -1.925,0.50306 -0.35,0.91466 3.5,0.91466 3.85,0 5.425,-0.4116 3.5,-0.91466 z m 24.28086,-16.5036 -0.21912,-7.11774 -1.68182,8.53072 c -0.925,4.6919 -2.24314,9.6419 -2.92918,11 -0.68606,1.3581 0.1694,0.72226 1.90094,-1.41298 1.73158,-2.13524 3.04972,-7.08524 2.92918,-11 z M 240.197,84.99136 c -1.88482,-1.73534 -2.15184,-1.410398 -1.15636,1.407218 0.7119,2.014968 1.4292,5.614968 1.59402,8 0.21114,3.055274 0.55276,2.639524 1.15636,-1.407218 0.47118,-3.159006 -0.24612,-6.759006 -1.59402,-8 z"
   id="path3839"
   inkscape:connector-curvature="0" /><path
   style="fill:#cccccc;stroke-width:2"
   d=""
   id="path3841"
   inkscape:connector-curvature="0" /><path
   style="fill:#cccccc;stroke-width:2"
   d="M 160.335,400.85438 C 123.46363,393.11822 87.890022,373.59402 60.183006,345.887 1.5170451,287.22104 -15.692073,199.97678 16.261589,123.22064 33.712974,81.300528 70.29455,42.870768 113.335,21.242846 c 73.66434,-37.01649 164.8146,-23.9289272 225.4195,32.366246 20.94702,19.457428 33.74562,36.590212 45.66254,61.125908 15.52352,31.96132 18.8322,47.53044 18.7013,88 -0.091,28.1582 -0.83446,36.63754 -4.32668,49.35086 -10.20322,37.14452 -27.10756,66.56984 -53.31622,92.80736 -25.89042,25.91892 -56.80106,44.06378 -90.57288,53.1672 -20.00722,5.3931 -74.50574,7.00322 -94.56756,2.79396 z m 81.77002,-89.11938 -0.16874,-5 -1.60128,5 c -0.8807,2.75 -1.67722,6.35 -1.77002,8 -0.15,2.66666 0.0466,2.66666 1.77002,0 1.06632,-1.65 1.86282,-5.25 1.77002,-8 z M 240.31854,86.297842 c -2.16632,-3.376964 -2.22552,-3.371708 -1.13456,0.10074 0.63306,2.014968 1.25542,5.164968 1.38302,7 0.20902,3.005756 0.32146,2.995772 1.13454,-0.10074 0.4964,-1.890438 -0.126,-5.040438 -1.383,-7 z"
   id="path3843"
   inkscape:connector-curvature="0" /><path
   style="fill:#cccccc;stroke-width:2"
   d="M 163.84942,401.7885 C 127.52144,395.20974 88.42115,374.12514 60.183006,345.887 34.383584,320.08758 14.827904,285.76638 5.8984573,250.61488 -0.40924474,225.78412 -0.40743814,176.48321 5.9020201,153.38414 26.23916,78.929396 80.876356,24.912406 155.44045,5.5431765 c 24.75824,-6.43135596 67.85483,-6.5931118 92.89455,-0.3486644 36.12774,9.0096009 66.38048,25.5145439 92.84516,50.6534039 19.7762,18.785448 33.09022,36.993062 44.19966,60.445324 15.04818,31.76701 17.66728,44.56568 17.68928,86.44176 0.018,33.43894 -0.36434,37.24982 -5.36858,53.56816 -21.46292,69.98856 -71.17246,120.4475 -138.4888,140.57654 -15.7369,4.70568 -21.94648,5.4222 -51.87672,5.98606 -18.7,0.35228 -38.26851,-0.1324 -43.48558,-1.07726 z m 77.69392,-91.51184 c -0.6646,-0.66458 -1.13728,0.51668 -1.05044,2.625 0.096,2.3299 0.56988,2.8038 1.20832,1.20834 0.57774,-1.44376 0.5067,-3.16874 -0.1578,-3.83334 z m 0,-221.99999 c -0.6646,-0.664582 -1.13728,0.516668 -1.05044,2.625 0.096,2.329886 0.56988,2.8038 1.20832,1.208334 0.57774,-1.44375 0.5067,-3.16875 -0.1578,-3.833334 z"
   id="path3845"
   inkscape:connector-curvature="0" /><text
   xml:space="preserve"
   style="font-style:normal;font-weight:normal;font-size:279.89398193px;line-height:1.25;font-family:sans-serif;letter-spacing:0px;word-spacing:0px;fill:#000000;fill-opacity:1;stroke:none;stroke-width:6.99734926"
   x="132.69867"
   y="280.15952"
   id="text3849"
   transform="scale(0.91236364,1.0960542)"><tspan
     sodipodi:role="line"
     id="tspan3847"
     x="132.69867"
     y="280.15952"
     style="stroke-width:6.99734926">2</tspan></text>
</svg>