<svg xmlns="http://www.w3.org/2000/svg" width="30" height="30" viewBox="0 0 30 30">
  <g id="youtube" transform="translate(-1203 -1999)">
    <path id="Trazado_9252" data-name="Trazado 9252" d="M15,0A15,15,0,1,1,0,15,15,15,0,0,1,15,0Z" transform="translate(1203 1999)" fill="red"/>
    <g id="Grupo_1219" data-name="Grupo 1219" transform="translate(1950.278 1789.398)">
      <path id="Trazado_9251" data-name="Trazado 9251" d="M-723,222.515c-.007-.214-.018-.428-.035-.642a4.7,4.7,0,0,0-.769-2.668,2.926,2.926,0,0,0-2.059-.846c-.954-.108-1.912-.173-2.871-.21-1.942-.074-3.886-.031-5.829.012-1,.022-2,.044-2.992.124-1.222.1-2.479.276-3.048,1.5a9.006,9.006,0,0,0-.454,3.667c-.006,1.057-.009,2.115.033,3.172.055,1.371.136,3.157,1.616,3.759a8.529,8.529,0,0,0,2.588.448c.895.058,1.791.051,2.687.064,1.879.028,3.757-.036,5.635-.074a12.751,12.751,0,0,0,3.892-.467c1.078-.368,1.359-1.535,1.5-2.548a21.1,21.1,0,0,0,.106-3.042C-722.995,224.013-722.975,223.263-723,222.515Zm-10.855,4.719v-5.5l4.68,2.749Z" transform="translate(0 0)" fill="#fff"/>
    </g>
  </g>
</svg>
