<svg xmlns="http://www.w3.org/2000/svg" width="226" height="278" viewBox="0 0 226 278">
  <g id="Grupo_2599" data-name="Grupo 2599" transform="translate(-6152 2267)">
    <rect id="Rectángulo_2139" data-name="Rectángulo 2139" width="226" height="229" rx="25" transform="translate(6152 -2218)" fill="rgba(7,167,45,0.92)"/>
    <circle id="Elipse_37" data-name="Elipse 37" cx="53" cy="53" r="53" transform="translate(6212 -2267)" fill="#f5f5f5"/>
    <g id="_360-02" data-name="360-02" transform="translate(6229 -2233)">
      <text id="_360_" data-name="360º" transform="translate(15.903 17)" fill="#00a72c" font-size="19" font-family="Comfortaa-Bold, Comfortaa" font-weight="700"><tspan x="0" y="0">360º</tspan></text>
      <path id="Trazado_59" data-name="Trazado 59" d="M62.392,35.33c8.448,1.8,13.877,4.621,13.877,7.773,0,5.456-16.234,9.878-36.269,9.878" transform="translate(-3.731 -21.731)" fill="none" stroke="#00a72c" stroke-linecap="round" stroke-linejoin="round" stroke-width="2"/>
      <path id="Trazado_60" data-name="Trazado 60" d="M42.325,52.77c-16.9-.834-29.715-4.86-29.715-9.706,0-3.059,5.111-5.8,13.136-7.614" transform="translate(-12.61 -21.692)" fill="none" stroke="#00a72c" stroke-linecap="round" stroke-linejoin="round" stroke-width="2"/>
      <path id="Trazado_61" data-name="Trazado 61" d="M31.817,43.34l-1.165,1.1,5.429,5.707L29.99,55.152l1.02,1.231,7.415-6.091Z" transform="translate(-6.976 -19.134)" fill="#00a72c"/>
    </g>
  </g>
</svg>
