<svg xmlns="http://www.w3.org/2000/svg" width="280" height="408" viewBox="0 0 280 408">
  <g id="Grupo_2605" data-name="Grupo 2605" transform="translate(-6088 2327)">
    <rect id="Rectángulo_2139" data-name="Rectángulo 2139" width="280" height="300" rx="48" transform="translate(6088 -2219)" fill="rgba(219,236,223,0.92)"/>
    <g id="Grupo_2604" data-name="Grupo 2604">
      <circle id="Elipse_73" data-name="Elipse 73" cx="81.5" cy="81.5" r="81.5" transform="translate(6147 -2327)" fill="#f5f5f5"/>
      <g id="_360-02" data-name="360-02" transform="translate(6165.563 -2277.603)">
        <text id="_360_" data-name="360º" transform="translate(27.553 33)" fill="#00a72c" font-size="38" font-family="Comfortaa-Bold, Comfortaa" font-weight="700"><tspan x="0" y="0">360º</tspan></text>
        <path id="Trazado_59" data-name="Trazado 59" d="M78.794,35.33c14.637,3.12,24.043,8.007,24.043,13.467,0,9.452-28.126,17.114-62.837,17.114" transform="translate(22.837 -11.769)" fill="none" stroke="#00a72c" stroke-linecap="round" stroke-linejoin="round" stroke-width="3.45"/>
        <path id="Trazado_60" data-name="Trazado 60" d="M64.091,65.457C34.817,64.012,12.61,57.038,12.61,48.641c0-5.3,8.855-10.048,22.758-13.191" transform="translate(-12.61 -11.614)" fill="none" stroke="#00a72c" stroke-linecap="round" stroke-linejoin="round" stroke-width="3.45"/>
        <path id="Trazado_61" data-name="Trazado 61" d="M33.156,43.34l-2.019,1.9,9.406,9.888L29.99,63.8l1.766,2.134L44.6,55.384Z" transform="translate(9.882 -1.403)" fill="#00a72c"/>
      </g>
    </g>
  </g>
</svg>
