<svg xmlns="http://www.w3.org/2000/svg" width="218" height="323" viewBox="0 0 218 323">
  <g id="Grupo_2601" data-name="Grupo 2601" transform="translate(-6408 2267)">
    <rect id="Rectángulo_2286" data-name="Rectángulo 2286" width="218" height="270" rx="25" transform="translate(6408 -2214)" fill="rgba(219,236,223,0.92)"/>
    <circle id="Elipse_38" data-name="Elipse 38" cx="53" cy="53" r="53" transform="translate(6464 -2267)" fill="#f5f5f5"/>
    <g id="Grupo_2304" data-name="Grupo 2304" transform="translate(6481 -2239.911)">
      <path id="Trazado_77" data-name="Trazado 77" d="M25.05,25.352V20H84.674V62.224H77.415" transform="translate(-11.794 -20)" fill="none" stroke="#00a72c" stroke-linecap="round" stroke-linejoin="round" stroke-width="1"/>
      <rect id="Rectángulo_2132" data-name="Rectángulo 2132" width="59.624" height="42.21" transform="translate(0 9.825)" fill="none" stroke="#00a72c" stroke-linecap="round" stroke-linejoin="round" stroke-width="1"/>
      <path id="Trazado_78" data-name="Trazado 78" d="M19.76,28.374V23.9H79.384V66.11h-6" transform="translate(-13.763 -18.548)" fill="none" stroke="#00a72c" stroke-linecap="round" stroke-linejoin="round" stroke-width="1"/>
      <path id="Trazado_79" data-name="Trazado 79" d="M40.646,32.04,28.2,45.392H53.23Z" transform="translate(-10.621 -15.518)" fill="none" stroke="#00a72c" stroke-linecap="round" stroke-linejoin="round" stroke-width="1" fill-rule="evenodd"/>
      <rect id="Rectángulo_2133" data-name="Rectángulo 2133" width="21.297" height="15.479" transform="translate(19.445 29.888)" fill="none" stroke="#00a72c" stroke-linecap="round" stroke-linejoin="round" stroke-width="1"/>
      <rect id="Rectángulo_2134" data-name="Rectángulo 2134" width="6.285" height="9.88" transform="translate(26.951 35.473)" fill="none" stroke="#00a72c" stroke-linecap="round" stroke-linejoin="round" stroke-width="1"/>
      <path id="Trazado_80" data-name="Trazado 80" d="M44.925,41.313V34.52H42.51v4.158" transform="translate(-5.294 -14.595)" fill="none" stroke="#00a72c" stroke-linecap="round" stroke-linejoin="round" stroke-width="1" fill-rule="evenodd"/>
      <circle id="Elipse_32" data-name="Elipse 32" cx="2.95" cy="2.95" r="2.95" transform="translate(6.45 14.958)" fill="none" stroke="#00a72c" stroke-linecap="round" stroke-linejoin="round" stroke-width="1"/>
    </g>
  </g>
</svg>
