<svg xmlns="http://www.w3.org/2000/svg" width="218" height="323" viewBox="0 0 218 323">
  <g id="Grupo_2600" data-name="Grupo 2600" transform="translate(-6638 2267)">
    <rect id="Rectángulo_2287" data-name="Rectángulo 2287" width="218" height="270" rx="25" transform="translate(6638 -2214)" fill="rgba(219,236,223,0.92)"/>
    <circle id="Elipse_39" data-name="Elipse 39" cx="53" cy="53" r="53" transform="translate(6694 -2267)" fill="#f5f5f5"/>
    <g id="PlanoVirtual-02" transform="translate(6700 -2250.511)">
      <path id="Trazado_81" data-name="Trazado 81" d="M66.217,21.11l-4.57-2.34L9.15,55.406,47.812,91.587,102.932,39.86l-7.616-3.894" transform="translate(-9.15 -18.77)" fill="none" stroke="#00a72c" stroke-linecap="round" stroke-linejoin="round" stroke-width="1"/>
      <path id="Trazado_82" data-name="Trazado 82" d="M43.286,74.468,86.141,37.989l.738-5.292L59.7,19.38,27.519,40.234l9.265,7.177L24.3,55.058,42.924,70.244Z" transform="translate(-0.509 -18.422)" fill="none" stroke="#00a72c" stroke-linecap="round" stroke-linejoin="round" stroke-width="1"/>
      <line id="Línea_30" data-name="Línea 30" y1="37.39" x2="43.703" transform="translate(42.415 14.432)" fill="none" stroke="#00a72c" stroke-linecap="round" stroke-linejoin="round" stroke-width="1"/>
      <path id="Trazado_83" data-name="Trazado 83" d="M24.3,42.1v4.444l8.386,6.737" transform="translate(-0.509 -5.464)" fill="none" stroke="#00a72c" stroke-linecap="round" stroke-linejoin="round" stroke-width="1"/>
      <path id="Trazado_84" data-name="Trazado 84" d="M52.8,46.382,43.35,39.5,55.41,30.16l9.344,5.763" transform="translate(10.356 -12.274)" fill="none" stroke="#00a72c" stroke-linecap="round" stroke-linejoin="round" stroke-width="1"/>
      <path id="Trazado_85" data-name="Trazado 85" d="M46.84,19.38l.33,5.716L69.484,36.308" transform="translate(12.347 -18.422)" fill="none" stroke="#00a72c" stroke-linecap="round" stroke-linejoin="round" stroke-width="1"/>
      <path id="Trazado_86" data-name="Trazado 86" d="M49.1,40.171l7.082-5.763.063-4.633-9-6.376v5.9L29.09,41.286" transform="translate(2.223 -16.129)" fill="none" stroke="#00a72c" stroke-linecap="round" stroke-linejoin="round" stroke-width="1"/>
      <path id="Trazado_87" data-name="Trazado 87" d="M46.607,37.188,39.65,32.65v4.758l5.81,3.58" transform="translate(8.246 -10.853)" fill="none" stroke="#00a72c" stroke-linecap="round" stroke-linejoin="round" stroke-width="1"/>
      <path id="Trazado_88" data-name="Trazado 88" d="M43.35,36.11v5.826l6.109,3.91" transform="translate(10.356 -8.88)" fill="none" stroke="#00a72c" stroke-linecap="round" stroke-linejoin="round" stroke-width="1"/>
      <line id="Línea_31" data-name="Línea 31" y1="8.15" x2="10.584" transform="translate(47.896 13.646)" fill="none" stroke="#00a72c" stroke-linecap="round" stroke-linejoin="round" stroke-width="1"/>
      <line id="Línea_32" data-name="Línea 32" x1="5.559" y2="3.785" transform="translate(53.957 6.674)" fill="none" stroke="#00a72c" stroke-linecap="round" stroke-linejoin="round" stroke-width="1"/>
      <path id="Trazado_89" data-name="Trazado 89" d="M26.35,32.66l.534,5.952,5.1,3.455" transform="translate(0.66 -10.848)" fill="none" stroke="#00a72c" stroke-linecap="round" stroke-linejoin="round" stroke-width="1"/>
      <path id="Trazado_90" data-name="Trazado 90" d="M35.216,37.23l.377,5.449L27.05,48.4" transform="translate(1.059 -8.241)" fill="none" stroke="#00a72c" stroke-linecap="round" stroke-linejoin="round" stroke-width="1"/>
      <line id="Línea_33" data-name="Línea 33" x1="5.512" y1="3.141" transform="translate(49.466 13.191)" fill="none" stroke="#00a72c" stroke-linecap="round" stroke-linejoin="round" stroke-width="1"/>
      <path id="Trazado_91" data-name="Trazado 91" d="M31.848,51.538l-4.664,3.376,2.591,2.324L26.98,59.2l13.6,13.285,2.089-1.994-7.051-6.8,6.14-4.664L31.157,50.8V46.45" transform="translate(1.019 -2.983)" fill="none" stroke="#00a72c" stroke-linecap="round" stroke-linejoin="round" stroke-width="1"/>
    </g>
  </g>
</svg>
