<svg xmlns="http://www.w3.org/2000/svg" width="393" height="454.987" viewBox="0 0 393 454.987">
  <g id="_404" data-name="404" transform="translate(-49.755 66.444)">
    <path id="Trazado_1508" data-name="Trazado 1508" d="M369.955,212.885A121.329,121.329,0,0,1,248.626,334.214c-67.007,0-158.451-10.272-158.451-77.281S181.619,91.556,248.626,91.556A121.329,121.329,0,0,1,369.955,212.885Z" transform="translate(16.58)" fill="#e6e7e8" opacity="0.5"/>
    <text id="_404-2" data-name="404" transform="translate(53.755 171.556)" fill="#d3d3d3" font-size="223" font-family="Comfortaa" font-weight="700" letter-spacing="0.007em"><tspan x="0" y="0">404</tspan></text>
    <g id="Grupo_611" data-name="Grupo 611" transform="translate(0)">
      <g id="Grupo_551" data-name="Grupo 551">
        <g id="Grupo_548" data-name="Grupo 548">
          <g id="Grupo_546" data-name="Grupo 546">
            <rect id="Rectángulo_1172" data-name="Rectángulo 1172" width="13.726" height="133.932" transform="translate(153.531 252.792)" fill="#fff"/>
            <path id="Trazado_1509" data-name="Trazado 1509" d="M160.393,235.324a7.545,7.545,0,0,0-7.545,7.544v9.924h15.091v-9.924A7.546,7.546,0,0,0,160.393,235.324Z" fill="#698793"/>
            <path id="Trazado_1510" data-name="Trazado 1510" d="M170.355,225.361a9.962,9.962,0,1,1-9.962-9.962A9.962,9.962,0,0,1,170.355,225.361Z" fill="#00a82d"/>
            <path id="Trazado_1511" data-name="Trazado 1511" d="M158.539,218.522a9.928,9.928,0,0,1,9.622,12.5,9.953,9.953,0,1,0-17.56-8.542A9.934,9.934,0,0,1,158.539,218.522Z" fill="#fff" opacity="0.5"/>
            <path id="Trazado_1512" data-name="Trazado 1512" d="M164.063,225.361a3.67,3.67,0,1,1-3.67-3.67A3.668,3.668,0,0,1,164.063,225.361Z" fill="#fff"/>
            <path id="Trazado_1513" data-name="Trazado 1513" d="M167.939,254.09H152.848a1.3,1.3,0,0,1-1.3-1.3v-9.924a8.842,8.842,0,0,1,17.685,0v9.924A1.3,1.3,0,0,1,167.939,254.09ZM154.144,251.5h12.5v-8.628a6.249,6.249,0,0,0-12.5,0Z" fill="#4a4a4a"/>
            <path id="Trazado_1514" data-name="Trazado 1514" d="M160.393,236.62a11.259,11.259,0,1,1,11.26-11.259A11.272,11.272,0,0,1,160.393,236.62Zm0-19.924a8.665,8.665,0,1,0,8.666,8.665A8.675,8.675,0,0,0,160.393,216.7Z" fill="#4a4a4a"/>
            <rect id="Rectángulo_1173" data-name="Rectángulo 1173" width="13.726" height="9.501" transform="translate(153.531 299.412)" fill="#93b9d5"/>
            <path id="Trazado_1515" data-name="Trazado 1515" d="M167.256,388.543H153.531a1.3,1.3,0,0,1-1.3-1.3V245.234a1.3,1.3,0,0,1,1.3-1.3h13.725a1.3,1.3,0,0,1,1.3,1.3V387.245A1.3,1.3,0,0,1,167.256,388.543Zm-12.429-2.6H165.96V246.532H154.827Z" fill="#4a4a4a"/>
          </g>
          <g id="Grupo_547" data-name="Grupo 547">
            <rect id="Rectángulo_1174" data-name="Rectángulo 1174" width="13.726" height="133.932" transform="translate(332.354 252.792)" fill="#fff"/>
            <path id="Trazado_1516" data-name="Trazado 1516" d="M339.219,235.324a7.545,7.545,0,0,0-7.546,7.544v9.924h15.091v-9.924A7.545,7.545,0,0,0,339.219,235.324Z" fill="#698793"/>
            <path id="Trazado_1517" data-name="Trazado 1517" d="M349.18,225.361a9.962,9.962,0,1,1-9.961-9.962A9.962,9.962,0,0,1,349.18,225.361Z" fill="#00a82d"/>
            <path id="Trazado_1518" data-name="Trazado 1518" d="M337.364,218.522a9.928,9.928,0,0,1,9.622,12.5,9.953,9.953,0,1,0-17.56-8.542A9.936,9.936,0,0,1,337.364,218.522Z" fill="#fff" opacity="0.5"/>
            <path id="Trazado_1519" data-name="Trazado 1519" d="M342.888,225.361a3.669,3.669,0,1,1-3.669-3.67A3.669,3.669,0,0,1,342.888,225.361Z" fill="#fff"/>
            <path id="Trazado_1520" data-name="Trazado 1520" d="M346.764,254.09H331.673a1.3,1.3,0,0,1-1.3-1.3v-9.924a8.842,8.842,0,0,1,17.684,0v9.924A1.3,1.3,0,0,1,346.764,254.09ZM332.97,251.5h12.5v-8.628a6.249,6.249,0,0,0-12.5,0Z" fill="#4a4a4a"/>
            <path id="Trazado_1521" data-name="Trazado 1521" d="M339.219,236.62a11.259,11.259,0,1,1,11.258-11.259A11.273,11.273,0,0,1,339.219,236.62Zm0-19.924a8.665,8.665,0,1,0,8.665,8.665A8.676,8.676,0,0,0,339.219,216.7Z" fill="#4a4a4a"/>
            <rect id="Rectángulo_1175" data-name="Rectángulo 1175" width="13.726" height="9.501" transform="translate(332.354 299.412)" fill="#93b9d5"/>
            <path id="Trazado_1522" data-name="Trazado 1522" d="M346.081,388.543H332.354a1.3,1.3,0,0,1-1.3-1.3V245.234a1.3,1.3,0,0,1,1.3-1.3h13.727a1.3,1.3,0,0,1,1.3,1.3V387.245A1.3,1.3,0,0,1,346.081,388.543Zm-12.429-2.6h11.132V246.532H333.652Z" fill="#4a4a4a"/>
          </g>
        </g>
        <rect id="Rectángulo_1176" data-name="Rectángulo 1176" width="215.909" height="19.021" transform="translate(141.851 351.038)" fill="#fff"/>
        <rect id="Rectángulo_1177" data-name="Rectángulo 1177" width="210.891" height="53.173" transform="translate(144.36 245.234)" fill="#fff"/>
        <g id="Grupo_549" data-name="Grupo 549">
          <path id="Trazado_1523" data-name="Trazado 1523" d="M187.335,245.234l-45.483,45.483v7.689h16.063l53.172-53.173Z" fill="#00a82d"/>
          <path id="Trazado_1524" data-name="Trazado 1524" d="M141.851,253.218v23.754l31.736-31.737H149.833Z" fill="#00a82d"/>
          <path id="Trazado_1525" data-name="Trazado 1525" d="M285.718,245.234H261.966l-53.172,53.173h23.753Z" fill="#00a82d"/>
          <path id="Trazado_1526" data-name="Trazado 1526" d="M248.218,245.234H224.465l-53.172,53.173h23.753Z" fill="#00a82d"/>
          <path id="Trazado_1527" data-name="Trazado 1527" d="M323.034,245.234H299.28l-53.172,53.173H269.86Z" fill="#00a82d"/>
          <path id="Trazado_1528" data-name="Trazado 1528" d="M357.76,285.14V261.386l-37.021,37.021h23.753Z" fill="#00a82d"/>
          <path id="Trazado_1529" data-name="Trazado 1529" d="M357.76,247.639v-2.4H336.412l-53.173,53.173h23.753Z" fill="#00a82d"/>
        </g>
        <rect id="Rectángulo_1178" data-name="Rectángulo 1178" width="215.909" height="5.513" transform="translate(141.851 245.234)" fill="#fff" opacity="0.5"/>
        <path id="Trazado_1530" data-name="Trazado 1530" d="M357.76,299.7H141.851a1.3,1.3,0,0,1-1.3-1.3V245.234a1.3,1.3,0,0,1,1.3-1.3H357.76a1.3,1.3,0,0,1,1.3,1.3v53.173A1.3,1.3,0,0,1,357.76,299.7Zm-214.612-2.594H356.463V246.532H143.148Z" fill="#4a4a4a"/>
        <g id="Grupo_550" data-name="Grupo 550">
          <path id="Trazado_1531" data-name="Trazado 1531" d="M152.873,351.038,141.851,362.06v8h8.319l19.021-19.021Z" fill="#00a82d"/>
          <path id="Trazado_1532" data-name="Trazado 1532" d="M196.822,351.038H180.5L161.482,370.06H177.8Z" fill="#00a82d"/>
          <path id="Trazado_1533" data-name="Trazado 1533" d="M223.747,351.038H207.43L188.409,370.06h16.317Z" fill="#00a82d"/>
          <path id="Trazado_1534" data-name="Trazado 1534" d="M251.377,351.038H235.06L216.04,370.06h16.316Z" fill="#00a82d"/>
          <path id="Trazado_1535" data-name="Trazado 1535" d="M280.743,351.038H264.425L245.4,370.06h16.319Z" fill="#00a82d"/>
          <path id="Trazado_1536" data-name="Trazado 1536" d="M308.373,351.038H292.055L273.033,370.06h16.319Z" fill="#00a82d"/>
          <path id="Trazado_1537" data-name="Trazado 1537" d="M336.948,351.038H320.63l-19.02,19.021h16.318Z" fill="#00a82d"/>
          <path id="Trazado_1538" data-name="Trazado 1538" d="M357.76,357.855v-6.817h-9.5L329.238,370.06h16.319Z" fill="#00a82d"/>
        </g>
        <path id="Trazado_1539" data-name="Trazado 1539" d="M357.76,371.355H141.851a1.3,1.3,0,0,1-1.3-1.3V351.038a1.3,1.3,0,0,1,1.3-1.3H357.76a1.3,1.3,0,0,1,1.3,1.3V370.06A1.3,1.3,0,0,1,357.76,371.355Zm-214.612-2.593H356.463V352.334H143.148Z" fill="#4a4a4a"/>
      </g>
      <path id="Trazado_1540" data-name="Trazado 1540" d="M400.83,388.543H98.781a1.3,1.3,0,0,1,0-2.6H400.83a1.3,1.3,0,0,1,0,2.6Z" fill="#4a4a4a"/>
      <g id="Grupo_552" data-name="Grupo 552">
        <path id="Trazado_1541" data-name="Trazado 1541" d="M414.581,377.93l-17.424-71.987h-9.038L370.692,377.93H360.179v9.316H425.1V377.93Z" fill="#00a82d"/>
        <path id="Trazado_1542" data-name="Trazado 1542" d="M406.908,345.568H378.526l2.011-8.307h24.2Z" fill="#f1f1f2"/>
        <rect id="Rectángulo_1179" data-name="Rectángulo 1179" width="35.26" height="8.306" transform="translate(374.226 354.933)" fill="#f1f1f2"/>
        <path id="Trazado_1543" data-name="Trazado 1543" d="M409.485,377.93l-16.768-71.987h3.905l17.959,71.987Z" fill="#fff" opacity="0.5"/>
        <rect id="Rectángulo_1180" data-name="Rectángulo 1180" width="64.917" height="4.57" transform="translate(359.643 377.93)" fill="#fff" opacity="0.5"/>
        <path id="Trazado_1544" data-name="Trazado 1544" d="M424.56,388.543H359.643a1.3,1.3,0,0,1-1.3-1.3V377.93a1.3,1.3,0,0,1,1.3-1.3h9.495l17.183-70.995a1.3,1.3,0,0,1,1.262-.992h9.039a1.3,1.3,0,0,1,1.26.992l17.183,70.995h9.495a1.3,1.3,0,0,1,1.3,1.3v9.316A1.3,1.3,0,0,1,424.56,388.543Zm-63.621-2.6h62.325v-6.721h-9.218a1.3,1.3,0,0,1-1.26-.992L395.6,307.24h-7l-17.186,70.995a1.3,1.3,0,0,1-1.26.992h-9.218Z" fill="#4a4a4a"/>
        <path id="Trazado_1545" data-name="Trazado 1545" d="M397.613,379.227H370.692a1.3,1.3,0,0,1,0-2.6h26.921a1.3,1.3,0,0,1,0,2.6Z" fill="#4a4a4a"/>
        <path id="Trazado_1546" data-name="Trazado 1546" d="M420.526,379.227H405.179a1.3,1.3,0,0,1,0-2.6h15.347a1.3,1.3,0,0,1,0,2.6Z" fill="#4a4a4a"/>
      </g>
      <g id="Grupo_553" data-name="Grupo 553">
        <path id="Trazado_1547" data-name="Trazado 1547" d="M129.99,377.93l-9.621-39.75-7.8-32.237h-9.039L86.1,377.93H75.587v9.316H140.5V377.93Z" fill="#00a82d"/>
        <path id="Trazado_1548" data-name="Trazado 1548" d="M122.316,345.568H93.935l2.01-8.307h24.2Z" fill="#f1f1f2"/>
        <rect id="Rectángulo_1181" data-name="Rectángulo 1181" width="35.259" height="8.306" transform="translate(89.634 354.933)" fill="#f1f1f2"/>
        <path id="Trazado_1549" data-name="Trazado 1549" d="M124.893,377.93l-16.767-71.987h3.9l17.96,71.987Z" fill="#fff" opacity="0.5"/>
        <rect id="Rectángulo_1182" data-name="Rectángulo 1182" width="64.916" height="4.57" transform="translate(75.051 377.93)" fill="#fff" opacity="0.5"/>
        <path id="Trazado_1550" data-name="Trazado 1550" d="M139.968,388.543H75.051a1.3,1.3,0,0,1-1.3-1.3V377.93a1.3,1.3,0,0,1,1.3-1.3h9.494l17.185-70.995a1.3,1.3,0,0,1,1.26-.992h9.039a1.3,1.3,0,0,1,1.261.992l17.185,70.995h9.493a1.3,1.3,0,0,1,1.3,1.3v9.316A1.3,1.3,0,0,1,139.968,388.543Zm-63.62-2.6h62.323v-6.721h-9.217a1.3,1.3,0,0,1-1.26-.992L111.009,307.24h-7L86.826,378.235a1.3,1.3,0,0,1-1.261.992H76.348Z" fill="#4a4a4a"/>
        <path id="Trazado_1551" data-name="Trazado 1551" d="M113.021,379.227H86.1a1.3,1.3,0,0,1,0-2.6h26.92a1.3,1.3,0,0,1,0,2.6Z" fill="#4a4a4a"/>
        <path id="Trazado_1552" data-name="Trazado 1552" d="M135.934,379.227H120.587a1.3,1.3,0,0,1,0-2.6h15.347a1.3,1.3,0,0,1,0,2.6Z" fill="#4a4a4a"/>
      </g>
      <g id="Grupo_554" data-name="Grupo 554" transform="translate(47.755 161.333)" opacity="0.1">
        <path id="Trazado_1375" data-name="Trazado 1375" d="M192.968,218.877a9.55,9.55,0,1,0,9.549,9.551A9.55,9.55,0,0,0,192.968,218.877Zm0,13.416a3.866,3.866,0,1,1,3.865-3.865A3.866,3.866,0,0,1,192.968,232.293Z" transform="translate(157.228 -112.029)" fill="#4a4a4a"/>
        <path id="Trazado_1376" data-name="Trazado 1376" d="M309.715,236.507a9.55,9.55,0,1,0,9.549,9.549A9.549,9.549,0,0,0,309.715,236.507Zm0,13.416a3.866,3.866,0,1,1,3.865-3.867A3.868,3.868,0,0,1,309.715,249.923Z" transform="translate(-103.584 -191.01)" fill="#4a4a4a"/>
        <path id="Trazado_1377" data-name="Trazado 1377" d="M344.14,168.839a7.313,7.313,0,1,0,7.313,7.313A7.312,7.312,0,0,0,344.14,168.839Zm0,10.273a2.959,2.959,0,1,1,2.96-2.959A2.96,2.96,0,0,1,344.14,179.112Z" transform="translate(36.128 -9.685)" fill="#4a4a4a"/>
        <path id="Trazado_1378" data-name="Trazado 1378" d="M285.632,115.477a7.732,7.732,0,1,0,7.732,7.732A7.732,7.732,0,0,0,285.632,115.477Zm0,10.862a3.129,3.129,0,1,1,3.128-3.13A3.13,3.13,0,0,1,285.632,126.339Z" transform="translate(-20.128 -95.304)" fill="#4a4a4a"/>
        <path id="Trazado_1379" data-name="Trazado 1379" d="M173.029,197.656a8.129,8.129,0,1,0,8.131,8.129A8.128,8.128,0,0,0,173.029,197.656Z" transform="translate(-153.848 -24.329)" fill="#4a4a4a"/>
        <path id="Trazado_1380" data-name="Trazado 1380" d="M320.6,209.931a5.912,5.912,0,1,0,5.912,5.912A5.912,5.912,0,0,0,320.6,209.931Z" transform="translate(-254.27 -166.694)" fill="#4a4a4a"/>
        <path id="Trazado_1381" data-name="Trazado 1381" d="M232.768,116.586a8.642,8.642,0,1,0,8.642,8.642A8.642,8.642,0,0,0,232.768,116.586Z" transform="translate(-84.238 -93.982)" fill="#4a4a4a"/>
        <path id="Trazado_1383" data-name="Trazado 1383" d="M308.791,131.79a7.391,7.391,0,1,0,7.392,7.392A7.391,7.391,0,0,0,308.791,131.79Z" transform="translate(7.891 -75.855)" fill="#4a4a4a"/>
        <circle id="Elipse_13" data-name="Elipse 13" cx="4.207" cy="4.207" r="4.207" transform="translate(50.685 113.396)" fill="#4a4a4a"/>
        <path id="Trazado_1384" data-name="Trazado 1384" d="M345.232,152.026a7.177,7.177,0,1,0,7.177,7.18A7.178,7.178,0,0,0,345.232,152.026Z" transform="translate(42.59 -80.729)" fill="#4a4a4a"/>
        <circle id="Elipse_14" data-name="Elipse 14" cx="4.58" cy="4.58" r="4.58" transform="translate(6.569 128.277)" fill="#4a4a4a"/>
        <path id="Trazado_1385" data-name="Trazado 1385" d="M260.5,113.525l2.876-2.876a2.563,2.563,0,0,0-3.624-3.626l-2.876,2.876L254,107.023a2.564,2.564,0,0,0-3.626,3.626l2.876,2.876-2.876,2.876A2.564,2.564,0,0,0,254,120.027l2.876-2.876,2.876,2.876a2.563,2.563,0,0,0,3.624-3.626Z" transform="translate(-98.834 -50.275)" fill="#4a4a4a"/>
        <path id="Trazado_1386" data-name="Trazado 1386" d="M171.191,153.175l2.876-2.876a2.564,2.564,0,0,0-3.626-3.626l-2.876,2.876-2.876-2.876a2.564,2.564,0,0,0-3.626,3.626l2.876,2.876-2.876,2.876a2.564,2.564,0,1,0,3.626,3.626l2.876-2.876,2.876,2.876a2.564,2.564,0,1,0,3.626-3.626Z" transform="translate(-158.315 -89.003)" fill="#4a4a4a"/>
        <path id="Trazado_1387" data-name="Trazado 1387" d="M325.032,232.688l2.438-2.436a2.172,2.172,0,0,0-3.071-3.071l-2.436,2.436-2.436-2.436a2.172,2.172,0,0,0-3.071,3.071l2.436,2.436-2.436,2.436a2.172,2.172,0,0,0,3.071,3.071l2.436-2.436,2.436,2.436a2.172,2.172,0,0,0,3.071-3.071Z" transform="translate(45.083 -192.883)" fill="#4a4a4a"/>
      </g>
    </g>
  </g>
</svg>
