<svg xmlns="http://www.w3.org/2000/svg" width="310" height="390" viewBox="0 0 310 390">
  <g id="Grupo_2489" data-name="Grupo 2489" transform="translate(-132 -6813)">
    <g id="Grupo_2365" data-name="Grupo 2365" transform="translate(-1634 -658)">
      <g id="Grupo_2360" data-name="Grupo 2360" transform="translate(1766 7471)">
        <rect id="Rectángulo_2150" data-name="Rectángulo 2150" width="310" height="361" rx="47" transform="translate(0 29)" fill="#fff"/>
        <g id="Grupo_2357" data-name="Grupo 2357" transform="translate(126 0)">
          <circle id="Elipse_45" data-name="Elipse 45" cx="29" cy="29" r="29" fill="#19419b"/>
          <text id="_3" data-name="3" transform="translate(22.147 17)" fill="#fff" font-size="24" font-family="Comfortaa-SemiBold, Comfortaa" font-weight="600"><tspan x="-0.628" y="21">3</tspan></text>
        </g>
      </g>
    </g>
    <g id="Grupo_2486" data-name="Grupo 2486" transform="translate(-996 6215)">
      <circle id="Elipse_43" data-name="Elipse 43" cx="57.5" cy="57.5" r="57.5" transform="translate(1226 853)" fill="#e2eee5"/>
      <g id="Grupo_2326" data-name="Grupo 2326" transform="translate(1247.878 871.038)">
        <path id="Icon_awesome-user-alt" data-name="Icon awesome-user-alt" d="M23.573,26.52a13.26,13.26,0,1,0-13.26-13.26A13.263,13.263,0,0,0,23.573,26.52ZM35.36,29.467H30.286a16.029,16.029,0,0,1-13.426,0H11.787A11.786,11.786,0,0,0,0,41.253v1.473a4.421,4.421,0,0,0,4.42,4.42H42.726a4.421,4.421,0,0,0,4.42-4.42V41.253A11.786,11.786,0,0,0,35.36,29.467Z" transform="translate(11.996 21.142)" fill="none" stroke="#264ca1" stroke-width="1"/>
        <path id="Icon_feather-star" data-name="Icon feather-star" d="M9.781,3l2.1,4.245,4.685.685-3.39,3.3.8,4.665-4.191-2.2L5.59,15.9l.8-4.665L3,7.93l4.685-.685Z" transform="translate(5.663 9.994)" fill="none" stroke="#19419b" stroke-linecap="round" stroke-linejoin="round" stroke-width="1"/>
        <path id="Icon_feather-star-2" data-name="Icon feather-star" d="M9.781,3l2.1,4.245,4.685.685-3.39,3.3.8,4.665-4.191-2.2L5.59,15.9l.8-4.665L3,7.93l4.685-.685Z" transform="translate(55.164 28.557)" fill="none" stroke="#19419b" stroke-linecap="round" stroke-linejoin="round" stroke-width="1"/>
        <path id="Icon_feather-star-3" data-name="Icon feather-star" d="M9.781,3l2.1,4.245,4.685.685-3.39,3.3.8,4.665-4.191-2.2L5.59,15.9l.8-4.665L3,7.93l4.685-.685Z" transform="translate(-3 28.557)" fill="none" stroke="#19419b" stroke-linecap="round" stroke-linejoin="round" stroke-width="1"/>
        <path id="Icon_feather-star-4" data-name="Icon feather-star" d="M9.781,3l2.1,4.245,4.685.685-3.39,3.3.8,4.665-4.191-2.2L5.59,15.9l.8-4.665L3,7.93l4.685-.685Z" transform="translate(46.502 9.994)" fill="none" stroke="#19419b" stroke-linecap="round" stroke-linejoin="round" stroke-width="1"/>
        <path id="Icon_feather-star-5" data-name="Icon feather-star" d="M9.781,3l2.1,4.245,4.685.685-3.39,3.3.8,4.665-4.191-2.2L5.59,15.9l.8-4.665L3,7.93l4.685-.685Z" transform="translate(26.082 -3)" fill="none" stroke="#19419b" stroke-linecap="round" stroke-linejoin="round" stroke-width="1"/>
      </g>
    </g>
  </g>
</svg>
