<svg xmlns="http://www.w3.org/2000/svg" width="198.967" height="229.374" viewBox="0 0 198.967 229.374">
  <g id="Grupo_2594" data-name="Grupo 2594" transform="translate(0)">
    <path id="Trazado_177" data-name="Trazado 177" d="M2458,755.763V705.307A16.307,16.307,0,0,1,2474.306,689H2640.66a16.307,16.307,0,0,1,16.307,16.307v50.456s-37.678-7.271-70.729-2.644c-29.4,4.116-58.17,11.9-76.017,11.9S2458,755.763,2458,755.763Z" transform="translate(-2458 -689)" fill="#19419b"/>
    <path id="Trazado_178" data-name="Trazado 178" d="M2458,828.288v-40.1s34.373,9.254,52.221,9.254,46.617-7.782,76.017-11.9c33.051-4.627,70.729,2.644,70.729,2.644V934.052a17.187,17.187,0,0,1-17.186,17.187H2475.187A17.187,17.187,0,0,1,2458,934.052Z" transform="translate(-2458 -721.864)" fill="#f5f5f5"/>
  </g>
</svg>
