<svg xmlns="http://www.w3.org/2000/svg" width="239.77" height="276.412" viewBox="0 0 239.77 276.412">
  <g id="Grupo_2456" data-name="Grupo 2456" transform="translate(1683.791 -889.626)">
    <path id="Trazado_183" data-name="Trazado 183" d="M2458,769.454v-60.8A19.651,19.651,0,0,1,2477.65,689h200.468a19.651,19.651,0,0,1,19.651,19.651v60.8s-45.4-8.762-85.233-3.186c-35.429,4.96-70.1,14.338-91.606,14.338S2458,769.454,2458,769.454Z" transform="translate(-4141.791 200.626)" fill="rgba(19,70,9,0.7)"/>
    <path id="Trazado_184" data-name="Trazado 184" d="M2458,837.371V789.043s41.422,11.152,62.93,11.152,56.177-9.378,91.606-14.339c39.829-5.576,85.233,3.186,85.233,3.186v175.78a20.711,20.711,0,0,1-20.711,20.711H2478.711A20.712,20.712,0,0,1,2458,964.823Z" transform="translate(-4141.791 180.504)" fill="rgba(245,245,245,0.6)"/>
  </g>
</svg>
