<svg xmlns="http://www.w3.org/2000/svg" width="563" height="178" viewBox="0 0 563 178">
  <g id="Grupo_2483" data-name="Grupo 2483" transform="translate(-1032 -6600)">
    <g id="Grupo_2478" data-name="Grupo 2478" transform="translate(-2 9)">
      <rect id="Rectángulo_2152" data-name="Rectángulo 2152" width="557" height="168" rx="47" transform="translate(1040 6601)" fill="#fff"/>
      <g id="Grupo_2332" data-name="Grupo 2332" transform="translate(234 5775)">
        <circle id="Elipse_43" data-name="Elipse 43" cx="57.5" cy="57.5" r="57.5" transform="translate(1226 853)" fill="#e2eee5"/>
        <g id="Grupo_2326" data-name="Grupo 2326" transform="translate(1247.878 871.038)">
          <path id="Icon_awesome-user-alt" data-name="Icon awesome-user-alt" d="M23.573,26.52a13.26,13.26,0,1,0-13.26-13.26A13.263,13.263,0,0,0,23.573,26.52ZM35.36,29.467H30.286a16.029,16.029,0,0,1-13.426,0H11.787A11.786,11.786,0,0,0,0,41.253v1.473a4.421,4.421,0,0,0,4.42,4.42H42.726a4.421,4.421,0,0,0,4.42-4.42V41.253A11.786,11.786,0,0,0,35.36,29.467Z" transform="translate(11.996 21.142)" fill="none" stroke="#264ca1" stroke-width="1"/>
          <path id="Icon_feather-star" data-name="Icon feather-star" d="M9.781,3l2.1,4.245,4.685.685-3.39,3.3.8,4.665-4.191-2.2L5.59,15.9l.8-4.665L3,7.93l4.685-.685Z" transform="translate(5.663 9.994)" fill="none" stroke="#19419b" stroke-linecap="round" stroke-linejoin="round" stroke-width="1"/>
          <path id="Icon_feather-star-2" data-name="Icon feather-star" d="M9.781,3l2.1,4.245,4.685.685-3.39,3.3.8,4.665-4.191-2.2L5.59,15.9l.8-4.665L3,7.93l4.685-.685Z" transform="translate(55.164 28.557)" fill="none" stroke="#19419b" stroke-linecap="round" stroke-linejoin="round" stroke-width="1"/>
          <path id="Icon_feather-star-3" data-name="Icon feather-star" d="M9.781,3l2.1,4.245,4.685.685-3.39,3.3.8,4.665-4.191-2.2L5.59,15.9l.8-4.665L3,7.93l4.685-.685Z" transform="translate(-3 28.557)" fill="none" stroke="#19419b" stroke-linecap="round" stroke-linejoin="round" stroke-width="1"/>
          <path id="Icon_feather-star-4" data-name="Icon feather-star" d="M9.781,3l2.1,4.245,4.685.685-3.39,3.3.8,4.665-4.191-2.2L5.59,15.9l.8-4.665L3,7.93l4.685-.685Z" transform="translate(46.502 9.994)" fill="none" stroke="#19419b" stroke-linecap="round" stroke-linejoin="round" stroke-width="1"/>
          <path id="Icon_feather-star-5" data-name="Icon feather-star" d="M9.781,3l2.1,4.245,4.685.685-3.39,3.3.8,4.665-4.191-2.2L5.59,15.9l.8-4.665L3,7.93l4.685-.685Z" transform="translate(26.082 -3)" fill="none" stroke="#19419b" stroke-linecap="round" stroke-linejoin="round" stroke-width="1"/>
        </g>
      </g>
    </g>
    <g id="Grupo_2432" data-name="Grupo 2432" transform="translate(-321 -285)">
      <circle id="Elipse_46" data-name="Elipse 46" cx="25" cy="25" r="25" transform="translate(1353 6885)" fill="#19419b"/>
      <text id="_3" data-name="3" transform="translate(1371.911 6899)" fill="#fff" font-size="24" font-family="Comfortaa-SemiBold, Comfortaa" font-weight="600"><tspan x="-0.628" y="21">3</tspan></text>
    </g>
  </g>
</svg>
