<svg xmlns="http://www.w3.org/2000/svg" width="245" height="339" viewBox="0 0 245 339">
  <g id="Grupo_2557" data-name="Grupo 2557" transform="translate(15178 -11503)">
    <rect id="Rectángulo_2258" data-name="Rectángulo 2258" width="245" height="339" transform="translate(-15178 11503)" fill="#f5f5f5"/>
    <g id="Grupo_2457" data-name="Grupo 2457" transform="translate(-15091 11767.411)">
      <g id="Grupo_2424" data-name="Grupo 2424" transform="translate(0 3.603)">
        <path id="Trazado_41" data-name="Trazado 41" d="M-1299.744,561.867a9.384,9.384,0,0,0-9.384-9.384,9.384,9.384,0,0,0-9.384,9.384Z" transform="translate(1318.512 -542.33)" fill="#48999a"/>
        <circle id="Elipse_43" data-name="Elipse 43" cx="5.208" cy="5.208" r="5.208" transform="translate(4.175)" fill="#48999a"/>
        <g id="Icon_feather-plus-circle" data-name="Icon feather-plus-circle" transform="translate(12.012 12.969)">
          <path id="Trazado_24" data-name="Trazado 24" d="M-1281.132,564.091a5.355,5.355,0,0,1-5.355,5.354,5.354,5.354,0,0,1-5.354-5.354,5.355,5.355,0,0,1,5.354-5.354,5.355,5.355,0,0,1,5.355,5.354Z" transform="translate(1291.841 -558.736)" fill="#fff" stroke="#48999a" stroke-linecap="round" stroke-linejoin="round" stroke-width="1"/>
          <path id="Trazado_25" data-name="Trazado 25" d="M-1279.952,565.869v4.284" transform="translate(1285.307 -562.656)" fill="#fff" stroke="#48999a" stroke-linecap="round" stroke-linejoin="round" stroke-width="1"/>
          <path id="Trazado_26" data-name="Trazado 26" d="M-1284.708,570.625h4.284" transform="translate(1287.921 -565.271)" fill="#fff" stroke="#48999a" stroke-linecap="round" stroke-linejoin="round" stroke-width="1"/>
        </g>
      </g>
      <g id="Grupo_2425" data-name="Grupo 2425" transform="translate(27.022 11.71)">
        <path id="Trazado_41-2" data-name="Trazado 41-2" d="M-1239.745,579.867a9.384,9.384,0,0,0-9.384-9.384,9.384,9.384,0,0,0-9.384,9.384Z" transform="translate(1258.512 -560.33)" fill="#48999a"/>
        <circle id="Elipse_43-2" data-name="Elipse 43-2" cx="5.208" cy="5.208" r="5.208" transform="translate(4.175 0)" fill="#48999a"/>
        <g id="Icon_feather-plus-circle-2" data-name="Icon feather-plus-circle-2" transform="translate(12.012 12.969)">
          <path id="Trazado_24-2" data-name="Trazado 24-2" d="M-1221.132,582.091a5.355,5.355,0,0,1-5.354,5.354,5.355,5.355,0,0,1-5.354-5.354,5.355,5.355,0,0,1,5.354-5.354,5.355,5.355,0,0,1,5.354,5.354Z" transform="translate(1231.841 -576.736)" fill="#fff" stroke="#48999a" stroke-linecap="round" stroke-linejoin="round" stroke-width="1"/>
          <path id="Trazado_25-2" data-name="Trazado 25-2" d="M-1219.952,583.869v4.284" transform="translate(1225.307 -580.656)" fill="#fff" stroke="#48999a" stroke-linecap="round" stroke-linejoin="round" stroke-width="1"/>
          <path id="Trazado_26-2" data-name="Trazado 26-2" d="M-1224.708,588.625h4.284" transform="translate(1227.921 -583.271)" fill="#fff" stroke="#48999a" stroke-linecap="round" stroke-linejoin="round" stroke-width="1"/>
        </g>
      </g>
      <g id="Grupo_2426" data-name="Grupo 2426" transform="translate(7.656 31.977)">
        <path id="Trazado_41-3" data-name="Trazado 41-3" d="M-1282.744,624.867a9.384,9.384,0,0,0-9.384-9.384,9.384,9.384,0,0,0-9.384,9.384Z" transform="translate(1301.512 -605.33)" fill="#48999a"/>
        <circle id="Elipse_43-3" data-name="Elipse 43-3" cx="5.208" cy="5.208" r="5.208" transform="translate(4.175)" fill="#48999a"/>
        <g id="Icon_feather-plus-circle-3" data-name="Icon feather-plus-circle-3" transform="translate(12.012 12.969)">
          <path id="Trazado_24-3" data-name="Trazado 24-3" d="M-1264.132,627.091a5.355,5.355,0,0,1-5.355,5.354,5.355,5.355,0,0,1-5.354-5.354,5.355,5.355,0,0,1,5.354-5.354,5.355,5.355,0,0,1,5.355,5.354Z" transform="translate(1274.841 -621.736)" fill="#fff" stroke="#48999a" stroke-linecap="round" stroke-linejoin="round" stroke-width="1"/>
          <path id="Trazado_25-3" data-name="Trazado 25-3" d="M-1262.952,628.869v4.284" transform="translate(1268.307 -625.657)" fill="#fff" stroke="#48999a" stroke-linecap="round" stroke-linejoin="round" stroke-width="1"/>
          <path id="Trazado_26-3" data-name="Trazado 26-3" d="M-1267.708,633.625h4.284" transform="translate(1270.921 -628.271)" fill="#fff" stroke="#48999a" stroke-linecap="round" stroke-linejoin="round" stroke-width="1"/>
        </g>
      </g>
      <g id="Grupo_2427" data-name="Grupo 2427" transform="translate(48.19 33.778)">
        <path id="Trazado_41-4" data-name="Trazado 41-4" d="M-1192.744,628.867a9.384,9.384,0,0,0-9.384-9.384,9.384,9.384,0,0,0-9.384,9.384Z" transform="translate(1211.512 -609.33)" fill="#48999a"/>
        <circle id="Elipse_43-4" data-name="Elipse 43-4" cx="5.208" cy="5.208" r="5.208" transform="translate(4.175)" fill="#48999a"/>
        <g id="Icon_feather-plus-circle-4" data-name="Icon feather-plus-circle-4" transform="translate(12.012 12.969)">
          <path id="Trazado_24-4" data-name="Trazado 24-4" d="M-1174.132,631.091a5.355,5.355,0,0,1-5.355,5.354,5.355,5.355,0,0,1-5.354-5.354,5.355,5.355,0,0,1,5.354-5.354,5.355,5.355,0,0,1,5.355,5.354Z" transform="translate(1184.841 -625.736)" fill="#fff" stroke="#48999a" stroke-linecap="round" stroke-linejoin="round" stroke-width="1"/>
          <path id="Trazado_25-4" data-name="Trazado 25-4" d="M-1172.952,632.869v4.284" transform="translate(1178.307 -629.657)" fill="#fff" stroke="#48999a" stroke-linecap="round" stroke-linejoin="round" stroke-width="1"/>
          <path id="Trazado_26-4" data-name="Trazado 26-4" d="M-1177.708,637.625h4.283" transform="translate(1180.921 -632.271)" fill="#fff" stroke="#48999a" stroke-linecap="round" stroke-linejoin="round" stroke-width="1"/>
        </g>
      </g>
      <g id="Grupo_2428" data-name="Grupo 2428" transform="translate(48.64 0)">
        <path id="Trazado_41-5" data-name="Trazado 41-5" d="M-1191.744,553.867a9.384,9.384,0,0,0-9.384-9.384,9.384,9.384,0,0,0-9.384,9.384Z" transform="translate(1210.512 -534.33)" fill="#48999a"/>
        <circle id="Elipse_43-5" data-name="Elipse 43-5" cx="5.208" cy="5.208" r="5.208" transform="translate(4.175)" fill="#48999a"/>
        <g id="Icon_feather-plus-circle-5" data-name="Icon feather-plus-circle-5" transform="translate(12.012 12.969)">
          <path id="Trazado_24-5" data-name="Trazado 24-5" d="M-1173.132,556.091a5.355,5.355,0,0,1-5.354,5.354,5.355,5.355,0,0,1-5.354-5.354,5.355,5.355,0,0,1,5.354-5.354,5.355,5.355,0,0,1,5.354,5.354Z" transform="translate(1183.841 -550.736)" fill="#fff" stroke="#48999a" stroke-linecap="round" stroke-linejoin="round" stroke-width="1"/>
          <path id="Trazado_25-5" data-name="Trazado 25-5" d="M-1171.952,557.869v4.284" transform="translate(1177.307 -554.656)" fill="#fff" stroke="#48999a" stroke-linecap="round" stroke-linejoin="round" stroke-width="1"/>
          <path id="Trazado_26-5" data-name="Trazado 26-5" d="M-1176.708,562.625h4.283" transform="translate(1179.921 -557.271)" fill="#fff" stroke="#48999a" stroke-linecap="round" stroke-linejoin="round" stroke-width="1"/>
        </g>
      </g>
    </g>
    <g id="Grupo_2546" data-name="Grupo 2546" transform="translate(-15084.852 11529.321)">
      <circle id="Elipse_37" data-name="Elipse 37" cx="30" cy="30" r="30" transform="translate(-0.148 -0.321)" fill="#48999a"/>
    </g>
  </g>
</svg>
