<svg xmlns="http://www.w3.org/2000/svg" width="291" height="291" viewBox="0 0 291 291">
  <g id="Chat" transform="translate(-218.315 -150.234)">
    <g id="Grupo_375" data-name="Grupo 375" transform="translate(163.877 102.301)">
      <g id="Grupo_364" data-name="Grupo 364" transform="translate(3.581)">
        <circle id="Elipse_34" data-name="Elipse 34" cx="145.5" cy="145.5" r="145.5" transform="translate(50.858 47.933)" fill="#00a82d"/>
        <g id="Grupo_607" data-name="Grupo 607" transform="translate(398.858 198.914)">
          <path id="Trazado_1720" data-name="Trazado 1720" d="M-142.658-93.981h-120.4A20.74,20.74,0,0,0-284-73.223V29.056a20.7,20.7,0,0,0,20.758,20.758h86.428L-128.5,82.651a4.249,4.249,0,0,0,6.6-3.4V-73.223A20.7,20.7,0,0,0-142.658-93.981ZM-164.022-3.375c-7.414,13.347-22.492,21.505-39.051,21.505s-31.392-8.158-38.806-21.258a6.1,6.1,0,0,1,2.225-8.4,6.1,6.1,0,0,1,8.4,2.225c5.189,9.392,16.067,15.078,28.178,15.078s23.234-6.18,28.423-15.325a6.1,6.1,0,0,1,8.4-2.225A6.1,6.1,0,0,1-164.022-3.375Z" transform="translate(0 0)" fill="#fff"/>
        </g>
      </g>
    </g>
  </g>
</svg>
