<svg xmlns="http://www.w3.org/2000/svg" width="75" height="75.001" viewBox="0 0 75 75.001">
  <g id="destacados" transform="translate(-2 -1.999)">
    <path id="Trazado_1418" data-name="Trazado 1418" d="M75.427,2.043,56.837,7H52a1.249,1.249,0,0,0-1.25,1.25v7.5H45.075a7.5,7.5,0,1,0-11.15,0H30.75A1.25,1.25,0,0,1,29.5,14.5V3.25A1.249,1.249,0,0,0,28.25,2h-5A1.249,1.249,0,0,0,22,3.25V14.5a8.761,8.761,0,0,0,8.75,8.75H32v7.357L28.5,45.75H28.25a1.251,1.251,0,0,0-.966.458L4.086,74.5H2V77H77V74.5H74.914l-23.2-28.292a1.251,1.251,0,0,0-.966-.458h-.255L47,30.608V23.25H57A1.249,1.249,0,0,0,58.25,22V18.626l17.177,4.581a1.248,1.248,0,0,0,1.084-.216A1.251,1.251,0,0,0,77,22V3.25a1.25,1.25,0,0,0-1.573-1.207ZM53.25,9.5h2.5v6.25h-2.5ZM34.5,10.75a5,5,0,1,1,5,5A5.005,5.005,0,0,1,34.5,10.75ZM7.32,74.5l13.7-16.711,5.095,5.095a1.249,1.249,0,0,0,1.767,0l5.366-5.366,5.366,5.366a1.249,1.249,0,0,0,1.768,0l5.366-5.366,5.366,5.366a1.249,1.249,0,0,0,1.767,0l5.095-5.095L71.68,74.5ZM56.386,55.846,52,60.232l-5.366-5.366a1.249,1.249,0,0,0-1.767,0L39.5,60.232l-5.366-5.366a1.249,1.249,0,0,0-1.767,0L27,60.232l-4.386-4.386,6.229-7.6H50.157Zm-19-10.1L39.5,38l2.114,7.749Zm18.364-25h-10A1.249,1.249,0,0,0,44.5,22v8.75a1.337,1.337,0,0,0,.031.281l3.4,14.719H44.2l-3.5-12.829a1.25,1.25,0,0,0-2.412,0l-3.5,12.829H31.071l3.4-14.719a1.338,1.338,0,0,0,.031-.281V22a1.249,1.249,0,0,0-1.25-1.25h-2.5A6.257,6.257,0,0,1,24.5,14.5V4.5H27v10a3.755,3.755,0,0,0,3.75,3.75h25Zm18.75-.377L58.25,16.039V9.211L74.5,4.878Z" transform="translate(0 0)" fill="#3c3b3b"/>
    <rect id="Rectángulo_1121" data-name="Rectángulo 1121" width="2.5" height="2.5" transform="translate(38.25 69.5)" fill="#3c3b3b"/>
    <rect id="Rectángulo_1122" data-name="Rectángulo 1122" width="2.5" height="2.5" transform="translate(43.25 69.5)" fill="#3c3b3b"/>
    <rect id="Rectángulo_1123" data-name="Rectángulo 1123" width="2.5" height="2.5" transform="translate(33.25 69.5)" fill="#3c3b3b"/>
    <path id="Trazado_1419" data-name="Trazado 1419" d="M5.75,38.5h15a3.755,3.755,0,0,0,3.75-3.75V28.939l4.726-5.907A1.25,1.25,0,0,0,28.25,21H5.75A3.755,3.755,0,0,0,2,24.75v10A3.755,3.755,0,0,0,5.75,38.5ZM4.5,24.75A1.25,1.25,0,0,1,5.75,23.5h19.9l-3.375,4.219A1.249,1.249,0,0,0,22,28.5v6.25A1.25,1.25,0,0,1,20.75,36h-15A1.25,1.25,0,0,1,4.5,34.75Z" transform="translate(0 4.75)" fill="#3c3b3b"/>
    <rect id="Rectángulo_1124" data-name="Rectángulo 1124" width="12.5" height="2.5" transform="translate(7 30.75)" fill="#3c3b3b"/>
    <rect id="Rectángulo_1125" data-name="Rectángulo 1125" width="12.5" height="2.5" transform="translate(7 35.75)" fill="#3c3b3b"/>
  </g>
</svg>
