<svg xmlns="http://www.w3.org/2000/svg" width="95.504" height="87.496" viewBox="0 0 95.504 87.496">
  <g id="diamont" transform="translate(-2.296 -6.299)">
    <g id="Grupo_1292" data-name="Grupo 1292">
      <path id="Trazado_9338" data-name="Trazado 9338" d="M96.95,28.25,81.8,7.5a1.794,1.794,0,0,0-.4-.4h0a2.232,2.232,0,0,0-.2-.1,1.471,1.471,0,0,0-.8-.2H19.3l-.2.1a1.965,1.965,0,0,0-.85.6L3.1,28.25a1.862,1.862,0,0,0-.3,1.05v.05q0,.116,0,.2a1.3,1.3,0,0,1,.05.15,1.164,1.164,0,0,1,.05.2,1.545,1.545,0,0,0,.4.6L48.55,92.4l.05.05a.128.128,0,0,0,.05.05,1.53,1.53,0,0,0,.55.55,1.081,1.081,0,0,0,.4.15l.05.05a.3.3,0,0,0,.15,0,1.374,1.374,0,0,0,.7,0h.05l.05-.05h.05a.338.338,0,0,0,.15-.05l.05-.05a.414.414,0,0,0,.15-.05,1.4,1.4,0,0,0,.5-.5L96.95,30.3a1.521,1.521,0,0,0,.35-1h0a1.692,1.692,0,0,0-.35-1.05M65.25,26.3l-11.7-16h23.4l-11.7,16M50.1,11.5,61.8,27.55H38.3L50.1,11.5M68.7,27.55,80.4,11.5,92.1,27.55H68.7m-37.3,0H8L19.7,11.5,31.4,27.55m3.45-1.25-11.7-16H46.6l-11.75,16M7.95,31.05h25.5L46.3,83.4,7.95,31.05M50.1,84.15l-13-53.1H63L50.1,84.15m3.75-.75L66.6,31.05H92.1Z" fill="#00a82d" stroke="#00a82d" stroke-width="1"/>
    </g>
  </g>
</svg>
