<svg xmlns="http://www.w3.org/2000/svg" width="300" height="483.5" viewBox="0 0 300 483.5">
  <g id="Grupo_2523" data-name="Grupo 2523" transform="translate(-729 -1560.5)">
    <line id="Línea_16" data-name="Línea 16" y2="445.463" transform="translate(879.327 1560.5)" fill="none" stroke="#e2e2e2" stroke-width="3"/>
    <g id="Grupo_2498" data-name="Grupo 2498" transform="translate(729 1567.023)">
      <g id="Grupo_2493" data-name="Grupo 2493" transform="translate(0 0)">
        <line id="Línea_17" data-name="Línea 17" x1="43.507" transform="translate(106.82 37.634)" fill="none" stroke="#e2e2e2" stroke-width="3"/>
        <circle id="Elipse_4" data-name="Elipse 4" cx="3.5" cy="3.5" r="3.5" transform="translate(103 33.977)" fill="#4a4a4a"/>
        <g id="Grupo_2446" data-name="Grupo 2446">
          <circle id="Elipse_45" data-name="Elipse 45" cx="37.5" cy="37.5" r="37.5" transform="translate(0 -0.023)" fill="#dbecdf"/>
          <g id="Grupo_2445" data-name="Grupo 2445" transform="translate(11.039 23.023)">
            <circle id="Elipse_44" data-name="Elipse 44" cx="5.064" cy="5.064" r="5.064" transform="translate(13.689 19.169)" fill="none" stroke="#26a72c" stroke-linejoin="round" stroke-width="2"/>
            <path id="Trazado_42" data-name="Trazado 42" d="M-453.623,695.425l-3.208,3.208-1.348-1.407" transform="translate(474.651 -672.796)" fill="none" stroke="#26a72c" stroke-miterlimit="10" stroke-width="2" fill-rule="evenodd"/>
            <path id="Trazado_43" data-name="Trazado 43" d="M-489.165,665.333h-11.429V637.842h20.581l-.013,16.569" transform="translate(500.594 -637.842)" fill="none" stroke="#26a72c" stroke-linejoin="round" stroke-width="2" fill-rule="evenodd"/>
            <line id="Línea_58" data-name="Línea 58" x2="15.236" transform="translate(2.358 15.646)" fill="none" stroke="#26a72c" stroke-linejoin="round" stroke-width="2"/>
            <line id="Línea_61" data-name="Línea 61" x2="15.177" transform="translate(2.358 7.103)" fill="none" stroke="#26a72c" stroke-linejoin="round" stroke-width="2"/>
            <line id="Línea_62" data-name="Línea 62" x2="15.177" transform="translate(2.358 11.318)" fill="none" stroke="#26a72c" stroke-linejoin="round" stroke-width="2"/>
            <line id="Línea_63" data-name="Línea 63" x2="15.177" transform="translate(2.358 3.46)" fill="none" stroke="#26a72c" stroke-linejoin="round" stroke-width="2"/>
            <line id="Línea_64" data-name="Línea 64" x2="15.236" transform="translate(33.797 15.646)" fill="none" stroke="#26a72c" stroke-linejoin="round" stroke-width="2"/>
            <line id="Línea_65" data-name="Línea 65" x2="15.177" transform="translate(33.797 7.103)" fill="none" stroke="#26a72c" stroke-linejoin="round" stroke-width="2"/>
            <line id="Línea_66" data-name="Línea 66" x2="15.177" transform="translate(33.797 11.318)" fill="none" stroke="#26a72c" stroke-linejoin="round" stroke-width="2"/>
            <line id="Línea_67" data-name="Línea 67" x2="15.177" transform="translate(33.797 3.46)" fill="none" stroke="#26a72c" stroke-linejoin="round" stroke-width="2"/>
            <g id="Rectángulo_2241" data-name="Rectángulo 2241" transform="translate(29.961 -1.046)" fill="none" stroke="#26a72c" stroke-linejoin="round" stroke-width="2">
              <rect width="23" height="30" stroke="none"/>
              <rect x="1" y="1" width="21" height="28" fill="none"/>
            </g>
          </g>
        </g>
      </g>
    </g>
    <g id="Grupo_2497" data-name="Grupo 2497" transform="translate(879.327 1665.299)">
      <line id="Línea_18" data-name="Línea 18" x1="43.507" transform="translate(0 41.308)" fill="none" stroke="#e2e2e2" stroke-width="3"/>
      <ellipse id="Elipse_5" data-name="Elipse 5" cx="3.5" cy="4" rx="3.5" ry="4" transform="translate(38.673 37.701)" fill="#4a4a4a"/>
      <g id="Grupo_2470" data-name="Grupo 2470" transform="translate(71.446 0)">
        <ellipse id="Elipse_45-2" data-name="Elipse 45" cx="37" cy="37.5" rx="37" ry="37.5" transform="translate(0.227 -0.299)" fill="#dbecdf"/>
        <g id="Grupo_2448" data-name="Grupo 2448" transform="translate(15.893 11.112)">
          <g id="Grupo_2447" data-name="Grupo 2447">
            <g id="Grupo_2447-2" data-name="Grupo 2447">
              <path id="Trazado_45" data-name="Trazado 45" d="M-1137.863,875.906h12.254a9.2,9.2,0,0,0-9.2-9.2h0a9.182,9.182,0,0,0-7.044,3.28" transform="translate(1168.196 -824.14)" fill="none" stroke="#26a72c" stroke-linecap="round" stroke-linejoin="round" stroke-width="2"/>
              <circle id="Elipse_48" data-name="Elipse 48" cx="5.111" cy="5.111" r="5.111" transform="translate(28.273 31.963)" fill="none" stroke="#26a72c" stroke-linecap="round" stroke-linejoin="round" stroke-width="2"/>
              <path id="Trazado_46" data-name="Trazado 46" d="M-1199.15,744.669l-18.227,19.58h36.671Z" transform="translate(1217.377 -744.669)" fill="none" stroke="#26a72c" stroke-linecap="round" stroke-linejoin="round" stroke-width="2"/>
              <path id="Rectángulo_2219" data-name="Rectángulo 2219" d="M-1196.04,823.506h0l-13.5-.025V800.808h31.2v9.609" transform="translate(1212.271 -781.228)" fill="none" stroke="#26a72c" stroke-linecap="round" stroke-linejoin="round" stroke-width="2"/>
              <path id="Rectángulo_2220" data-name="Rectángulo 2220" d="M-1178,838.789V824.315h9.2v8.016" transform="translate(1191.734 -796.536)" fill="none" stroke="#26a72c" stroke-linecap="round" stroke-linejoin="round" stroke-width="2"/>
              <path id="Trazado_47" data-name="Trazado 47" d="M-1131.353,768.937v-9.949h-3.531v6.367" transform="translate(1163.656 -753.994)" fill="none" stroke="#26a72c" stroke-linecap="round" stroke-linejoin="round" stroke-width="2"/>
              <path id="Trazado_45-2" data-name="Trazado 45" d="M-1157.392,883.562a6.666,6.666,0,0,0-6.666-6.666h0a6.666,6.666,0,0,0-6.666,6.666h13.332Z" transform="translate(1186.996 -830.778)" fill="none" stroke="#26a72c" stroke-linecap="round" stroke-linejoin="round" stroke-width="2"/>
              <circle id="Elipse_48-2" data-name="Elipse 48" cx="3.702" cy="3.702" r="3.702" transform="translate(19.236 38.44)" fill="none" stroke="#26a72c" stroke-linecap="round" stroke-linejoin="round" stroke-width="2"/>
            </g>
          </g>
        </g>
      </g>
    </g>
    <g id="Grupo_2496" data-name="Grupo 2496" transform="translate(729 1764.445)">
      <g id="Grupo_2492" data-name="Grupo 2492" transform="translate(0 0)">
        <line id="Línea_17-2" data-name="Línea 17" x1="43.507" transform="translate(106.82 36.969)" fill="none" stroke="#e2e2e2" stroke-width="3"/>
        <ellipse id="Elipse_4-2" data-name="Elipse 4" cx="3.5" cy="4" rx="3.5" ry="4" transform="translate(103 32.555)" fill="#4a4a4a"/>
        <g id="Grupo_2471" data-name="Grupo 2471" transform="translate(0 0)">
          <ellipse id="Elipse_46" data-name="Elipse 46" cx="37.5" cy="37" rx="37.5" ry="37" transform="translate(0 -0.445)" fill="#dbecdf"/>
          <g id="Grupo_2450" data-name="Grupo 2450" transform="translate(8.442 11.968)">
            <path id="Icon_feather-star" data-name="Icon feather-star" d="M7.953,3l1.53,3.1,3.422.5L10.429,9.012l.584,3.407L7.953,10.81,4.892,12.42l.584-3.407L3,6.6l3.422-.5Z" transform="translate(21.035 -3)" fill="none" stroke="#26a72b" stroke-linecap="round" stroke-linejoin="round" stroke-width="2"/>
            <g id="Grupo_2449" data-name="Grupo 2449" transform="translate(13.248 17.231)">
              <path id="Trazado_45-3" data-name="Trazado 45" d="M-200.017,433.649a15.8,15.8,0,0,0-15.794-15.794,15.8,15.8,0,0,0-15.8,15.794Z" transform="translate(231.607 -400.26)" fill="none" stroke="#26a72b" stroke-linecap="round" stroke-linejoin="round" stroke-width="2"/>
              <circle id="Elipse_48-3" data-name="Elipse 48" cx="8.772" cy="8.772" r="8.772" transform="translate(7.023)" fill="none" stroke="#26a72b" stroke-linecap="round" stroke-linejoin="round" stroke-width="2"/>
            </g>
            <path id="Icon_feather-star-2" data-name="Icon feather-star" d="M7.953,3l1.53,3.1,3.422.5L10.429,9.012l.584,3.407L7.953,10.81,4.892,12.42l.584-3.407L3,6.6l3.422-.5Z" transform="translate(-3 16.944)" fill="none" stroke="#26a72b" stroke-linecap="round" stroke-linejoin="round" stroke-width="2"/>
            <path id="Icon_feather-star-3" data-name="Icon feather-star" d="M7.953,3l1.53,3.1,3.422.5L10.429,9.012l.584,3.407L7.953,10.81,4.892,12.42l.584-3.407L3,6.6l3.422-.5Z" transform="translate(45.07 16.944)" fill="none" stroke="#26a72b" stroke-linecap="round" stroke-linejoin="round" stroke-width="2"/>
            <path id="Icon_feather-star-4" data-name="Icon feather-star" d="M7.953,3l1.53,3.1,3.422.5L10.429,9.012l.584,3.407L7.953,10.81,4.892,12.42l.584-3.407L3,6.6l3.422-.5Z" transform="translate(6.716 4.671)" fill="none" stroke="#26a72b" stroke-linecap="round" stroke-linejoin="round" stroke-width="2"/>
            <path id="Icon_feather-star-5" data-name="Icon feather-star" d="M7.953,3l1.53,3.1,3.422.5L10.429,9.012l.584,3.407L7.953,10.81,4.892,12.42l.584-3.407L3,6.6l3.422-.5Z" transform="translate(35.353 4.671)" fill="none" stroke="#26a72b" stroke-linecap="round" stroke-linejoin="round" stroke-width="2"/>
          </g>
        </g>
      </g>
    </g>
    <g id="Grupo_2494" data-name="Grupo 2494" transform="translate(879.327 1861.851)">
      <line id="Línea_18-2" data-name="Línea 18" x1="43.507" transform="translate(0 41.512)" fill="none" stroke="#e2e2e2" stroke-width="3"/>
      <circle id="Elipse_5-2" data-name="Elipse 5" cx="3.5" cy="3.5" r="3.5" transform="translate(38.673 38.149)" fill="#4a4a4a"/>
      <circle id="Elipse_47" data-name="Elipse 47" cx="41.5" cy="41.5" r="41.5" transform="translate(66.673 0.149)" fill="#dbecdf"/>
      <g id="Grupo_2451" data-name="Grupo 2451" transform="translate(87.989 16.431)">
        <path id="Trazado_46-2" data-name="Trazado 46" d="M-470.712,565.5v-4.284h-29.882v43.844h33.962V565.473Z" transform="translate(500.594 -555.236)" fill="none" stroke="#26a72b" stroke-linecap="round" stroke-linejoin="round" stroke-width="2"/>
        <path id="Trazado_47-2" data-name="Trazado 47" d="M-465.3,600.324h2.462V556.48H-496.8v3.079" transform="translate(499.584 -553.581)" fill="none" stroke="#26a72b" stroke-linecap="round" stroke-linejoin="round" stroke-width="2"/>
        <path id="Trazado_48" data-name="Trazado 48" d="M-461.008,595.867h2.924V552.023h-33.962v2.9" transform="translate(497.914 -552.023)" fill="none" stroke="#26a72b" stroke-linecap="round" stroke-linejoin="round" stroke-width="2"/>
        <line id="Línea_69" data-name="Línea 69" x2="25.142" transform="translate(3.891 37.985)" fill="none" stroke="#26a72b" stroke-linejoin="round" stroke-width="2"/>
        <line id="Línea_70" data-name="Línea 70" x2="25.044" transform="translate(3.891 23.845)" fill="none" stroke="#26a72b" stroke-linejoin="round" stroke-width="2"/>
        <line id="Línea_71" data-name="Línea 71" x2="25.044" transform="translate(3.891 30.82)" fill="none" stroke="#26a72b" stroke-linejoin="round" stroke-width="2"/>
        <line id="Línea_72" data-name="Línea 72" x2="25.044" transform="translate(3.891 17.816)" fill="none" stroke="#26a72b" stroke-linejoin="round" stroke-width="2"/>
      </g>
      <ellipse id="Elipse_50" data-name="Elipse 50" cx="37" cy="37.5" rx="37" ry="37.5" transform="translate(71.673 0.149)" fill="#dbecdf"/>
      <g id="Grupo_2465" data-name="Grupo 2465" transform="translate(87.989 17.161)">
        <path id="Trazado_46-3" data-name="Trazado 46" d="M-470.712,565.5v-4.284h-29.882v43.844h33.962V565.473Z" transform="translate(500.594 -555.236)" fill="none" stroke="#26a72b" stroke-linecap="round" stroke-linejoin="round" stroke-width="2"/>
        <path id="Trazado_47-3" data-name="Trazado 47" d="M-465.3,600.324h2.462V556.48H-496.8v3.079" transform="translate(499.584 -553.581)" fill="none" stroke="#26a72b" stroke-linecap="round" stroke-linejoin="round" stroke-width="2"/>
        <path id="Trazado_48-2" data-name="Trazado 48" d="M-461.008,595.867h2.924V552.023h-33.962v2.9" transform="translate(497.914 -552.023)" fill="none" stroke="#26a72b" stroke-linecap="round" stroke-linejoin="round" stroke-width="2"/>
        <line id="Línea_69-2" data-name="Línea 69" x2="25.142" transform="translate(3.891 37.985)" fill="none" stroke="#26a72b" stroke-linejoin="round" stroke-width="2"/>
        <line id="Línea_70-2" data-name="Línea 70" x2="25.044" transform="translate(3.891 23.845)" fill="none" stroke="#26a72b" stroke-linejoin="round" stroke-width="2"/>
        <line id="Línea_71-2" data-name="Línea 71" x2="25.044" transform="translate(3.891 30.82)" fill="none" stroke="#26a72b" stroke-linejoin="round" stroke-width="2"/>
        <line id="Línea_72-2" data-name="Línea 72" x2="25.044" transform="translate(3.891 17.816)" fill="none" stroke="#26a72b" stroke-linejoin="round" stroke-width="2"/>
      </g>
    </g>
    <g id="Grupo_2495" data-name="Grupo 2495" transform="translate(729.87 1968.824)">
      <g id="Grupo_2489" data-name="Grupo 2489" transform="translate(0 0)">
        <line id="Línea_75" data-name="Línea 75" x1="43.507" transform="translate(105.951 37.139)" fill="none" stroke="#e2e2e2" stroke-linecap="square" stroke-width="3"/>
        <circle id="Elipse_51" data-name="Elipse 51" cx="3.5" cy="3.5" r="3.5" transform="translate(102.13 34.176)" fill="#4a4a4a"/>
        <g id="Grupo_2472" data-name="Grupo 2472">
          <circle id="Elipse_52" data-name="Elipse 52" cx="37.5" cy="37.5" r="37.5" transform="translate(0.13 0.176)" fill="#dbecdf"/>
        </g>
        <g id="Grupo_2485" data-name="Grupo 2485" transform="translate(5.624 19.281)">
          <g id="Grupo_2484" data-name="Grupo 2484" transform="translate(15.704 16.521)">
            <circle id="Elipse_67" data-name="Elipse 67" cx="2.302" cy="2.302" r="2.302" transform="translate(6.714 0.638)" fill="none" stroke="#00a72c" stroke-miterlimit="10" stroke-width="1.5"/>
            <path id="Trazado_61" data-name="Trazado 61" d="M-351.108,1267.066s7.274,10,16.926,10.189a17.794,17.794,0,0,0,14.478-6.741" transform="translate(351.108 -1267.066)" fill="none" stroke="#00a72c" stroke-miterlimit="10" stroke-width="1.5"/>
            <path id="Trazado_62" data-name="Trazado 62" d="M-341.309,1277.718s.625,11.529,13.771,11.509c0,0,7.48-.107,11.462-9.855" transform="translate(345.188 -1273.502)" fill="none" stroke="#00a72c" stroke-miterlimit="10" stroke-width="1.5"/>
            <path id="Trazado_63" data-name="Trazado 63" d="M-315.082,1285.209s-1.433-1.9-1.921-2.462-1.677,0-1.677,0l-4.269,1.243-1.89-1.683a2.7,2.7,0,0,0-2.165-.789,1.558,1.558,0,0,0-1.342,1.578l-.429.688" transform="translate(337.615 -1275.789)" fill="none" stroke="#00a72c" stroke-miterlimit="10" stroke-width="1.5"/>
          </g>
          <path id="Trazado_64" data-name="Trazado 64" d="M-281.959,1234.589s-3.976,9.435-1.871,25.574h5.224s-4.969-10.583-1.229-25.247c0,0,5.3-5.1,11.9,5.371,0,0,.68-13.327-10.607-8.023,0,0-1.632-4.352,7.547-5.848,0,0-7.958-4.237-10.063,4.012,0,0-7.751-6.935-11.423,1.359,0,0,5.371-2.38,9.995.34,0,0-12.238,1.768-6.935,9.315C-289.423,1241.444-287.958,1232.9-281.959,1234.589Z" transform="translate(331.392 -1225.329)" fill="none" stroke="#00a72c" stroke-miterlimit="10" stroke-width="1.5"/>
          <path id="Trazado_65" data-name="Trazado 65" d="M-376.752,1236.676s3.977,9.434,1.871,25.574H-380.1s4.969-10.583,1.229-25.247c0,0-5.3-5.1-11.9,5.372,0,0-.68-13.327,10.607-8.023,0,0,1.632-4.351-7.547-5.847,0,0,7.958-4.237,10.063,4.011,0,0,7.751-6.935,11.423,1.36,0,0-5.371-2.38-10,.34,0,0,12.239,1.768,6.935,9.315C-369.288,1243.53-370.753,1234.989-376.752,1236.676Z" transform="translate(390.782 -1226.59)" fill="none" stroke="#00a72c" stroke-miterlimit="10" stroke-width="1.5"/>
        </g>
      </g>
    </g>
  </g>
</svg>
