<svg xmlns="http://www.w3.org/2000/svg" width="302" height="486.496" viewBox="0 0 302 486.496">
  <g id="Grupo_2511" data-name="Grupo 2511" transform="translate(-729 -1560.5)">
    <line id="Línea_16" data-name="Línea 16" y2="448.55" transform="translate(880.369 1560.5)" fill="none" stroke="#e2e2e2" stroke-width="3"/>
    <g id="Grupo_2498" data-name="Grupo 2498" transform="translate(729 1567.631)">
      <g id="Grupo_2493" data-name="Grupo 2493" transform="translate(0 0)">
        <line id="Línea_17" data-name="Línea 17" x1="43.809" transform="translate(107.56 36.865)" fill="none" stroke="#e2e2e2" stroke-width="3"/>
        <circle id="Elipse_4" data-name="Elipse 4" cx="3" cy="3" r="3" transform="translate(105 33.365)" fill="#4a4a4a"/>
        <g id="Grupo_2446" data-name="Grupo 2446" transform="translate(0 0)">
          <ellipse id="Elipse_45" data-name="Elipse 45" cx="38" cy="37.5" rx="38" ry="37.5" transform="translate(0 0.365)" fill="#dbecdf"/>
          <g id="Grupo_2445" data-name="Grupo 2445" transform="translate(11.116 22.619)">
            <circle id="Elipse_44" data-name="Elipse 44" cx="5.099" cy="5.099" r="5.099" transform="translate(13.784 19.302)" fill="none" stroke="#26a72c" stroke-linejoin="round" stroke-width="2"/>
            <path id="Trazado_42" data-name="Trazado 42" d="M-453.592,695.425l-3.23,3.23-1.358-1.417" transform="translate(474.765 -672.639)" fill="none" stroke="#26a72c" stroke-miterlimit="10" stroke-width="2" fill-rule="evenodd"/>
            <path id="Trazado_43" data-name="Trazado 43" d="M-487.254,665.524h-13.34V637.842h20.723v17.79" transform="translate(500.594 -637.842)" fill="none" stroke="#26a72c" stroke-linejoin="round" stroke-width="2" fill-rule="evenodd"/>
            <line id="Línea_58" data-name="Línea 58" x2="15.341" transform="translate(2.374 15.755)" fill="none" stroke="#26a72c" stroke-linejoin="round" stroke-width="2"/>
            <line id="Línea_61" data-name="Línea 61" x2="15.282" transform="translate(2.374 7.152)" fill="none" stroke="#26a72c" stroke-linejoin="round" stroke-width="2"/>
            <line id="Línea_62" data-name="Línea 62" x2="15.282" transform="translate(2.374 11.396)" fill="none" stroke="#26a72c" stroke-linejoin="round" stroke-width="2"/>
            <line id="Línea_63" data-name="Línea 63" x2="15.282" transform="translate(2.374 3.484)" fill="none" stroke="#26a72c" stroke-linejoin="round" stroke-width="2"/>
            <path id="Trazado_44" data-name="Trazado 44" d="M-479.871,665.524h-20.723V637.842h20.723v27.681" transform="translate(532.251 -637.842)" fill="none" stroke="#26a72c" stroke-linejoin="round" stroke-width="2" fill-rule="evenodd"/>
            <line id="Línea_64" data-name="Línea 64" x2="15.341" transform="translate(34.031 15.755)" fill="none" stroke="#26a72c" stroke-linejoin="round" stroke-width="2"/>
            <line id="Línea_65" data-name="Línea 65" x2="15.282" transform="translate(34.031 7.152)" fill="none" stroke="#26a72c" stroke-linejoin="round" stroke-width="2"/>
            <line id="Línea_66" data-name="Línea 66" x2="15.282" transform="translate(34.031 11.396)" fill="none" stroke="#26a72c" stroke-linejoin="round" stroke-width="2"/>
            <line id="Línea_67" data-name="Línea 67" x2="15.282" transform="translate(34.031 3.484)" fill="none" stroke="#26a72c" stroke-linejoin="round" stroke-width="2"/>
          </g>
        </g>
      </g>
    </g>
    <g id="Grupo_2497" data-name="Grupo 2497" transform="translate(880.369 1666.381)">
      <line id="Línea_18" data-name="Línea 18" x1="43.809" transform="translate(0 41.116)" fill="none" stroke="#e2e2e2" stroke-width="3"/>
      <circle id="Elipse_5" data-name="Elipse 5" cx="3" cy="3" r="3" transform="translate(39.631 37.616)" fill="#4a4a4a"/>
      <g id="Grupo_2470" data-name="Grupo 2470" transform="translate(72.015 0)">
        <ellipse id="Elipse_45-2" data-name="Elipse 45" cx="37.5" cy="38" rx="37.5" ry="38" transform="translate(-0.384 -0.384)" fill="#dbecdf"/>
        <g id="Grupo_2448" data-name="Grupo 2448" transform="translate(15.93 10.834)">
          <g id="Grupo_2447" data-name="Grupo 2447">
            <g id="Grupo_2447-2" data-name="Grupo 2447">
              <path id="Trazado_45" data-name="Trazado 45" d="M-1137.835,875.97h12.339a9.267,9.267,0,0,0-9.266-9.267h0a9.246,9.246,0,0,0-7.092,3.3" transform="translate(1168.378 -823.845)" fill="none" stroke="#26a72c" stroke-linecap="round" stroke-linejoin="round" stroke-width="2"/>
              <circle id="Elipse_48" data-name="Elipse 48" cx="5.146" cy="5.146" r="5.146" transform="translate(28.469 32.184)" fill="none" stroke="#26a72c" stroke-linecap="round" stroke-linejoin="round" stroke-width="2"/>
              <path id="Trazado_46" data-name="Trazado 46" d="M-1199.023,744.669l-18.354,19.716h36.925Z" transform="translate(1217.377 -744.669)" fill="none" stroke="#26a72c" stroke-linecap="round" stroke-linejoin="round" stroke-width="2"/>
              <path id="Rectángulo_2219" data-name="Rectángulo 2219" d="M-1194.33,823.638h-15.207v-22.83h31.418v9.676" transform="translate(1212.29 -781.092)" fill="none" stroke="#26a72c" stroke-linecap="round" stroke-linejoin="round" stroke-width="2"/>
              <path id="Rectángulo_2220" data-name="Rectángulo 2220" d="M-1173.869,838.889H-1178V824.315h9.268v9.359" transform="translate(1191.829 -796.343)" fill="none" stroke="#26a72c" stroke-linecap="round" stroke-linejoin="round" stroke-width="2"/>
              <path id="Trazado_47" data-name="Trazado 47" d="M-1131.329,769.005V758.988h-3.555V765.4" transform="translate(1163.855 -753.959)" fill="none" stroke="#26a72c" stroke-linecap="round" stroke-linejoin="round" stroke-width="2"/>
              <path id="Trazado_45-2" data-name="Trazado 45" d="M-1157.3,883.608a6.712,6.712,0,0,0-6.712-6.712h0a6.712,6.712,0,0,0-6.712,6.712h13.424Z" transform="translate(1187.108 -830.458)" fill="none" stroke="#26a72c" stroke-linecap="round" stroke-linejoin="round" stroke-width="2"/>
              <circle id="Elipse_48-2" data-name="Elipse 48" cx="3.728" cy="3.728" r="3.728" transform="translate(19.369 38.706)" fill="none" stroke="#26a72c" stroke-linecap="round" stroke-linejoin="round" stroke-width="2"/>
            </g>
          </g>
        </g>
      </g>
    </g>
    <g id="Grupo_2496" data-name="Grupo 2496" transform="translate(729 1765.13)">
      <g id="Grupo_2492" data-name="Grupo 2492" transform="translate(0 0)">
        <line id="Línea_17-2" data-name="Línea 17" x1="43.809" transform="translate(107.56 37.953)" fill="none" stroke="#e2e2e2" stroke-width="3"/>
        <circle id="Elipse_4-2" data-name="Elipse 4" cx="3" cy="3" r="3" transform="translate(105 34.867)" fill="#4a4a4a"/>
        <g id="Grupo_2471" data-name="Grupo 2471">
          <circle id="Elipse_46" data-name="Elipse 46" cx="38" cy="38" r="38" transform="translate(0 -0.133)" fill="#dbecdf"/>
          <g id="Grupo_2450" data-name="Grupo 2450" transform="translate(8.5 12.779)">
            <path id="Icon_feather-star" data-name="Icon feather-star" d="M7.987,3,9.528,6.122l3.446.5L10.48,9.054l.588,3.431L7.987,10.864,4.905,12.485l.588-3.431L3,6.625l3.446-.5Z" transform="translate(21.201 -3)" fill="none" stroke="#26a72b" stroke-linecap="round" stroke-linejoin="round" stroke-width="2"/>
            <g id="Grupo_2449" data-name="Grupo 2449" transform="translate(13.34 17.35)">
              <path id="Trazado_45-3" data-name="Trazado 45" d="M-199.8,433.759a15.9,15.9,0,0,0-15.9-15.9,15.9,15.9,0,0,0-15.9,15.9Z" transform="translate(231.607 -400.138)" fill="none" stroke="#26a72b" stroke-linecap="round" stroke-linejoin="round" stroke-width="2"/>
              <circle id="Elipse_48-3" data-name="Elipse 48" cx="8.833" cy="8.833" r="8.833" transform="translate(7.072)" fill="none" stroke="#26a72b" stroke-linecap="round" stroke-linejoin="round" stroke-width="2"/>
            </g>
            <path id="Icon_feather-star-2" data-name="Icon feather-star" d="M7.987,3,9.528,6.122l3.446.5L10.48,9.054l.588,3.431L7.987,10.864,4.905,12.485l.588-3.431L3,6.625l3.446-.5Z" transform="translate(-3 17.082)" fill="none" stroke="#26a72b" stroke-linecap="round" stroke-linejoin="round" stroke-width="2"/>
            <path id="Icon_feather-star-3" data-name="Icon feather-star" d="M7.987,3,9.528,6.122l3.446.5L10.48,9.054l.588,3.431L7.987,10.864,4.905,12.485l.588-3.431L3,6.625l3.446-.5Z" transform="translate(45.403 17.082)" fill="none" stroke="#26a72b" stroke-linecap="round" stroke-linejoin="round" stroke-width="2"/>
            <path id="Icon_feather-star-4" data-name="Icon feather-star" d="M7.987,3,9.528,6.122l3.446.5L10.48,9.054l.588,3.431L7.987,10.864,4.905,12.485l.588-3.431L3,6.625l3.446-.5Z" transform="translate(6.784 4.724)" fill="none" stroke="#26a72b" stroke-linecap="round" stroke-linejoin="round" stroke-width="2"/>
            <path id="Icon_feather-star-5" data-name="Icon feather-star" d="M7.987,3,9.528,6.122l3.446.5L10.48,9.054l.588,3.431L7.987,10.864,4.905,12.485l.588-3.431L3,6.625l3.446-.5Z" transform="translate(35.619 4.724)" fill="none" stroke="#26a72b" stroke-linecap="round" stroke-linejoin="round" stroke-width="2"/>
          </g>
        </g>
      </g>
    </g>
    <g id="Grupo_2494" data-name="Grupo 2494" transform="translate(880.369 1863.879)">
      <line id="Línea_18-2" data-name="Línea 18" x1="43.809" transform="translate(0 41.617)" fill="none" stroke="#e2e2e2" stroke-width="3"/>
      <circle id="Elipse_5-2" data-name="Elipse 5" cx="3" cy="3" r="3" transform="translate(39.631 38.117)" fill="#4a4a4a"/>
      <circle id="Elipse_47" data-name="Elipse 47" cx="42" cy="42" r="42" transform="translate(66.631 0.117)" fill="#dbecdf"/>
      <g id="Grupo_2451" data-name="Grupo 2451" transform="translate(88.598 16.605)">
        <path id="Trazado_46-2" data-name="Trazado 46" d="M-470.5,565.529v-4.314h-30.089v44.148h34.2V565.5Z" transform="translate(500.594 -555.195)" fill="none" stroke="#26a72b" stroke-linecap="round" stroke-linejoin="round" stroke-width="2"/>
        <path id="Trazado_47-2" data-name="Trazado 47" d="M-465.08,600.628h2.479V556.48h-34.2v3.1" transform="translate(499.604 -553.561)" fill="none" stroke="#26a72b" stroke-linecap="round" stroke-linejoin="round" stroke-width="2"/>
        <path id="Trazado_48" data-name="Trazado 48" d="M-460.793,596.171h2.945V552.023h-34.2v2.919" transform="translate(497.954 -552.023)" fill="none" stroke="#26a72b" stroke-linecap="round" stroke-linejoin="round" stroke-width="2"/>
        <line id="Línea_69" data-name="Línea 69" x2="25.316" transform="translate(3.918 38.248)" fill="none" stroke="#26a72b" stroke-linejoin="round" stroke-width="2"/>
        <line id="Línea_70" data-name="Línea 70" x2="25.218" transform="translate(3.918 24.01)" fill="none" stroke="#26a72b" stroke-linejoin="round" stroke-width="2"/>
        <line id="Línea_71" data-name="Línea 71" x2="25.218" transform="translate(3.918 31.034)" fill="none" stroke="#26a72b" stroke-linejoin="round" stroke-width="2"/>
        <line id="Línea_72" data-name="Línea 72" x2="25.218" transform="translate(3.918 17.939)" fill="none" stroke="#26a72b" stroke-linejoin="round" stroke-width="2"/>
      </g>
      <ellipse id="Elipse_50" data-name="Elipse 50" cx="37.5" cy="38" rx="37.5" ry="38" transform="translate(71.631 0.117)" fill="#dbecdf"/>
      <g id="Grupo_2465" data-name="Grupo 2465" transform="translate(88.598 17.341)">
        <path id="Trazado_46-3" data-name="Trazado 46" d="M-470.5,565.529v-4.314h-30.089v44.148h34.2V565.5Z" transform="translate(500.594 -555.195)" fill="none" stroke="#26a72b" stroke-linecap="round" stroke-linejoin="round" stroke-width="2"/>
        <path id="Trazado_47-3" data-name="Trazado 47" d="M-465.08,600.628h2.479V556.48h-34.2v3.1" transform="translate(499.604 -553.561)" fill="none" stroke="#26a72b" stroke-linecap="round" stroke-linejoin="round" stroke-width="2"/>
        <path id="Trazado_48-2" data-name="Trazado 48" d="M-460.793,596.171h2.945V552.023h-34.2v2.919" transform="translate(497.954 -552.023)" fill="none" stroke="#26a72b" stroke-linecap="round" stroke-linejoin="round" stroke-width="2"/>
        <line id="Línea_69-2" data-name="Línea 69" x2="25.316" transform="translate(3.918 38.248)" fill="none" stroke="#26a72b" stroke-linejoin="round" stroke-width="2"/>
        <line id="Línea_70-2" data-name="Línea 70" x2="25.218" transform="translate(3.918 24.01)" fill="none" stroke="#26a72b" stroke-linejoin="round" stroke-width="2"/>
        <line id="Línea_71-2" data-name="Línea 71" x2="25.218" transform="translate(3.918 31.034)" fill="none" stroke="#26a72b" stroke-linejoin="round" stroke-width="2"/>
        <line id="Línea_72-2" data-name="Línea 72" x2="25.218" transform="translate(3.918 17.939)" fill="none" stroke="#26a72b" stroke-linejoin="round" stroke-width="2"/>
      </g>
    </g>
    <g id="Grupo_2495" data-name="Grupo 2495" transform="translate(729.959 1971.257)">
      <g id="Grupo_2489" data-name="Grupo 2489" transform="translate(0 0)">
        <line id="Línea_75" data-name="Línea 75" x1="43.809" transform="translate(106.602 37.793)" fill="none" stroke="#e2e2e2" stroke-linecap="square" stroke-width="3"/>
        <circle id="Elipse_51" data-name="Elipse 51" cx="3" cy="3" r="3" transform="translate(104.041 34.74)" fill="#4a4a4a"/>
        <g id="Grupo_2472" data-name="Grupo 2472">
          <ellipse id="Elipse_52" data-name="Elipse 52" cx="37.5" cy="38" rx="37.5" ry="38" transform="translate(0.041 -0.26)" fill="#dbecdf"/>
        </g>
        <g id="Grupo_2485" data-name="Grupo 2485" transform="translate(5.58 19.812)">
          <g id="Grupo_2484" data-name="Grupo 2484" transform="translate(15.813 16.635)">
            <circle id="Elipse_67" data-name="Elipse 67" cx="2.318" cy="2.318" r="2.318" transform="translate(6.761 0.642)" fill="none" stroke="#00a72c" stroke-miterlimit="10" stroke-width="1.5"/>
            <path id="Trazado_61" data-name="Trazado 61" d="M-351.108,1267.066s7.324,10.068,17.043,10.26a17.918,17.918,0,0,0,14.578-6.788" transform="translate(351.108 -1267.066)" fill="none" stroke="#00a72c" stroke-miterlimit="10" stroke-width="1.5"/>
            <path id="Trazado_62" data-name="Trazado 62" d="M-341.309,1277.718s.63,11.609,13.866,11.588c0,0,7.532-.108,11.541-9.923" transform="translate(345.215 -1273.472)" fill="none" stroke="#00a72c" stroke-miterlimit="10" stroke-width="1.5"/>
            <path id="Trazado_63" data-name="Trazado 63" d="M-314.987,1285.235s-1.443-1.912-1.934-2.479-1.689,0-1.689,0l-4.3,1.251-1.9-1.694a2.72,2.72,0,0,0-2.18-.795,1.569,1.569,0,0,0-1.351,1.589l-.432.693" transform="translate(337.676 -1275.75)" fill="none" stroke="#00a72c" stroke-miterlimit="10" stroke-width="1.5"/>
          </g>
          <path id="Trazado_64" data-name="Trazado 64" d="M-281.886,1234.653s-4,9.5-1.884,25.751h5.26s-5-10.657-1.238-25.422c0,0,5.34-5.135,11.981,5.409,0,0,.685-13.419-10.68-8.079,0,0-1.643-4.382,7.6-5.888,0,0-8.013-4.267-10.132,4.04,0,0-7.805-6.983-11.5,1.369,0,0,5.409-2.4,10.064.342,0,0-12.323,1.78-6.983,9.38C-289.4,1241.555-287.926,1232.954-281.886,1234.653Z" transform="translate(331.661 -1225.329)" fill="none" stroke="#00a72c" stroke-miterlimit="10" stroke-width="1.5"/>
          <path id="Trazado_65" data-name="Trazado 65" d="M-376.655,1236.74s4,9.5,1.884,25.751h-5.26s5-10.656,1.238-25.422c0,0-5.34-5.135-11.981,5.409,0,0-.684-13.419,10.68-8.079,0,0,1.643-4.381-7.6-5.888,0,0,8.013-4.267,10.133,4.039,0,0,7.8-6.983,11.5,1.37,0,0-5.409-2.4-10.064.342,0,0,12.323,1.78,6.983,9.38C-369.139,1243.642-370.614,1235.041-376.655,1236.74Z" transform="translate(390.782 -1226.584)" fill="none" stroke="#00a72c" stroke-miterlimit="10" stroke-width="1.5"/>
        </g>
      </g>
    </g>
  </g>
</svg>
