<svg width="36" height="37" viewBox="0 0 36 37" fill="none" xmlns="http://www.w3.org/2000/svg">
<path fill-rule="evenodd" clip-rule="evenodd" d="M17.8906 0.167969C21.429 0.167969 24.888 1.23597 27.8301 3.23692C30.7722 5.23787 33.0653 8.0819 34.4194 11.4094C35.7735 14.7368 36.1278 18.3983 35.4375 21.9307C34.7471 25.4631 33.0432 28.7078 30.5412 31.2545C28.0391 33.8012 24.8513 35.5356 21.3809 36.2382C17.9105 36.9409 14.3133 36.5802 11.0442 35.202C7.77509 33.8237 4.98096 31.4897 3.01511 28.495C1.04927 25.5004 0 21.9797 0 18.3781C0 13.5484 1.8849 8.91663 5.24004 5.50158C8.59518 2.08653 13.1457 0.167969 17.8906 0.167969ZM19.8865 12.3696H23.2246V8.295H19.8865C18.6484 8.29594 17.4613 8.79709 16.586 9.68835C15.7107 10.5796 15.2188 11.7881 15.2184 13.0483V15.0798H12.5461V19.1544H15.2184V30.0147H19.2215V19.1535H22.5596L23.2246 15.0789H19.2215V13.0483C19.222 12.8687 19.2921 12.6966 19.4167 12.5695C19.5412 12.4424 19.7101 12.3705 19.8865 12.3696Z" fill="white"/>
</svg>
