<svg xmlns="http://www.w3.org/2000/svg" width="531.309" height="254.928" viewBox="0 0 531.309 254.928">
  <g id="Grupo_2423" data-name="Grupo 2423" transform="translate(-375.905 -444.349)">
    <g id="Background_Shape_2" data-name="Background Shape 2" transform="translate(375.905 446.644)" opacity="0.346">
      <path id="Background_Shape" data-name="Background Shape" d="M-158.216,134.83c-4.59-60.263-250.891-176.577-296.616-119.5s-1.766,164.2,94.056,191.636S-153.625,195.093-158.216,134.83Z" transform="translate(473)" fill="#f2f2f2"/>
      <path id="Background_Shape-2" data-name="Background Shape" d="M.091,114.543c3.9-51.2,212.916-150.009,251.72-101.518s28.982,150.488-52.337,173.793S-3.8,165.739.091,114.543Z" transform="translate(257.554 59.443)" fill="#dde3e9"/>
    </g>
    <g id="Grupo_3" data-name="Grupo 3" transform="translate(2758 -3234.651)" opacity="0.699">
      <path id="Trazado_3" data-name="Trazado 3" d="M751.093,676.156v99.128h18.881V759.669s3.268-7.987,12.345-7.987,11.909,8.715,11.909,8.715v14.887h17.867V676.156Z" transform="translate(-3130.093 3056.596)" fill="#b6d4d7"/>
      <path id="Trazado_4" data-name="Trazado 4" d="M813.7,776.836h42.683V665.957H799.474v11.752h5.253v99.127Z" transform="translate(-3122.727 3055.043)" fill="#d5e4e6"/>
      <rect id="Rectángulo_23" data-name="Rectángulo 23" width="10.194" height="10.194" transform="translate(-2310.441 3734.251)" fill="#b6d4d7"/>
      <rect id="Rectángulo_24" data-name="Rectángulo 24" width="10.194" height="10.194" transform="translate(-2289.7 3734.251)" fill="#b6d4d7"/>
      <rect id="Rectángulo_25" data-name="Rectángulo 25" width="10.194" height="10.194" transform="translate(-2310.441 3750.383)" fill="#b6d4d7"/>
      <rect id="Rectángulo_26" data-name="Rectángulo 26" width="10.194" height="10.194" transform="translate(-2289.7 3750.383)" fill="#b6d4d7"/>
      <rect id="Rectángulo_27" data-name="Rectángulo 27" width="10.194" height="10.194" transform="translate(-2310.441 3768.819)" fill="#b6d4d7"/>
      <rect id="Rectángulo_28" data-name="Rectángulo 28" width="10.194" height="10.194" transform="translate(-2289.7 3768.819)" fill="#b6d4d7"/>
      <rect id="Rectángulo_29" data-name="Rectángulo 29" width="10.194" height="10.194" transform="translate(-2310.441 3786.103)" fill="#b6d4d7"/>
      <rect id="Rectángulo_30" data-name="Rectángulo 30" width="10.194" height="10.194" transform="translate(-2289.7 3786.103)" fill="#b6d4d7"/>
      <rect id="Rectángulo_31" data-name="Rectángulo 31" width="10.194" height="10.194" transform="translate(-2310.441 3803.386)" fill="#b6d4d7"/>
      <rect id="Rectángulo_32" data-name="Rectángulo 32" width="10.194" height="10.194" transform="translate(-2289.7 3803.386)" fill="#b6d4d7"/>
      <rect id="Rectángulo_33" data-name="Rectángulo 33" width="10.194" height="10.194" transform="translate(-2364.597 3750.383)" fill="#8db4bc"/>
      <rect id="Rectángulo_34" data-name="Rectángulo 34" width="10.194" height="10.194" transform="translate(-2343.856 3750.383)" fill="#8db4bc"/>
      <rect id="Rectángulo_35" data-name="Rectángulo 35" width="10.194" height="10.194" transform="translate(-2364.597 3767.666)" fill="#8db4bc"/>
      <rect id="Rectángulo_36" data-name="Rectángulo 36" width="10.194" height="10.194" transform="translate(-2343.856 3767.666)" fill="#8db4bc"/>
      <rect id="Rectángulo_37" data-name="Rectángulo 37" width="10.194" height="10.194" transform="translate(-2364.597 3784.95)" fill="#8db4bc"/>
      <rect id="Rectángulo_38" data-name="Rectángulo 38" width="10.194" height="10.194" transform="translate(-2343.856 3784.95)" fill="#8db4bc"/>
    </g>
    <g id="Grupo_6" data-name="Grupo 6" transform="translate(3292 -3438.027)" opacity="0.699">
      <path id="Trazado_5" data-name="Trazado 5" d="M670.3,366.289V483.344H690.82V464.907s3.551-9.433,13.414-9.433,12.938,10.291,12.938,10.291v17.58h19.414V366.289Z" transform="translate(-3199.25 3557.879)" fill="#d5e4e6"/>
      <rect id="Rectángulo_39" data-name="Rectángulo 39" width="11.077" height="11.077" transform="translate(-2515.604 3946.442)" fill="#8db4bc"/>
      <rect id="Rectángulo_40" data-name="Rectángulo 40" width="11.077" height="11.077" transform="translate(-2485.556 3946.442)" fill="#8db4bc"/>
      <rect id="Rectángulo_41" data-name="Rectángulo 41" width="11.077" height="11.077" transform="translate(-2515.604 3966.373)" fill="#8db4bc"/>
      <rect id="Rectángulo_42" data-name="Rectángulo 42" width="11.077" height="11.077" transform="translate(-2485.556 3966.373)" fill="#8db4bc"/>
      <rect id="Rectángulo_43" data-name="Rectángulo 43" width="11.077" height="11.077" transform="translate(-2515.604 3987.902)" fill="#8db4bc"/>
      <rect id="Rectángulo_44" data-name="Rectángulo 44" width="11.077" height="11.077" transform="translate(-2485.556 3987.902)" fill="#8db4bc"/>
    </g>
    <g id="Grupo_5" data-name="Grupo 5" transform="translate(3068 -3347.638)" opacity="0.699">
      <path id="Trazado_6" data-name="Trazado 6" d="M570.2,421.407v46.548h30.565V457.63s3.427-9.191,11.469-9.335,11.632,8.9,11.632,8.9v10.757h31.019V421.407h9.478l-20.95-22.6V375.486h4.436v-5.6H629.321v4.452h3.3V385.25l-19.387-22.259-51.986,58.2Z" transform="translate(-3114.25 3430.879)" fill="#b6d4d7"/>
      <rect id="Rectángulo_45" data-name="Rectángulo 45" width="7.566" height="7.566" transform="translate(-2534.59 3856.77)" fill="#a6c2c7"/>
      <rect id="Rectángulo_46" data-name="Rectángulo 46" width="7.566" height="7.566" transform="translate(-2534.59 3869.183)" fill="#a6c2c7"/>
      <rect id="Rectángulo_47" data-name="Rectángulo 47" width="7.566" height="7.566" transform="translate(-2520.446 3856.77)" fill="#a6c2c7"/>
      <rect id="Rectángulo_48" data-name="Rectángulo 48" width="7.566" height="7.566" transform="translate(-2520.446 3869.183)" fill="#a6c2c7"/>
      <rect id="Rectángulo_49" data-name="Rectángulo 49" width="7.566" height="7.566" transform="translate(-2489.267 3856.682)" fill="#a6c2c7"/>
      <rect id="Rectángulo_50" data-name="Rectángulo 50" width="7.566" height="7.566" transform="translate(-2489.267 3869.095)" fill="#a6c2c7"/>
      <rect id="Rectángulo_51" data-name="Rectángulo 51" width="7.566" height="7.566" transform="translate(-2475.124 3856.682)" fill="#a6c2c7"/>
      <rect id="Rectángulo_52" data-name="Rectángulo 52" width="7.566" height="7.566" transform="translate(-2475.124 3869.095)" fill="#a6c2c7"/>
    </g>
    <g id="Grupo_4" data-name="Grupo 4" transform="translate(3013 -3475.651)" opacity="0.699">
      <path id="Trazado_7" data-name="Trazado 7" d="M842.472,460.027V405.635l-5.149,5.149-5.222-5.222,46.342-43.441,47.575,43.949L920.8,409.7l-6.672-5.077v55.408Z" transform="translate(-3199.25 3557.879)" fill="#d5e4e6"/>
      <rect id="Rectángulo_53" data-name="Rectángulo 53" width="17.909" height="35.015" transform="translate(-2347.278 3982.605)" fill="#ebebeb"/>
      <rect id="Rectángulo_54" data-name="Rectángulo 54" width="17.503" height="21.192" transform="translate(-2312.564 3978.073)" fill="#8db4bc" stroke="#8db4bc" stroke-miterlimit="10" stroke-width="1.985"/>
      <circle id="Elipse_1" data-name="Elipse 1" cx="7.215" cy="7.215" r="7.215" transform="translate(-2328.137 3949.589)" fill="#a6c2c7"/>
    </g>
    <g id="Grupo_2421" data-name="Grupo 2421" transform="translate(527.866 495.791)">
      <g id="Head_Front_Short_Beard" data-name="Head/Front/Short Beard" transform="translate(22.134 0.209)">
        <g id="Head" transform="translate(25.698 15.185)">
          <path id="Head-2" data-name="Head" d="M0,35,4.131,16.536A12.685,12.685,0,0,1,.528,7.2c.751-10.26,15.646-8,18.543-2.825s2.553,18.315-1.191,19.24c-1.493.369-4.675-.535-7.913-2.406L12,35Z" transform="translate(0.302 -0.185)" fill="#b28b67"/>
        </g>
        <path id="Hair" d="M9.719,21.758c-.776-2.352-1.071-9.122-1.142-11.122a2.9,2.9,0,0,0-2.363,4.95c-.668.946-1.416,1.935-2.273,2.955C.718,16.6-1.672,10.919,1.477,5.461A7.137,7.137,0,0,1,6.646.7,8.341,8.341,0,0,1,12.141.29a17.824,17.824,0,0,1,6.951,1.86c0,3.079-.594,3.992-5.669,3.912a9.381,9.381,0,0,0-3.2,3.293c.007.1.678,9.271,3.507,9.271,2.844,0,5.256-1.813,6.5-1.813.909,0,.706,1.143.1,1.99-.5.7-2.92,1.373-2.92,2.457,0,.612.61.611,1.141.61.41,0,.772,0,.772.279,0,1.063.337,3.063-1.5,3.063C15.966,25.211,10.632,24.53,9.719,21.758Z" transform="translate(25.919 14.015)" fill="#191847"/>
      </g>
      <g id="Bottom_Standing_Skinny_Jeans" data-name="Bottom/Standing/Skinny Jeans" transform="translate(0.134 91.209)">
        <path id="Leg" d="M0,0,12.14,59.693l8.857,44h6.46L18.045,0Z" transform="translate(42.861 0)" fill="#191847"/>
        <path id="Leg-2" data-name="Leg" d="M14.907,0c-.281,30.766-1.238,47.547-1.533,50.343S8.621,70.92,0,103.69H6.692q16.463-47.155,18.38-53.347C26.35,46.215,30.294,29.434,36.235,0Z" transform="translate(24.707)" fill="#2f3676"/>
        <g id="Left_Shoe" data-name="Left Shoe" transform="translate(25 93)">
          <path id="Shoe" d="M0,9.853.335,0H7.367c5,4.926,13.059,7.976,13.059,7.976V9.853H7.7L3.348,8.915v.938Z" transform="translate(0 8.915)" fill="#191847"/>
        </g>
        <g id="Right_Shoe" data-name="Right Shoe" transform="translate(63 93)">
          <path id="Shoe-2" data-name="Shoe" d="M0,9.853.335,0H7.367c5,4.926,13.059,7.976,13.059,7.976V9.853H7.7L3.348,8.915v.938Z" transform="translate(0 8.915)" fill="#191847"/>
        </g>
      </g>
      <g id="Body_Pointing_Forward" data-name="Body/Pointing Forward" transform="translate(35.304 42.071)">
        <path id="Skin" d="M20.632,19.434l5.787-3.164s1.218-4.612,2.912-4.641c.437-.2.27.683.208,1.569s-.023,1.745.793,1.578c1.644-.337,5.658-3.308,6.35-2.7,1.023.893.111,3.633-.964,5-2.009,2.547-3.672,3.419-7.784,4.56a27.357,27.357,0,0,0-6.972,3.587ZM0,13.375l13.173-7.18A32.529,32.529,0,0,1,19.649.163c.65-.27,1.786-.433.723,1.443s-2.1,3.9-1.554,4.477c.238.254.632.24,1.053.227a1.513,1.513,0,0,1,1.483.5q.646.961-6.918,3.035L4.865,18.572Z" transform="translate(30.899 2.753)" fill="#997659"/>
        <path id="Sleeve" d="M2.086,2.391A32.485,32.485,0,0,0,20.013,0l1.651,6.055C16.492,9.764,9.628,12.4,4.153,11.373A5,5,0,0,1,2.086,2.391Z" transform="translate(22.049 12.494) rotate(-9)" fill="#14b4b4"/>
        <path id="Clothes" d="M12.684,53.815c-4.634-.6-8.946-1.2-11.451-.708-4.3-13.883,4.01-19.524,4.016-28.407C5.257,14.973,13.105,0,14.26,0H24.791c.581,7.425,3.5,15.609,5.9,23.693C38.346,25.422,55.34,19.4,55.34,19.4S59.631,28.237,59.307,32c-9.892,5.142-18.369,7.435-25.354,7.586a23.821,23.821,0,0,1-1.977,11.635C30.708,53.9,27.2,54.7,22.919,54.7A83.641,83.641,0,0,1,12.684,53.815Z" transform="translate(0)" fill="#099"/>
      </g>
    </g>
    <g id="Grupo_2422" data-name="Grupo 2422" transform="translate(638.489 505.135)">
      <g id="Head-3" data-name="Head" transform="translate(65.362 9)">
        <g id="Head-4" data-name="Head" transform="translate(-29.631 13.231)">
          <path id="Head-5" data-name="Head" d="M0,0,3.548,16.436A11.522,11.522,0,0,0,.454,24.743c.645,9.134,13.438,7.124,15.926,2.514s2.193-16.3-1.023-17.127c-1.283-.329-4.015.476-6.8,2.142L10.307,0Z" transform="translate(18.036 31.156) rotate(180)" fill="#b28b67"/>
        </g>
        <path id="hair-2" data-name="hair" d="M6.147,14.8c1.358-.221,5.016-.374,5.69-.373.431,0,.9.1,1.153-.3.209-.322.132-.867.195-1.241.072-.434.175-.863.279-1.29a13.073,13.073,0,0,1,1.371-3.461A10.68,10.68,0,0,1,19.91,3.578a16.384,16.384,0,0,1,7.7-1.053,33.987,33.987,0,0,1,7.877,1.983,16.605,16.605,0,0,0,7.694.736c2.621-.4,4.6-1.812,6.812-3.152A12.749,12.749,0,0,1,57.521.029a14.546,14.546,0,0,1,6.865,2.587,11.152,11.152,0,0,1,4.427,4.991,6.8,6.8,0,0,1-.625,6.956c-2.308,2.989-6.593,3.762-10.158,3.685A19.515,19.515,0,0,1,52,17.15c-2.6-.908-4.84-2.446-7.269-3.694a18.982,18.982,0,0,0-3.553-1.413,3.984,3.984,0,0,0-3.464.229,16.384,16.384,0,0,1-3.49,1.985,11.316,11.316,0,0,1-3.936.7c-2.611-.02-5.185-.829-7.722-1.37a15.943,15.943,0,0,0-6.39-.457c-.88.177-2.165.543-2.483,1.452,5.348.963,7.449,7.537,5.941,12.363-.814,2.6-5.706,5.65-7.608,4.28-1.2-.868-.473-2.006,0-2.758.907-1.44,1.217-3.289-.461-4.292-1.447-.865-2.969,1.188-3,1.186a18.588,18.588,0,0,1-6.2-4.782C.028,20.72-.326,19.189.231,17.937S4.27,15.11,6.147,14.8Z" transform="translate(-28.248 -2.988)" fill="#191847"/>
      </g>
      <path id="Leg-3" data-name="Leg" d="M30.26,0,14.028,54.2,6.165,100.3H0L8.309,0Z" transform="translate(32.14 88.599)" fill="#997659"/>
      <path id="Leg-4" data-name="Leg" d="M24.456,0c-1.1,29.761.195,45.112.442,47.816s3.626,20.236,11.625,53.392l-6.57-2.3C17.311,68.494,13,52.69,11.553,48.7S6.252,28.472,0,0Z" transform="translate(43.752 88.599)" fill="#b28b67"/>
      <path id="Bottom" d="M27.982,0l-6.9,27.616H0L3.143,0Z" transform="translate(36.575 88.599)" fill="#69a1ac"/>
      <path id="Bottom-2" data-name="Bottom" d="M26.506,0C29.912,10.429,27.8,27.616,27.8,27.616H6.289L.373,0Z" transform="translate(41.933 88.599)" fill="#89c5cc"/>
      <g id="Body" transform="translate(6 51.041) rotate(-8)">
        <path id="Skin-2" data-name="Skin" d="M.423.736C.038.971-.384,1.853.635,2.543c2.539,1.718,6.2,4.725,6.693,5.714,1.011,2.024,6.064,28.078,6.064,28.078l7.557-.028s-8.633-27.6-9.165-28.9c-.8-1.953.891-4.927,1.614-6.525-1.139-.5-1.668.139-2.247.781a2.063,2.063,0,0,1-2.824.665C6.365,1.428,4.745,0,2.813,0A4.526,4.526,0,0,0,.423.736ZM68.114,16.361,57.949,22.275,61.2,27.818l9.776-9.41a29.737,29.737,0,0,0,6.992-3.966c.408-.486.853-1.418-1.069-1s-3.963.77-4.325.153.7-1.562.036-2.369a.254.254,0,0,0-.2-.1Q71.481,11.129,68.114,16.361Z" transform="translate(78.319 60.923) rotate(180)" fill="#b28b67"/>
        <path id="Clothes_Back" data-name="Clothes Back" d="M.007,37.667l2.929.763C9.048,22.506,34.083,13.477,36.094,7.5c.738-2.192-.8-3.467.107-4.075L32.581.3c-.72.7-2-.8-5-.1S1.7,18.326.007,37.667Z" transform="matrix(-0.996, 0.087, -0.087, -0.996, 45.191, 40.959)" fill="#0b3403"/>
        <path id="Clothes_Front" data-name="Clothes Front" d="M23.275,49.1C17.662,44.842,3.738,32.1.11,8.372c-.642-4.2,1.751-5.111,1.407-6.989L6.593,0c0,1.382,3.853,1.953,4.847,5.542.558,2.016,1.375,4.533,2.352,7.334A21.7,21.7,0,0,1,16.15,2.93c3.875-7.049,26.265.681,28.6,7.872,2.866,8.81-10.183,14.374-9.523,36.719a3.614,3.614,0,0,1,.052,1.271c.007.138.015.278.023.417l-.111.019a3.582,3.582,0,0,1-3.208,2.642l-4.911.343q-.127.009-.253.009A3.58,3.58,0,0,1,23.275,49.1Z" transform="translate(72.094 52.372) rotate(180)" fill="#134609"/>
      </g>
      <path id="shoe-3" data-name="shoe" d="M22.9,2.4A.855.855,0,0,1,24,3l.819,2.963a29.012,29.012,0,0,1-.387,3.478H.219s-.944-3.2,1.09-3.458,3.379-.461,3.379-.461L15.944.37A.425.425,0,0,1,16.516.6l.724,1.8a9.55,9.55,0,0,0,3.06.9Z" transform="translate(15.713 184.462)" fill="#e4e4e4"/>
      <path id="shoe-4" data-name="shoe" d="M23.151,2.4A.866.866,0,0,1,24.265,3l.828,2.963A28.714,28.714,0,0,1,24.7,9.438H.221s-.954-3.2,1.1-3.458,3.416-.461,3.416-.461L16.117.37A.432.432,0,0,1,16.7.6l.731,1.8a9.73,9.73,0,0,0,3.093.9Z" transform="translate(56.152 184.462)" fill="#e4e4e4"/>
    </g>
  </g>
</svg>
