<svg xmlns="http://www.w3.org/2000/svg" width="45" height="45" viewBox="0 0 45 45">
  <g id="gasto-comun" transform="translate(-244 -941)">
    <circle id="Elipse_9" data-name="Elipse 9" cx="22.5" cy="22.5" r="22.5" transform="translate(244 941)" fill="#fff"/>
    <g id="Grupo_1283" data-name="Grupo 1283" transform="translate(245 948.317)">
      <g id="Grupo_1286" data-name="Grupo 1286" transform="translate(10.992 0.985)">
        <path id="Trazado_9329" data-name="Trazado 9329" d="M20.662,6.472h0l3.774.37a.64.64,0,0,0,.74-.666.735.735,0,0,0-.666-.814L22.438,5.14a13.248,13.248,0,0,1,7.918-2.664,12.806,12.806,0,0,1,12.8,12.8,12.392,12.392,0,0,1-1.406,5.846.712.712,0,0,0,1.258.666,14.081,14.081,0,0,0,1.554-6.512A14.181,14.181,0,0,0,30.356,1a14.482,14.482,0,0,0-8.51,2.812l.37-1.924A.812.812,0,0,0,21.624,1a.812.812,0,0,0-.888.592l-.74,4A.731.731,0,0,0,20.662,6.472Z" transform="translate(-19.985 -0.985)" fill="#4a4a4a" stroke="#4a4a4a" stroke-width="0.2"/>
      </g>
      <g id="Grupo_1287" data-name="Grupo 1287" transform="translate(7.081 8.218)">
        <path id="Trazado_9330" data-name="Trazado 9330" d="M39.268,27.439a.668.668,0,0,0-.666-.814l-3.922-.37a.805.805,0,0,0-.814.666c-.074.37.3.74.666.814l2.146.222A12.767,12.767,0,0,1,16.106,17.819a12.538,12.538,0,0,1,1.48-5.92.749.749,0,0,0-.3-1.036.653.653,0,0,0-.962.3A14.253,14.253,0,0,0,28.982,32.027a13.777,13.777,0,0,0,8.436-2.812l-.37,1.924a.812.812,0,0,0,.592.888.749.749,0,0,0,.888-.592l.74-4Z" transform="translate(-14.7 -10.759)" fill="#4a4a4a" stroke="#4a4a4a" stroke-width="0.2"/>
      </g>
      <g id="Grupo_1288" data-name="Grupo 1288" transform="translate(11.817 5.732)">
        <path id="Trazado_9331" data-name="Trazado 9331" d="M30.646,7.4a9.546,9.546,0,1,0,9.546,9.546A9.569,9.569,0,0,0,30.646,7.4Zm0,17.612a8.066,8.066,0,1,1,8.066-8.066A8.085,8.085,0,0,1,30.646,25.012Z" transform="translate(-21.1 -7.4)" fill="#4a4a4a" stroke="#4a4a4a" stroke-width="0.2"/>
      </g>
      <g id="Grupo_1289" data-name="Grupo 1289" transform="translate(17.293 9.062)">
        <path id="Trazado_9332" data-name="Trazado 9332" d="M33.236,17.08h0l-.074-2.812a3.938,3.938,0,0,1,2.146.888l.962-1.406a6.342,6.342,0,0,0-3.182-1.11V11.9h-.962v.74a4,4,0,0,0-2.368.888,2.737,2.737,0,0,0-.888,2.146,2.506,2.506,0,0,0,.814,2,6.69,6.69,0,0,0,2.516,1.11v2.96a5.66,5.66,0,0,1-2.664-1.332L28.5,21.594a6.68,6.68,0,0,0,3.7,1.628v1.11h.962v-1.11a4.468,4.468,0,0,0,2.516-.888,2.912,2.912,0,0,0,.962-2.146,2.506,2.506,0,0,0-.814-2A6.577,6.577,0,0,0,33.236,17.08Zm-1.036-.3a2.5,2.5,0,0,1-1.184-.592,1.011,1.011,0,0,1-.3-.814,1.06,1.06,0,0,1,.37-.814,1.464,1.464,0,0,1,1.036-.37v2.59Zm2.146,4.44a2.482,2.482,0,0,1-1.184.444V18.93a2.838,2.838,0,0,1,1.258.592,1.188,1.188,0,0,1,.37.814A1.055,1.055,0,0,1,34.346,21.224Z" transform="translate(-28.5 -11.9)" fill="#4a4a4a" stroke="#4a4a4a" stroke-width="0.2"/>
      </g>
    </g>
  </g>
</svg>
