<svg xmlns="http://www.w3.org/2000/svg" width="72.317" height="24.38" viewBox="0 0 72.317 24.38">
  <g id="ico-flecha-b" transform="translate(633.11 -208.402)">
    <path id="Trazado_1723" data-name="Trazado 1723" d="M-567.541,215.863l-.6.675c-.389.437-.961,1.092-1.705,1.882l-1.285,1.207a16.723,16.723,0,0,1-1.576,1.366l-1.881,1.472-2.209,1.462a43.2,43.2,0,0,1-5.286,2.738,38.661,38.661,0,0,1-6.275,2.148l-.835.227-.857.168-1.732.326c-.576.129-1.172.167-1.764.241l-1.784.2c-1.2.058-2.411.1-3.621.113l-1.818-.079a16.2,16.2,0,0,1-1.812-.131c-1.2-.16-2.41-.238-3.583-.515l-1.761-.348c-.581-.133-1.149-.31-1.72-.46s-1.142-.295-1.695-.482l-1.636-.6-.813-.286-.2-.071-.1-.035c.078.031.007,0,.017.007l-.025-.011-.052-.022-.412-.178c-.541-.237-1.116-.467-1.575-.712a33.447,33.447,0,0,1-5.44-3.265,29.417,29.417,0,0,1-4.244-3.745,23.583,23.583,0,0,1-2.925-3.74l-.292-.436-.245-.44-.465-.84-.722-1.536c-.173-.481-.332-.914-.481-1.291s-.207-.715-.3-.982l-.253-.831-.026-.086a.809.809,0,0,0-1.008-.539.809.809,0,0,0-.573.781s0,.331.008.951a15.653,15.653,0,0,0,.287,2.7c.149.564.275,1.209.494,1.885l.381,1.041.207.551.254.549a21.167,21.167,0,0,0,2.943,4.643,25.9,25.9,0,0,0,4.691,4.433,33.892,33.892,0,0,0,6.207,3.6c.593.281,1.127.471,1.686.693l.417.163.148.058.112.035.225.071.9.286,1.823.558c.615.17,1.249.281,1.875.424.63.127,1.255.29,1.895.386l1.927.242a37.08,37.08,0,0,0,3.879.271,18.21,18.21,0,0,0,1.94-.006l1.932-.064c1.281-.106,2.553-.25,3.807-.407l1.861-.329c.615-.115,1.233-.2,1.83-.367l1.787-.45.884-.216.861-.275c1.138-.382,2.278-.687,3.334-1.156,1.068-.434,2.135-.8,3.11-1.311a44.71,44.71,0,0,0,5.409-2.975l2.282-1.524,1.948-1.53a20.37,20.37,0,0,0,1.654-1.434l1.382-1.256c.776-.788,1.341-1.431,1.754-1.85l.621-.653a.808.808,0,0,0-.028-1.142.807.807,0,0,0-1.141.028Z" fill="#757575"/>
    <path id="Trazado_1724" data-name="Trazado 1724" d="M-522.186,220.194c-.07-.212-.136-.426-.2-.64l-.137-.6a11.07,11.07,0,0,1-.154-1.259,11.78,11.78,0,0,1,0-1.268c.025-.423.085-.841.149-1.257a11.108,11.108,0,0,1,.3-1.225,12.413,12.413,0,0,1,.448-1.17,12.028,12.028,0,0,1,.58-1.1c.214-.351.44-.689.676-1.016a1.414,1.414,0,0,0-.32-1.973,1.41,1.41,0,0,0-1.205-.215l-.452.128-2.268.643c-.749.218-1.491.443-2.227.683a15.106,15.106,0,0,0-2.176.868c-.357.178-.712.368-1.065.59-.173.123-.352.228-.527.358-.028.031-.138.074-.033.081a1.52,1.52,0,0,1,.413.156.864.864,0,0,1,.342.41c.1.259.027.071.049.128l0,0,0,0,0,0,0,0,.014.054a.873.873,0,0,1-.024.465.793.793,0,0,1-.3.4.73.73,0,0,1-.483.126.809.809,0,0,1-.6-.312.778.778,0,0,1-.15-.3.751.751,0,0,1-.024-.248.688.688,0,0,1,.029-.161.743.743,0,0,1,.047-.115.807.807,0,0,0,.411,1.066.808.808,0,0,0,1.066-.411.887.887,0,0,0,.052-.133.679.679,0,0,0,.033-.18.875.875,0,0,0-.026-.267.863.863,0,0,0-.158-.314.894.894,0,0,0-.674-.335.971.971,0,0,0-.624.175.929.929,0,0,0-.344.464.966.966,0,0,0-.028.5l.014.059v.016c.023.059-.05-.128.05.133a1.093,1.093,0,0,0,.447.516,1.484,1.484,0,0,0,.711.192.741.741,0,0,1,.266.023c.223.043.442.068.665.1a8.331,8.331,0,0,0,1.305.019,9.955,9.955,0,0,0,2.508-.488,17.932,17.932,0,0,0,2.368-.949,22.517,22.517,0,0,0,2.222-1.261l-1.977-2.06c-.164.471-.3.945-.427,1.42l-.16.716-.131.716-.109.714-.081.713-.062.711-.041.708c-.023.472-.017.943-.013,1.413s.046.937.08,1.4.1.932.169,1.4l.116.713c.044.219.082.439.118.66a.81.81,0,0,0,.928.672.811.811,0,0,0,.672-.929A.914.914,0,0,0-522.186,220.194Z" transform="translate(-40.536 -0.009)" fill="#757575"/>
  </g>
</svg>
