<svg xmlns="http://www.w3.org/2000/svg" width="76.163" height="59.713" viewBox="0 0 76.163 59.713">
  <g id="ico-flecha-t" transform="translate(503.054 449.063) rotate(60)">
    <path id="Trazado_1721" data-name="Trazado 1721" d="M-580.472,172.68l-.829.17c-.538.112-1.339.272-2.331.508l-1.584.482a15.646,15.646,0,0,0-1.851.644l-2.079.842-2.225,1.114a40.591,40.591,0,0,0-4.706,3.023,36.316,36.316,0,0,0-4.688,4.1l-.576.574-.538.619-1.077,1.257c-.375.41-.685.877-1.022,1.324l-1,1.36c-.61.951-1.212,1.915-1.787,2.9l-.788,1.517a15.362,15.362,0,0,0-.743,1.537c-.432,1.054-.934,2.074-1.258,3.159l-.542,1.6c-.163.535-.286,1.081-.431,1.616s-.295,1.068-.4,1.606l-.281,1.612-.147.8-.037.2-.018.1c.011-.078,0-.006,0-.017l0,.026-.006.052-.048.419c-.061.552-.143,1.128-.158,1.616a31.4,31.4,0,0,0,.112,5.96,27.652,27.652,0,0,0,1.062,5.21,22.118,22.118,0,0,0,1.676,4.133l.218.442.243.406.466.772.912,1.307c.311.366.589.7.827,1s.486.5.659.7l.558.594.059.062a.76.76,0,0,1-.034,1.073.76.76,0,0,1-.9.1l-.77-.452a14.653,14.653,0,0,1-2.063-1.5c-.389-.385-.855-.791-1.3-1.285l-.669-.8-.351-.427-.328-.464a19.907,19.907,0,0,1-2.4-4.572,24.367,24.367,0,0,1-1.414-5.9,31.9,31.9,0,0,1-.026-6.742c.049-.615.145-1.138.225-1.7l.063-.416.022-.148.024-.108.047-.216.19-.868q.2-.868.4-1.746c.149-.581.356-1.148.533-1.726s.352-1.158.573-1.723l.706-1.683a34.757,34.757,0,0,1,1.6-3.286,16.934,16.934,0,0,1,.914-1.577l.957-1.543c.686-.993,1.4-1.963,2.115-2.91l1.139-1.361c.383-.447.737-.913,1.156-1.319l1.2-1.245.59-.619.628-.572c.844-.748,1.626-1.533,2.5-2.174.854-.667,1.653-1.364,2.524-1.919a42,42,0,0,1,4.955-3.012l2.31-1.144,2.158-.869a19.125,19.125,0,0,1,1.942-.676l1.671-.538c1-.262,1.792-.421,2.328-.561l.822-.2a.759.759,0,0,1,.917.558.759.759,0,0,1-.558.917Z" transform="translate(0 -3.639)" fill="#757575"/>
    <path id="Trazado_1722" data-name="Trazado 1722" d="M-556.792,163.094c.14.156.282.31.429.46l.424.393a10.5,10.5,0,0,0,.953.715,11.113,11.113,0,0,0,1.033.593c.356.177.725.325,1.094.467a10.343,10.343,0,0,0,1.136.332,11.577,11.577,0,0,0,1.162.184,11.521,11.521,0,0,0,1.164.041c.386-.01.767-.036,1.143-.075a1.328,1.328,0,0,1,1.457,1.185,1.325,1.325,0,0,1-.389,1.082l-.316.308-1.586,1.546c-.529.507-1.059,1.006-1.6,1.494a14.17,14.17,0,0,1-1.725,1.365c-.312.207-.634.407-.98.591-.182.084-.351.18-.539.261-.038.008-.125.077-.081-.011a1.426,1.426,0,0,0,.067-.409.813.813,0,0,0-.174-.471c-.164-.2-.045-.055-.082-.1v0l0,0v.008l-.037-.037a.824.824,0,0,0-.39-.2.745.745,0,0,0-.469.055.686.686,0,0,0-.328.334.759.759,0,0,0-.029.638.74.74,0,0,0,.171.261.728.728,0,0,0,.191.136.663.663,0,0,0,.145.052.678.678,0,0,0,.115.016.758.758,0,0,1-.676-.833.759.759,0,0,1,.834-.676.836.836,0,0,1,.132.02.64.64,0,0,1,.162.058.8.8,0,0,1,.206.145.827.827,0,0,1,.181.276.841.841,0,0,1-.042.706.917.917,0,0,1-.434.427.873.873,0,0,1-.539.063.9.9,0,0,1-.423-.213l-.041-.039h0l0,0-.005,0h0c-.038-.046.08.1-.085-.1a1.023,1.023,0,0,1-.211-.606,1.394,1.394,0,0,1,.177-.669.723.723,0,0,0,.106-.228c.069-.2.152-.392.231-.587a7.86,7.86,0,0,1,.6-1.072,9.357,9.357,0,0,1,1.573-1.814,16.77,16.77,0,0,1,1.881-1.484,21.083,21.083,0,0,1,2.068-1.219l.752,2.575c-.46-.087-.912-.194-1.357-.318l-.658-.205-.645-.229-.632-.246-.619-.268-.608-.282-.6-.3c-.4-.2-.776-.428-1.156-.651s-.742-.476-1.107-.722-.711-.517-1.057-.791l-.526-.428c-.158-.138-.319-.272-.482-.4a.761.761,0,0,1-.112-1.071.761.761,0,0,1,1.071-.112A.8.8,0,0,1-556.792,163.094Z" transform="translate(-24.943)" fill="#757575"/>
  </g>
</svg>
