<svg xmlns="http://www.w3.org/2000/svg" width="45" height="45" viewBox="0 0 45 45">
  <g id="icon-cinema" transform="translate(-244 -941)">
    <circle id="Elipse_9" data-name="Elipse 9" cx="22.5" cy="22.5" r="22.5" transform="translate(244 941)" fill="#fff"/>
    <g id="noun_Cinema_2161272" transform="translate(253.924 950.426)">
      <g id="Grupo_587" data-name="Grupo 587" transform="translate(0.001 0)">
        <path id="Trazado_1682" data-name="Trazado 1682" d="M1.4,10.157H3.347L1.572,8.393H1.4ZM20.959,3.194l1.353-2.11-2.833.628-1.353,2.11,2.833-.628ZM23.138,1.22,22.024,2.958l1.428-.317L23.138,1.22ZM17.061,4.058l1.353-2.11-2.832.628L14.23,4.685Zm-3.9.864,1.352-2.11-2.832.628-1.353,2.11,2.832-.628Zm-3.9.864,1.353-2.11L7.788,4.3,6.436,6.413Zm-3.9.864,1.352-2.11-2.831.628L2.539,7.277Zm-3.9.864L2.827,5.4l-1.9.422L1.308,7.55l.166-.037ZM23.654,0l.715,3.225q-9.925,2.191-19.848,4.4H24.852v18.6H.631V8.043L.01,5.241,23.654,0ZM22.62,8.393l1.461,1.453V8.393Zm.685,1.764L21.531,8.393h-2.9L20.4,10.157Zm-3.992,0L17.539,8.393h-2.9l1.774,1.764Zm-3.991,0L13.547,8.393h-2.9l1.774,1.764Zm-3.991,0L9.556,8.393h-2.9l1.774,1.764Zm-3.991,0L5.565,8.393h-2.9l1.774,1.764h2.9Zm16.743.771H1.4V25.451H24.082Z" transform="translate(-0.01 0)" fill="#4a4a4a" stroke="#4a4a4a" stroke-width="0.3"/>
      </g>
    </g>
  </g>
</svg>
