<svg xmlns="http://www.w3.org/2000/svg" width="45" height="45" viewBox="0 0 45 45">
  <g id="icon-gameroom" transform="translate(-244 -941)">
    <circle id="Elipse_9" data-name="Elipse 9" cx="22.5" cy="22.5" r="22.5" transform="translate(244 941)" fill="#fff"/>
    <g id="Grupo_583" data-name="Grupo 583" transform="translate(249.429 664.184)">
      <g id="Grupo_585" data-name="Grupo 585" transform="translate(1 1)">
        <path id="Trazado_1661" data-name="Trazado 1661" d="M13.621,291.94a1.936,1.936,0,1,0-1.936,1.936A1.936,1.936,0,0,0,13.621,291.94Z" transform="translate(16.382 6.827)" fill="#4a4a4a"/>
        <path id="Trazado_1662" data-name="Trazado 1662" d="M11.931,287.714a1.569,1.569,0,0,0-1.48.9L4.892,300.54a1.569,1.569,0,0,0,.759,2.085l11.922,5.561a1.569,1.569,0,0,0,2.085-.759L25.218,295.5a1.569,1.569,0,0,0-.758-2.085l-11.923-5.559a1.571,1.571,0,0,0-.606-.145Zm-.027.733a.832.832,0,0,1,.323.077l11.922,5.559a.834.834,0,0,1,.4,1.109l-5.559,11.922a.834.834,0,0,1-1.108.4L5.962,301.959a.834.834,0,0,1-.4-1.108l5.559-11.922a.834.834,0,0,1,.786-.482Z" transform="translate(7.491 2.755)" fill="#4a4a4a" stroke="#4a4a4a" stroke-width="0.5"/>
        <path id="Trazado_1663" data-name="Trazado 1663" d="M10.909,290.676a1.936,1.936,0,1,0-1.936,1.936A1.936,1.936,0,0,0,10.909,290.676Z" transform="translate(11.564 4.581)" fill="#4a4a4a"/>
        <path id="Trazado_1664" data-name="Trazado 1664" d="M12.357,294.652a1.936,1.936,0,1,0-1.936,1.936A1.936,1.936,0,0,0,12.357,294.652Z" transform="translate(14.136 11.646)" fill="#4a4a4a"/>
        <path id="Trazado_1665" data-name="Trazado 1665" d="M11.633,292.664A1.936,1.936,0,1,0,9.7,294.6,1.936,1.936,0,0,0,11.633,292.664Z" transform="translate(12.85 8.113)" fill="#4a4a4a"/>
        <path id="Trazado_1666" data-name="Trazado 1666" d="M9.645,293.388a1.936,1.936,0,1,0-1.936,1.936,1.936,1.936,0,0,0,1.936-1.936Z" transform="translate(9.318 9.4)" fill="#4a4a4a"/>
      </g>
      <g id="Grupo_584" data-name="Grupo 584">
        <path id="Trazado_1660" data-name="Trazado 1660" d="M14.305,286.162a1.57,1.57,0,0,0-.567.112l-12.22,4.867a1.569,1.569,0,0,0-.877,2.039L5.509,305.4a1.569,1.569,0,0,0,2.039.877l3.168-1.263,6.567-14.083-1.507-3.781A1.569,1.569,0,0,0,14.305,286.162Zm.007.735a.834.834,0,0,1,.781.525l1.391,3.487-6.31,13.532-2.9,1.154a.834.834,0,0,1-1.083-.466l-4.869-12.22a.834.834,0,0,1,.466-1.083l12.22-4.869a.833.833,0,0,1,.3-.059Z" transform="translate(0)" fill="#4a4a4a" stroke="#4a4a4a" stroke-linecap="round" stroke-linejoin="round" stroke-width="0.5"/>
        <path id="Trazado_1667" data-name="Trazado 1667" d="M5.4,290.207a1.936,1.936,0,1,0-1.936,1.936A1.936,1.936,0,0,0,5.4,290.207Z" transform="translate(1.78 3.747)" fill="#4a4a4a"/>
        <path id="Trazado_1668" data-name="Trazado 1668" d="M6.51,292.986a1.936,1.936,0,1,0-1.936,1.936A1.936,1.936,0,0,0,6.51,292.986Z" transform="translate(3.747 8.685)" fill="#4a4a4a"/>
        <path id="Trazado_1669" data-name="Trazado 1669" d="M8.182,289.1a1.936,1.936,0,1,0-1.936,1.936A1.936,1.936,0,0,0,8.182,289.1Z" transform="translate(6.718 1.78)" fill="#4a4a4a"/>
      </g>
    </g>
  </g>
</svg>
