<svg xmlns="http://www.w3.org/2000/svg" width="45" height="45" viewBox="0 0 45 45">
  <g id="icon-bicicleros" transform="translate(-244 -941)">
    <circle id="Elipse_9" data-name="Elipse 9" cx="22.5" cy="22.5" r="22.5" transform="translate(244 941)" fill="#fff"/>
    <g id="Grupo_602" data-name="Grupo 602" transform="translate(250.101 942.192)">
      <path id="Trazado_1707" data-name="Trazado 1707" d="M26.527,17.975a5.608,5.608,0,0,0-2.4.543l-1.14-1.728s-.007-.005-.009-.008l1.21-2.413a.671.671,0,0,0-.6-.972H20.573a.672.672,0,1,0,0,1.343H22.5l-.621,1.232H14.935a.7.7,0,0,0-.107-.114l.715-1.509a.672.672,0,0,0-.606-.959H11.323a.672.672,0,0,0,0,1.343h2.554l-1.7,3.6a5.517,5.517,0,0,0-3.492-.047,3.847,3.847,0,0,0-2.9-1.335H1.343V15.164a.672.672,0,0,0-1.343,0v13.48a.672.672,0,1,0,1.343,0V24.692H4.881a5.6,5.6,0,1,0,8.5-5.777l.784-1.652.016,0L18.2,23.711a.672.672,0,0,0,.569.315h2.166a5.595,5.595,0,1,0,5.592-6.051ZM8.1,20.82a2.32,2.32,0,0,1-2.015,2.292,4.363,4.363,0,0,1,1.863-3.092A2.307,2.307,0,0,1,8.1,20.82ZM1.343,18.5H5.779a2.3,2.3,0,0,1,1.432.508A5.621,5.621,0,0,0,4.8,23.143H1.343Zm13.374,5.144a4.338,4.338,0,0,1-8.552,1.012A3.834,3.834,0,0,0,9.373,19.4a3.941,3.941,0,0,1,2.25.086L9.835,23.261a.671.671,0,1,0,1.212.575l1.789-3.775A4.356,4.356,0,0,1,14.718,23.641Zm8.266-4.412a5.566,5.566,0,0,0-2,3.454h-.96l2.258-4.515Zm.705,1.069,1.574,2.385h-3.01A4.3,4.3,0,0,1,23.689,20.3Zm-7.9-2.983h5.416L18.8,22.135Zm10.735,10.6a4.352,4.352,0,0,1-4.314-3.885h4.3a.672.672,0,0,0,.561-1.041l-2.249-3.409a4.388,4.388,0,0,1,1.706-.345,4.34,4.34,0,0,1,0,8.679Z" transform="translate(0 0)" fill="#4a4a4a"/>
    </g>
  </g>
</svg>
