<svg xmlns="http://www.w3.org/2000/svg" width="45" height="45" viewBox="0 0 45 45">
  <g id="icon-calefaccion" transform="translate(-244 -941)">
    <circle id="Elipse_9" data-name="Elipse 9" cx="22.5" cy="22.5" r="22.5" transform="translate(244 941)" fill="#fff"/>
    <g id="Grupo_579" data-name="Grupo 579" transform="translate(-2935.783 -5689.506)">
      <path id="Trazado_1641" data-name="Trazado 1641" d="M42.933,38.128c-3.16-3.863-4.492-2.53-4.492-2.53,7.667,9.826-8.52,13.87,2.333,22.934,2.207,1.843,2.853.869,2.695.68C35.339,49.474,48.617,46.138,42.933,38.128Z" transform="translate(3161.554 6605.761)" fill="#4a4a4a"/>
      <path id="Trazado_1642" data-name="Trazado 1642" d="M52.162,41.1c-2.37-2.9-3.369-1.9-3.369-1.9,5.75,7.369-6.39,10.4,1.75,17.2,1.655,1.382,2.14.652,2.021.51C46.467,49.605,56.426,47.1,52.162,41.1Z" transform="translate(3159.723 6605.137)" fill="#4a4a4a"/>
      <path id="Trazado_1643" data-name="Trazado 1643" d="M32.945,41.1c-2.37-2.9-3.369-1.9-3.369-1.9,5.75,7.369-6.39,10.4,1.75,17.2,1.655,1.382,2.14.652,2.021.51C27.25,49.605,37.208,47.1,32.945,41.1Z" transform="translate(3163 6605.137)" fill="#4a4a4a"/>
    </g>
  </g>
</svg>
