<svg xmlns="http://www.w3.org/2000/svg" width="19" height="19" viewBox="0 0 19 19">
  <g id="Grupo_2624" data-name="Grupo 2624" transform="translate(2963 -8321.42)">
    <circle id="Elipse_50" data-name="Elipse 50" cx="9.5" cy="9.5" r="9.5" transform="translate(-2963 8321.42)" fill="#19419b"/>
    <g id="Icon_ionic-ios-videocam" data-name="Icon ionic-ios-videocam" transform="translate(-2960.017 8326.858)">
      <path id="Trazado_110" data-name="Trazado 110" d="M27.759,10.8a.53.53,0,0,0-.288.084L24.79,12.576a.265.265,0,0,0-.124.223v2.356a.265.265,0,0,0,.124.223l2.681,1.692a.557.557,0,0,0,.288.084H28.4a.264.264,0,0,0,.267-.263V11.063A.266.266,0,0,0,28.4,10.8Z" transform="translate(-14.784 -10.006)" fill="#fff"/>
      <path id="Trazado_111" data-name="Trazado 111" d="M9.736,16.935H3.846a1.6,1.6,0,0,1-1.6-1.593V10.593A1.6,1.6,0,0,1,3.843,9H9.733a1.6,1.6,0,0,1,1.593,1.593v4.746A1.6,1.6,0,0,1,9.736,16.935Z" transform="translate(-2.25 -9)" fill="#fff"/>
    </g>
  </g>
</svg>
