<svg xmlns="http://www.w3.org/2000/svg" width="45" height="45" viewBox="0 0 45 45">
  <g id="icon-conserje" transform="translate(-244 -941)">
    <circle id="Elipse_9" data-name="Elipse 9" cx="22.5" cy="22.5" r="22.5" transform="translate(244 941)" fill="#fff"/>
    <g id="noun_Access_1660198" transform="translate(241.372 945.349)">
      <g id="Grupo_581" data-name="Grupo 581" transform="translate(14.283 5)">
        <path id="Trazado_1653" data-name="Trazado 1653" d="M35.769,7.367a.605.605,0,0,0-.52-.112,11.185,11.185,0,0,1-2.554.319h-.1a11.625,11.625,0,0,1-7.089-2.449.608.608,0,0,0-.738,0,11.625,11.625,0,0,1-7.089,2.449h-.09a11.193,11.193,0,0,1-2.559-.319.608.608,0,0,0-.752.591V17.2c0,7.257,4.4,13.483,10.7,15.139a.606.606,0,0,0,.309,0C31.6,30.687,36,24.462,36,17.2V7.845A.607.607,0,0,0,35.769,7.367ZM34.786,17.2c0,6.645-3.957,12.344-9.643,13.921C19.457,29.548,15.5,23.849,15.5,17.2V8.595a12.4,12.4,0,0,0,2.09.195h.1a12.782,12.782,0,0,0,7.458-2.427A12.782,12.782,0,0,0,32.6,8.79h.1a12.374,12.374,0,0,0,2.085-.195V17.2Z" transform="translate(-14.283 -5)" fill="#4a4a4a"/>
        <path id="Trazado_1654" data-name="Trazado 1654" d="M43.6,33.323l-2.319-.683-1.367-1.995a.608.608,0,0,0-1,0L37.548,32.64l-2.319.683a.608.608,0,0,0-.31.954l1.474,1.916-.066,2.417a.608.608,0,0,0,.811.59l2.278-.81,2.278.81a.6.6,0,0,0,.2.035H41.9a.608.608,0,0,0,.6-.711l-.064-2.33,1.474-1.916a.608.608,0,0,0-.31-.954Zm-2.26,2.3a.607.607,0,0,0-.126.388l.048,1.746-1.646-.585a.606.606,0,0,0-.407,0l-1.646.585.048-1.746a.607.607,0,0,0-.126-.388l-1.065-1.384,1.675-.494a.607.607,0,0,0,.33-.24l.988-1.441.988,1.441a.609.609,0,0,0,.33.24l1.675.494Z" transform="translate(-28.557 -22.664)" fill="#4a4a4a"/>
      </g>
    </g>
  </g>
</svg>
