<svg xmlns="http://www.w3.org/2000/svg" width="193.695" height="94.366" viewBox="0 0 193.695 94.366">
  <g id="Grupo_2459" data-name="Grupo 2459" transform="translate(-1072.813 -1445.634)">
    <g id="Grupo_2454" data-name="Grupo 2454" transform="translate(-100 -450)">
      <path id="Trazado_51" data-name="Trazado 51" d="M-1246.475,687.724v32.543h21.369v-7.22s2.4-6.425,8.018-6.526,8.132,6.225,8.132,6.225v7.52h21.687V687.724h6.626l-14.647-15.8V655.618h3.1V651.7h-12.952v3.112h2.309v7.631l-13.555-15.563-36.345,40.689Z" transform="translate(2427.731 1258.392)" fill="none" stroke="#48999a" stroke-miterlimit="10" stroke-width="2"/>
      <rect id="Rectángulo_2225" data-name="Rectángulo 2225" width="5.29" height="5.29" transform="translate(1187.871 1949.25)" fill="#48999a"/>
      <rect id="Rectángulo_2226" data-name="Rectángulo 2226" width="5.29" height="5.29" transform="translate(1187.871 1957.929)" fill="#48999a"/>
      <rect id="Rectángulo_2227" data-name="Rectángulo 2227" width="5.29" height="5.29" transform="translate(1197.759 1949.25)" fill="#48999a"/>
      <rect id="Rectángulo_2228" data-name="Rectángulo 2228" width="5.29" height="5.29" transform="translate(1197.759 1957.929)" fill="#48999a"/>
      <rect id="Rectángulo_2229" data-name="Rectángulo 2229" width="5.29" height="5.29" transform="translate(1219.558 1949.189)" fill="#48999a"/>
      <rect id="Rectángulo_2230" data-name="Rectángulo 2230" width="5.29" height="5.29" transform="translate(1219.558 1957.868)" fill="#48999a"/>
      <rect id="Rectángulo_2231" data-name="Rectángulo 2231" width="5.29" height="5.29" transform="translate(1229.446 1949.189)" fill="#48999a"/>
      <rect id="Rectángulo_2232" data-name="Rectángulo 2232" width="5.29" height="5.29" transform="translate(1229.446 1957.868)" fill="#48999a"/>
    </g>
    <g id="Grupo_2456" data-name="Grupo 2456" transform="translate(-105 -447)">
      <path id="Trazado_53" data-name="Trazado 53" d="M0,0H13.284l-.022,26.684H.07Z" transform="translate(1314.989 1939.812)" fill="none" stroke="#48999a" stroke-width="2"/>
      <rect id="Rectángulo_2234" data-name="Rectángulo 2234" width="12.983" height="15.72" transform="translate(1340.739 1937.077)" fill="none" stroke="#48999a" stroke-miterlimit="10" stroke-width="2"/>
      <path id="Trazado_52" data-name="Trazado 52" d="M-1068.233,705.782V665.436l-3.819,3.819-3.873-3.873,34.375-32.224,35.29,32.6-3.873,2.69-4.949-3.766v41.1Z" transform="translate(2376.175 1260.842)" fill="none" stroke="#48999a" stroke-miterlimit="10" stroke-width="2"/>
      <circle id="Elipse_49" data-name="Elipse 49" cx="5.352" cy="5.352" r="5.352" transform="translate(1329.187 1915.948)" fill="#48999a"/>
    </g>
    <g id="Grupo_2455" data-name="Grupo 2455" transform="translate(-105 -447)">
      <g id="Grupo_2453" data-name="Grupo 2453" transform="translate(1251.594 1927.413)">
        <path id="Trazado_46" data-name="Trazado 46" d="M-1134.2,673.83-1159.5,701h50.893Z" transform="translate(1159.497 -672.83)" fill="#48999a"/>
        <path id="Rectángulo_2220" data-name="Rectángulo 2220" d="M-1125.677,746.7h-28.038V715.233h43.3V746.7h-28.038V726.611h12.773Z" transform="translate(1157.51 -688.059)" fill="#48999a"/>
        <path id="Trazado_47" data-name="Trazado 47" d="M-1093.758,700.2V684.39h-4.9V695" transform="translate(1138.588 -677.459)" fill="#48999a"/>
        <rect id="Rectángulo_2235" data-name="Rectángulo 2235" width="13" height="21" transform="translate(19.406 38.587)" fill="#fff"/>
      </g>
    </g>
  </g>
</svg>
