<svg xmlns="http://www.w3.org/2000/svg" xmlns:xlink="http://www.w3.org/1999/xlink" width="41" height="41" viewBox="0 0 41 41">
  <defs>
    <clipPath id="clip-path">
      <rect width="41" height="41" fill="none"/>
    </clipPath>
  </defs>
  <g id="Repetir_cuadrícula_2" data-name="Repetir cuadrícula 2" clip-path="url(#clip-path)">
    <g id="Grupo_2429" data-name="Grupo 2429" transform="translate(-1362 -3269)">
      <circle id="Elipse_72" data-name="Elipse 72" cx="20.5" cy="20.5" r="20.5" transform="translate(1362 3269)" fill="#4a4a4a"/>
      <path id="Trazado_3" data-name="Trazado 3" d="M12.4,2.2a38.015,38.015,0,0,1,4.959.138,6.389,6.389,0,0,1,2.342.413A4.838,4.838,0,0,1,22.041,5.1a6.389,6.389,0,0,1,.413,2.342c0,1.24.138,1.653.138,4.959a38.015,38.015,0,0,1-.138,4.959,6.389,6.389,0,0,1-.413,2.342A4.838,4.838,0,0,1,19.7,22.041a6.389,6.389,0,0,1-2.342.413c-1.24,0-1.653.138-4.959.138a38.015,38.015,0,0,1-4.959-.138A6.389,6.389,0,0,1,5.1,22.041,4.838,4.838,0,0,1,2.755,19.7a6.389,6.389,0,0,1-.413-2.342c0-1.24-.138-1.653-.138-4.959a38.015,38.015,0,0,1,.138-4.959A6.389,6.389,0,0,1,2.755,5.1a4.948,4.948,0,0,1,.964-1.378A2.329,2.329,0,0,1,5.1,2.755a6.389,6.389,0,0,1,2.342-.413A38.015,38.015,0,0,1,12.4,2.2m0-2.2A40.7,40.7,0,0,0,7.3.138,8.5,8.5,0,0,0,4.27.689a5.393,5.393,0,0,0-2.2,1.378A5.393,5.393,0,0,0,.689,4.27,6.277,6.277,0,0,0,.138,7.3,40.7,40.7,0,0,0,0,12.4a40.7,40.7,0,0,0,.138,5.1,8.5,8.5,0,0,0,.551,3.031,5.393,5.393,0,0,0,1.378,2.2,5.393,5.393,0,0,0,2.2,1.378,8.5,8.5,0,0,0,3.031.551,40.7,40.7,0,0,0,5.1.138,40.7,40.7,0,0,0,5.1-.138,8.5,8.5,0,0,0,3.031-.551,5.78,5.78,0,0,0,3.582-3.582,8.5,8.5,0,0,0,.551-3.031c0-1.378.138-1.791.138-5.1a40.7,40.7,0,0,0-.138-5.1,8.5,8.5,0,0,0-.551-3.031,5.393,5.393,0,0,0-1.378-2.2,5.393,5.393,0,0,0-2.2-1.378A8.5,8.5,0,0,0,17.5.138,40.7,40.7,0,0,0,12.4,0m0,6.061A6.235,6.235,0,0,0,6.061,12.4,6.337,6.337,0,1,0,12.4,6.061m0,10.47A4.059,4.059,0,0,1,8.265,12.4,4.059,4.059,0,0,1,12.4,8.265,4.059,4.059,0,0,1,16.531,12.4,4.059,4.059,0,0,1,12.4,16.531M19.01,4.27a1.515,1.515,0,1,0,1.515,1.515A1.529,1.529,0,0,0,19.01,4.27" transform="translate(1370.282 3277.203)" fill="#fff" fill-rule="evenodd"/>
    </g>
  </g>
</svg>
