<svg xmlns="http://www.w3.org/2000/svg" width="23.383" height="23.383" viewBox="0 0 23.383 23.383">
  <path id="Icon_awesome-phone-alt" data-name="Icon awesome-phone-alt" d="M22.716,16.524,17.6,14.332a1.1,1.1,0,0,0-1.279.315l-2.265,2.768A16.928,16.928,0,0,1,5.965,9.322L8.732,7.057a1.093,1.093,0,0,0,.315-1.279L6.855.663A1.1,1.1,0,0,0,5.6.028l-4.75,1.1A1.1,1.1,0,0,0,0,2.192,21.189,21.189,0,0,0,21.191,23.384a1.1,1.1,0,0,0,1.069-.849l1.1-4.75a1.109,1.109,0,0,0-.64-1.261Z" transform="translate(0 0)" fill="#FFFFFF"/>
</svg>
