<svg xmlns="http://www.w3.org/2000/svg" width="49" height="49" viewBox="0 0 49 49">
  <g id="Grupo_2645" data-name="Grupo 2645" transform="translate(-3130 -2749)">
    <circle id="Elipse_51" data-name="Elipse 51" cx="24.5" cy="24.5" r="24.5" transform="translate(3130 2749)" fill="#48999a"/>
    <path id="Trazado_112" data-name="Trazado 112" d="M39.505,18.9a1.385,1.385,0,0,1,1.368,1.368h0a1.385,1.385,0,0,1-1.368,1.368H36.965a1.312,1.312,0,0,0-1.134.625,3.841,3.841,0,0,1-3.322,1.876,3.89,3.89,0,0,1-3.322-1.876,1.361,1.361,0,0,0-1.134-.625H10.268A1.385,1.385,0,0,1,8.9,20.27h0A1.385,1.385,0,0,1,10.268,18.9H28.092a1.312,1.312,0,0,0,1.134-.625A3.841,3.841,0,0,1,32.548,16.4a3.89,3.89,0,0,1,3.322,1.876A1.361,1.361,0,0,0,37,18.9ZM32.548,34.693a3.89,3.89,0,0,0-3.322,1.876,1.361,1.361,0,0,1-1.134.625H10.268A1.385,1.385,0,0,0,8.9,38.563h0a1.385,1.385,0,0,0,1.368,1.368H28.092a1.312,1.312,0,0,1,1.134.625,3.841,3.841,0,0,0,3.322,1.876,3.89,3.89,0,0,0,3.322-1.876A1.361,1.361,0,0,1,37,39.931h2.541a1.385,1.385,0,0,0,1.368-1.368h0a1.385,1.385,0,0,0-1.368-1.368H37a1.312,1.312,0,0,1-1.134-.625A3.89,3.89,0,0,0,32.548,34.693ZM17.616,25.546a3.89,3.89,0,0,0-3.322,1.876,1.361,1.361,0,0,1-1.134.625H10.268A1.385,1.385,0,0,0,8.9,29.416h0a1.385,1.385,0,0,0,1.368,1.368h2.892a1.312,1.312,0,0,1,1.134.625,3.841,3.841,0,0,0,3.322,1.876,3.89,3.89,0,0,0,3.322-1.876,1.361,1.361,0,0,1,1.134-.625H39.545a1.385,1.385,0,0,0,1.368-1.368h0a1.385,1.385,0,0,0-1.368-1.368H22.072a1.312,1.312,0,0,1-1.134-.625A3.89,3.89,0,0,0,17.616,25.546Z" transform="translate(3130.09 2744.326)" fill="#fff"/>
  </g>
</svg>
