<svg xmlns="http://www.w3.org/2000/svg" width="45" height="45" viewBox="0 0 45 45">
  <g id="icon-logia" transform="translate(-244 -941)">
    <circle id="Elipse_9" data-name="Elipse 9" cx="22.5" cy="22.5" r="22.5" transform="translate(244 941)" fill="#fff"/>
    <g id="noun_Laundry_service_1131249" data-name="noun_Laundry service_1131249" transform="translate(248.2 940.54)">
      <path id="Trazado_1646" data-name="Trazado 1646" d="M2.537,46.247H17.563a.537.537,0,0,0,.537-.537V28.537A.537.537,0,0,0,17.563,28H2.537A.537.537,0,0,0,2,28.537V45.71A.537.537,0,0,0,2.537,46.247Zm14.49-1.073H3.073V33.367H17.027ZM3.073,29.073H17.027v3.22H3.073Z" transform="translate(0 -14.387)" fill="#4a4a4a"/>
      <path id="Trazado_1647" data-name="Trazado 1647" d="M11.83,49.66a4.836,4.836,0,0,0,4.8-4.293h1.1V44.293h-1.1a4.829,4.829,0,1,0-4.8,5.367Zm0-8.587a3.759,3.759,0,0,1,3.714,3.22H14.459a2.683,2.683,0,1,0,0,1.073h1.085a3.755,3.755,0,1,1-3.714-4.293Zm1.61,3.757a1.61,1.61,0,1,1-1.61-1.61A1.612,1.612,0,0,1,13.44,44.83Z" transform="translate(-2.317 -19.947)" fill="#4a4a4a"/>
      <rect id="Rectángulo_1187" data-name="Rectángulo 1187" width="1.073" height="1.073" transform="translate(10.587 15.76)" fill="#4a4a4a"/>
      <rect id="Rectángulo_1188" data-name="Rectángulo 1188" width="1.073" height="1.073" transform="translate(12.733 15.76)" fill="#4a4a4a"/>
      <rect id="Rectángulo_1189" data-name="Rectángulo 1189" width="1.073" height="1.073" transform="translate(14.88 15.76)" fill="#4a4a4a"/>
      <rect id="Rectángulo_1190" data-name="Rectángulo 1190" width="4.293" height="1.073" transform="translate(4.147 15.76)" fill="#4a4a4a"/>
      <path id="Trazado_1648" data-name="Trazado 1648" d="M48.49,34.293H47.417v-.537h.537a.536.536,0,0,0,.526-.642l-.537-2.683A.536.536,0,0,0,47.417,30h-6.44a.537.537,0,0,0-.537.537V32.2a2.69,2.69,0,0,0-2.092,2.092H34.537A.537.537,0,0,0,34,34.83v2.147a.537.537,0,0,0,.537.537h1.948l4.058,3.479-5.829,5.246.718.8L41.365,41.7,47.6,47.044l.7-.815L42.17,40.972l3.843-3.458H48.49a.537.537,0,0,0,.537-.537V34.83A.537.537,0,0,0,48.49,34.293Zm-6.977-3.22h5.463l.238,1.19a.552.552,0,0,0-.085-.048c-.018-.01-.034-.022-.054-.03a.54.54,0,0,0-.2-.039H41.513Zm-.537,2.147h5.367v1.073H39.459A1.612,1.612,0,0,1,40.977,33.22Zm.371,7.048-3.214-2.755h6.274Zm6.606-3.828H35.073V35.367h12.88Z" transform="translate(-14.827 -15.313)" fill="#4a4a4a"/>
    </g>
  </g>
</svg>
