<svg xmlns="http://www.w3.org/2000/svg" width="41" height="41" viewBox="0 0 41 41">
  <path id="youtube-round-color" d="M20.5,0A20.5,20.5,0,1,1,0,20.5,20.5,20.5,0,0,1,20.5,0ZM30.856,16.272a4.555,4.555,0,0,0-.842-2.1,3.027,3.027,0,0,0-2.118-.9c-2.956-.215-7.4-.215-7.4-.215h-.008s-4.438,0-7.4.215a3.03,3.03,0,0,0-2.118.9,4.528,4.528,0,0,0-.838,2.1,32.118,32.118,0,0,0-.21,3.424v1.6a32.239,32.239,0,0,0,.21,3.424,4.587,4.587,0,0,0,.838,2.1,3.6,3.6,0,0,0,2.334.9c1.693.162,7.19.21,7.19.21s4.444-.008,7.4-.219a3.024,3.024,0,0,0,2.118-.9,4.554,4.554,0,0,0,.842-2.1,32.117,32.117,0,0,0,.21-3.424V19.7a32.9,32.9,0,0,0-.215-3.424h0ZM18.309,23.243V17.3l5.712,2.981Z" fill="#4a4a4a" fill-rule="evenodd"/>
</svg>
