<svg xmlns="http://www.w3.org/2000/svg" width="45" height="45" viewBox="0 0 45 45">
  <g id="icon-alarm" transform="translate(-244 -941)">
    <circle id="Elipse_9" data-name="Elipse 9" cx="22.5" cy="22.5" r="22.5" transform="translate(244 941)" fill="#fff"/>
    <path id="Trazado_1644" data-name="Trazado 1644" d="M541.773,443.09v-3.3a.824.824,0,0,1,.825-.825h.825v-4.948a6.6,6.6,0,1,1,13.195,0v4.948h.825a.824.824,0,0,1,.825.825v3.3h4.948a.825.825,0,1,1,0,1.649H536.825a.825.825,0,0,1,0-1.649Zm13.195-9.071a4.948,4.948,0,0,0-9.9,0v4.948h9.9Zm-11.545,9.071h13.195v-2.474H543.422Zm10.308-9.071a.825.825,0,1,1-1.649,0,2.062,2.062,0,0,0-2.062-2.062.825.825,0,1,1,0-1.649A3.711,3.711,0,0,1,553.73,434.019Zm-4.536-9.9v-3.3a.825.825,0,1,1,1.649,0v3.3A.825.825,0,1,1,549.195,424.123Zm7.239,2.315,2.333-2.333a.825.825,0,0,1,1.167,1.166L557.6,427.6A.825.825,0,0,1,556.434,426.438ZM542.439,427.6l-2.333-2.333a.825.825,0,0,1,1.166-1.166l2.333,2.333A.825.825,0,0,1,542.439,427.6Zm-2.315,5.59a.825.825,0,1,1,0,1.649h-3.3a.825.825,0,0,1,0-1.649Zm23.091,0a.825.825,0,1,1,0,1.649h-3.3a.825.825,0,0,1,0-1.649Z" transform="translate(-283.019 529.63)" fill="#4a4a4a" fill-rule="evenodd"/>
  </g>
</svg>
