<svg xmlns="http://www.w3.org/2000/svg" width="31.898" height="27.652" viewBox="0 0 31.898 27.652">
  <g id="icon-shopping" transform="translate(5.979 -11)">
    <g id="Grupo_392" data-name="Grupo 392" transform="translate(-5.979 11)">
      <path id="Trazado_1391" data-name="Trazado 1391" d="M5.72,963.362a.709.709,0,0,0,0,1.418h4.487c1.812,4.481,3.59,8.97,5.384,13.46l-1.662,3.988a.745.745,0,0,0,.654.986H32.308a.709.709,0,1,0,0-1.418H15.646l1.2-2.88,17.293-1.385a.729.729,0,0,0,.631-.543l2.127-9.217a.742.742,0,0,0-.687-.864H12.577l-1.241-3.1a.727.727,0,0,0-.654-.443Zm7.422,4.963h7.467v3.9H14.7Zm8.885,0H26.99v3.9H22.027Zm6.381,0h6.913l-.908,3.9h-6Zm-13.139,5.318h5.34V977.2l-3.789.3Zm6.758,0H26.99v3.047l-4.963.4Zm6.381,0h5.683l-.587,2.526-5.1.41Zm-10.281,10.99a3.191,3.191,0,1,0,3.191,3.191A3.2,3.2,0,0,0,18.127,984.632Zm10.635,0a3.191,3.191,0,1,0,3.191,3.191A3.2,3.2,0,0,0,28.763,984.632ZM18.127,986.05a1.773,1.773,0,1,1-1.773,1.773A1.762,1.762,0,0,1,18.127,986.05Zm10.635,0a1.773,1.773,0,1,1-1.773,1.773A1.762,1.762,0,0,1,28.763,986.05Z" transform="translate(-5.011 -963.362)" fill="#fff"/>
    </g>
  </g>
</svg>
