<svg xmlns="http://www.w3.org/2000/svg" width="220" height="220" viewBox="0 0 220 220">
  <g id="Grupo_2383" data-name="Grupo 2383" transform="translate(-1462 -1484)">
    <circle id="Elipse_23" data-name="Elipse 23" cx="110" cy="110" r="110" transform="translate(1462 1484)" fill="#f5f5f5"/>
    <g id="Grupo_2380" data-name="Grupo 2380" transform="translate(1508 1527)">
      <g id="Grupo_2378" data-name="Grupo 2378" transform="translate(0 0)">
        <g id="Grupo_2375" data-name="Grupo 2375">
          <path id="Trazado_152" data-name="Trazado 152" d="M-576.452-57.216l-4.73-5.08,8.672-8.934,5.431,5.168,10.423-4.38v-7.27h12.438v7.358l10.343,4.38,5.336-5.255,8.934,8.934-4.905,5.08,4.292,10.686h7.358v13.139h-6.745l-4.642,10.248,4.555,5.255-8.584,8.671-5.08-4.817-10.6,4.817-.088,7.708h-12.438l.088-7.883-11.036-4.642L-572.6-9.041l-8.584-8.934,4.555-4.993L-581.182-34l-6.832-.088V-46.179h7.007Z" transform="translate(588.014 77.712)" fill="none" stroke="#00a72c" stroke-linecap="round" stroke-linejoin="round" stroke-width="3"/>
          <ellipse id="Elipse_61" data-name="Elipse 61" cx="17.049" cy="17.049" rx="17.049" ry="17.049" transform="translate(20.528 21.053)" fill="none" stroke="#00a72c" stroke-linecap="round" stroke-linejoin="round" stroke-width="3"/>
        </g>
        <g id="Grupo_2376" data-name="Grupo 2376" transform="translate(84.359 16.023)">
          <path id="Trazado_153" data-name="Trazado 153" d="M-543.392-52.463l-3.59-1.853,2.995-6.6L-540-59.152l4.849-4.448-1.429-3.983,6.814-2.445L-528.316-66l6.527.366,1.89-3.928,6.651,3.138-1.689,3.747,4.452,5.011,4.031-1.446,2.582,7.2-3.695,1.326-.529,6.527,3.528,1.984-3,6.438-3.73-1.641-4.859,4.722,1.467,4.24L-521.5-25.87l-1.5-4.336-6.959-.374-1.85,3.751-6.459-3.207,1.514-3.63-4.664-5.151-3.76,1.295-2.376-6.622,3.839-1.377Z" transform="translate(547.557 70.027)" fill="none" stroke="#00a72c" stroke-linecap="round" stroke-linejoin="round" stroke-width="3"/>
          <ellipse id="Elipse_62" data-name="Elipse 62" cx="9.923" cy="9.923" rx="9.923" ry="9.923" transform="translate(11.954 12.173)" fill="none" stroke="#00a72c" stroke-linecap="round" stroke-linejoin="round" stroke-width="3"/>
        </g>
        <g id="Grupo_2377" data-name="Grupo 2377" transform="translate(54.781 67.338)">
          <path id="Trazado_154" data-name="Trazado 154" d="M-554.383-20.843l-5.146-3.26,5.373-9.515,5.761,3.179,7.874-6.038-1.618-6.172,10.559-2.768,1.638,6.246,9.756,1.416,3.36-5.649,9.573,5.6-3.034,5.4,6.022,8.117,6.246-1.638,2.924,11.154-5.726,1.5-1.66,9.733,5.036,3.448L-502.8,9.184l-5.385-2.959-7.925,6.449,1.641,6.563-10.559,2.768-1.68-6.712-10.4-1.485-3.276,5.389-9.276-5.674,2.755-5.252-6.323-8.356-5.82,1.446L-561.742-8.9l5.949-1.56Z" transform="translate(561.742 45.418)" fill="none" stroke="#00a72c" stroke-linecap="round" stroke-linejoin="round" stroke-width="3"/>
          <ellipse id="Elipse_63" data-name="Elipse 63" cx="14.963" cy="14.963" rx="14.963" ry="14.963" transform="translate(18.4 18.768)" fill="none" stroke="#00a72c" stroke-linecap="round" stroke-linejoin="round" stroke-width="3"/>
        </g>
      </g>
    </g>
  </g>
</svg>
