<svg xmlns="http://www.w3.org/2000/svg" width="37.985" height="38" viewBox="0 0 37.985 38">
  <path id="icon-login-black" d="M28.043,9A19.034,19.034,0,0,0,9.05,27.99a19.518,19.518,0,0,0,5.6,13.751A17.783,17.783,0,0,0,27.31,47q.383,0,.77-.016c10.629-.435,18.955-8.778,18.955-18.991A19.014,19.014,0,0,0,28.043,9Zm-.038,36.154c-.233.01-.465.014-.7.014a15.935,15.935,0,0,1-10.252-3.7c0-.018.005-.036.005-.054a10.6,10.6,0,0,1,7.048-10.3,7.725,7.725,0,0,0,7.077,0,10.85,10.85,0,0,1,7.351,10.25A18.407,18.407,0,0,1,28.005,45.153Zm-.356-15.019a5.964,5.964,0,1,1,5.964-5.964A5.971,5.971,0,0,1,27.649,30.134Zm12.616,9.7a12.715,12.715,0,0,0-7.286-9.994,7.8,7.8,0,1,0-10.656,0A12.359,12.359,0,0,0,15.334,39.8a17.733,17.733,0,0,1-4.452-11.81,17.16,17.16,0,1,1,34.321,0A16.732,16.732,0,0,1,40.265,39.838Z" transform="translate(-9.05 -8.999)" fill="#3c3b3b"/>
</svg>
