<svg id="Grupo_2148" data-name="Grupo 2148" xmlns="http://www.w3.org/2000/svg" width="16.079" height="8.583" viewBox="0 0 16.079 8.583">
  <path id="Trazado_3" data-name="Trazado 3" d="M15.463,25.21a.707.707,0,0,0-.707.707V28.35H1.506V24.206a.707.707,0,0,0-1.415,0v7.169a.707.707,0,1,0,1.415,0v-1.1h13.25v1.1a.707.707,0,1,0,1.415,0V25.917A.707.707,0,0,0,15.463,25.21Z" transform="translate(-0.091 -23.499)" fill="#707070"/>
  <path id="Trazado_4" data-name="Trazado 4" d="M45.692,35.376a1.641,1.641,0,0,0-1.64-1.64H37.512v2.7h8.18V35.376Z" transform="translate(-31.49 -32.089)" fill="#707070"/>
  <path id="Trazado_5" data-name="Trazado 5" d="M14.932,29.335H13.016a.787.787,0,0,0-.787.787v2.621h3.49V30.122A.787.787,0,0,0,14.932,29.335Z" transform="translate(-10.276 -28.396)" fill="#707070"/>
</svg>
