<svg id="Grupo_2261" data-name="Grupo 2261" xmlns="http://www.w3.org/2000/svg" width="12.384" height="12.397" viewBox="0 0 12.384 12.397">
  <path id="Trazado_33" data-name="Trazado 33" d="M14.866,13.1l-1.2-1.2a.4.4,0,0,0-.561.561l.522.522H4.583V3.957l.522.522a.41.41,0,0,0,.574,0,.394.394,0,0,0,0-.561l-1.2-1.2a.394.394,0,0,0-.561,0l-1.2,1.2a.4.4,0,0,0,.561.561L3.8,3.957v9.434a.407.407,0,0,0,.4.4h9.408l-.522.522a.394.394,0,0,0,0,.561.41.41,0,0,0,.574,0l1.2-1.2A.41.41,0,0,0,14.866,13.1Z" transform="translate(-2.6 -2.6)" fill="#707070"/>
  <path id="Trazado_34" data-name="Trazado 34" d="M34.4,6.809h.4a.4.4,0,1,0,0-.809h-.4a.4.4,0,1,0,0,.809Z" transform="translate(-29.903 -5.556)" fill="#707070"/>
  <path id="Trazado_35" data-name="Trazado 35" d="M67.6,6.809h.652a.4.4,0,0,0,0-.809H67.6a.4.4,0,1,0,0,.809Z" transform="translate(-58.77 -5.556)" fill="#707070"/>
  <path id="Trazado_36" data-name="Trazado 36" d="M50,6.809h.652a.4.4,0,1,0,0-.809H50a.4.4,0,1,0,0,.809Z" transform="translate(-43.467 -5.556)" fill="#707070"/>
  <path id="Trazado_37" data-name="Trazado 37" d="M85.1,6.809a.4.4,0,0,0,.809,0V6.4a.407.407,0,0,0-.4-.4h-.4a.407.407,0,0,0-.4.4A.415.415,0,0,0,85.1,6.809Z" transform="translate(-73.987 -5.556)" fill="#707070"/>
  <path id="Trazado_38" data-name="Trazado 38" d="M88.609,39.6a.4.4,0,1,0-.809,0v.652a.4.4,0,0,0,.809,0Z" transform="translate(-76.682 -34.424)" fill="#707070"/>
  <path id="Trazado_39" data-name="Trazado 39" d="M88.609,22a.4.4,0,1,0-.809,0v.652a.4.4,0,0,0,.809,0Z" transform="translate(-76.682 -19.121)" fill="#707070"/>
  <path id="Trazado_40" data-name="Trazado 40" d="M88.2,56.8a.407.407,0,0,0-.4.4v.4a.4.4,0,1,0,.809,0v-.4A.4.4,0,0,0,88.2,56.8Z" transform="translate(-76.682 -49.727)" fill="#707070"/>
</svg>
