<svg xmlns="http://www.w3.org/2000/svg" width="45" height="45" viewBox="0 0 45 45">
  <g id="icon-sauna" transform="translate(-244 -941)">
    <circle id="Elipse_9" data-name="Elipse 9" cx="22.5" cy="22.5" r="22.5" transform="translate(244 941)" fill="#fff"/>
    <g id="noun_sauna_1471870" transform="translate(249 946.937)">
      <path id="Trazado_1676" data-name="Trazado 1676" d="M2,44.543a.469.469,0,0,0,.469.469H12.788a.469.469,0,0,0,.469-.469v-12.2a.469.469,0,0,0-.469-.469h-.694a2.345,2.345,0,0,0-4.409-.549,2.345,2.345,0,0,0-4.409.549H2.469A.469.469,0,0,0,2,32.348ZM9.036,32.817V44.074H6.221V32.817Zm3.283,11.257H9.974V32.817h2.345ZM9.8,30.941a1.407,1.407,0,0,1,1.327.938H8.473A1.407,1.407,0,0,1,9.8,30.941Zm-4.221,0a1.407,1.407,0,0,1,1.327.938H4.251a1.407,1.407,0,0,1,1.323-.938ZM2.938,32.817H5.283V44.074H2.938Z" transform="translate(0 -14.897)" fill="#4a4a4a"/>
      <path id="Trazado_1677" data-name="Trazado 1677" d="M4.991,19.567h.938a1.051,1.051,0,0,1,.356-.788,1.97,1.97,0,0,0,.582-1.407,1.947,1.947,0,0,0-.582-1.407,1.055,1.055,0,0,1,0-1.581A1.947,1.947,0,0,0,6.868,13H5.929a1.051,1.051,0,0,1-.356.788,1.975,1.975,0,0,0,0,2.814,1.055,1.055,0,0,1,0,1.581,1.947,1.947,0,0,0-.582,1.384Z" transform="translate(-1.584 -5.868)" fill="#4a4a4a"/>
      <path id="Trazado_1678" data-name="Trazado 1678" d="M11.991,19.567h.938a1.051,1.051,0,0,1,.356-.788,1.97,1.97,0,0,0,.582-1.407,1.947,1.947,0,0,0-.582-1.407,1.055,1.055,0,0,1,0-1.581A1.947,1.947,0,0,0,13.868,13h-.938a1.051,1.051,0,0,1-.356.788,1.975,1.975,0,0,0,0,2.814,1.055,1.055,0,0,1,0,1.581A1.947,1.947,0,0,0,11.991,19.567Z" transform="translate(-5.301 -5.868)" fill="#4a4a4a"/>
      <path id="Trazado_1679" data-name="Trazado 1679" d="M18.991,19.567h.938a1.051,1.051,0,0,1,.356-.788,1.97,1.97,0,0,0,.582-1.407,1.947,1.947,0,0,0-.582-1.407,1.055,1.055,0,0,1,0-1.581A1.947,1.947,0,0,0,20.868,13h-.938a1.051,1.051,0,0,1-.356.788,1.975,1.975,0,0,0,0,2.814,1.055,1.055,0,0,1,0,1.581A1.947,1.947,0,0,0,18.991,19.567Z" transform="translate(-9.018 -5.868)" fill="#4a4a4a"/>
      <path id="Trazado_1680" data-name="Trazado 1680" d="M42.133,14.936l2.7,2.165a2.048,2.048,0,0,0,1.5.481A1.59,1.59,0,0,0,47.4,17a1.92,1.92,0,0,0-.546-2.612L40.232,9.69a.74.74,0,0,0-.153-.076,4.108,4.108,0,1,0-4.108,0,.833.833,0,0,0-.147.07l-6.942,4.695a1.7,1.7,0,0,0-.751,1.1,1.567,1.567,0,0,0,.323,1.174,1.841,1.841,0,0,0,2.57.17l2.893-1.978v5.329H29.222v1.174h4.695V27.8a2.347,2.347,0,0,0,4.108,1.52,2.347,2.347,0,0,0,4.108-1.52V21.345H48V20.171H42.133Zm-7.042-8.85a2.934,2.934,0,1,1,2.934,2.934,2.934,2.934,0,0,1-2.934-2.934ZM30.349,15.9c-.381.264-.822.264-.951.088a.428.428,0,0,1-.106-.3.587.587,0,0,1,.258-.317l6.784-4.6h3.374l6.455,4.56c.387.317.469.781.346.945a.411.411,0,0,1-.282.129.869.869,0,0,1-.634-.223l-3.656-2.934a.587.587,0,0,0-.98.458v5.018a2.318,2.318,0,0,0-2.934.481,2.318,2.318,0,0,0-2.934-.481V13.716a.576.576,0,0,0-.9-.481Zm5.915,13.069A1.174,1.174,0,0,1,35.091,27.8V20.758a1.174,1.174,0,1,1,2.347,0V27.8A1.174,1.174,0,0,1,36.264,28.974ZM40.959,27.8a1.174,1.174,0,1,1-2.347,0V20.758a1.174,1.174,0,1,1,2.347,0Z" transform="translate(-13.867 0)" fill="#4a4a4a"/>
    </g>
  </g>
</svg>
