<svg xmlns="http://www.w3.org/2000/svg" width="20" height="20" viewBox="0 0 20 20">
  <g id="icon-gps" transform="translate(-880 -4046)">
    <rect id="Rectángulo_1172" data-name="Rectángulo 1172" width="20" height="20" transform="translate(880 4046)" fill="none"/>
    <g id="icon-gps-2" data-name="icon-gps" transform="translate(885 4049)">
      <g id="Grupo_59" data-name="Grupo 59">
        <path id="Trazado_1304" data-name="Trazado 1304" d="M16.75,5a5.007,5.007,0,0,0-5,5c0,2.677,4.592,8.356,4.789,8.6a.275.275,0,0,0,.211.1.28.28,0,0,0,.214-.1c.195-.241,4.786-5.921,4.786-8.6A5,5,0,0,0,16.75,5Zm0,7.123A2.123,2.123,0,1,1,18.873,10,2.127,2.127,0,0,1,16.75,12.123Z" transform="translate(-11.75 -5)" fill="#3c3b3b"/>
      </g>
    </g>
  </g>
</svg>
