<svg xmlns="http://www.w3.org/2000/svg" width="105" height="95.704" viewBox="0 0 105 95.704">
  <g id="Grupo_2458" data-name="Grupo 2458" transform="translate(-267 -1439)">
    <g id="IconCrearCuenta-02" transform="translate(254.24 1426.24)">
      <path id="Trazado_27" data-name="Trazado 27" d="M116.731,13.76H13.76v93.7H116.731Z" transform="translate(0 0)" fill="none" stroke="#48999a" stroke-linecap="round" stroke-linejoin="round" stroke-width="2"/>
      <path id="Trazado_28" data-name="Trazado 28" d="M80.188,18.91H13.8" transform="translate(0.074 9.581)" fill="none" stroke="#48999a" stroke-linecap="round" stroke-linejoin="round" stroke-width="2"/>
      <circle id="Elipse_38" data-name="Elipse 38" cx="1.573" cy="1.573" r="1.573" transform="translate(20.081 19.566)" fill="#48999a"/>
      <circle id="Elipse_39" data-name="Elipse 39" cx="1.573" cy="1.573" r="1.573" transform="translate(30.035 19.566)" fill="#48999a"/>
      <circle id="Elipse_40" data-name="Elipse 40" cx="1.573" cy="1.573" r="1.573" transform="translate(25.03 19.566)" fill="#48999a"/>
      <path id="Trazado_29" data-name="Trazado 29" d="M51.937,43.234a12.214,12.214,0,1,0-24.427,0Z" transform="translate(25.579 32.109)" fill="#48999a"/>
      <circle id="Elipse_41" data-name="Elipse 41" cx="6.779" cy="6.779" r="6.779" transform="translate(58.524 49.914)" fill="#48999a"/>
      <circle id="Elipse_42" data-name="Elipse 42" cx="21.796" cy="21.796" r="21.796" transform="translate(43.507 40.819)" fill="none" stroke="#48999a" stroke-miterlimit="10" stroke-width="2"/>
      <line id="Línea_56" data-name="Línea 56" x2="47.252" transform="translate(41.677 95.908)" fill="none" stroke="#48999a" stroke-linecap="round" stroke-linejoin="round" stroke-width="2"/>
      <line id="Línea_57" data-name="Línea 57" x2="47.252" transform="translate(41.677 91.961)" fill="none" stroke="#48999a" stroke-linecap="round" stroke-linejoin="round" stroke-width="2"/>
    </g>
  </g>
</svg>
