<svg xmlns="http://www.w3.org/2000/svg" width="220" height="220" viewBox="0 0 220 220">
  <g id="Grupo_2381" data-name="Grupo 2381" transform="translate(-241 -1484)">
    <circle id="Elipse_29" data-name="Elipse 29" cx="110" cy="110" r="110" transform="translate(241 1484)" fill="#f5f5f5"/>
    <g id="Grupo_2374" data-name="Grupo 2374" transform="translate(286 1527)">
      <path id="Trazado_142" data-name="Trazado 142" d="M-913.069-53.576" transform="translate(965.447 110.025)" fill="none" stroke="#00a72c" stroke-width="3"/>
      <path id="Trazado_143" data-name="Trazado 143" d="M-917.378-12.792s-6.471,17.615,7.725,17.615,7.315-17.615,7.315-17.615h18.622V-31.417s-17.615,6.884-17.615-7.312,17.615-7.725,17.615-7.725V-64.88H-935.8v52.088Z" transform="translate(935.804 95.286)" fill="none" stroke="#00a72c" stroke-width="3"/>
      <path id="Trazado_144" data-name="Trazado 144" d="M-883.716-42.269v18.624s17.615-6.884,17.615,7.312-17.615,7.725-17.615,7.725V9.819H-935.8V-42.269" transform="translate(935.804 124.767)" fill="none" stroke="#00a72c" stroke-width="3"/>
      <path id="Trazado_145" data-name="Trazado 145" d="M-913.1-32.3l18.41,0s-6.884-17.615,7.315-17.615S-879.65-32.3-879.65-32.3l19.147,0V19.793h-52.6" transform="translate(965.406 114.795)" fill="none" stroke="#00a72c" stroke-width="3"/>
      <path id="Trazado_146" data-name="Trazado 146" d="M-906.59-42.271" transform="translate(973.894 124.765)" fill="none" stroke="#00a72c" stroke-width="3"/>
      <path id="Trazado_147" data-name="Trazado 147" d="M-893.1-59.652s-17.618-6.471-17.618,7.725,17.618,7.315,17.618,7.315V-25.99h18.622s-6.884-17.615,7.312-17.615,7.725,17.615,7.725,17.615h18.429V-78.078H-893.1Z" transform="translate(968.512 78.078)" fill="none" stroke="#00a72c" stroke-width="3"/>
    </g>
  </g>
</svg>
