<svg xmlns="http://www.w3.org/2000/svg" width="45" height="45" viewBox="0 0 45 45">
  <g id="icon-piscina" transform="translate(-244 -941)">
    <circle id="Elipse_9" data-name="Elipse 9" cx="22.5" cy="22.5" r="22.5" transform="translate(244 941)" fill="#fff"/>
    <g id="noun_Pool_1873002" transform="translate(251.011 947.011)">
      <path id="Trazado_1695" data-name="Trazado 1695" d="M6.235,5.469A2.942,2.942,0,0,1,9.173,8.408V19.427a.735.735,0,0,0,1.469,0V15.754h8.815v3.673a.735.735,0,0,0,1.469,0V8.408A4.413,4.413,0,0,0,16.519,4a.735.735,0,0,0,0,1.469,2.942,2.942,0,0,1,2.938,2.938V9.877H10.642V8.408A4.413,4.413,0,0,0,6.235,4a.735.735,0,1,0,0,1.469Zm13.223,5.877v2.938H10.642V11.346Z" transform="translate(0.938 0)" fill="#4a4a4a" stroke="#4a4a4a" stroke-width="0.2"/>
      <path id="Trazado_1696" data-name="Trazado 1696" d="M4.235,16.472a2.461,2.461,0,0,1,1.6.558L7.558,18.5a4.008,4.008,0,0,0,5.108,0l1.722-1.469a2.586,2.586,0,0,1,3.2,0L19.312,18.5a4.011,4.011,0,0,0,5.108,0l1.722-1.468a2.455,2.455,0,0,1,1.6-.56.735.735,0,1,0,0-1.469,3.922,3.922,0,0,0-2.554.911l-1.722,1.469a2.586,2.586,0,0,1-3.2,0l-1.722-1.469a4.008,4.008,0,0,0-5.108,0l-1.722,1.469a2.586,2.586,0,0,1-3.2,0L6.789,15.912A3.928,3.928,0,0,0,4.235,15a.735.735,0,0,0,0,1.469Z" transform="translate(0 5.159)" fill="#4a4a4a" stroke="#4a4a4a" stroke-width="0.2"/>
      <path id="Trazado_1697" data-name="Trazado 1697" d="M27.742,18a3.911,3.911,0,0,0-2.554.911l-1.722,1.468a2.59,2.59,0,0,1-3.2,0l-1.722-1.469a4.008,4.008,0,0,0-5.108,0l-1.722,1.468a2.59,2.59,0,0,1-3.2,0L6.79,18.914A3.917,3.917,0,0,0,4.235,18a.735.735,0,1,0,0,1.469,2.456,2.456,0,0,1,1.6.558L7.558,21.5a4.021,4.021,0,0,0,5.108,0l1.722-1.469a2.586,2.586,0,0,1,3.2,0L19.312,21.5a4.018,4.018,0,0,0,5.108,0l1.723-1.469a2.449,2.449,0,0,1,1.6-.558.735.735,0,0,0,0-1.469Z" transform="translate(0 6.567)" fill="#4a4a4a" stroke="#4a4a4a" stroke-width="0.2"/>
    </g>
  </g>
</svg>
