<svg id="Grupo_2149" data-name="Grupo 2149" xmlns="http://www.w3.org/2000/svg" width="12.942" height="12.657" viewBox="0 0 12.942 12.657">
  <path id="Trazado_6" data-name="Trazado 6" d="M16.55,23.8v.66a.105.105,0,0,0,.108.1h7.032a.105.105,0,0,0,.108-.1V23.8a.1.1,0,0,0-.108-.1H16.671a.1.1,0,0,0-.121.1Z" transform="translate(-12.091 -17.452)" fill="#707070"/>
  <path id="Trazado_7" data-name="Trazado 7" d="M4.6,1.661A3.052,3.052,0,0,1,7.474,3.684,3.438,3.438,0,0,0,4.685,6.519H11.48a3.446,3.446,0,0,0-2.8-2.837A4.216,4.216,0,0,0,4.6.5h-.4A4.208,4.208,0,0,0,0,4.708v7.716H1.158V4.708A3.05,3.05,0,0,1,4.206,1.661Z" transform="translate(0 -0.5)" fill="#707070"/>
  <path id="Trazado_8" data-name="Trazado 8" d="M29.885,29.59a.245.245,0,0,0-.245.245v.714a.245.245,0,0,0,.49,0v-.714A.245.245,0,0,0,29.885,29.59Z" transform="translate(-21.655 -21.753)" fill="#707070"/>
  <path id="Trazado_9" data-name="Trazado 9" d="M29.885,36.31a.242.242,0,0,0-.245.245v.714a.245.245,0,0,0,.49,0v-.714a.245.245,0,0,0-.245-.245Z" transform="translate(-21.655 -26.662)" fill="#707070"/>
  <path id="Trazado_10" data-name="Trazado 10" d="M29.885,43a.245.245,0,0,0-.245.245v.717a.245.245,0,0,0,.49,0v-.711A.245.245,0,0,0,29.885,43Z" transform="translate(-21.655 -31.55)" fill="#707070"/>
  <path id="Trazado_11" data-name="Trazado 11" d="M35.358,30.637l-.156-.7a.245.245,0,0,0-.477.105l.156.7a.245.245,0,1,0,.477-.1Z" transform="translate(-25.368 -21.881)" fill="#707070"/>
  <path id="Trazado_12" data-name="Trazado 12" d="M36.831,37.164l-.148-.684a.246.246,0,0,0-.48.108l.156.7a.246.246,0,0,0,.48-.108Z" transform="translate(-26.446 -26.646)" fill="#707070"/>
  <path id="Trazado_13" data-name="Trazado 13" d="M38.132,43.047a.245.245,0,0,0-.477.105l.156.7a.245.245,0,1,0,.474-.105Z" transform="translate(-27.509 -31.459)" fill="#707070"/>
  <path id="Trazado_14" data-name="Trazado 14" d="M40.114,30.419l-.3-.649a.245.245,0,1,0-.442.207l.3.647a.245.245,0,0,0,.445-.2Z" transform="translate(-28.736 -21.765)" fill="#707070"/>
  <path id="Trazado_15" data-name="Trazado 15" d="M43.02,36.563l-.288-.647a.245.245,0,0,0-.445.207l.3.647a.245.245,0,0,0,.445-.207Z" transform="translate(-30.878 -26.271)" fill="#707070"/>
  <path id="Trazado_16" data-name="Trazado 16" d="M45.824,42.645l-.3-.649a.245.245,0,0,0-.445.207l.3.649a.245.245,0,1,0,.442-.207Z" transform="translate(-32.916 -30.713)" fill="#707070"/>
  <path id="Trazado_17" data-name="Trazado 17" d="M24.436,29.883a.245.245,0,0,0-.294.186l-.159.7a.246.246,0,0,0,.48.108l.159-.7a.245.245,0,0,0-.186-.3Z" transform="translate(-17.518 -21.963)" fill="#707070"/>
  <path id="Trazado_18" data-name="Trazado 18" d="M22.98,36.444a.242.242,0,0,0-.291.186l-.156.7a.242.242,0,0,0,.183.291.245.245,0,0,0,.294-.186l.156-.7a.242.242,0,0,0-.186-.291Z" transform="translate(-16.458 -26.756)" fill="#707070"/>
  <path id="Trazado_19" data-name="Trazado 19" d="M21.511,42.984a.242.242,0,0,0-.291.186l-.156.7a.245.245,0,0,0,.186.294.242.242,0,0,0,.291-.186l.156-.7a.245.245,0,0,0-.186-.294Z" transform="translate(-15.384 -31.534)" fill="#707070"/>
  <path id="Trazado_20" data-name="Trazado 20" d="M19.428,29.935a.242.242,0,0,0-.326.119l-.3.647a.245.245,0,0,0,.445.207l.3-.649a.24.24,0,0,0-.116-.323Z" transform="translate(-13.716 -21.987)" fill="#707070"/>
  <path id="Trazado_21" data-name="Trazado 21" d="M16.588,35.99a.248.248,0,0,0-.326.119l-.307.649a.245.245,0,0,0,.445.2l.3-.647A.245.245,0,0,0,16.588,35.99Z" transform="translate(-11.644 -26.412)" fill="#707070"/>
  <path id="Trazado_22" data-name="Trazado 22" d="M13.715,42.077a.245.245,0,0,0-.326.119l-.3.652a.245.245,0,1,0,.442.207l.318-.652a.248.248,0,0,0-.132-.326Z" transform="translate(-9.537 -30.859)" fill="#707070"/>
</svg>
