<svg xmlns="http://www.w3.org/2000/svg" width="159.949" height="129.074" viewBox="0 0 159.949 129.074">
  <g id="Grupo_2457" data-name="Grupo 2457" transform="translate(1318.512 -521.94)">
    <g id="Grupo_2424" data-name="Grupo 2424">
      <path id="Trazado_41" data-name="Trazado 41" d="M-1276.841,573.319a20.836,20.836,0,0,0-20.836-20.836,20.836,20.836,0,0,0-20.835,20.836Z" fill="#48999a"/>
      <circle id="Elipse_43" data-name="Elipse 43" cx="11.564" cy="11.564" r="11.564" transform="translate(-1309.241 529.94)" fill="#48999a"/>
      <g id="Icon_feather-plus-circle" data-name="Icon feather-plus-circle">
        <path id="Trazado_24" data-name="Trazado 24" d="M-1268.063,570.625a11.889,11.889,0,0,1-11.889,11.889,11.889,11.889,0,0,1-11.889-11.889,11.889,11.889,0,0,1,11.889-11.889,11.889,11.889,0,0,1,11.889,11.889Z" fill="#fff" stroke="#48999a" stroke-linecap="round" stroke-linejoin="round" stroke-width="3"/>
        <path id="Trazado_25" data-name="Trazado 25" d="M-1279.952,565.869v9.511" fill="#fff" stroke="#48999a" stroke-linecap="round" stroke-linejoin="round" stroke-width="3"/>
        <path id="Trazado_26" data-name="Trazado 26" d="M-1284.708,570.625h9.511" fill="#fff" stroke="#48999a" stroke-linecap="round" stroke-linejoin="round" stroke-width="3"/>
      </g>
    </g>
    <g id="Grupo_2425" data-name="Grupo 2425">
      <path id="Trazado_41-2" data-name="Trazado 41-2" d="M-1216.841,591.319a20.836,20.836,0,0,0-20.836-20.836,20.836,20.836,0,0,0-20.835,20.836Z" fill="#48999a"/>
      <circle id="Elipse_43-2" data-name="Elipse 43-2" cx="11.564" cy="11.564" r="11.564" transform="translate(-1249.241 547.94)" fill="#48999a"/>
      <g id="Icon_feather-plus-circle-2" data-name="Icon feather-plus-circle-2">
        <path id="Trazado_24-2" data-name="Trazado 24-2" d="M-1208.063,588.625a11.889,11.889,0,0,1-11.889,11.889,11.889,11.889,0,0,1-11.889-11.889,11.889,11.889,0,0,1,11.889-11.889,11.889,11.889,0,0,1,11.889,11.889Z" fill="#fff" stroke="#48999a" stroke-linecap="round" stroke-linejoin="round" stroke-width="3"/>
        <path id="Trazado_25-2" data-name="Trazado 25-2" d="M-1219.952,583.869v9.511" fill="#fff" stroke="#48999a" stroke-linecap="round" stroke-linejoin="round" stroke-width="3"/>
        <path id="Trazado_26-2" data-name="Trazado 26-2" d="M-1224.708,588.625h9.511" fill="#fff" stroke="#48999a" stroke-linecap="round" stroke-linejoin="round" stroke-width="3"/>
      </g>
    </g>
    <g id="Grupo_2426" data-name="Grupo 2426">
      <path id="Trazado_41-3" data-name="Trazado 41-3" d="M-1259.841,636.319a20.836,20.836,0,0,0-20.836-20.836,20.836,20.836,0,0,0-20.835,20.836Z" fill="#48999a"/>
      <circle id="Elipse_43-3" data-name="Elipse 43-3" cx="11.564" cy="11.564" r="11.564" transform="translate(-1292.241 592.94)" fill="#48999a"/>
      <g id="Icon_feather-plus-circle-3" data-name="Icon feather-plus-circle-3">
        <path id="Trazado_24-3" data-name="Trazado 24-3" d="M-1251.063,633.625a11.889,11.889,0,0,1-11.889,11.889,11.889,11.889,0,0,1-11.889-11.889,11.889,11.889,0,0,1,11.889-11.889,11.889,11.889,0,0,1,11.889,11.889Z" fill="#fff" stroke="#48999a" stroke-linecap="round" stroke-linejoin="round" stroke-width="3"/>
        <path id="Trazado_25-3" data-name="Trazado 25-3" d="M-1262.952,628.869v9.511" fill="#fff" stroke="#48999a" stroke-linecap="round" stroke-linejoin="round" stroke-width="3"/>
        <path id="Trazado_26-3" data-name="Trazado 26-3" d="M-1267.708,633.625h9.511" fill="#fff" stroke="#48999a" stroke-linecap="round" stroke-linejoin="round" stroke-width="3"/>
      </g>
    </g>
    <g id="Grupo_2427" data-name="Grupo 2427">
      <path id="Trazado_41-4" data-name="Trazado 41-4" d="M-1169.841,640.319a20.836,20.836,0,0,0-20.836-20.836,20.836,20.836,0,0,0-20.835,20.836Z" fill="#48999a"/>
      <circle id="Elipse_43-4" data-name="Elipse 43-4" cx="11.564" cy="11.564" r="11.564" transform="translate(-1202.241 596.94)" fill="#48999a"/>
      <g id="Icon_feather-plus-circle-4" data-name="Icon feather-plus-circle-4">
        <path id="Trazado_24-4" data-name="Trazado 24-4" d="M-1161.063,637.625a11.889,11.889,0,0,1-11.889,11.889,11.889,11.889,0,0,1-11.889-11.889,11.889,11.889,0,0,1,11.889-11.889,11.889,11.889,0,0,1,11.889,11.889Z" fill="#fff" stroke="#48999a" stroke-linecap="round" stroke-linejoin="round" stroke-width="3"/>
        <path id="Trazado_25-4" data-name="Trazado 25-4" d="M-1172.952,632.869v9.511" fill="#fff" stroke="#48999a" stroke-linecap="round" stroke-linejoin="round" stroke-width="3"/>
        <path id="Trazado_26-4" data-name="Trazado 26-4" d="M-1177.708,637.625h9.511" fill="#fff" stroke="#48999a" stroke-linecap="round" stroke-linejoin="round" stroke-width="3"/>
      </g>
    </g>
    <g id="Grupo_2428" data-name="Grupo 2428">
      <path id="Trazado_41-5" data-name="Trazado 41-5" d="M-1168.841,565.319a20.836,20.836,0,0,0-20.836-20.836,20.836,20.836,0,0,0-20.835,20.836Z" fill="#48999a"/>
      <circle id="Elipse_43-5" data-name="Elipse 43-5" cx="11.564" cy="11.564" r="11.564" transform="translate(-1201.241 521.94)" fill="#48999a"/>
      <g id="Icon_feather-plus-circle-5" data-name="Icon feather-plus-circle-5">
        <path id="Trazado_24-5" data-name="Trazado 24-5" d="M-1160.063,562.625a11.889,11.889,0,0,1-11.889,11.889,11.889,11.889,0,0,1-11.889-11.889,11.889,11.889,0,0,1,11.889-11.889,11.889,11.889,0,0,1,11.889,11.889Z" fill="#fff" stroke="#48999a" stroke-linecap="round" stroke-linejoin="round" stroke-width="3"/>
        <path id="Trazado_25-5" data-name="Trazado 25-5" d="M-1171.952,557.869v9.511" fill="#fff" stroke="#48999a" stroke-linecap="round" stroke-linejoin="round" stroke-width="3"/>
        <path id="Trazado_26-5" data-name="Trazado 26-5" d="M-1176.708,562.625h9.511" fill="#fff" stroke="#48999a" stroke-linecap="round" stroke-linejoin="round" stroke-width="3"/>
      </g>
    </g>
  </g>
</svg>
