<svg xmlns="http://www.w3.org/2000/svg" width="45" height="45" viewBox="0 0 45 45">
  <g id="icon-quincho" transform="translate(-244 -941)">
    <circle id="Elipse_9" data-name="Elipse 9" cx="22.5" cy="22.5" r="22.5" transform="translate(244 941)" fill="#fff"/>
    <g id="noun_barbecue_1951031" transform="translate(241.859 938.286)">
      <path id="Trazado_1670" data-name="Trazado 1670" d="M39.482,33.069H34.967v-.4a.373.373,0,0,0-.373-.373h-.428a10.544,10.544,0,0,0-2.672-6.815.373.373,0,0,0-.264-.109H18.668a.373.373,0,0,0-.264.109A10.544,10.544,0,0,0,15.732,32.3h-.477a.373.373,0,0,0-.373.373v.4H10.367a.373.373,0,0,0-.373.373v2.3a.373.373,0,0,0,.373.373H15.73v9.807h-.685a.373.373,0,0,0-.373.373v2.822a.373.373,0,0,0,.373.373H34.853a.373.373,0,0,0,.373-.373V46.3a.373.373,0,0,0-.373-.373h-.734V36.119h5.363a.373.373,0,0,0,.373-.373v-2.3A.373.373,0,0,0,39.482,33.069ZM18.826,26.122H31.072A10.02,10.02,0,0,1,33.418,32.3H16.48A10.019,10.019,0,0,1,18.826,26.122ZM10.74,33.816h4.142v1.556H10.74Zm4.889-.373v-.4H34.22v2.325H15.629Zm.848,2.676h8.075v9.807H16.476Zm18,12.629H15.418V46.672H34.48Zm-1.107-2.822H25.3V36.119h8.075Zm5.736-10.553H34.967V33.816h4.142Z" transform="translate(0 -9.637)" fill="#4a4a4a" stroke="#4a4a4a" stroke-width="0.4"/>
      <path id="Trazado_1671" data-name="Trazado 1671" d="M47.644,37.7H42.555a.373.373,0,0,0,0,.746h5.089a.373.373,0,0,0,0-.746Z" transform="translate(-20.175 -17.361)" fill="#4a4a4a" stroke="#4a4a4a" stroke-width="0.4"/>
      <path id="Trazado_1672" data-name="Trazado 1672" d="M42.3,64.559a.373.373,0,0,0-.373.373v1.686a.373.373,0,0,0,.746,0V64.932A.373.373,0,0,0,42.3,64.559Z" transform="translate(-20.016 -34.197)" fill="#4a4a4a" stroke="#4a4a4a" stroke-width="0.4"/>
      <path id="Trazado_1673" data-name="Trazado 1673" d="M56.576,66.991a.373.373,0,0,0,.373-.373V64.932a.373.373,0,0,0-.746,0v1.686A.373.373,0,0,0,56.576,66.991Z" transform="translate(-28.963 -34.197)" fill="#4a4a4a" stroke="#4a4a4a" stroke-width="0.4"/>
      <path id="Trazado_1674" data-name="Trazado 1674" d="M43.17,12.908a1.454,1.454,0,1,0,0-2.908.373.373,0,0,0,0,.746.708.708,0,1,1,0,1.415,1.454,1.454,0,1,0,0,2.908.373.373,0,1,0,0-.746.707.707,0,1,1,0-1.415Z" transform="translate(-19.883)" fill="#4a4a4a" stroke="#4a4a4a" stroke-width="0.4"/>
      <path id="Trazado_1675" data-name="Trazado 1675" d="M52.946,12.908a1.454,1.454,0,1,0,0-2.908.373.373,0,0,0,0,.746.708.708,0,1,1,0,1.415,1.454,1.454,0,1,0,0,2.908.373.373,0,0,0,0-.746.707.707,0,1,1,0-1.415Z" transform="translate(-26.011)" fill="#4a4a4a" stroke="#4a4a4a" stroke-width="0.4"/>
    </g>
  </g>
</svg>
