<svg xmlns="http://www.w3.org/2000/svg" xmlns:xlink="http://www.w3.org/1999/xlink" width="600" height="500" viewBox="0 0 411.144 314.077">
  <defs>
    <clipPath id="clip-path">
      <path id="Trazado_1571" data-name="Trazado 1571" d="M486.1,414.2V262.065c-4.838,28.457-60.081,44.573-127.566,44.573-70.666,0-127.953-17.665-127.953-47.483V420.023l.384,8.03C235.8,448.484,291.043,464.6,358.531,464.6c70.662,0,127.949-17.665,127.949-39.453C486.48,424.161,486.325,423.194,486.1,414.2Z" transform="translate(-230.578 -259.155)" fill="none"/>
    </clipPath>
  </defs>
  <g id="img-360-foto" transform="translate(-4690 5330.599)">
    <g id="no-busqueda" transform="translate(4640.246 -5491.932)">
      <g id="Grupo_554" data-name="Grupo 554" transform="translate(49.755 161.333)" opacity="0.1">
        <path id="Trazado_1375" data-name="Trazado 1375" d="M193.409,218.877a9.991,9.991,0,1,0,9.99,9.992A9.99,9.99,0,0,0,193.409,218.877Zm0,14.036a4.044,4.044,0,1,1,4.043-4.043A4.044,4.044,0,0,1,193.409,232.913Z" transform="translate(170.863 -107.095)" fill="#00a82d"/>
        <path id="Trazado_1376" data-name="Trazado 1376" d="M310.156,236.507a9.991,9.991,0,1,0,9.99,9.99A9.99,9.99,0,0,0,310.156,236.507Zm0,14.036A4.044,4.044,0,1,1,314.2,246.5,4.046,4.046,0,0,1,310.156,250.543Z" transform="translate(-96.601 -188.909)" fill="#00a82d"/>
        <path id="Trazado_1377" data-name="Trazado 1377" d="M344.478,168.839a7.651,7.651,0,1,0,7.651,7.651A7.65,7.65,0,0,0,344.478,168.839Zm0,10.747a3.1,3.1,0,1,1,3.1-3.1A3.1,3.1,0,0,1,344.478,179.586Z" transform="translate(51.255 -2.337)" fill="#00a82d"/>
        <path id="Trazado_1378" data-name="Trazado 1378" d="M285.989,115.477a8.089,8.089,0,1,0,8.089,8.089A8.089,8.089,0,0,0,285.989,115.477Zm0,11.364a3.274,3.274,0,1,1,3.273-3.275A3.274,3.274,0,0,1,285.989,126.841Z" transform="translate(-10.319 -94.372)" fill="#00a82d"/>
        <path id="Trazado_1379" data-name="Trazado 1379" d="M173.4,197.656a8.5,8.5,0,1,0,8.506,8.5A8.5,8.5,0,0,0,173.4,197.656Z" transform="translate(-155.43 -16.326)" fill="#00a82d"/>
        <path id="Trazado_1380" data-name="Trazado 1380" d="M320.872,209.931a6.185,6.185,0,1,0,6.185,6.185A6.185,6.185,0,0,0,320.872,209.931Z" transform="translate(-253.573 -164.698)" fill="#00a82d"/>
        <path id="Trazado_1381" data-name="Trazado 1381" d="M233.167,116.586a9.041,9.041,0,1,0,9.041,9.041A9.041,9.041,0,0,0,233.167,116.586Z" transform="translate(-79.872 -92.938)" fill="#00a82d"/>
        <path id="Trazado_1383" data-name="Trazado 1383" d="M309.132,131.79a7.732,7.732,0,1,0,7.733,7.733A7.732,7.732,0,0,0,309.132,131.79Z" transform="translate(20.078 -73.273)" fill="#00a82d"/>
        <circle id="Elipse_13" data-name="Elipse 13" cx="4.401" cy="4.401" r="4.401" transform="translate(50.933 118.632)" fill="#00a82d"/>
        <path id="Trazado_1384" data-name="Trazado 1384" d="M345.564,152.026a7.509,7.509,0,1,0,7.509,7.511A7.51,7.51,0,0,0,345.564,152.026Z" transform="translate(58.072 -77.438)" fill="#00a82d"/>
        <circle id="Elipse_14" data-name="Elipse 14" cx="4.791" cy="4.791" r="4.791" transform="translate(4.78 134.199)" fill="#00a82d"/>
        <path id="Trazado_1385" data-name="Trazado 1385" d="M261,113.86l3.009-3.009a2.681,2.681,0,0,0-3.791-3.793l-3.009,3.009-3.009-3.009a2.682,2.682,0,0,0-3.793,3.793l3.009,3.009-3.009,3.009a2.682,2.682,0,0,0,3.793,3.793l3.009-3.009,3.009,3.009a2.681,2.681,0,0,0,3.791-3.793Z" transform="translate(-46.887 -106.275)" fill="#00a82d"/>
        <path id="Trazado_1386" data-name="Trazado 1386" d="M171.693,153.51,174.7,150.5a2.682,2.682,0,0,0-3.793-3.793l-3.009,3.009-3.009-3.009A2.682,2.682,0,0,0,161.1,150.5l3.009,3.009-3.009,3.009a2.682,2.682,0,0,0,3.793,3.793L167.9,157.3l3.009,3.009a2.682,2.682,0,1,0,3.793-3.793Z" transform="translate(-160.315 -86.375)" fill="#00a82d"/>
        <path id="Trazado_1387" data-name="Trazado 1387" d="M325.457,232.972l2.55-2.548a2.272,2.272,0,0,0-3.213-3.213l-2.548,2.548-2.548-2.548a2.272,2.272,0,0,0-3.213,3.213l2.548,2.548-2.548,2.548a2.272,2.272,0,0,0,3.213,3.213l2.548-2.548,2.548,2.548a2.272,2.272,0,0,0,3.213-3.213Z" transform="translate(59.653 -191.328)" fill="#00a82d"/>
      </g>
    </g>
    <g id="Grupo_561" data-name="Grupo 561" transform="translate(4537.422 -5499.756)">
      <g id="Grupo_555" data-name="Grupo 555" transform="translate(230.578 253.42)">
        <path id="Trazado_1554" data-name="Trazado 1554" d="M285.557,252.229c-33.218,7.126-54.979,18.977-54.979,32.4V442.589c0-13.424,21.761-25.276,54.979-32.4Z" transform="translate(-230.578 -252.229)" fill="#4a4a4a"/>
        <path id="Trazado_1555" data-name="Trazado 1555" d="M287.677,252.229V410.187c30.779,6.6,51.7,17.274,54.6,29.491V287.541a12.6,12.6,0,0,0,.384-2.91C342.656,271.206,320.9,259.355,287.677,252.229Z" transform="translate(-86.754 -252.229)" fill="#4a4a4a"/>
      </g>
      <g id="Grupo_557" data-name="Grupo 557" transform="translate(308.767 251.756)">
        <g id="Grupo_556" data-name="Grupo 556">
          <path id="Trazado_1557" data-name="Trazado 1557" d="M257.2,282.539a13.009,13.009,0,0,0,8.987,4.138c4.012,0,6.665-1.745,6.665-4.852,0-3.621-2.136-5.884-11.06-5.884v-6.728c7.372,0,9.7-2.2,9.7-5.5,0-2.847-1.812-4.525-5.046-4.525-2.91,0-5.109,1.358-7.7,3.621l-4.786-5.82c3.751-3.234,7.889-5.236,12.932-5.236,8.474,0,14.167,4.075,14.167,11.25,0,4.268-2.46,7.245-6.858,9.117v.26c4.722,1.358,8.15,4.722,8.15,10.025,0,7.629-6.985,11.964-15.261,11.964-6.661,0-11.32-2.33-14.294-5.824Z" transform="translate(-252.798 -251.756)" fill="#00a82d"/>
          <path id="Trazado_1558" data-name="Trazado 1558" d="M286.455,262.358a9.416,9.416,0,0,0-6.4-2.91c-4.529,0-8.15,3.237-8.473,12.809a11.563,11.563,0,0,1,8.213-4.335c7.052,0,12.225,4.008,12.225,12.678,0,8.533-6.211,13.773-13.646,13.773-7.956,0-15.522-5.95-15.522-20.371,0-15.328,7.953-22.246,16.62-22.246a16.3,16.3,0,0,1,11.964,4.912Zm-3.1,18.242c0-4.339-2.263-5.954-5.366-5.954-2.069,0-4.335,1.1-6.211,4.075.841,6.468,3.558,8.537,6.4,8.537S283.352,285.252,283.352,280.6Z" transform="translate(-227.476 -251.756)" fill="#00a82d"/>
          <path id="Trazado_1559" data-name="Trazado 1559" d="M272.481,272.9c0-13.97,5.887-21.145,14.681-21.145s14.681,7.175,14.681,21.145-5.884,21.472-14.681,21.472S272.481,286.871,272.481,272.9Zm20.371,0c0-11.253-2.456-13.776-5.69-13.776-3.17,0-5.69,2.523-5.69,13.776,0,11.186,2.52,14.1,5.69,14.1C290.4,287,292.852,284.087,292.852,272.9Z" transform="translate(-203.219 -251.756)" fill="#00a82d"/>
        </g>
      </g>
      <path id="Trazado_1560" data-name="Trazado 1560" d="M486.517,410.515l-.384-146.165c-4.839,20.447-60.09,36.579-127.584,36.579-70.676,0-127.972-17.682-127.972-39.492V422.461h.384c4.839,20.45,60.09,36.579,127.588,36.579,70.673,0,127.968-17.682,127.968-39.492C486.517,418.565,486.746,411.477,486.517,410.515Z" transform="translate(0 24.194)" fill="#cce2e8"/>
      <path id="Trazado_1562" data-name="Trazado 1562" d="M247.2,297.816l.024,0c-.007-.151-.024-.3-.024-.445a10.229,10.229,0,0,1,10.422-10.023,10.731,10.731,0,0,1,4.552,1.017,12.522,12.522,0,0,1,21.077,1.531,10.592,10.592,0,0,1,5.715-1.651c5.626,0,10.188,4.287,10.188,9.573a9.809,9.809,0,0,1-9.021,9.506v.067H247.2a4.793,4.793,0,1,1,0-9.578Z" transform="translate(123.33 71.831)" fill="#fff"/>
      <path id="Trazado_1622" data-name="Trazado 1622" d="M246.806,296.661l.022,0c-.007-.139-.022-.273-.022-.409a9.414,9.414,0,0,1,9.592-9.225,9.877,9.877,0,0,1,4.19.936,11.524,11.524,0,0,1,19.4,1.409,9.748,9.748,0,0,1,5.26-1.519,8.8,8.8,0,1,1,1.074,17.56v.062H246.806a4.411,4.411,0,1,1,0-8.815Z" transform="translate(48.33 60.749)" fill="#fff"/>
      <g id="Grupo_562" data-name="Grupo 562" transform="translate(230.578 277.792)">
        <g id="Grupo_559" data-name="Grupo 559" clip-path="url(#clip-path)">
          <g id="Grupo_577" data-name="Grupo 577" transform="translate(22.084 19.562)">
            <path id="Trazado_1572" data-name="Trazado 1572" d="M181.466,347.89l-80,2.823L96,354.891l-96.082,2.1.034-11.949Z" transform="translate(0 -162.523)" fill="#8b1c1c" opacity="0.15"/>
            <g id="Grupo_576" data-name="Grupo 576" transform="translate(19.629 71.402)">
              <path id="Trazado_1573" data-name="Trazado 1573" d="M53.235,190.741l14.71-20.363,81.954-4.813,16.077,23.942Z" transform="translate(-51.296 -127.327)" fill="#00a82d"/>
              <path id="Trazado_1574" data-name="Trazado 1574" d="M316.465,176.066l-2.123,56.066H228.569l-4.927-56.306,46.192-25.685Z" transform="translate(-152.505 -118.167)" fill="#efebe9"/>
              <g id="Grupo_564" data-name="Grupo 564" transform="translate(82.433 71.16)">
                <path id="Trazado_1575" data-name="Trazado 1575" d="M252.717,289.446h24.739l1.409-42.805H251.458Z" transform="translate(-251.458 -246.64)" fill="#efebe9"/>
                <path id="Trazado_1576" data-name="Trazado 1576" d="M254.611,289.446H279.35l1.409-42.805H253.352Z" transform="translate(-252.583 -246.64)" fill="#fafafa"/>
                <path id="Trazado_1577" data-name="Trazado 1577" d="M259.124,292.371h21.3l1.213-40.805h-23.6Z" transform="translate(-255.368 -249.565)" fill="#4a4a4a"/>
                <path id="Trazado_1578" data-name="Trazado 1578" d="M280.607,252.513l-22.521.772-.046-1.719h23.6l-1.214,40.805h-.658Z" transform="translate(-255.368 -249.565)" fill="#795548" opacity="0.4"/>
                <g id="Grupo_563" data-name="Grupo 563" transform="translate(20.373 23.244)">
                  <path id="Trazado_1579" data-name="Trazado 1579" d="M301.628,307.193a1.232,1.232,0,1,0,1.232-1.237A1.234,1.234,0,0,0,301.628,307.193Z" transform="translate(-301.628 -305.114)" fill="#b6b3b2"/>
                  <g id="Grupo_562-2" data-name="Grupo 562" transform="translate(0.839)">
                    <path id="Trazado_1580" data-name="Trazado 1580" d="M303.694,305.119a1.232,1.232,0,1,0,1.232-1.237A1.235,1.235,0,0,0,303.694,305.119Z" transform="translate(-303.694 -303.882)" fill="#fafafa"/>
                    <path id="Trazado_1581" data-name="Trazado 1581" d="M303.694,305.2a1.237,1.237,0,0,0,1.233,1.238,1.218,1.218,0,0,0,1.174-.893,1.115,1.115,0,0,1-.335.051,1.238,1.238,0,0,1-1.233-1.238,1.122,1.122,0,0,1,.05-.337A1.221,1.221,0,0,0,303.694,305.2Z" transform="translate(-303.694 -303.963)" fill="#efebe9"/>
                  </g>
                </g>
              </g>
              <path id="Trazado_1582" data-name="Trazado 1582" d="M269.833,150.15l46.631,25.926-.619,6.688L264.37,158.847l-40.318,21.682-.411-4.695Z" transform="translate(-152.505 -118.172)" fill="#4a4a4a" opacity="0.35"/>
              <path id="Trazado_1583" data-name="Trazado 1583" d="M228.068,249.906l-3.074-21.289,43.776-.165Z" transform="translate(-153.308 -164.678)" fill="#4a4a4a" opacity="0.35"/>
              <g id="Grupo_565" data-name="Grupo 565" transform="translate(1.99 62.967)">
                <path id="Trazado_1584" data-name="Trazado 1584" d="M53.361,226.966v1.514l3.307,54.85,75.413-1.036.123-7.4.058-26.989-.113-15.585-.106-3.843v-1.555l-6.16-.272-.208-.189H110.537l-6.761.074-1.421-.074H58.716l-.237.189Z" transform="translate(-53.361 -226.464)" fill="#efebe9"/>
              </g>
              <g id="Grupo_566" data-name="Grupo 566" transform="translate(32.474 68.397)">
                <path id="Trazado_1585" data-name="Trazado 1585" d="M139.027,239.836l30.8,34.267-1.466,1.024-38.351-.707-1.58-34.584Z" transform="translate(-128.43 -239.836)" fill="#4a4a4a" opacity="0.35"/>
                <path id="Trazado_1586" data-name="Trazado 1586" d="M174.018,239.836l-1.86,34.487-38.471-.692-1.313-33.795Z" transform="translate(-130.772 -239.836)" fill="#fafafa"/>
                <path id="Trazado_1587" data-name="Trazado 1587" d="M138.846,269.933l-.472-24.1,17.4.023-.166,24.317Z" transform="translate(-134.336 -243.396)" fill="#546e7a"/>
                <path id="Trazado_1588" data-name="Trazado 1588" d="M156.35,311.47l-.018,2.582-16.629-.279-.05-2.561Z" transform="translate(-135.096 -282.228)" fill="#546e7a"/>
                <path id="Trazado_1589" data-name="Trazado 1589" d="M186.734,270.241l.284-24.348,16.84.022-1.11,24.552Z" transform="translate(-163.058 -243.433)" fill="#546e7a"/>
                <path id="Trazado_1590" data-name="Trazado 1590" d="M202.55,312.183l-.118,2.605-15.843-.266.03-2.585Z" transform="translate(-162.972 -282.659)" fill="#546e7a"/>
              </g>
              <g id="Grupo_567" data-name="Grupo 567" transform="translate(114.17 68.397)">
                <path id="Trazado_1591" data-name="Trazado 1591" d="M340.213,239.836l30.8,34.267-1.466,1.024L331.2,274.42l-1.58-34.584Z" transform="translate(-329.616 -239.836)" fill="#4a4a4a" opacity="0.35"/>
                <path id="Trazado_1592" data-name="Trazado 1592" d="M375.2,239.836l-1.86,34.487-38.472-.692-1.313-33.795Z" transform="translate(-331.958 -239.836)" fill="#fafafa"/>
                <path id="Trazado_1593" data-name="Trazado 1593" d="M340.031,269.933l-.471-24.1,17.4.023-.166,24.317Z" transform="translate(-335.522 -243.396)" fill="#546e7a"/>
                <path id="Trazado_1594" data-name="Trazado 1594" d="M357.536,311.47l-.018,2.582-16.629-.279-.05-2.561Z" transform="translate(-336.282 -282.228)" fill="#546e7a"/>
                <path id="Trazado_1595" data-name="Trazado 1595" d="M387.92,270.241l.284-24.348,16.84.022-1.109,24.552Z" transform="translate(-364.244 -243.433)" fill="#546e7a"/>
                <path id="Trazado_1596" data-name="Trazado 1596" d="M403.736,312.183l-.118,2.605-15.843-.266.03-2.585Z" transform="translate(-364.158 -282.659)" fill="#546e7a"/>
              </g>
              <g id="Grupo_568" data-name="Grupo 568" transform="translate(6.923 68.397)">
                <path id="Trazado_1597" data-name="Trazado 1597" d="M76.105,239.836l11.819,13.6-.637,21.374-21.23-.392-.549-34.584Z" transform="translate(-65.508 -239.836)" fill="#4a4a4a" opacity="0.35"/>
                <path id="Trazado_1598" data-name="Trazado 1598" d="M90.673,239.836l-1.018,34.153-19.9-.358-.305-33.795Z" transform="translate(-67.851 -239.836)" fill="#fafafa"/>
                <path id="Trazado_1599" data-name="Trazado 1599" d="M74.664,269.933l.247-24.1,17.4.023-.891,24.317Z" transform="translate(-70.946 -243.396)" fill="#546e7a"/>
                <path id="Trazado_1600" data-name="Trazado 1600" d="M91.254,311.47l-.095,2.582-16.621-.279.026-2.561Z" transform="translate(-70.871 -282.228)" fill="#546e7a"/>
              </g>
              <path id="Trazado_1601" data-name="Trazado 1601" d="M53.235,226.911l5.145-.276.26-.17h43.64l1.422.063,6.757-.063H125.6l.352.17,6.3.152.007,4.867-78.328,7.51Z" transform="translate(-51.296 -163.497)" fill="#4a4a4a" opacity="0.35"/>
              <path id="Trazado_1602" data-name="Trazado 1602" d="M254.77,136.545l-.536.3-.314-.179.314.179L200.7,166.9h-3.061L254.3,134.763l55.958,32.512-2.721.014-53.306-30.444Z" transform="translate(-137.062 -109.034)" fill="#00a82d"/>
              <path id="Trazado_1603" data-name="Trazado 1603" d="M258.71,139.891l53.306,30.444-6.429.033-46.719-25.858-46.192,25.436h-7.5Z" transform="translate(-141.539 -112.079)" fill="#efebe9"/>
              <g id="Grupo_569" data-name="Grupo 569" transform="translate(0 59.603)">
                <rect id="Rect치ngulo_1185" data-name="Rect치ngulo 1185" width="116.067" height="5.153" transform="translate(116.067 5.153) rotate(180)" fill="#fafafa"/>
                <rect id="Rect치ngulo_1186" data-name="Rect치ngulo 1186" width="116.067" height="3.745" transform="translate(116.067 5.153) rotate(180)" fill="#efebe9"/>
              </g>
              <g id="Grupo_572" data-name="Grupo 572" transform="translate(109.973 44.084)">
                <g id="Grupo_570" data-name="Grupo 570" transform="translate(0 0)">
                  <circle id="Elipse_32" data-name="Elipse 32" cx="6.248" cy="6.248" r="6.248" transform="translate(0 1.028) rotate(-4.719)" fill="#4a4a4a" opacity="0.35"/>
                  <circle id="Elipse_33" data-name="Elipse 33" cx="6.248" cy="6.248" r="6.248" transform="translate(0.688 1.028) rotate(-4.719)" fill="#fafafa"/>
                </g>
                <g id="Grupo_571" data-name="Grupo 571" transform="translate(2.732 2.068)">
                  <path id="Trazado_1604" data-name="Trazado 1604" d="M342.57,188.889a4.717,4.717,0,0,0-3.238-3.65v-.163a4.727,4.727,0,0,1,3.932,3.813Z" transform="translate(-333.922 -185.068)" fill="#415761"/>
                  <path id="Trazado_1605" data-name="Trazado 1605" d="M342.614,197.719h.7a4.726,4.726,0,0,1-3.984,4.2v-.164A4.709,4.709,0,0,0,342.614,197.719Z" transform="translate(-333.922 -192.577)" fill="#415761"/>
                  <path id="Trazado_1606" data-name="Trazado 1606" d="M326.139,188.878a4.714,4.714,0,0,1,4.037-3.821v3.821Z" transform="translate(-326.086 -185.057)" fill="#546e7a"/>
                  <path id="Trazado_1607" data-name="Trazado 1607" d="M330.1,197.719v4.2a4.713,4.713,0,0,1-4.09-4.2Z" transform="translate(-326.009 -192.577)" fill="#546e7a"/>
                  <path id="Trazado_1608" data-name="Trazado 1608" d="M339.332,189.128v-3.65a4.717,4.717,0,0,1,3.238,3.65Z" transform="translate(-333.922 -185.307)" fill="#546e7a"/>
                  <path id="Trazado_1609" data-name="Trazado 1609" d="M342.614,197.719a4.709,4.709,0,0,1-3.282,4.034v-4.034Z" transform="translate(-333.922 -192.577)" fill="#546e7a"/>
                </g>
              </g>
              <g id="Grupo_573" data-name="Grupo 573" transform="translate(6.057)">
                <path id="Trazado_1610" data-name="Trazado 1610" d="M142.238,95.49l-1.409,32.7H83.9l-3.27-32.838,30.658-14.98Z" transform="translate(-73.624 -76.728)" fill="#efebe9"/>
                <path id="Trazado_1611" data-name="Trazado 1611" d="M111.289,80.375l30.95,15.12-.411,3.9L107.663,85.448,80.9,98.093l-.273-2.738Z" transform="translate(-73.624 -76.731)" fill="#4a4a4a" opacity="0.35"/>
                <path id="Trazado_1612" data-name="Trazado 1612" d="M101.291,72.441l-.356.175-.208-.1.208.1L65.406,90.144H63.374L100.981,71.4l37.14,18.961-1.806.008L100.935,72.616Z" transform="translate(-63.374 -71.402)" fill="#00a82d"/>
                <path id="Trazado_1613" data-name="Trazado 1613" d="M103.906,74.392l35.379,17.755-4.267.019-31.008-15.08L73.353,91.921H68.377Z" transform="translate(-66.345 -73.178)" fill="#efebe9"/>
              </g>
              <g id="Grupo_574" data-name="Grupo 574" transform="translate(23.68 20.493)">
                <path id="Trazado_1614" data-name="Trazado 1614" d="M115.924,122.088l10.448,10.328-.167,16.371-18.335-.144-1.094-26.477Z" transform="translate(-106.775 -121.999)" fill="#4a4a4a" opacity="0.35"/>
                <path id="Trazado_1615" data-name="Trazado 1615" d="M128.5,121.868l-.267,26.159-17.184-.129-.869-25.875Z" transform="translate(-108.797 -121.868)" fill="#fafafa"/>
                <path id="Trazado_1616" data-name="Trazado 1616" d="M115.532,145.094l-.219-18.458,15.021-.11L130,145.153Z" transform="translate(-111.846 -124.634)" fill="#546e7a"/>
                <path id="Trazado_1617" data-name="Trazado 1617" d="M130.319,176.942l-.035,1.978-14.354-.092-.023-1.961Z" transform="translate(-112.198 -154.533)" fill="#546e7a"/>
              </g>
              <g id="Grupo_575" data-name="Grupo 575" transform="translate(45.021 20.538)">
                <path id="Trazado_1618" data-name="Trazado 1618" d="M168.476,122.2l10.448,10.328-.167,16.371-18.335-.144-1.094-26.477Z" transform="translate(-159.327 -122.109)" fill="#4a4a4a" opacity="0.35"/>
                <path id="Trazado_1619" data-name="Trazado 1619" d="M181.052,121.978l-.267,26.159-17.184-.129-.869-25.875Z" transform="translate(-161.35 -121.978)" fill="#fafafa"/>
                <path id="Trazado_1620" data-name="Trazado 1620" d="M168.084,145.2l-.219-18.458,15.021-.11-.334,18.627Z" transform="translate(-164.398 -124.745)" fill="#546e7a"/>
                <path id="Trazado_1621" data-name="Trazado 1621" d="M182.871,177.052l-.035,1.978-14.354-.092-.023-1.961Z" transform="translate(-164.751 -154.643)" fill="#546e7a"/>
              </g>
            </g>
          </g>
        </g>
      </g>
    </g>
  </g>
</svg>
