<svg xmlns="http://www.w3.org/2000/svg" width="115.395" height="87.003" viewBox="0 0 115.395 87.003">
  <g id="img-marketplace" transform="translate(22 6)">
    <g id="Grupo_376" data-name="Grupo 376" transform="translate(-22 -6)" opacity="0.4">
      <path id="Trazado_1375" data-name="Trazado 1375" d="M186.145,218.877a2.728,2.728,0,1,0,2.728,2.728A2.728,2.728,0,0,0,186.145,218.877Zm0,3.832a1.1,1.1,0,1,1,1.1-1.1A1.1,1.1,0,0,1,186.145,222.709Z" transform="translate(-168.951 -148.369)" fill="#00be62"/>
      <path id="Trazado_1376" data-name="Trazado 1376" d="M302.892,236.507a2.728,2.728,0,1,0,2.728,2.728A2.728,2.728,0,0,0,302.892,236.507Zm0,3.832a1.1,1.1,0,1,1,1.1-1.1A1.1,1.1,0,0,1,302.892,240.339Z" transform="translate(-212.595 -154.96)" fill="#00be62"/>
      <path id="Trazado_1377" data-name="Trazado 1377" d="M338.917,168.839a2.089,2.089,0,1,0,2.089,2.089A2.089,2.089,0,0,0,338.917,168.839Zm0,2.934a.845.845,0,1,1,.845-.845A.845.845,0,0,1,338.917,171.773Z" transform="translate(-226.302 -129.663)" fill="#00be62"/>
      <path id="Trazado_1378" data-name="Trazado 1378" d="M280.108,115.477a2.208,2.208,0,1,0,2.208,2.208A2.208,2.208,0,0,0,280.108,115.477Zm0,3.1a.894.894,0,1,1,.894-.894A.894.894,0,0,1,280.108,118.58Z" transform="translate(-204.272 -109.715)" fill="#00be62"/>
      <path id="Trazado_1379" data-name="Trazado 1379" d="M167.222,197.656a2.322,2.322,0,1,0,2.322,2.322A2.322,2.322,0,0,0,167.222,197.656Z" transform="translate(-162.029 -140.436)" fill="#00be62"/>
      <path id="Trazado_1380" data-name="Trazado 1380" d="M316.376,209.931a1.689,1.689,0,1,0,1.689,1.689A1.689,1.689,0,0,0,316.376,209.931Z" transform="translate(-218.024 -145.025)" fill="#00be62"/>
      <path id="Trazado_1381" data-name="Trazado 1381" d="M226.594,116.586a2.468,2.468,0,1,0,2.468,2.468A2.468,2.468,0,0,0,226.594,116.586Z" transform="translate(-184.17 -110.129)" fill="#00be62"/>
      <path id="Trazado_1383" data-name="Trazado 1383" d="M303.512,131.79a2.111,2.111,0,1,0,2.111,2.111A2.111,2.111,0,0,0,303.512,131.79Z" transform="translate(-213.058 -115.813)" fill="#00be62"/>
      <circle id="Elipse_13" data-name="Elipse 13" cx="1.202" cy="1.202" r="1.202" transform="translate(14.477 32.39)" fill="#00be62"/>
      <path id="Trazado_1384" data-name="Trazado 1384" d="M340.105,152.026a2.05,2.05,0,1,0,2.05,2.051A2.05,2.05,0,0,0,340.105,152.026Z" transform="translate(-226.76 -123.378)" fill="#00be62"/>
      <circle id="Elipse_14" data-name="Elipse 14" cx="1.308" cy="1.308" r="1.308" transform="translate(2.733 39.496)" fill="#00be62"/>
      <path id="Trazado_1385" data-name="Trazado 1385" d="M252.734,108.346l.822-.822a.732.732,0,1,0-1.035-1.036l-.822.822-.822-.822a.732.732,0,1,0-1.036,1.036l.822.822-.822.822a.732.732,0,1,0,1.036,1.036l.822-.822.822.822a.732.732,0,1,0,1.035-1.036Z" transform="translate(-193.703 -106.275)" fill="#00be62"/>
      <path id="Trazado_1386" data-name="Trazado 1386" d="M163.421,148l.822-.822a.732.732,0,0,0-1.036-1.036l-.822.822-.822-.822a.732.732,0,0,0-1.036,1.036l.822.822-.822.822a.732.732,0,0,0,1.036,1.036l.822-.822.822.822a.732.732,0,0,0,1.036-1.036Z" transform="translate(-160.315 -121.097)" fill="#00be62"/>
      <path id="Trazado_1387" data-name="Trazado 1387" d="M318.452,228.3l.7-.7a.62.62,0,0,0-.877-.877l-.7.7-.7-.7a.62.62,0,1,0-.877.877l.7.7-.7.7a.62.62,0,1,0,.877.877l.7-.7.7.7a.62.62,0,0,0,.877-.877Z" transform="translate(-218.449 -151.237)" fill="#00be62"/>
    </g>
    <g id="noun_Store_1874876" transform="translate(7.208 8.7)">
      <g id="Grupo_492" data-name="Grupo 492" transform="translate(0.4 0.5)">
        <g id="Grupo_490" data-name="Grupo 490">
          <path id="Trazado_1449" data-name="Trazado 1449" d="M56.216,51H53.691V23.488a4.781,4.781,0,0,0,3.4-4.615V15.129a.772.772,0,0,0-.348-.871L48.9,5.812V3.983A3.493,3.493,0,0,0,45.419.5H12.068A3.493,3.493,0,0,0,8.585,3.983V5.812C.052,15.042.574,14.432.487,14.606a1.975,1.975,0,0,1-.087.348v3.918a4.781,4.781,0,0,0,3.4,4.615V51H1.358a.823.823,0,0,0-.871.871v4.354a.823.823,0,0,0,.871.871H56.216a.823.823,0,0,0,.871-.871V51.875A.873.873,0,0,0,56.216,51ZM51.079,21.66C48.728,20.615,49.337,18,49.25,15.826h6.1v3.048A3.057,3.057,0,0,1,51.079,21.66Zm-6.618.261a3.085,3.085,0,0,1-3.048-3.048V15.826h6.1v3.048A3.029,3.029,0,0,1,44.461,21.921Zm-7.837,0a3.085,3.085,0,0,1-3.048-3.048V15.826h6.1v3.048A3.084,3.084,0,0,1,36.624,21.921Zm-7.837,0a3.085,3.085,0,0,1-3.048-3.048V15.826h6.1v3.048A3.029,3.029,0,0,1,28.787,21.921Zm-7.837,0A3.085,3.085,0,0,1,17.9,18.873V15.826H24v3.048A3.029,3.029,0,0,1,20.95,21.921Zm-7.837,0a3.085,3.085,0,0,1-3.048-3.048V15.826h6.1v3.048A3.085,3.085,0,0,1,13.113,21.921ZM9.891,7.031h3.483L8.759,14.084h-5.4Zm44.322,7.053h-5.4L44.2,7.031h3.483ZM42.11,7.031l4.7,7.053h-5.66L38.366,7.031Zm-5.66,0,2.786,7.053H33.489l-.784-6.008-.174-1.045Zm-5.66,0,.958,7.053H25.914l.871-7.053Zm-6.7,7.053H18.338l2.786-7.053h3.918Zm-7.663,0h-5.66l4.7-7.053h3.744Zm-6.008-10.1a1.747,1.747,0,0,1,1.742-1.742h33.35a1.747,1.747,0,0,1,1.742,1.742V5.289H10.414ZM2.229,18.873V15.826h6.1v3.048a3.084,3.084,0,0,1-3.048,3.048H5.189A3.011,3.011,0,0,1,2.229,18.873Zm3.4,4.789a5,5,0,0,0,3.57-2,4.447,4.447,0,0,0,3.918,2,4.865,4.865,0,0,0,3.918-2,4.813,4.813,0,0,0,3.831,2h.087a4.865,4.865,0,0,0,3.918-2,4.813,4.813,0,0,0,3.831,2h.087a4.982,4.982,0,0,0,3.918-2,4.585,4.585,0,0,0,3.831,2h.087a4.865,4.865,0,0,0,3.918-2,4.7,4.7,0,0,0,3.831,2h.087a4.865,4.865,0,0,0,3.918-2,4.726,4.726,0,0,0,3.57,2V51H48.466V29.148a.823.823,0,0,0-.871-.871H34.447a.823.823,0,0,0-.871.871V51H5.625ZM35.318,41.339h1.306a.871.871,0,0,0,0-1.742H35.318V30.019H46.725V51H35.318ZM55.346,55.358H2.229V52.746H55.346Z" transform="translate(-0.4 -0.5)" fill="#00a82d"/>
        </g>
        <g id="Grupo_491" data-name="Grupo 491" transform="translate(10.449 27.778)">
          <path id="Trazado_1450" data-name="Trazado 1450" d="M28.335,32.4H13.271a.823.823,0,0,0-.871.871V47.029a.823.823,0,0,0,.871.871H28.248a.823.823,0,0,0,.871-.871V33.271A.758.758,0,0,0,28.335,32.4Zm-.871,6.879H21.717V34.142h5.747Zm-7.576-5.138v5.138H14.142V34.142Zm-5.747,6.879h5.747v5.138H14.142Zm7.489,5.138V41.021h5.747v5.138Z" transform="translate(-12.4 -32.4)" fill="#00a82d"/>
        </g>
      </g>
    </g>
  </g>
</svg>
