<svg xmlns="http://www.w3.org/2000/svg" width="115.395" height="87.003" viewBox="0 0 115.395 87.003">
  <g id="img-colaborativo" transform="translate(22 6)">
    <g id="Grupo_376" data-name="Grupo 376" transform="translate(-22 -6)" opacity="0.4">
      <path id="Trazado_1375" data-name="Trazado 1375" d="M186.145,218.877a2.728,2.728,0,1,0,2.728,2.728A2.728,2.728,0,0,0,186.145,218.877Zm0,3.832a1.1,1.1,0,1,1,1.1-1.1A1.1,1.1,0,0,1,186.145,222.709Z" transform="translate(-168.951 -148.369)" fill="#00be62"/>
      <path id="Trazado_1376" data-name="Trazado 1376" d="M302.892,236.507a2.728,2.728,0,1,0,2.728,2.728A2.728,2.728,0,0,0,302.892,236.507Zm0,3.832a1.1,1.1,0,1,1,1.1-1.1A1.1,1.1,0,0,1,302.892,240.339Z" transform="translate(-212.595 -154.96)" fill="#00be62"/>
      <path id="Trazado_1377" data-name="Trazado 1377" d="M338.917,168.839a2.089,2.089,0,1,0,2.089,2.089A2.089,2.089,0,0,0,338.917,168.839Zm0,2.934a.845.845,0,1,1,.845-.845A.845.845,0,0,1,338.917,171.773Z" transform="translate(-226.302 -129.663)" fill="#00be62"/>
      <path id="Trazado_1378" data-name="Trazado 1378" d="M280.108,115.477a2.208,2.208,0,1,0,2.208,2.208A2.208,2.208,0,0,0,280.108,115.477Zm0,3.1a.894.894,0,1,1,.894-.894A.894.894,0,0,1,280.108,118.58Z" transform="translate(-204.272 -109.715)" fill="#00be62"/>
      <path id="Trazado_1379" data-name="Trazado 1379" d="M167.222,197.656a2.322,2.322,0,1,0,2.322,2.322A2.322,2.322,0,0,0,167.222,197.656Z" transform="translate(-162.029 -140.436)" fill="#00be62"/>
      <path id="Trazado_1380" data-name="Trazado 1380" d="M316.376,209.931a1.689,1.689,0,1,0,1.689,1.689A1.689,1.689,0,0,0,316.376,209.931Z" transform="translate(-218.024 -145.025)" fill="#00be62"/>
      <path id="Trazado_1381" data-name="Trazado 1381" d="M226.594,116.586a2.468,2.468,0,1,0,2.468,2.468A2.468,2.468,0,0,0,226.594,116.586Z" transform="translate(-184.17 -110.129)" fill="#00be62"/>
      <path id="Trazado_1383" data-name="Trazado 1383" d="M303.512,131.79a2.111,2.111,0,1,0,2.111,2.111A2.111,2.111,0,0,0,303.512,131.79Z" transform="translate(-213.058 -115.813)" fill="#00be62"/>
      <circle id="Elipse_13" data-name="Elipse 13" cx="1.202" cy="1.202" r="1.202" transform="translate(14.477 32.39)" fill="#00be62"/>
      <path id="Trazado_1384" data-name="Trazado 1384" d="M340.105,152.026a2.05,2.05,0,1,0,2.05,2.051A2.05,2.05,0,0,0,340.105,152.026Z" transform="translate(-226.76 -123.378)" fill="#00be62"/>
      <circle id="Elipse_14" data-name="Elipse 14" cx="1.308" cy="1.308" r="1.308" transform="translate(2.733 39.496)" fill="#00be62"/>
      <path id="Trazado_1385" data-name="Trazado 1385" d="M252.734,108.346l.822-.822a.732.732,0,1,0-1.035-1.036l-.822.822-.822-.822a.732.732,0,1,0-1.036,1.036l.822.822-.822.822a.732.732,0,1,0,1.036,1.036l.822-.822.822.822a.732.732,0,1,0,1.035-1.036Z" transform="translate(-193.703 -106.275)" fill="#00be62"/>
      <path id="Trazado_1386" data-name="Trazado 1386" d="M163.421,148l.822-.822a.732.732,0,0,0-1.036-1.036l-.822.822-.822-.822a.732.732,0,0,0-1.036,1.036l.822.822-.822.822a.732.732,0,0,0,1.036,1.036l.822-.822.822.822a.732.732,0,0,0,1.036-1.036Z" transform="translate(-160.315 -121.097)" fill="#00be62"/>
      <path id="Trazado_1387" data-name="Trazado 1387" d="M318.452,228.3l.7-.7a.62.62,0,0,0-.877-.877l-.7.7-.7-.7a.62.62,0,1,0-.877.877l.7.7-.7.7a.62.62,0,1,0,.877.877l.7-.7.7.7a.62.62,0,0,0,.877-.877Z" transform="translate(-218.449 -151.237)" fill="#00be62"/>
    </g>
    <g id="noun_TIME_DELIVERY_1217950" data-name="noun_TIME DELIVERY_1217950" transform="translate(-3.448 0.817)">
      <g id="Grupo_487" data-name="Grupo 487" transform="translate(1.123 8.183)">
        <path id="Trazado_1437" data-name="Trazado 1437" d="M52.655,18.868a1.977,1.977,0,0,0-1.978,1.977V39.974a1.975,1.975,0,0,0,.733,1.536l8.525,6.912a1.977,1.977,0,0,0,2.489-3.071l-7.793-6.318V20.845A1.977,1.977,0,0,0,52.655,18.868Z" transform="translate(-11.691 -10.462)" fill="#00a82c"/>
        <path id="Trazado_1438" data-name="Trazado 1438" d="M34.181,61.881a1.977,1.977,0,0,0,0-3.954H21.1a1.977,1.977,0,1,0,0,3.954Z" transform="translate(-4.961 -18.792)" fill="#00a82c"/>
        <path id="Trazado_1439" data-name="Trazado 1439" d="M3.1,45.927h9.512a29.436,29.436,0,0,0,.245,3.035,1.977,1.977,0,0,0,1.956,1.7,2.186,2.186,0,0,0,.275-.018,1.975,1.975,0,0,0,1.684-2.231c-.114-.814-.172-1.65-.206-2.488h8.483a1.977,1.977,0,1,0,0-3.954H3.1a1.977,1.977,0,0,0,0,3.954Z" transform="translate(-1.123 -15.389)" fill="#00a82c"/>
        <path id="Trazado_1440" data-name="Trazado 1440" d="M10.458,26.025h6.163l-.953,1.992a1.977,1.977,0,1,0,3.567,1.7l1.624-3.4a1.929,1.929,0,0,0,.146-.447,25.55,25.55,0,1,1,4.258,29.562,1.977,1.977,0,1,0-2.846,2.745,29.51,29.51,0,1,0,21.239-50A29.32,29.32,0,0,0,18.61,22.106a1.983,1.983,0,0,0-.345-.035H10.458a1.977,1.977,0,1,0,0,3.954Z" transform="translate(-2.692 -8.183)" fill="#00a82c"/>
        <path id="Trazado_1441" data-name="Trazado 1441" d="M50.678,71.882a1.977,1.977,0,1,0,3.954,0v-.237a1.977,1.977,0,0,0-3.954,0Z" transform="translate(-11.692 -21.296)" fill="#00a82c"/>
        <path id="Trazado_1442" data-name="Trazado 1442" d="M80.286,47.136a1.977,1.977,0,0,0,0-3.954h-.238a1.977,1.977,0,1,0,0,3.954Z" transform="translate(-17.534 -15.647)" fill="#00a82c"/>
        <path id="Trazado_1443" data-name="Trazado 1443" d="M10.054,61.881h2.131a1.977,1.977,0,1,0,0-3.954H10.054a1.977,1.977,0,0,0,0,3.954Z" transform="translate(-2.606 -18.792)" fill="#00a82c"/>
      </g>
    </g>
  </g>
</svg>
