<svg xmlns="http://www.w3.org/2000/svg" width="200" height="200" viewBox="0 0 115.395 87.003">
  <g id="img-360" transform="translate(22 6)">
    <g id="noun_Rotate_375332" transform="translate(-2 9)">
      <g id="Grupo_30" data-name="Grupo 30">
        <path id="Trazado_1282" data-name="Trazado 1282" d="M77.368,41.38c0-3.468-2.916-6.541-7.881-9.063l.079,1.97c4.019,2.128,6.3,4.65,6.3,7.093,0,2.522-2.285,5.044-6.383,7.172v-30.5a.077.077,0,0,0-.079-.079c0-.079-.079-.158-.158-.236a.077.077,0,0,0-.079-.079l-.079-.079c-.079,0-.158,0-.158-.079l-.079-.079L32.368,12.3a.591.591,0,0,0-.394.079c-7.881,3.625-19.939,8.984-20.805,9.3H11.09c-.079,0-.236.079-.315.079H10.7c-.079.079-.158.236-.236.315h0V48.315c-4.019-2.128-6.383-4.571-6.383-7.172,0-2.443,2.207-4.965,6.226-7.093l.079-1.97C5.416,34.524,2.5,37.676,2.5,41.144s2.837,6.541,7.881,9.063V63.131a.644.644,0,0,0,.63.709l39.641,7.487h.158a.6.6,0,0,0,.394-.158h0L69.172,58.324a.717.717,0,0,0,.315-.63V50.128C74.61,47.921,77.368,44.769,77.368,41.38Zm-45-27.425,34.045,4.729L52.07,26.722l-1.419.788L14.085,22.151C16.686,20.969,21.966,18.683,32.368,13.955Zm-20.49,37.2a54.137,54.137,0,0,0,9.3,2.916L15.819,57.93l.788,1.5,7.723-5.674-5.438-8.59-1.261,1.025,3.862,6.068A50.229,50.229,0,0,1,11.8,49.182V23.333l16.944,2.443,21.2,3.074V69.909L11.8,62.659V51.153ZM67.99,57.615,51.519,69.436V28.692L67.99,19.472V49.182a34.942,34.942,0,0,1-5.123,1.891,1,1,0,0,0-.552,1.1.745.745,0,0,0,.946.63,46.287,46.287,0,0,0,4.729-1.734Z" transform="translate(-2.5 -12.3)" fill="#00a82d" stroke="#00a82d" stroke-width="1"/>
      </g>
    </g>
    <g id="Grupo_376" data-name="Grupo 376" transform="translate(-22 -6)" opacity="0.4">
      <path id="Trazado_1375" data-name="Trazado 1375" d="M186.145,218.877a2.728,2.728,0,1,0,2.728,2.728A2.728,2.728,0,0,0,186.145,218.877Zm0,3.832a1.1,1.1,0,1,1,1.1-1.1A1.1,1.1,0,0,1,186.145,222.709Z" transform="translate(-168.951 -148.369)" fill="#00be62"/>
      <path id="Trazado_1376" data-name="Trazado 1376" d="M302.892,236.507a2.728,2.728,0,1,0,2.728,2.728A2.728,2.728,0,0,0,302.892,236.507Zm0,3.832a1.1,1.1,0,1,1,1.1-1.1A1.1,1.1,0,0,1,302.892,240.339Z" transform="translate(-212.595 -154.96)" fill="#00be62"/>
      <path id="Trazado_1377" data-name="Trazado 1377" d="M338.917,168.839a2.089,2.089,0,1,0,2.089,2.089A2.089,2.089,0,0,0,338.917,168.839Zm0,2.934a.845.845,0,1,1,.845-.845A.845.845,0,0,1,338.917,171.773Z" transform="translate(-226.302 -129.663)" fill="#00be62"/>
      <path id="Trazado_1378" data-name="Trazado 1378" d="M280.108,115.477a2.208,2.208,0,1,0,2.208,2.208A2.208,2.208,0,0,0,280.108,115.477Zm0,3.1a.894.894,0,1,1,.894-.894A.894.894,0,0,1,280.108,118.58Z" transform="translate(-204.272 -109.715)" fill="#00be62"/>
      <path id="Trazado_1379" data-name="Trazado 1379" d="M167.222,197.656a2.322,2.322,0,1,0,2.322,2.322A2.322,2.322,0,0,0,167.222,197.656Z" transform="translate(-162.029 -140.436)" fill="#00be62"/>
      <path id="Trazado_1380" data-name="Trazado 1380" d="M316.376,209.931a1.689,1.689,0,1,0,1.689,1.689A1.689,1.689,0,0,0,316.376,209.931Z" transform="translate(-218.024 -145.025)" fill="#00be62"/>
      <path id="Trazado_1381" data-name="Trazado 1381" d="M226.594,116.586a2.468,2.468,0,1,0,2.468,2.468A2.468,2.468,0,0,0,226.594,116.586Z" transform="translate(-184.17 -110.129)" fill="#00be62"/>
      <path id="Trazado_1383" data-name="Trazado 1383" d="M303.512,131.79a2.111,2.111,0,1,0,2.111,2.111A2.111,2.111,0,0,0,303.512,131.79Z" transform="translate(-213.058 -115.813)" fill="#00be62"/>
      <circle id="Elipse_13" data-name="Elipse 13" cx="1.202" cy="1.202" r="1.202" transform="translate(14.477 32.39)" fill="#00be62"/>
      <path id="Trazado_1384" data-name="Trazado 1384" d="M340.105,152.026a2.05,2.05,0,1,0,2.05,2.051A2.05,2.05,0,0,0,340.105,152.026Z" transform="translate(-226.76 -123.378)" fill="#00be62"/>
      <circle id="Elipse_14" data-name="Elipse 14" cx="1.308" cy="1.308" r="1.308" transform="translate(2.733 39.496)" fill="#00be62"/>
      <path id="Trazado_1385" data-name="Trazado 1385" d="M252.734,108.346l.822-.822a.732.732,0,1,0-1.035-1.036l-.822.822-.822-.822a.732.732,0,1,0-1.036,1.036l.822.822-.822.822a.732.732,0,1,0,1.036,1.036l.822-.822.822.822a.732.732,0,1,0,1.035-1.036Z" transform="translate(-193.703 -106.275)" fill="#00be62"/>
      <path id="Trazado_1386" data-name="Trazado 1386" d="M163.421,148l.822-.822a.732.732,0,0,0-1.036-1.036l-.822.822-.822-.822a.732.732,0,0,0-1.036,1.036l.822.822-.822.822a.732.732,0,0,0,1.036,1.036l.822-.822.822.822a.732.732,0,0,0,1.036-1.036Z" transform="translate(-160.315 -121.097)" fill="#00be62"/>
      <path id="Trazado_1387" data-name="Trazado 1387" d="M318.452,228.3l.7-.7a.62.62,0,0,0-.877-.877l-.7.7-.7-.7a.62.62,0,1,0-.877.877l.7.7-.7.7a.62.62,0,1,0,.877.877l.7-.7.7.7a.62.62,0,0,0,.877-.877Z" transform="translate(-218.449 -151.237)" fill="#00be62"/>
    </g>
  </g>
</svg>
