<svg xmlns="http://www.w3.org/2000/svg" width="323" height="205.035" viewBox="0 0 323 205.035">
  <g id="Grupo_2500" data-name="Grupo 2500" transform="translate(-878.446 -281.87)">
    <g id="Grupo_2436" data-name="Grupo 2436" transform="translate(878.446 281.87)">
      <path id="Hair_Back" data-name="Hair Back" d="M0,13.361V7.248A7.243,7.243,0,0,1,6.147.089l0-.089h9.333c1.587,1.551-.207,12.067-1.326,15.553a5.021,5.021,0,0,1-.46,1.086A7.242,7.242,0,0,1,0,13.361Z" transform="translate(231.442 87.422) rotate(180)" fill="#191847"/>
      <g id="Head" transform="translate(216.961 68.107)">
        <path id="Head-2" data-name="Head" d="M0,0,2.659,12.392A8.718,8.718,0,0,0,.34,18.656c.483,6.887,10.07,5.372,11.934,1.9S13.918,8.26,11.508,7.638C10.547,7.391,8.5,8,6.415,9.254L7.723,0Z" transform="translate(13.515 23.491) rotate(180)" fill="#b28b67"/>
      </g>
      <path id="Hair_Front" data-name="Hair Front" d="M9.37,0H.038A16.761,16.761,0,0,0,.091,2.92,8.026,8.026,0,0,0,.56,4.906,7.519,7.519,0,0,0,2.2,7.339c1.15,1.268,2.339,2.579,2.339,6.7l.24.236c.229.227.445.44.662.634l-.01.25a12.989,12.989,0,0,0,1.678,2.481,8.588,8.588,0,0,0,1.94,1.706,4.789,4.789,0,0,0,2.533.775,6.752,6.752,0,0,0,3.972-1.05,7.722,7.722,0,0,0,1.93-2.153l0,0a3.779,3.779,0,0,0-1.47-2.038A13.558,13.558,0,0,0,13.6,13.573a21.149,21.149,0,0,1-2.352-1.207,1.77,1.77,0,1,1-1.115-3.144l.08,0a35.632,35.632,0,0,0,.107-5.657C10.231,2.273,9.989.6,9.371,0Z" transform="translate(235.947 87.266) rotate(180)" fill="#191847"/>
      <g id="Grupo_5" data-name="Grupo 5" transform="translate(13.495 0)" opacity="0.355">
        <path id="Trazado_6" data-name="Trazado 6" d="M574.858,451.828v70.788H621.34v-15.7s5.211-13.978,17.441-14.2,17.689,13.54,17.689,13.54v16.358h47.173V451.828h14.414L686.2,417.464V381.992h6.746v-8.519H664.769v6.771h5.023v16.6l-29.484-33.851L561.25,451.5Z" transform="translate(-561.25 -362.991)" fill="#c9dcca"/>
        <rect id="Rectángulo_45" data-name="Rectángulo 45" width="11.506" height="11.506" transform="translate(27.998 95.655)" fill="#afd6b1"/>
        <rect id="Rectángulo_46" data-name="Rectángulo 46" width="11.506" height="11.506" transform="translate(27.998 114.533)" fill="#afd6b1"/>
        <rect id="Rectángulo_47" data-name="Rectángulo 47" width="11.506" height="11.506" transform="translate(49.506 95.655)" fill="#afd6b1"/>
        <rect id="Rectángulo_48" data-name="Rectángulo 48" width="11.506" height="11.506" transform="translate(49.506 114.533)" fill="#afd6b1"/>
        <rect id="Rectángulo_49" data-name="Rectángulo 49" width="11.506" height="11.506" transform="translate(96.923 95.523)" fill="#afd6b1"/>
        <rect id="Rectángulo_50" data-name="Rectángulo 50" width="11.506" height="11.506" transform="translate(96.923 114.4)" fill="#a6c2c7"/>
        <rect id="Rectángulo_51" data-name="Rectángulo 51" width="11.506" height="11.506" transform="translate(118.431 95.523)" fill="#afd6b1"/>
        <rect id="Rectángulo_52" data-name="Rectángulo 52" width="11.506" height="11.506" transform="translate(118.431 114.4)" fill="#afd6b1"/>
      </g>
      <g id="Plant_Left" data-name="Plant Left" transform="translate(256.002 77.524)" opacity="0.5">
        <path id="Leaf" d="M15.662,5.63c1.009-1.439,2.882-5.093,4.3-5.607.915-.331.648,3.094.659,3.748a54.753,54.753,0,0,1-.506,7.544A29.477,29.477,0,0,1,15.326,23.7a15.643,15.643,0,0,1-4.8,5.217c-.945.569-2.081.664-3.014,1.154-1.086.57-.495.109-.984,1.241a25.808,25.808,0,0,0-1.212,5.277C3.874,44.294.377,84.994.983,92.826c.054.694-.914.86-.962.013-.257-4.493,1.966-35.609,3.087-45.785S5.363,27.888,6.5,24.367a95.309,95.309,0,0,1,5.948-13.391A47.363,47.363,0,0,1,15.662,5.63Z" transform="translate(27.135 21.132)" fill="#26a72c"/>
        <path id="Leaf-2" data-name="Leaf" d="M24.113.547c2.626-1.928,5.468,1.711,3.092,3.639a2.38,2.38,0,0,1-3.46-.2c-.5.612-.972,1.251-1.423,1.792-1.375,1.646-2.675,3.332-3.917,5.057-2.58,3.584-4.792,7.37-7.1,11.086-2.282,3.668-4.545,7.355-6.614,11.116C2.935,36.222.6,39.971,0,43.464.91,36.055,4.364,28.934,8.476,22.4c4.079-6.478,8.76-13.553,15.076-18.665A2.237,2.237,0,0,1,24.113.547Z" transform="translate(26.175 76.123)" fill="#afd6b1"/>
        <path id="Leaf-3" data-name="Leaf" d="M.459.007C1.929.295,4.33,3.619,5.541,4.885a47.438,47.438,0,0,1,3.977,4.79,81.016,81.016,0,0,1,7.036,11.476,106.665,106.665,0,0,1,7.828,20.372,84.04,84.04,0,0,1,2.375,13.363c.085.846.972,7.369-.306,7.545-1.15.158-.795-4.953-.85-5.648a90.3,90.3,0,0,0-5.117-22.87,26.066,26.066,0,0,0-2.008-5.033c-.655-1.044,0-.68-1.156-1.075-.989-.339-2.116-.256-3.128-.672a15.562,15.562,0,0,1-5.505-4.415A29.67,29.67,0,0,1,2.068,11.2,55.436,55.436,0,0,1,.4,3.819C.308,3.17-.487-.178.459.007Z" transform="translate(0 58.593)" fill="#26a72c"/>
        <path id="Leaf-4" data-name="Leaf" d="M3.377,3.294A133.161,133.161,0,0,1,16.4,34.117c1.779,6.471,3.024,13.111,4.26,19.7,1.914,10.207,3.725,20.413,4.24,30.8.518,10.449,1.543,22.5-1.878,32.563,1.709-10.217.082-21.093-.206-31.374-.138-4.908-.537-9.768-1.06-14.647-.508-4.733-1.338-9.444-2.11-14.139q-.565-3.43-1.174-6.853c-.12-.681-.171-2.7-.6-3.167s-2.653-.659-3.349-1a17.98,17.98,0,0,1-3.889-2.713,31.062,31.062,0,0,1-5.721-7.157C1.352,30.2-.069,22.959,0,16.088.016,14.753,2.162.387,1.3.189Q1.378.1,1.448,0,2.426,1.638,3.377,3.294Z" transform="translate(2.882)" fill="#7cc97f"/>
        <path id="Leaf-5" data-name="Leaf" d="M39.585.933c.085-.123.641-.98.361-.925.57-.111-.784.945.636.3-.674.637-.285,1.464-.276,2.321a20.785,20.785,0,0,1-.48,4.133A28.342,28.342,0,0,1,37.9,13.005a27.991,27.991,0,0,1-9.2,11.289A18.449,18.449,0,0,1,22.64,26.72c-1.4.392-1.51,1.115-2.253,2.473-1.546,2.828-3.065,5.645-4.428,8.569-1.628,3.491-3.209,6.985-4.7,10.537A168.166,168.166,0,0,0,0,85.488c-.053-7.56,1.7-15.346,3.9-22.551a134.6,134.6,0,0,1,5.93-15.32,19.385,19.385,0,0,0,1.59-4.115,7.58,7.58,0,0,0-.556-2.831,29.62,29.62,0,0,1-.044-12.037c.849-4.269,3.306-6.251,7.462-6.856,1.52-.221,3.452-.14,4.845-.788,1.518-.706,2.145-3.025,3.008-4.514A61.394,61.394,0,0,1,34.376,5.27a26.724,26.724,0,0,1,2.818-2.592A13.765,13.765,0,0,0,39.585.933Z" transform="translate(26.415 36.981)" fill="#00a007"/>
        <path id="Base" d="M.8,1.376A1.2,1.2,0,0,1,1.991,0H16.74a1.2,1.2,0,0,1,1.188,1.376l-1.14,7.73a4.8,4.8,0,0,1-4.751,4.1H6.695a4.8,4.8,0,0,1-4.751-4.1Z" transform="translate(17.409 114.304)" fill="#c9dcca"/>
      </g>
      <g id="humaaan-4" transform="translate(79.155 69.743)">
        <g id="Head-3" data-name="Head" transform="translate(36.572 5.379)">
          <path id="Head-4" data-name="Head" d="M0,23.1,2.614,10.913A8.574,8.574,0,0,1,.334,4.754c.475-6.771,9.9-5.282,11.732-1.864s1.615,12.087-.754,12.7c-.945.244-2.958-.353-5.006-1.588l1.286,9.1Z" transform="translate(0 0)" fill="#b28b67"/>
        </g>
        <path id="hair" d="M23.022,3.531a1.642,1.642,0,0,0-1.15-1.166,1.514,1.514,0,0,0-.423-.042c-.051,0-.065.017-.089-.019a.468.468,0,0,1-.025-.122,2.3,2.3,0,0,0-.086-.285,2.327,2.327,0,0,0-.561-.834,2.824,2.824,0,0,0-1.7-.8A2.473,2.473,0,0,0,17.971.4a4.038,4.038,0,0,0-.5.212c-.048.024-.205.143-.254.135s-.161-.142-.2-.175A3,3,0,0,0,15.144,0a3.428,3.428,0,0,0-2.116.5,4.233,4.233,0,0,0-.382.317c-.064.059-.126.121-.185.185q-.053.058-.1.119c-.057.069-.047.092-.127.043a1.573,1.573,0,0,0-1.01-.227,2.26,2.26,0,0,0-.61.172c-.066.028-.219.141-.29.142s-.221-.1-.293-.13a2.4,2.4,0,0,0-1.219-.113,3.147,3.147,0,0,0-1.195.47,1.606,1.606,0,0,0-.443.4c-.052.072-.1.148-.158.215-.035.039-.1.079-.122.129a2.624,2.624,0,0,0-.506-.224,1.247,1.247,0,0,0-.713.027,2.834,2.834,0,0,0-1.124.8,3.191,3.191,0,0,0-.416.559q-.085.144-.156.3a1.1,1.1,0,0,1-.068.154c-.039.057-.065.058-.136.083a2.192,2.192,0,0,0-.934.625,2.153,2.153,0,0,0-.483,1.025.522.522,0,0,1-.019.126c-.018.017-.09.009-.117.012a2.463,2.463,0,0,0-.281.049,2.315,2.315,0,0,0-.493.177A2.578,2.578,0,0,0,.182,7.447a3.062,3.062,0,0,0,.048,2.1,2.048,2.048,0,0,0,.156.307c.037.06.049.06.025.123s-.076.138-.108.206a2.96,2.96,0,0,0-.223.7,3.288,3.288,0,0,0-.038,1.211,1.749,1.749,0,0,0,.187.532,1.525,1.525,0,0,0,.164.238c.032.038.066.075.1.11a.682.682,0,0,1,.065.06c.042.055.051.01.029.09a3.588,3.588,0,0,1-.143.332c-.044.112-.083.226-.12.341a5.034,5.034,0,0,0-.174.711,2.233,2.233,0,0,0,.158,1.381,1.382,1.382,0,0,0,.391.465,1.45,1.45,0,0,0,.257.156c.047.022.106.032.127.077s-.011.145-.019.2A3.313,3.313,0,0,0,1.1,18.209a1.971,1.971,0,0,0,.781,1.049,2.43,2.43,0,0,0,2.429.069,2.55,2.55,0,0,0,.542-.373,1.789,1.789,0,0,0,1.88.383,2.7,2.7,0,0,0,1.716-1.418,1.143,1.143,0,0,0,1.816-.239,1.514,1.514,0,0,0,.153-.5c.012-.091,0-.182.014-.272a1.408,1.408,0,0,1,.133-.337,1.863,1.863,0,0,0,.141-.672,3.414,3.414,0,0,0-.026-.361,1.241,1.241,0,0,1,.037-.317,1.45,1.45,0,0,1-.614-.077,1.213,1.213,0,0,1-.475-.334,2.771,2.771,0,0,1-.6-1.117,1.982,1.982,0,0,1,.73-2.431,4.581,4.581,0,0,1,2.149-.114c.519.118,1.107,1.263,1.136,1.37.018.067.009.149.07.193.134.1.356-.072.455-.155a1.8,1.8,0,0,0,.4-.531,6.568,6.568,0,0,0,.547-1.343c.1-.358.166-.727.3-1.075a1.645,1.645,0,0,1,.661-.854,5.823,5.823,0,0,1,1.138-.461,2.824,2.824,0,0,0,1.053-.578,1.455,1.455,0,0,0,.181-.2c.041-.058.082-.168.145-.2.1-.057.241.091.325.145a3.762,3.762,0,0,1,1.047,1.04,6.47,6.47,0,0,1,.7,1.238,3.58,3.58,0,0,0,.468,1.032,1.972,1.972,0,0,0,1.177.089,1.487,1.487,0,0,0,.642-.556.863.863,0,0,0,.073-.566c-.023-.114-.069-.221-.094-.333a1.038,1.038,0,0,0-.086-.269.664.664,0,0,0-.414-.33,1.945,1.945,0,0,0,.447-.607,2.6,2.6,0,0,0,.232-.79.96.96,0,0,0-.128-.616,1.621,1.621,0,0,0-.526-.436,3.419,3.419,0,0,0,.732-.8A2.489,2.489,0,0,0,23.022,3.531Z" transform="translate(28.98 0)" fill="#191847"/>
        <path id="Leg" d="M0,0,15.21,40.257,25.871,69.929H31.95L17.3,0Z" transform="translate(34.041 54.741)" fill="#71c174"/>
        <path id="Leg-2" data-name="Leg" d="M24.4,0c-.165,13.813-.046,32.41-.431,33.271S0,52.892,0,52.892l3.133,5.329S31.127,40.164,32.558,37.759,41.179,13.215,44.92,0Z" transform="translate(5.887 54.741)" fill="#afd6b1"/>
        <path id="Shoe" d="M0,6.9.329,0H7.234c4.912,3.45,12.825,5.585,12.825,5.585V6.9H7.563L3.288,6.243V6.9Z" transform="translate(5.285 107.096) rotate(50)" fill="#191847"/>
        <path id="Shoe-2" data-name="Shoe" d="M0,6.645.316,0H6.96C11.684,3.322,19.3,5.379,19.3,5.379V6.645H7.276L3.163,6.012v.633Z" transform="translate(59.348 123.72)" fill="#191847"/>
        <path id="Skin" d="M.388,39.915c-.353-.218-.739-1.038.195-1.679,2.327-1.6,5.682-4.39,6.135-5.31.927-1.881,9.038-26.092,9.038-26.092l6.927.026S11.29,32.506,10.8,33.716c-.732,1.815.817,4.578,1.479,6.063-1.044.467-1.529-.129-2.06-.726a1.877,1.877,0,0,0-2.589-.618c-1.8.836-3.283,2.164-5.054,2.164A4.108,4.108,0,0,1,.388,39.915Zm54.6-35.972,12.49-1.7A20.29,20.29,0,0,1,73.65,0c.59-.017,1.53.2.13,1.365s-2.092,1.872-1.842,2.5,1.607.459,1.823,1.417c.144.639-2.025.675-6.393.244L57.233,9.54Z" transform="translate(6.255 38.239)" fill="#997659"/>
        <path id="Clothes_Back" data-name="Clothes Back" d="M0,.113,5.435,0c2.384,11.925,10.3,18.9,26.3,14.9l3.513,15.318c-15,3.288-28.829-1.622-32.994-17.829A69.785,69.785,0,0,1,0,.113Z" transform="matrix(0.996, 0.087, -0.087, 0.996, 40.994, 22.986)" fill="#afb9c5"/>
        <path id="Clothes" d="M0,46.514Q5.648,16.453,23.844,0h.538l0,.005L32.6,1.888c0,14.138,4.5,23.157,6.812,33.551H17.222c-.313,3.591-.5,7.284-.6,11.075Z" transform="translate(13.922 21.517)" fill="#c5cfd6"/>
        <path id="Shade" d="M4.511,20.694H0A107.358,107.358,0,0,1,3.652,0c-.243,4.1-.326,7.8-.244,11.013a43.459,43.459,0,0,0,1.1,9.681Z" transform="translate(31.145 36.262)" fill="rgba(0,0,0,0.1)"/>
      </g>
      <g id="Grupo_7" data-name="Grupo 7" transform="translate(154.252 112.165)">
        <path id="Icon_ionic-ios-key" data-name="Icon ionic-ios-key" d="M5.5,3.151a2.092,2.092,0,0,0-.693.076C3.868,2.428,1.392.32,1.2.124A.374.374,0,0,0,.925,0,.618.618,0,0,0,.53.178C.4.3-.081.822.012.919c.278.285.352.343.467.459.172.176.524-.019.667.043a.273.273,0,0,1,.193.232,3.462,3.462,0,0,1-.056.439.463.463,0,0,0,.17.352.39.39,0,0,0,.289.161c.167,0,.387-.237.563-.057s-.115.439-.093.63a.7.7,0,0,0,.4.446c.113.024.4-.217.569-.18a.386.386,0,0,1,.2.211c.019.085-.128.463-.109.548a1.3,1.3,0,0,0,.193.322,2.086,2.086,0,0,0-.174.884A2.254,2.254,0,0,0,5.5,7.705a2.251,2.251,0,0,0,2.2-2.3A2.22,2.22,0,0,0,5.5,3.151Zm.43,3.369a.593.593,0,1,1,.593-.593A.592.592,0,0,1,5.928,6.52Z" transform="translate(5.449 12.358) rotate(-135)" fill="#84c587"/>
        <path id="Trazado_8" data-name="Trazado 8" d="M2.528,1.776S1.516-1.05.749.428s-1.309,3.442.258,3.6,2.1-.923,1.908-1.333" transform="translate(3.296 0) rotate(16)" fill="none" stroke="#707070" stroke-width="1"/>
      </g>
      <g id="Grupo_9" data-name="Grupo 9" transform="translate(201.286 129.942)">
        <path id="Leg-3" data-name="Leg" d="M21.557,0l-11.1,38.242L5.239,66.955H0L5.23,0Z" transform="translate(12.072)" fill="#997659"/>
        <path id="Leg-4" data-name="Leg" d="M19.3,0c-.774,19.867-.469,30.7-.3,32.507S20.159,46.4,26.864,67.561H21.415a319.908,319.908,0,0,1-13-35.054C7.4,29.842,4.391,19.006,0,0Z" transform="translate(19.319)" fill="#b28b67"/>
        <path id="Pant" d="M22.723,0Q18.393,19.739,7.745,63.017H.082C-.484,33.4,1.924,13.912,6.093,0Z" transform="translate(11.144 0)" fill="#b5b5b5"/>
        <path id="Pant-2" data-name="Pant" d="M20.509,0c-.758,19.867,1.207,39.439,7.3,63.326H19.629A268.369,268.369,0,0,1,0,0Z" transform="translate(18.146)" fill="#7b7b7b"/>
        <path id="Shoe-3" data-name="Shoe" d="M18.211,5.453,17.927.865a.3.3,0,0,0-.275-.283L11.3,0,.4,4.047a.606.606,0,0,0-.372.733L.472,6.362H17.61Z" transform="translate(0 66.046)" fill="#191847"/>
        <path id="Shoe-4" data-name="Shoe" d="M18.211,5.453,17.927.865a.3.3,0,0,0-.275-.283L11.3,0,.4,4.047a.606.606,0,0,0-.372.733L.472,6.362H17.61Z" transform="translate(28.479 66.046)" fill="#191847"/>
      </g>
      <g id="Grupo_8" data-name="Grupo 8" transform="translate(187.417 88.738)">
        <path id="Skin-2" data-name="Skin" d="M16.47,4.635l4.619,2.538s.972,3.7,2.324,3.722c.349.163.216-.548.166-1.258s-.018-1.4.633-1.265c1.313.27,4.516,2.653,5.069,2.169.817-.716.089-2.914-.769-4.007-1.6-2.043-2.931-2.742-6.213-3.657A21.8,21.8,0,0,1,16.733,0ZM0,9.495l10.516,5.76a26.015,26.015,0,0,0,5.169,4.838c.519.216,1.426.348.578-1.158s-1.673-3.127-1.241-3.591c.19-.2.5-.193.841-.182a1.2,1.2,0,0,0,1.184-.4q.516-.771-5.522-2.435l-7.641-7Z" transform="translate(29.637 22.432) rotate(180)" fill="#997659"/>
        <path id="Sleeve" d="M1.668,7.38A25.839,25.839,0,0,1,15.982,9.308L17.3,4.453C13.165,1.475,7.683-.641,3.313.177A4.015,4.015,0,0,0,1.668,7.38Z" transform="translate(35.251 19.204) rotate(-171)" fill="#48999a"/>
        <path id="Clothes-2" data-name="Clothes" d="M10.125.713c-3.7.481-7.141.961-9.141.568-3.429,11.135,3.2,15.661,3.206,22.786.006,7.8,6.271,19.813,7.193,19.813H19.79c.464-5.956,2.8-12.52,4.711-19,6.109-1.387,19.675,3.44,19.675,3.44s3.425-7.085,3.166-10.1c-7.9-4.125-14.663-5.964-20.239-6.085A19.189,19.189,0,0,0,25.525,2.8C24.513.643,21.712,0,18.3,0A66.453,66.453,0,0,0,10.125.713Z" transform="translate(54.303 43.879) rotate(180)" fill="#6ca0a0"/>
      </g>
      <path id="Trazado_9" data-name="Trazado 9" d="M29.626,28.945V58.274h5.641V28.945H64.394V0H0V28.945Z" transform="translate(0 132.313) rotate(-7)" fill="#d0ded1"/>
    </g>
  </g>
</svg>
