<svg xmlns="http://www.w3.org/2000/svg" width="583.2" height="370.206" viewBox="0 0 583.2 370.206">
  <g id="Grupo_2522" data-name="Grupo 2522" transform="translate(-878.447 -281.87)">
    <g id="Grupo_2436" data-name="Grupo 2436" transform="translate(878.446 281.87)">
      <path id="Hair_Back" data-name="Hair Back" d="M0,24.125V13.086A13.077,13.077,0,0,1,11.1.161c0-.053.006-.107.009-.161h16.85c2.866,2.8-.373,21.789-2.392,28.083a9.033,9.033,0,0,1-.834,1.964A13.075,13.075,0,0,1,0,24.125Z" transform="translate(417.885 157.846) rotate(180)" fill="#191847"/>
      <g id="Head" transform="translate(391.739 122.972)">
        <path id="Head-2" data-name="Head" d="M0,0,4.8,22.376C2.124,25.518.311,29.37.614,33.685c.873,12.434,18.182,9.7,21.548,3.423s2.967-22.195-1.384-23.316c-1.736-.447-5.432.648-9.195,2.916L13.945,0Z" transform="translate(24.403 42.415) rotate(180)" fill="#b28b67"/>
      </g>
      <path id="Hair_Front" data-name="Hair Front" d="M16.919,0H.069A30.263,30.263,0,0,0,.164,5.271,14.492,14.492,0,0,0,1.01,8.859a13.576,13.576,0,0,0,2.97,4.393C6.057,15.541,8.2,17.908,8.2,25.353c.146.143.292.287.433.427.414.41.8.8,1.2,1.145l-.019.452a23.453,23.453,0,0,0,3.03,4.48,15.506,15.506,0,0,0,3.5,3.08,8.646,8.646,0,0,0,4.574,1.4,12.192,12.192,0,0,0,7.171-1.9,13.943,13.943,0,0,0,3.484-3.888l0-.006a6.823,6.823,0,0,0-2.654-3.68,24.48,24.48,0,0,0-4.362-2.36,38.186,38.186,0,0,1-4.246-2.18A3.2,3.2,0,1,1,18.3,16.651c.048,0,.1,0,.145,0A64.336,64.336,0,0,0,18.643,6.44C18.472,4.1,18.035,1.091,16.919,0Z" transform="translate(426.02 157.564) rotate(180)" fill="#191847"/>
      <g id="Grupo_5" data-name="Grupo 5" transform="translate(24.367 0)" opacity="0.355">
        <path id="Trazado_6" data-name="Trazado 6" d="M585.82,523.393V651.207h83.926V622.855s9.409-25.238,31.491-25.632,31.94,24.448,31.94,24.448v29.536h85.175V523.393h26.026l-57.527-62.047V397.3h12.18V381.918h-50.87v12.225h9.07v29.968L704,362.991,561.25,522.8Z" transform="translate(-561.25 -362.991)" fill="#c9dcca"/>
        <rect id="Rectángulo_45" data-name="Rectángulo 45" width="20.775" height="20.775" transform="translate(50.552 172.713)" fill="#afd6b1"/>
        <rect id="Rectángulo_46" data-name="Rectángulo 46" width="20.775" height="20.775" transform="translate(50.552 206.797)" fill="#afd6b1"/>
        <rect id="Rectángulo_47" data-name="Rectángulo 47" width="20.775" height="20.775" transform="translate(89.387 172.713)" fill="#afd6b1"/>
        <rect id="Rectángulo_48" data-name="Rectángulo 48" width="20.775" height="20.775" transform="translate(89.387 206.797)" fill="#afd6b1"/>
        <rect id="Rectángulo_49" data-name="Rectángulo 49" width="20.775" height="20.775" transform="translate(175.001 172.474)" fill="#afd6b1"/>
        <rect id="Rectángulo_50" data-name="Rectángulo 50" width="20.775" height="20.775" transform="translate(175.001 206.558)" fill="#a6c2c7"/>
        <rect id="Rectángulo_51" data-name="Rectángulo 51" width="20.775" height="20.775" transform="translate(213.837 172.474)" fill="#afd6b1"/>
        <rect id="Rectángulo_52" data-name="Rectángulo 52" width="20.775" height="20.775" transform="translate(213.837 206.558)" fill="#afd6b1"/>
      </g>
      <g id="Plant_Left" data-name="Plant Left" transform="translate(462.231 139.975)" opacity="0.5">
        <path id="Leaf" d="M28.279,10.165c1.822-2.6,5.2-9.2,7.768-10.124,1.652-.6,1.17,5.587,1.191,6.767a98.861,98.861,0,0,1-.913,13.621c-.988,8.16-4.22,15.427-8.652,22.372-2.281,3.574-4.956,7.191-8.661,9.42-1.706,1.027-3.758,1.2-5.442,2.084-1.962,1.03-.893.2-1.777,2.242-1.228,2.838-1.62,6.5-2.188,9.528C6.994,79.976.68,153.464,1.775,167.6c.1,1.253-1.65,1.553-1.738.023-.464-8.113,3.549-64.3,5.573-82.668S9.683,50.354,11.738,44C14.23,36.285,18.73,27.011,22.477,19.82A85.518,85.518,0,0,1,28.279,10.165Z" transform="translate(48.995 38.155)" fill="#26a72c"/>
        <path id="Leaf-2" data-name="Leaf" d="M43.538.988c4.741-3.481,9.873,3.089,5.583,6.57a4.3,4.3,0,0,1-6.247-.364c-.906,1.1-1.754,2.26-2.569,3.235-2.483,2.973-4.83,6.016-7.073,9.131C28.572,26.03,24.579,32.866,20.4,39.577,16.284,46.2,12.2,52.857,8.463,59.648,5.3,65.4,1.083,72.17,0,78.478,1.643,65.1,7.879,52.242,15.3,40.449c7.365-11.7,15.818-24.47,27.222-33.7A4.039,4.039,0,0,1,43.538.988Z" transform="translate(47.26 137.445)" fill="#afd6b1"/>
        <path id="Leaf-3" data-name="Leaf" d="M.83.013c2.653.519,6.988,6.521,9.175,8.808a85.653,85.653,0,0,1,7.18,8.649,146.28,146.28,0,0,1,12.7,20.72A192.592,192.592,0,0,1,44.023,74.974,151.739,151.739,0,0,1,48.311,99.1c.153,1.528,1.755,13.306-.553,13.623-2.076.286-1.435-8.943-1.535-10.2a163.046,163.046,0,0,0-9.24-41.293c-1.027-2.908-1.982-6.47-3.625-9.087-1.183-1.885-.008-1.228-2.088-1.941-1.785-.613-3.82-.463-5.648-1.213-3.972-1.629-7.152-4.791-9.94-7.972C10.265,34.839,5.972,28.152,3.734,20.231A100.093,100.093,0,0,1,.719,6.895C.555,5.725-.879-.321.83.013Z" transform="translate(0 105.794)" fill="#26a72c"/>
        <path id="Leaf-4" data-name="Leaf" d="M6.1,5.947A240.432,240.432,0,0,1,29.606,61.6c3.213,11.684,5.46,23.673,7.692,35.575,3.457,18.43,6.726,36.858,7.656,55.615.936,18.866,2.786,40.625-3.392,58.8,3.086-18.448.148-38.085-.372-56.647-.249-8.861-.969-17.636-1.914-26.446-.917-8.546-2.415-17.051-3.81-25.53q-1.019-6.194-2.12-12.373c-.217-1.229-.309-4.878-1.088-5.718s-4.79-1.19-6.047-1.81a32.465,32.465,0,0,1-7.021-4.9A56.085,56.085,0,0,1,8.861,65.242C2.441,54.529-.125,41.455,0,29.047.03,26.638,3.9.7,2.348.341Q2.488.176,2.614,0,4.381,2.958,6.1,5.947Z" transform="translate(5.203)" fill="#7cc97f"/>
        <path id="Leaf-5" data-name="Leaf" d="M71.474,1.685c.154-.222,1.158-1.769.652-1.67,1.029-.2-1.415,1.706,1.149.536-1.217,1.15-.515,2.643-.5,4.191A37.529,37.529,0,0,1,71.91,12.2a51.173,51.173,0,0,1-3.478,11.279A50.54,50.54,0,0,1,51.821,43.866c-3.507,2.431-6.944,3.259-10.943,4.378-2.526.707-2.727,2.014-4.067,4.465-2.792,5.106-5.534,10.193-8,15.471-2.94,6.3-5.794,12.612-8.486,19.026C11.26,108.81,3.879,131.192,0,154.355c-.095-13.65,3.063-27.708,7.046-40.718A243.021,243.021,0,0,1,17.755,85.975c.976-2.191,2.456-5.01,2.87-7.429.29-1.7-.6-3.325-1-5.111a53.481,53.481,0,0,1-.08-21.734c1.534-7.709,5.969-11.286,13.473-12.378,2.744-.4,6.232-.253,8.748-1.423,2.741-1.274,3.872-5.462,5.431-8.151A110.851,110.851,0,0,1,62.069,9.515a48.253,48.253,0,0,1,5.087-4.68C68.295,3.925,70.7,2.805,71.474,1.685Z" transform="translate(47.694 66.771)" fill="#00a007"/>
        <path id="Base" d="M.814,2.484A2.168,2.168,0,0,1,2.959,0H29.588a2.168,2.168,0,0,1,2.145,2.484L29.675,16.44A8.672,8.672,0,0,1,21.1,23.847H11.451A8.672,8.672,0,0,1,2.872,16.44Z" transform="translate(32.071 206.384)" fill="#c9dcca"/>
      </g>
      <g id="humaaan-4" transform="translate(142.92 125.927)">
        <g id="Head-3" data-name="Head" transform="translate(66.033 9.713)">
          <path id="Head-4" data-name="Head" d="M0,41.706l4.719-22A15.481,15.481,0,0,1,.6,8.584C1.461-3.642,18.477-.952,21.786,5.218S24.7,27.042,20.426,28.145c-1.706.44-5.34-.638-9.039-2.868l2.322,16.429Z" transform="translate(0 0)" fill="#b28b67"/>
        </g>
        <path id="hair" d="M41.568,6.376A2.966,2.966,0,0,0,39.491,4.27a2.734,2.734,0,0,0-.764-.076c-.092,0-.118.03-.161-.034a.846.846,0,0,1-.046-.221,4.161,4.161,0,0,0-.155-.515,4.2,4.2,0,0,0-1.013-1.506A5.1,5.1,0,0,0,34.289.468,4.465,4.465,0,0,0,32.447.72a7.291,7.291,0,0,0-.894.382c-.087.044-.37.258-.458.244s-.291-.256-.37-.316A5.413,5.413,0,0,0,27.343,0a6.19,6.19,0,0,0-3.821.911,7.642,7.642,0,0,0-.69.573c-.115.107-.227.218-.333.334q-.1.1-.187.214c-.1.124-.086.165-.229.078A2.84,2.84,0,0,0,20.26,1.7a4.081,4.081,0,0,0-1.1.311c-.12.051-.4.255-.524.257s-.4-.187-.529-.235a4.34,4.34,0,0,0-2.2-.2,5.681,5.681,0,0,0-2.158.849,2.9,2.9,0,0,0-.8.727c-.094.13-.179.267-.286.388-.062.07-.186.143-.219.232a4.738,4.738,0,0,0-.914-.4,2.252,2.252,0,0,0-1.287.049A5.116,5.116,0,0,0,8.213,5.113a5.762,5.762,0,0,0-.751,1.009q-.153.26-.281.534a1.985,1.985,0,0,1-.123.278c-.07.1-.118.1-.245.149A3.958,3.958,0,0,0,5.126,8.211a3.887,3.887,0,0,0-.873,1.851.943.943,0,0,1-.035.228c-.032.03-.162.017-.211.022A4.447,4.447,0,0,0,3.5,10.4a4.181,4.181,0,0,0-.891.32A4.655,4.655,0,0,0,.329,13.447a5.529,5.529,0,0,0,.086,3.785,3.7,3.7,0,0,0,.281.554c.067.108.089.108.045.222s-.138.249-.2.372a5.344,5.344,0,0,0-.4,1.265,5.936,5.936,0,0,0-.07,2.187,3.159,3.159,0,0,0,.338.96,2.753,2.753,0,0,0,.3.429c.058.069.12.135.184.2a1.231,1.231,0,0,1,.117.108c.077.1.093.018.053.162a6.477,6.477,0,0,1-.257.6c-.079.2-.151.408-.216.616a9.089,9.089,0,0,0-.314,1.284,4.032,4.032,0,0,0,.285,2.494,2.5,2.5,0,0,0,.706.84,2.618,2.618,0,0,0,.463.282c.084.04.191.057.23.138s-.02.261-.034.359a5.981,5.981,0,0,0,.07,2.576A3.559,3.559,0,0,0,3.4,34.772,4.387,4.387,0,0,0,7.79,34.9a4.6,4.6,0,0,0,.979-.673c.751,1.012,2.3.98,3.4.691a4.877,4.877,0,0,0,3.1-2.56,2.064,2.064,0,0,0,3.279-.431,2.733,2.733,0,0,0,.277-.9c.023-.164.008-.329.025-.492a2.543,2.543,0,0,1,.24-.609,3.363,3.363,0,0,0,.255-1.214,6.165,6.165,0,0,0-.047-.652,2.241,2.241,0,0,1,.067-.573,2.618,2.618,0,0,1-1.109-.139,2.189,2.189,0,0,1-.857-.6,5,5,0,0,1-1.078-2.016c-.487-1.6-.288-3.513,1.318-4.389a8.272,8.272,0,0,1,3.88-.205c.937.212,2,2.28,2.051,2.474.032.12.016.269.127.349.243.176.643-.13.822-.281a3.244,3.244,0,0,0,.72-.958,11.859,11.859,0,0,0,.988-2.424c.183-.646.3-1.312.538-1.942a2.97,2.97,0,0,1,1.194-1.541,10.514,10.514,0,0,1,2.054-.832,5.1,5.1,0,0,0,1.9-1.044,2.626,2.626,0,0,0,.326-.363c.075-.1.148-.3.262-.37.177-.1.435.165.588.262a6.792,6.792,0,0,1,1.891,1.877,11.682,11.682,0,0,1,1.255,2.235,6.464,6.464,0,0,0,.844,1.864A3.561,3.561,0,0,0,39.2,19.6a2.685,2.685,0,0,0,1.159-1,1.559,1.559,0,0,0,.132-1.022c-.041-.206-.124-.4-.169-.6a1.874,1.874,0,0,0-.156-.486,1.2,1.2,0,0,0-.748-.6,3.512,3.512,0,0,0,.807-1.1,4.7,4.7,0,0,0,.418-1.427,1.733,1.733,0,0,0-.231-1.112,2.927,2.927,0,0,0-.949-.788,6.174,6.174,0,0,0,1.321-1.439A4.494,4.494,0,0,0,41.568,6.376Z" transform="translate(52.325 0)" fill="#191847"/>
        <path id="Leg" d="M0,0,27.463,72.687l19.25,53.574H57.689L31.228,0Z" transform="translate(61.464 98.838)" fill="#71c174"/>
        <path id="Leg-2" data-name="Leg" d="M44.047,0c-.3,24.941-.083,58.519-.778,60.074S0,95.5,0,95.5l5.657,9.623S56.2,72.52,58.786,68.176,74.353,23.86,81.107,0Z" transform="translate(10.629 98.838)" fill="#afd6b1"/>
        <path id="Shoe" d="M0,12.458.594,0H13.062c8.868,6.229,23.156,10.085,23.156,10.085v2.373H13.656L5.937,11.271v1.186Z" transform="translate(9.543 193.37) rotate(50)" fill="#191847"/>
        <path id="Shoe-2" data-name="Shoe" d="M0,12,.571,0H12.566C21.1,6,34.842,9.712,34.842,9.712V12h-21.7L5.712,10.855V12Z" transform="translate(107.158 223.386)" fill="#191847"/>
        <path id="Skin" d="M.7,72.069c-.637-.393-1.335-1.874.352-3.031,4.2-2.882,10.259-7.927,11.077-9.587,1.674-3.4,16.32-47.11,16.32-47.11l12.507.047S20.384,58.693,19.5,60.877c-1.321,3.276,1.475,8.266,2.671,10.947-1.885.844-2.761-.234-3.72-1.31-1.022-1.148-2.139-2.3-4.675-1.116C10.535,70.908,7.853,73.3,4.655,73.3A7.418,7.418,0,0,1,.7,72.069ZM99.292,7.119l22.551-3.077A36.636,36.636,0,0,1,132.98,0c1.066-.031,2.762.357.235,2.464s-3.777,3.381-3.327,4.505,2.9.829,3.292,2.558c.26,1.153-3.657,1.218-11.544.44l-18.3,7.257Z" transform="translate(11.293 69.044)" fill="#997659"/>
        <path id="Clothes_Back" data-name="Clothes Back" d="M0,.2,9.812,0c4.3,21.532,18.593,34.12,47.487,26.907l6.342,27.658C36.566,60.5,11.589,51.636,4.069,22.374,2.122,14.8.416,6.887,0,.2Z" transform="matrix(0.996, 0.087, -0.087, 0.996, 74.018, 41.504)" fill="#afb9c5"/>
        <path id="Clothes" d="M0,83.984Q10.2,29.706,43.052,0h.972l.008.009,14.838,3.4c0,25.526,8.129,41.812,12.3,60.58H31.1c-.564,6.485-.911,13.151-1.092,20Z" transform="translate(25.138 38.85)" fill="#c5cfd6"/>
        <path id="Shade" d="M8.144,37.365H0A193.843,193.843,0,0,1,6.594,0c-.44,7.4-.588,14.092-.441,19.885.187,7.373.857,13.254,1.992,17.479Z" transform="translate(56.234 65.473)" fill="rgba(0,0,0,0.1)"/>
      </g>
      <g id="Grupo_7" data-name="Grupo 7" transform="translate(278.514 202.523)">
        <path id="Icon_ionic-ios-key" data-name="Icon ionic-ios-key" d="M9.927,5.689a3.777,3.777,0,0,0-1.251.137C6.984,4.385,2.513.579,2.172.224A.675.675,0,0,0,1.67,0,1.116,1.116,0,0,0,.958.321C.727.542-.146,1.485.021,1.659c.5.515.635.619.843.829.311.318.946-.033,1.2.077a.493.493,0,0,1,.348.418,6.25,6.25,0,0,1-.1.793.837.837,0,0,0,.308.635.7.7,0,0,0,.522.291c.3.007.7-.428,1.017-.1s-.207.793-.167,1.137a1.263,1.263,0,0,0,.722.806c.2.043.729-.391,1.027-.324a.7.7,0,0,1,.368.381c.033.154-.231.836-.2.99a2.352,2.352,0,0,0,.348.582,3.767,3.767,0,0,0-.314,1.6,4.07,4.07,0,0,0,3.987,4.147,4.064,4.064,0,0,0,3.98-4.147A4.008,4.008,0,0,0,9.927,5.689Zm.776,6.083a1.07,1.07,0,1,1,1.07-1.07A1.069,1.069,0,0,1,10.7,11.772Z" transform="translate(9.839 22.313) rotate(-135)" fill="#84c587"/>
        <path id="Trazado_8" data-name="Trazado 8" d="M4.564,3.207S2.737-1.9,1.353.773s-2.364,6.215.466,6.508,3.8-1.666,3.446-2.407" transform="translate(5.952 0) rotate(16)" fill="none" stroke="#707070" stroke-width="1"/>
      </g>
      <g id="Grupo_9" data-name="Grupo 9" transform="translate(363.437 234.619)">
        <path id="Leg-3" data-name="Leg" d="M38.923,0,18.885,69.049,9.46,120.892H0L9.443,0Z" transform="translate(21.797)" fill="#997659"/>
        <path id="Leg-4" data-name="Leg" d="M34.843,0c-1.4,35.871-.847,55.436-.534,58.695S36.4,83.78,48.5,121.986H38.666C22.633,85.334,17.037,63.507,15.2,58.695S7.929,34.317,0,0Z" transform="translate(34.882)" fill="#b28b67"/>
        <path id="Pant" d="M41.028,0Q33.21,35.64,13.984,113.781H.148C-.874,60.312,3.473,25.12,11,0Z" transform="translate(20.122 0)" fill="#b5b5b5"/>
        <path id="Pant-2" data-name="Pant" d="M37.031,0C35.662,35.871,39.211,71.21,50.2,114.34H35.441A484.561,484.561,0,0,1,0,0Z" transform="translate(32.764)" fill="#7b7b7b"/>
        <path id="Shoe-3" data-name="Shoe" d="M32.882,9.846l-.514-8.284a.547.547,0,0,0-.5-.511L20.4,0,.714,7.307A1.094,1.094,0,0,0,.042,8.631l.81,2.857H31.8Z" transform="translate(0 119.251)" fill="#191847"/>
        <path id="Shoe-4" data-name="Shoe" d="M32.882,9.846l-.514-8.284a.547.547,0,0,0-.5-.511L20.4,0,.714,7.307A1.094,1.094,0,0,0,.042,8.631l.81,2.857H31.8Z" transform="translate(51.42 119.251)" fill="#191847"/>
      </g>
      <g id="Grupo_8" data-name="Grupo 8" transform="translate(338.396 160.224)">
        <path id="Skin-2" data-name="Skin" d="M29.737,8.369l8.34,4.582s1.755,6.679,4.2,6.721c.63.293.389-.99.3-2.272-.089-1.263-.032-2.527,1.144-2.285,2.37.488,8.155,4.79,9.152,3.917,1.475-1.293.16-5.261-1.389-7.235-2.9-3.689-5.293-4.951-11.219-6.6C35.614,3.9,30.212,0,30.212,0ZM0,17.144l18.987,10.4a46.972,46.972,0,0,0,9.333,8.736c.936.391,2.574.628,1.043-2.09s-3.02-5.646-2.24-6.483c.343-.368.91-.348,1.518-.328a2.175,2.175,0,0,0,2.138-.731q.931-1.391-9.971-4.4L7.012,9.618Z" transform="translate(53.512 40.502) rotate(180)" fill="#997659"/>
        <path id="Sleeve" d="M3.011,13.325a46.653,46.653,0,0,1,25.844,3.481L31.23,8.04C23.77,2.663,13.872-1.158,5.981.32A7.25,7.25,0,0,0,3.011,13.325Z" transform="translate(63.649 34.674) rotate(-171)" fill="#48999a"/>
        <path id="Clothes-2" data-name="Clothes" d="M18.282,1.287C11.6,2.155,5.388,3.023,1.777,2.312-4.414,22.418,7.557,30.588,7.566,43.453c.011,14.088,11.323,35.774,12.987,35.774H35.732c.837-10.754,5.048-22.606,8.507-34.315,11.03-2.5,35.524,6.212,35.524,6.212s6.184-12.792,5.717-18.24C71.222,25.437,59,22.117,48.936,21.9a34.647,34.647,0,0,0-2.85-16.851C44.259,1.162,39.2,0,33.033,0A119.986,119.986,0,0,0,18.282,1.287Z" transform="translate(98.048 79.227) rotate(180)" fill="#6ca0a0"/>
      </g>
      <path id="Trazado_9" data-name="Trazado 9" d="M53.492,52.263v52.956H63.678V52.263h52.59V0H0V52.263Z" transform="translate(0 238.902) rotate(-7)" fill="#d0ded1"/>
    </g>
  </g>
</svg>
