<svg width="35" height="35" viewBox="0 0 35 35" fill="none" xmlns="http://www.w3.org/2000/svg">
<path fill-rule="evenodd" clip-rule="evenodd" d="M17.4827 3.80623C19.7061 3.72287 21.9326 3.78483 24.148 3.99171C25.2228 3.97811 26.2905 4.16641 27.2958 4.54682C28.6834 5.19593 29.7972 6.31405 30.441 7.70408C30.8214 8.70937 31.0097 9.77715 30.9961 10.8519C30.9961 12.5186 31.1816 13.0737 31.1816 17.5172C31.265 19.7407 31.203 21.9672 30.9961 24.1826C31.0097 25.2573 30.8214 26.3251 30.441 27.3304C29.7943 28.7156 28.6803 29.8287 27.2945 30.4742C26.2892 30.8546 25.2214 31.0429 24.1466 31.0293C22.48 31.0293 21.9249 31.2148 17.4813 31.2148C15.2579 31.2982 13.0314 31.2362 10.816 31.0293C9.74213 31.0426 8.6753 30.8543 7.67085 30.4742C6.2826 29.8291 5.16647 28.7149 4.51896 27.3277C4.13855 26.3224 3.95026 25.2547 3.96386 24.1799C3.96386 22.5132 3.77837 21.9581 3.77837 17.5146C3.69501 15.2911 3.75697 13.0646 3.96386 10.8492C3.95059 9.77536 4.13889 8.70853 4.51896 7.70408C4.84201 7.01728 5.28024 6.39085 5.81466 5.85193C6.24937 5.20209 6.91152 4.73844 7.67085 4.5522C8.67614 4.17179 9.74392 3.98349 10.8187 3.99709C13.0335 3.78847 15.2596 3.72471 17.4827 3.80623ZM17.4827 0.849242C15.1961 0.767656 12.9067 0.829605 10.6278 1.03473C9.23654 1.03155 7.85636 1.28253 6.55525 1.77532C5.43349 2.14273 4.41842 2.77853 3.59827 3.62747C2.74731 4.44832 2.11006 5.46487 1.74208 6.58849C1.16086 7.86345 0.906336 9.2631 1.00149 10.6611C0.796372 12.9399 0.734422 15.2293 0.816008 17.5159C0.734422 19.8025 0.796372 22.0919 1.00149 24.3707C0.998154 25.7625 1.24914 27.1431 1.74208 28.4447C2.10949 29.5664 2.74529 30.5815 3.59423 31.4017C4.41439 32.2506 5.42946 32.8864 6.55122 33.2538C7.85275 33.7467 9.2334 33.9977 10.6251 33.9944C12.904 34.1995 15.1934 34.2615 17.48 34.1799C19.7666 34.2615 22.056 34.1995 24.3348 33.9944C25.7266 33.9977 27.1072 33.7467 28.4087 33.2538C29.5241 32.8695 30.5373 32.2363 31.3715 31.4021C32.2057 30.5679 32.839 29.5547 33.2233 28.4393C33.7162 27.1378 33.9672 25.7571 33.9639 24.3654C33.9639 22.5132 34.1493 21.9581 34.1493 17.5105C34.2309 15.224 34.169 12.9345 33.9639 10.6557C33.9672 9.26394 33.7162 7.8833 33.2233 6.58177C32.8559 5.46 32.22 4.44493 31.3711 3.62478C30.551 2.77584 29.5359 2.14004 28.4141 1.77263C27.1116 1.28028 25.73 1.0302 24.3375 1.03473C22.0587 0.829605 19.7692 0.767656 17.4827 0.849242ZM17.4827 8.99574C16.3586 8.97683 15.2422 9.18429 14.1999 9.60578C13.1576 10.0273 12.2108 10.6541 11.4159 11.4491C10.6209 12.2441 9.99403 13.1909 9.57254 14.2331C9.15106 15.2754 8.9436 16.3918 8.96251 17.5159C8.96304 19.2003 9.46297 20.8467 10.3991 22.2469C11.3352 23.6472 12.6655 24.7385 14.2217 25.3828C15.778 26.0272 17.4903 26.1956 19.1423 25.8669C20.7943 25.5382 22.3117 24.727 23.5027 23.536C24.6938 22.3449 25.5049 20.8275 25.8337 19.1756C26.1624 17.5236 25.9939 15.8112 25.3496 14.255C24.7053 12.6987 23.614 11.3684 22.2137 10.4323C20.8134 9.4962 19.167 8.99628 17.4827 8.99574ZM17.4827 23.0683C16.7495 23.0822 16.021 22.9481 15.3408 22.674C14.6606 22.3999 14.0426 21.9915 13.5238 21.4732C13.005 20.9549 12.596 20.3374 12.3213 19.6574C12.0466 18.9775 11.9117 18.2491 11.9249 17.5159C11.911 16.7822 12.0453 16.0533 12.3197 15.3727C12.5941 14.6922 13.0029 14.0739 13.5218 13.5551C14.0407 13.0362 14.6589 12.6273 15.3395 12.3529C16.0201 12.0785 16.749 11.9442 17.4827 11.9581C18.2159 11.945 18.9442 12.0798 19.6242 12.3545C20.3041 12.6292 20.9217 13.0382 21.44 13.557C21.9583 14.0758 22.3667 14.6938 22.6408 15.374C22.9148 16.0542 23.0489 16.7827 23.0351 17.5159C23.0482 18.2487 22.9136 18.9766 22.6392 19.6561C22.3648 20.3357 21.9563 20.953 21.438 21.4713C20.9198 21.9895 20.3025 22.398 19.6229 22.6724C18.9433 22.9468 18.2154 23.0814 17.4827 23.0683ZM26.3671 6.58849C25.9643 6.58849 25.5706 6.70791 25.2358 6.93166C24.9009 7.15541 24.6399 7.47344 24.4858 7.84552C24.3317 8.21761 24.2913 8.62704 24.3699 9.02204C24.4485 9.41704 24.6424 9.77987 24.9272 10.0647C25.212 10.3494 25.5748 10.5434 25.9698 10.6219C26.3648 10.7005 26.7742 10.6602 27.1463 10.5061C27.5184 10.3519 27.8364 10.0909 28.0602 9.75608C28.2839 9.42121 28.4034 9.02752 28.4034 8.62478C28.3985 8.08624 28.1823 7.57115 27.8015 7.19033C27.4207 6.80951 26.9056 6.5934 26.3671 6.58849Z" fill="white"/>
</svg>
