<svg xmlns="http://www.w3.org/2000/svg" width="682.065" height="150" viewBox="0 0 682.065 150">
  <g id="Grupo_2994" data-name="Grupo 2994" transform="translate(2393 -2461)">
    <g id="Grupo_2986" data-name="Grupo 2986" transform="translate(-3150.13 637)">
      <path id="Exclusión_3" data-name="Exclusión 3" d="M3209.091-564.382h-33v-27.656h-13.588v27.656h-6.565V-604.73h-7.693v-.053l34.375-32.224,35.29,31.524h-8.823v41.1Zm-20.234-30.549v15.72h12.983v-15.72Z" transform="translate(-1848.119 2532.007)" fill="#00a72c"/>
    </g>
    <g id="Grupo_2985" data-name="Grupo 2985" transform="translate(-3260 625.905)">
      <path id="Trazado_51" data-name="Trazado 51" d="M-1246.475,687.724v32.543h21.369v-7.22s2.4-6.425,8.018-6.526,8.132,6.225,8.132,6.225v7.52h21.687V687.724h6.626l-14.647-15.8V650.618h3.1V646.7h-12.952v3.112h2.309v12.631l-13.555-15.563-36.345,40.689Z" transform="translate(2427.731 1258.392)" fill="#00a72c"/>
    </g>
    <path id="Exclusión_2" data-name="Exclusión 2" d="M76,74.075H62V72.158H76v1.917ZM62,72.159H0V22.649L25.312,2.75l13.614,10.9V0H46.19V19.467l3.974,3.181V44.967L68.111,32.909,85.724,44.967v27.19H76V59.075H62V72.158ZM24,20.075A11,11,0,1,0,31.778,23.3,10.929,10.929,0,0,0,24,20.075Z" transform="translate(-2349.5 2531.5)" fill="#00a72c" stroke="#00a72c" stroke-linecap="round" stroke-width="2"/>
    <g id="Grupo_2990" data-name="Grupo 2990" transform="translate(53.45 191.453)">
      <path id="Trazado_1219" data-name="Trazado 1219" d="M-1986.45,2413.541V2271.547h42.883v73.447h31.757v68.547h-44.562v-28.893h-17.879v28.893Z" fill="#00a72c"/>
    </g>
    <g id="Grupo_2991" data-name="Grupo 2991" transform="translate(-0.204 188.321)">
      <path id="Trazado_1213" data-name="Trazado 1213" d="M191.735,409.137c.114,24.758-17.3,44.909-17.3,44.909s-17.6-19.99-17.718-44.748,17.3-44.909,17.3-44.909S191.621,384.379,191.735,409.137Z" transform="translate(-2549.507 1944.29)" fill="#00a72c"/>
      <rect id="Rectángulo_2561" data-name="Rectángulo 2561" width="3.792" height="21.871" transform="translate(-2377.18 2394.788)" fill="#00a72c"/>
    </g>
    <g id="Grupo_2992" data-name="Grupo 2992" transform="translate(12.157 192.869)">
      <rect id="Rectángulo_2558" data-name="Rectángulo 2558" width="3.792" height="21.871" transform="translate(-2240.108 2390.788)" fill="#00a72c"/>
      <path id="Trazado_1214" data-name="Trazado 1214" d="M214.6,409.137c.189,24.758-28.6,44.909-28.6,44.909s-29.1-19.99-29.286-44.748,28.6-44.909,28.6-44.909S214.413,384.379,214.6,409.137Z" transform="translate(-2423.869 1941.742)" fill="#00a72c"/>
    </g>
    <g id="Grupo_2993" data-name="Grupo 2993" transform="translate(7.476 190.067)">
      <rect id="Rectángulo_2559" data-name="Rectángulo 2559" width="2.792" height="18.871" transform="translate(-1998.4 2396.336)" fill="#00a72c"/>
      <path id="Trazado_1216" data-name="Trazado 1216" d="M185.656,386.763c.094,12.379-14.3,22.455-14.3,22.455s-14.549-9.995-14.643-22.374,14.3-22.455,14.3-22.455S185.562,374.384,185.656,386.763Z" transform="translate(-2168.188 1988.544)" fill="#00a72c"/>
      <path id="Trazado_1217" data-name="Trazado 1217" d="M185.656,386.763c.094,12.379-14.3,22.455-14.3,22.455s-14.549-9.995-14.643-22.374,14.3-22.455,14.3-22.455S185.562,374.384,185.656,386.763Z" transform="translate(-2135.188 1989.119)" fill="#00a72c"/>
      <rect id="Rectángulo_2562" data-name="Rectángulo 2562" width="2.792" height="18.871" transform="translate(-1965.4 2396.336)" fill="#00a72c"/>
    </g>
    <path id="Trazado_1220" data-name="Trazado 1220" d="M-2241.707,2414.392v-76.726h24.654V2270.7h42.926v66.965h27.8v76.726H-2182.8v-24.945h-23.261v24.945Z" transform="translate(52.707 190.299)" fill="#00a72c"/>
    <path id="Exclusión_4" data-name="Exclusión 4" d="M54.917,83.111H36.841V68.5H25.685V83.11H6.19V28.363L0,22.753,31.493,0,61.065,21.835l-6.148,6.529V83.11ZM33.532,46.642v13h13v-13h-13Zm-19,0v13h13v-13Zm19-17v13h13v-13h-13Zm-19,0v13h13v-13Z" transform="translate(-1772 2522)" fill="#00a72c"/>
    <rect id="Rectángulo_2568" data-name="Rectángulo 2568" width="661" height="7" transform="translate(-2378 2604)" fill="#00a72c"/>
  </g>
</svg>
