<svg xmlns="http://www.w3.org/2000/svg" width="185.912" height="52.754" viewBox="0 0 185.912 52.754">
  <g id="Grupo_2442" data-name="Grupo 2442" transform="translate(-74.088 -3586.433)">
    <g id="Grupo_2427" data-name="Grupo 2427" transform="translate(75.588 3588)">
      <path id="Trazado_1" data-name="Trazado 1" d="M3831.074,239.2H3810.1a2.1,2.1,0,0,1-2.1-2.1V222.375a2.1,2.1,0,0,1,.937-1.75l20.937-13.958a2.1,2.1,0,0,1,2.379.032l19.723,13.922a2.1,2.1,0,0,1,.891,1.718v14.753a2.1,2.1,0,0,1-2.1,2.1h-6.87" transform="translate(-3808 -206.314)" fill="none" stroke="#4a4a4a" stroke-linecap="round" stroke-miterlimit="10" stroke-width="3"/>
      <path id="Trazado_2" data-name="Trazado 2" d="M3868.018,329.826l8.714-8.713a13.061,13.061,0,0,0,3.888-10.288c-.434-5.035-3.138-12.218-13.429-12.218-8.973,0-12.178,5.448-13.139,9.614a12.96,12.96,0,0,0,3.23,11.532l9.122,10.035A1.116,1.116,0,0,0,3868.018,329.826Z" transform="translate(-3844.757 -280.467)" fill="none" stroke="#4a4a4a" stroke-miterlimit="10" stroke-width="3"/>
    </g>
    <text id="Text_field" data-name="Text field" transform="translate(124 3623)" fill="#4a4a4a" font-size="34" font-family="Comfortaa-Bold, Comfortaa" font-weight="700"><tspan x="0" y="0">Propins</tspan></text>
  </g>
</svg>
