<svg xmlns="http://www.w3.org/2000/svg" width="146.756" height="42.18" viewBox="0 0 146.756 42.18">
  <g id="Grupo_61" data-name="Grupo 61" transform="translate(-486 -207.548)">
    <path id="Trazado_1313" data-name="Trazado 1313" d="M522.363,220.041l-17.015-12.259a1.242,1.242,0,0,0-1.441-.007l-17.382,12.259a1.239,1.239,0,0,0-.525,1.013v11.527a3.439,3.439,0,0,0,3.436,3.436h3.559a11.6,11.6,0,0,0,2.588,5.175,1.305,1.305,0,0,0,.177.228l7.794,7.943a1.24,1.24,0,0,0,1.771,0l7.793-7.943a.833.833,0,0,0,.14-.179,11.7,11.7,0,0,0,2.625-5.224h3.559a3.439,3.439,0,0,0,3.436-3.436V221.047A1.242,1.242,0,0,0,522.363,220.041ZM504.8,236.01a1.24,1.24,0,1,0,0-2.481h-9.6a9.23,9.23,0,1,1,16.083,6.183.368.368,0,0,0-.068.088l-6.785,6.916-6.748-6.871a1.132,1.132,0,0,0-.1-.133,9.21,9.21,0,0,1-2.028-3.7Zm15.592-3.436a.956.956,0,0,1-.955.955H516.15a11.711,11.711,0,0,0-23.421,0h-3.293a.956.956,0,0,1-.955-.955V221.69l16.134-11.378,15.782,11.37Z" fill="#fff"/>
    <g id="Grupo_60" data-name="Grupo 60">
      <path id="Trazado_1314" data-name="Trazado 1314" d="M544.521,217.006a7.4,7.4,0,0,0-2.7-1.456,12.646,12.646,0,0,0-3.751-.5h-6.495a.4.4,0,0,0-.4.4v22a.4.4,0,0,0,.4.4h2.964a.4.4,0,0,0,.4-.4v-7.83h3.132a11.509,11.509,0,0,0,3.643-.535,7.736,7.736,0,0,0,2.71-1.516,6.473,6.473,0,0,0,1.677-2.339,7.582,7.582,0,0,0,.569-2.966,8,8,0,0,0-.527-2.957A5.96,5.96,0,0,0,544.521,217.006Zm-6.452,9.45h-3.132V218.2h3.132a5.32,5.32,0,0,1,3.654,1.078,3.81,3.81,0,0,1,1.167,2.99,4.577,4.577,0,0,1-.31,1.71,3.527,3.527,0,0,1-.9,1.3,4.2,4.2,0,0,1-1.5.861A6.475,6.475,0,0,1,538.069,226.456Z" fill="#fff"/>
      <path id="Trazado_1315" data-name="Trazado 1315" d="M558.2,221.381a5.053,5.053,0,0,0-4.275.837,6.819,6.819,0,0,0-1.427,1.543l-.089-1.171a1.39,1.39,0,0,0-.344-.808,1.216,1.216,0,0,0-.9-.285H549.6a.4.4,0,0,0-.4.4v15.554a.4.4,0,0,0,.4.4h2.733a.4.4,0,0,0,.4-.4v-9.824a5.8,5.8,0,0,1,1.467-2.188,3.106,3.106,0,0,1,2.126-.732,3.8,3.8,0,0,1,1.119.127,2.686,2.686,0,0,0,.785.165.87.87,0,0,0,.87-.715l.353-2.042a.4.4,0,0,0-.192-.414A4.532,4.532,0,0,0,558.2,221.381Z" fill="#fff"/>
      <path id="Trazado_1316" data-name="Trazado 1316" d="M573.977,223.561a6.933,6.933,0,0,0-2.476-1.711,9.052,9.052,0,0,0-6.462,0,6.98,6.98,0,0,0-2.483,1.71,7.611,7.611,0,0,0-1.573,2.664,11.17,11.17,0,0,0,0,6.893,7.638,7.638,0,0,0,1.573,2.656,6.912,6.912,0,0,0,2.485,1.7,9.145,9.145,0,0,0,6.458,0,6.835,6.835,0,0,0,2.478-1.705,7.59,7.59,0,0,0,1.557-2.656,11.336,11.336,0,0,0,0-6.889A7.576,7.576,0,0,0,573.977,223.561Zm-5.707.64a3.579,3.579,0,0,1,3.116,1.387,8.4,8.4,0,0,1,0,8.163,3.588,3.588,0,0,1-3.117,1.38,4.414,4.414,0,0,1-1.858-.361,3.4,3.4,0,0,1-1.288-1.027,4.634,4.634,0,0,1-.789-1.69,10.508,10.508,0,0,1,0-4.751,4.722,4.722,0,0,1,.79-1.707,3.355,3.355,0,0,1,1.287-1.032A4.4,4.4,0,0,1,568.27,224.2Z" fill="#fff"/>
      <path id="Trazado_1317" data-name="Trazado 1317" d="M592.026,223.259a5.726,5.726,0,0,0-1.981-1.674,5.592,5.592,0,0,0-2.537-.579,6.364,6.364,0,0,0-3.086.725,8.315,8.315,0,0,0-1.761,1.291l-.151-.719a1.193,1.193,0,0,0-.511-.772,1.532,1.532,0,0,0-.847-.233h-2.319a.4.4,0,0,0-.4.4v20.9a.4.4,0,0,0,.4.4h3.793a.4.4,0,0,0,.4-.4v-5.588a5.879,5.879,0,0,0,1.1.634,6.038,6.038,0,0,0,2.425.441,6.53,6.53,0,0,0,5.249-2.5,8.439,8.439,0,0,0,1.428-2.739,11.261,11.261,0,0,0,.5-3.391,13.1,13.1,0,0,0-.438-3.541A7.915,7.915,0,0,0,592.026,223.259Zm-3.014,6.192a9.144,9.144,0,0,1-.248,2.271,4.454,4.454,0,0,1-.68,1.53,2.618,2.618,0,0,1-1.027.857,3.773,3.773,0,0,1-2.874,0,3.121,3.121,0,0,1-1.157-.887v-6.777a5.361,5.361,0,0,1,1.363-1.2,3.505,3.505,0,0,1,1.814-.442,2.749,2.749,0,0,1,1.175.239,2.118,2.118,0,0,1,.845.74,4.139,4.139,0,0,1,.577,1.421A10.179,10.179,0,0,1,589.012,229.451Z" fill="#fff"/>
      <rect id="Rectángulo_729" data-name="Rectángulo 729" width="4.592" height="16.553" rx="0.4" transform="translate(596.044 221.298)" fill="#fff"/>
      <path id="Trazado_1318" data-name="Trazado 1318" d="M600.354,215.1a2.961,2.961,0,0,0-.9-.6,2.814,2.814,0,0,0-2.2,0,2.815,2.815,0,0,0-1.481,1.49,2.782,2.782,0,0,0-.224,1.111,2.627,2.627,0,0,0,.226,1.083,2.9,2.9,0,0,0,.6.873,2.848,2.848,0,0,0,.882.6,2.7,2.7,0,0,0,1.09.226,2.8,2.8,0,0,0,1.11-.225,2.978,2.978,0,0,0,.9-.6,2.94,2.94,0,0,0,.612-.869,2.554,2.554,0,0,0,.237-1.09,2.716,2.716,0,0,0-.234-1.116A2.886,2.886,0,0,0,600.354,215.1Z" fill="#fff"/>
      <path id="Trazado_1319" data-name="Trazado 1319" d="M617.193,222.86a4.939,4.939,0,0,0-1.811-1.337,6.057,6.057,0,0,0-2.448-.471,7.094,7.094,0,0,0-1.563.163,6.131,6.131,0,0,0-1.354.476,7.45,7.45,0,0,0-1.185.731c-.178.134-.353.276-.523.426l-.124-.586a1.331,1.331,0,0,0-1.347-.964H604.52a.4.4,0,0,0-.4.4v15.753a.4.4,0,0,0,.4.4h3.792a.4.4,0,0,0,.4-.4V226.227a6.126,6.126,0,0,1,1.412-1.027,3.575,3.575,0,0,1,1.658-.4,2.082,2.082,0,0,1,1.7.648,3,3,0,0,1,.574,1.976v10.027a.4.4,0,0,0,.4.4h3.792a.4.4,0,0,0,.4-.4V227.424a8.45,8.45,0,0,0-.364-2.538A5.8,5.8,0,0,0,617.193,222.86Z" fill="#fff"/>
      <path id="Trazado_1320" data-name="Trazado 1320" d="M632.386,230.657a4.153,4.153,0,0,0-.969-1.283,5.385,5.385,0,0,0-1.335-.863c-.469-.213-.957-.406-1.45-.574s-.962-.318-1.427-.458a8.224,8.224,0,0,1-1.177-.445,2.625,2.625,0,0,1-.76-.523.786.786,0,0,1-.219-.576,1.075,1.075,0,0,1,.482-.922,2.555,2.555,0,0,1,1.529-.4,4.189,4.189,0,0,1,1.14.138,6.482,6.482,0,0,1,.887.324c.274.127.514.241.722.342a1.5,1.5,0,0,0,1.4.04,1.377,1.377,0,0,0,.459-.479l.859-1.365a.4.4,0,0,0-.058-.5,7.115,7.115,0,0,0-2.358-1.5,8.311,8.311,0,0,0-3.112-.566,8.181,8.181,0,0,0-2.7.414,6.037,6.037,0,0,0-1.988,1.12,4.745,4.745,0,0,0-1.231,1.668,4.944,4.944,0,0,0-.418,2,4.754,4.754,0,0,0,.365,1.945,4.193,4.193,0,0,0,.968,1.373,5.252,5.252,0,0,0,1.344.9,13.8,13.8,0,0,0,1.472.594q.737.247,1.443.458a8.07,8.07,0,0,1,1.183.444,2.526,2.526,0,0,1,.756.527.882.882,0,0,1,.223.633,1.425,1.425,0,0,1-.114.558,1.182,1.182,0,0,1-.347.454,2.064,2.064,0,0,1-.671.351,3.311,3.311,0,0,1-1.032.141,3.934,3.934,0,0,1-1.287-.177,6.249,6.249,0,0,1-.914-.4c-.268-.151-.505-.289-.71-.42a1.54,1.54,0,0,0-2.207.468l-.875,1.444a.4.4,0,0,0,.075.505,6.836,6.836,0,0,0,1.133.815,8.649,8.649,0,0,0,1.384.645,9.8,9.8,0,0,0,1.553.424,9.091,9.091,0,0,0,1.664.153,8.948,8.948,0,0,0,2.821-.412,6.118,6.118,0,0,0,2.11-1.169,5.04,5.04,0,0,0,1.316-1.8,5.648,5.648,0,0,0,.447-2.255A4.091,4.091,0,0,0,632.386,230.657Z" fill="#fff"/>
    </g>
  </g>
</svg>
