<svg xmlns="http://www.w3.org/2000/svg" width="441.505" height="122.267" viewBox="0 0 441.505 122.267">
  <g id="Grupo_2286" data-name="Grupo 2286" transform="translate(-486.105 -727.467)">
    <g id="Grupo_2139" data-name="Grupo 2139" transform="translate(489.606 731.124)">
      <path id="Trazado_1" data-name="Trazado 1" d="M3861.456,282.492h-48.583a4.872,4.872,0,0,1-4.873-4.873v-34.1a4.872,4.872,0,0,1,2.17-4.054l48.5-32.336a4.872,4.872,0,0,1,5.512.073l45.693,32.254a4.872,4.872,0,0,1,2.063,3.981v34.179a4.872,4.872,0,0,1-4.873,4.873h-15.916" transform="translate(-3808 -206.314)" fill="none" stroke="#4d4e53" stroke-linecap="round" stroke-miterlimit="10" stroke-width="7"/>
      <path id="Trazado_2" data-name="Trazado 2" d="M3886.805,370.934l20.187-20.187A30.259,30.259,0,0,0,3916,326.912c-1.006-11.664-7.27-28.305-31.111-28.305-20.789,0-28.213,12.622-30.441,22.273-2.2,9.516.913,19.491,7.483,26.718l21.134,23.247A2.585,2.585,0,0,0,3886.805,370.934Z" transform="translate(-3832.917 -256.581)" fill="none" stroke="#4d4e53" stroke-miterlimit="10" stroke-width="7"/>
    </g>
    <text id="Text_field" data-name="Text field" transform="translate(601.611 809.729)" fill="#4d4e53" font-size="82" font-family="Comfortaa-Bold, Comfortaa" font-weight="700"><tspan x="0" y="0">Propins</tspan></text>
  </g>
</svg>
