<svg id="logo-plive" xmlns="http://www.w3.org/2000/svg" width="174.052" height="46.408" viewBox="0 0 174.052 46.408">
  <g id="Grupo_650" data-name="Grupo 650" transform="translate(37.442)">
    <path id="Trazado_1413" data-name="Trazado 1413" d="M27.06,46.408H140.812L163.67,0H47.58Z" transform="translate(-27.06)" fill="#0060f4"/>
  </g>
  <g id="Grupo_651" data-name="Grupo 651">
    <path id="Trazado_1414" data-name="Trazado 1414" d="M0,46.408H25.418L48.276,0H20.52Z" fill="#0060f4"/>
  </g>
  <g id="Grupo_652" data-name="Grupo 652" transform="translate(71.66 11.803)">
    <path id="Trazado_1415" data-name="Trazado 1415" d="M51.79,33.5,57.1,8.54h5.272l-4.4,20.589h8.814L65.862,33.5Z" transform="translate(-51.79 -8.526)" fill="#fff"/>
    <path id="Trazado_1416" data-name="Trazado 1416" d="M64.99,33.5,70.359,8.54H75.6L70.234,33.5Z" transform="translate(-46.726 -8.526)" fill="#fff"/>
    <path id="Trazado_1417" data-name="Trazado 1417" d="M80.857,28.4a48.09,48.09,0,0,1,1.9-4.829l7.43-15.027H95.62L82.752,33.505H77L74.81,8.53h5.078l.872,15.027c.042.512.069,1.273.069,2.269-.028,1.176-.055,2.02-.111,2.56h.138Z" transform="translate(-42.958 -8.53)" fill="#fff"/>
    <path id="Trazado_1418" data-name="Trazado 1418" d="M102.268,33.5H88.21L93.523,8.54H107.6l-.927,4.331H97.854L96.706,18.35h8.205l-.941,4.331H95.765l-1.384,6.434H103.2Z" transform="translate(-37.817 -8.526)" fill="#fff"/>
  </g>
</svg>
