 <svg xmlns="http://www.w3.org/2000/svg" width="22.524" height="22.524" viewBox="0 0 22.524 22.524">
  <path id="Icon_open-magnifying-glass" data-name="Icon open-magnifying-glass" d="M9.766-.017a9.766,9.766,0,0,0,0,19.532A9.652,9.652,0,0,0,14.4,18.371a2.79,2.79,0,0,0,.363.363l2.79,2.79a2.846,2.846,0,1,0,4.018-4.018l-2.79-2.79a2.79,2.79,0,0,0-.446-.363A9.635,9.635,0,0,0,19.56,9.721,9.777,9.777,0,0,0,9.794-.045Zm0,2.79a6.943,6.943,0,0,1,6.976,6.976,7,7,0,0,1-1.842,4.8l-.084.084a2.79,2.79,0,0,0-.363.363,6.982,6.982,0,0,1-4.715,1.758,6.976,6.976,0,0,1,0-13.951Z" transform="translate(0 0.045)" fill="#48999a"/>
</svg>
