<svg xmlns="http://www.w3.org/2000/svg" width="105.395" height="78.819" viewBox="0 0 105.395 78.819">
  <g id="modelo-3" transform="translate(-408 -442)">
    <g id="noun_applicant_1333595" transform="translate(433 458)">
      <g id="Grupo_544" data-name="Grupo 544" transform="translate(1 1)">
        <g id="Grupo_521" data-name="Grupo 521">
          <g id="Grupo_520" data-name="Grupo 520">
            <path id="Trazado_1493" data-name="Trazado 1493" d="M51.3,17.2h0L34.719,1.281h0A1.012,1.012,0,0,0,34.064,1H1.937A.885.885,0,0,0,1,1.937V61.882a.885.885,0,0,0,.937.937H50.642a.885.885,0,0,0,.937-.937V17.953A1.064,1.064,0,0,0,51.3,17.2ZM35,4.091,48.3,16.923H35ZM49.706,60.945H2.873V2.873H33.127v15.08a.885.885,0,0,0,.937.937H49.706V60.945Z" transform="translate(-1 -1)" fill="#00a72c"/>
          </g>
        </g>
        <g id="Grupo_523" data-name="Grupo 523" transform="translate(52.449 19.482)">
          <g id="Grupo_522" data-name="Grupo 522">
            <path id="Trazado_1494" data-name="Trazado 1494" d="M66.366,51.117l-.187-21.168h0v-3.84A4.185,4.185,0,0,0,62.151,21.8H60.934A4.133,4.133,0,0,0,57,26.2l.281,24.915V51.4l3.84,12.083a.93.93,0,0,0,.937.656h0a1.128,1.128,0,0,0,.937-.656L66.366,51.4ZM58.779,30.885h5.433l.281,19.295H59.06Zm2.061-7.212h1.218a2.31,2.31,0,0,1,2.154,2.435v2.81H58.779v-2.81A2.3,2.3,0,0,1,60.84,23.673Zm1.03,36.342-2.529-7.868h4.777Z" transform="translate(-56.996 -21.8)" fill="#00a72c"/>
          </g>
        </g>
        <g id="Grupo_525" data-name="Grupo 525" transform="translate(32.999 23.365)">
          <g id="Grupo_524" data-name="Grupo 524">
            <path id="Trazado_1495" data-name="Trazado 1495" d="M46.88,26.184,40.042,31.9l-2.061-3.185a.948.948,0,1,0-1.592,1.03l2.623,4.028a.948.948,0,0,0,.656.375,1.009,1.009,0,0,0,.749-.187L48,27.589a.91.91,0,0,0,.094-1.311A.783.783,0,0,0,46.88,26.184Z" transform="translate(-36.231 -25.945)" fill="#00a72c"/>
          </g>
        </g>
        <g id="Grupo_527" data-name="Grupo 527" transform="translate(29.317 20.513)">
          <g id="Grupo_526" data-name="Grupo 526">
            <path id="Trazado_1496" data-name="Trazado 1496" d="M33.237,37.7H46.069a.885.885,0,0,0,.937-.937V31.7a.937.937,0,0,0-1.873,0v4.121H34.173V24.773h11.9a.937.937,0,0,0,0-1.873H33.237a.885.885,0,0,0-.937.937V36.762A.885.885,0,0,0,33.237,37.7Z" transform="translate(-32.3 -22.9)" fill="#00a72c"/>
          </g>
        </g>
        <g id="Grupo_529" data-name="Grupo 529" transform="translate(9.46 4.871)">
          <g id="Grupo_528" data-name="Grupo 528">
            <path id="Trazado_1497" data-name="Trazado 1497" d="M16.533,17.065A5.433,5.433,0,1,0,11.1,11.633,5.436,5.436,0,0,0,16.533,17.065Zm0-8.9a3.559,3.559,0,1,1-3.559,3.559A3.558,3.558,0,0,1,16.533,8.167Z" transform="translate(-11.1 -6.2)" fill="#00a72c"/>
          </g>
        </g>
        <g id="Grupo_531" data-name="Grupo 531" transform="translate(5.62 16.017)">
          <g id="Grupo_530" data-name="Grupo 530">
            <path id="Trazado_1498" data-name="Trazado 1498" d="M24.609,26.53a.885.885,0,0,0,.937-.937v-1.03A6.476,6.476,0,0,0,19.083,18.1h-5.62A6.476,6.476,0,0,0,7,24.563v1.03a.885.885,0,0,0,.937.937ZM8.873,24.657a4.6,4.6,0,0,1,4.59-4.59h5.62a4.6,4.6,0,0,1,4.59,4.59v.094l-14.8-.094Z" transform="translate(-7 -18.1)" fill="#00a72c"/>
          </g>
        </g>
        <g id="Grupo_533" data-name="Grupo 533" transform="translate(6.088 27.444)">
          <g id="Grupo_532" data-name="Grupo 532">
            <path id="Trazado_1499" data-name="Trazado 1499" d="M8.437,30.3a.937.937,0,1,0,0,1.873H25.109a.937.937,0,1,0,0-1.873Z" transform="translate(-7.5 -30.3)" fill="#00a72c"/>
          </g>
        </g>
        <g id="Grupo_535" data-name="Grupo 535" transform="translate(6.088 32.876)">
          <g id="Grupo_534" data-name="Grupo 534">
            <path id="Trazado_1500" data-name="Trazado 1500" d="M25.2,36.1H8.437a.937.937,0,0,0,0,1.873H25.109a.885.885,0,0,0,.937-.937A.861.861,0,0,0,25.2,36.1Z" transform="translate(-7.5 -36.1)" fill="#00a72c"/>
          </g>
        </g>
        <g id="Grupo_537" data-name="Grupo 537" transform="translate(6.088 38.309)">
          <g id="Grupo_536" data-name="Grupo 536">
            <path id="Trazado_1501" data-name="Trazado 1501" d="M45.153,41.9H8.437a.937.937,0,0,0,0,1.873H45.153a.885.885,0,0,0,.937-.937A.939.939,0,0,0,45.153,41.9Z" transform="translate(-7.5 -41.9)" fill="#00a72c"/>
          </g>
        </g>
        <g id="Grupo_539" data-name="Grupo 539" transform="translate(6.088 43.741)">
          <g id="Grupo_538" data-name="Grupo 538">
            <path id="Trazado_1502" data-name="Trazado 1502" d="M45.153,47.7H8.437a.937.937,0,0,0,0,1.873H45.153a.885.885,0,0,0,.937-.937A.939.939,0,0,0,45.153,47.7Z" transform="translate(-7.5 -47.7)" fill="#00a72c"/>
          </g>
        </g>
        <g id="Grupo_541" data-name="Grupo 541" transform="translate(6.088 49.174)">
          <g id="Grupo_540" data-name="Grupo 540">
            <path id="Trazado_1503" data-name="Trazado 1503" d="M45.153,53.5H8.437a.937.937,0,1,0,0,1.873H45.153a.885.885,0,0,0,.937-.937A.939.939,0,0,0,45.153,53.5Z" transform="translate(-7.5 -53.5)" fill="#00a72c"/>
          </g>
        </g>
        <g id="Grupo_543" data-name="Grupo 543" transform="translate(6.088 54.606)">
          <g id="Grupo_542" data-name="Grupo 542">
            <path id="Trazado_1504" data-name="Trazado 1504" d="M45.153,59.3H8.437a.937.937,0,1,0,0,1.873H45.153a.937.937,0,1,0,0-1.873Z" transform="translate(-7.5 -59.3)" fill="#00a72c"/>
          </g>
        </g>
      </g>
    </g>
    <g id="Grupo_376" data-name="Grupo 376" transform="translate(408 442)" opacity="0.4">
      <path id="Trazado_1375" data-name="Trazado 1375" d="M186.145,218.877a2.728,2.728,0,1,0,2.728,2.728A2.728,2.728,0,0,0,186.145,218.877Zm0,3.832a1.1,1.1,0,1,1,1.1-1.1A1.1,1.1,0,0,1,186.145,222.709Z" transform="translate(-168.951 -148.369)" fill="#00be62"/>
      <path id="Trazado_1376" data-name="Trazado 1376" d="M302.892,236.507a2.728,2.728,0,1,0,2.728,2.728A2.728,2.728,0,0,0,302.892,236.507Zm0,3.832a1.1,1.1,0,1,1,1.1-1.1A1.1,1.1,0,0,1,302.892,240.339Z" transform="translate(-287.595 -229.96)" fill="#00be62"/>
      <path id="Trazado_1377" data-name="Trazado 1377" d="M338.917,168.839a2.089,2.089,0,1,0,2.089,2.089A2.089,2.089,0,0,0,338.917,168.839Zm0,2.934a.845.845,0,1,1,.845-.845A.845.845,0,0,1,338.917,171.773Z" transform="translate(-242.302 -159.663)" fill="#00be62"/>
      <path id="Trazado_1378" data-name="Trazado 1378" d="M280.108,115.477a2.208,2.208,0,1,0,2.208,2.208A2.208,2.208,0,0,0,280.108,115.477Zm0,3.1a.894.894,0,1,1,.894-.894A.894.894,0,0,1,280.108,118.58Z" transform="translate(-204.272 -99.715)" fill="#00be62"/>
      <path id="Trazado_1379" data-name="Trazado 1379" d="M167.222,197.656a2.322,2.322,0,1,0,2.322,2.322A2.322,2.322,0,0,0,167.222,197.656Z" transform="translate(-162.029 -140.436)" fill="#00be62"/>
      <path id="Trazado_1380" data-name="Trazado 1380" d="M316.376,209.931a1.689,1.689,0,1,0,1.689,1.689A1.689,1.689,0,0,0,316.376,209.931Z" transform="translate(-218.024 -145.025)" fill="#00be62"/>
      <path id="Trazado_1381" data-name="Trazado 1381" d="M226.594,116.586a2.468,2.468,0,1,0,2.468,2.468A2.468,2.468,0,0,0,226.594,116.586Z" transform="translate(-184.17 -110.129)" fill="#00be62"/>
      <path id="Trazado_1383" data-name="Trazado 1383" d="M303.512,131.79a2.111,2.111,0,1,0,2.111,2.111A2.111,2.111,0,0,0,303.512,131.79Z" transform="translate(-213.058 -105.813)" fill="#00be62"/>
      <circle id="Elipse_13" data-name="Elipse 13" cx="1.202" cy="1.202" r="1.202" transform="translate(14.477 32.39)" fill="#00be62"/>
      <path id="Trazado_1384" data-name="Trazado 1384" d="M340.105,152.026a2.05,2.05,0,1,0,2.05,2.051A2.05,2.05,0,0,0,340.105,152.026Z" transform="translate(-236.76 -113.378)" fill="#00be62"/>
      <circle id="Elipse_14" data-name="Elipse 14" cx="1.308" cy="1.308" r="1.308" transform="translate(2.733 39.496)" fill="#00be62"/>
      <path id="Trazado_1385" data-name="Trazado 1385" d="M252.734,108.346l.822-.822a.732.732,0,1,0-1.035-1.036l-.822.822-.822-.822a.732.732,0,1,0-1.036,1.036l.822.822-.822.822a.732.732,0,1,0,1.036,1.036l.822-.822.822.822a.732.732,0,1,0,1.035-1.036Z" transform="translate(-193.703 -106.275)" fill="#00be62"/>
      <path id="Trazado_1386" data-name="Trazado 1386" d="M163.421,148l.822-.822a.732.732,0,0,0-1.036-1.036l-.822.822-.822-.822a.732.732,0,0,0-1.036,1.036l.822.822-.822.822a.732.732,0,0,0,1.036,1.036l.822-.822.822.822a.732.732,0,0,0,1.036-1.036Z" transform="translate(-160.315 -121.097)" fill="#00be62"/>
      <path id="Trazado_1387" data-name="Trazado 1387" d="M318.452,228.3l.7-.7a.62.62,0,0,0-.877-.877l-.7.7-.7-.7a.62.62,0,1,0-.877.877l.7.7-.7.7a.62.62,0,1,0,.877.877l.7-.7.7.7a.62.62,0,0,0,.877-.877Z" transform="translate(-218.449 -151.237)" fill="#00be62"/>
    </g>
  </g>
</svg>
