<svg xmlns="http://www.w3.org/2000/svg" width="105.395" height="78.819" viewBox="0 0 105.395 78.819">
  <g id="modelo-4" transform="translate(-408 -442)">
    <g id="Grupo_376" data-name="Grupo 376" transform="translate(408 442)" opacity="0.4">
      <path id="Trazado_1375" data-name="Trazado 1375" d="M186.145,218.877a2.728,2.728,0,1,0,2.728,2.728A2.728,2.728,0,0,0,186.145,218.877Zm0,3.832a1.1,1.1,0,1,1,1.1-1.1A1.1,1.1,0,0,1,186.145,222.709Z" transform="translate(-168.951 -148.369)" fill="#00be62"/>
      <path id="Trazado_1376" data-name="Trazado 1376" d="M302.892,236.507a2.728,2.728,0,1,0,2.728,2.728A2.728,2.728,0,0,0,302.892,236.507Zm0,3.832a1.1,1.1,0,1,1,1.1-1.1A1.1,1.1,0,0,1,302.892,240.339Z" transform="translate(-287.595 -229.96)" fill="#00be62"/>
      <path id="Trazado_1377" data-name="Trazado 1377" d="M338.917,168.839a2.089,2.089,0,1,0,2.089,2.089A2.089,2.089,0,0,0,338.917,168.839Zm0,2.934a.845.845,0,1,1,.845-.845A.845.845,0,0,1,338.917,171.773Z" transform="translate(-242.302 -159.663)" fill="#00be62"/>
      <path id="Trazado_1378" data-name="Trazado 1378" d="M280.108,115.477a2.208,2.208,0,1,0,2.208,2.208A2.208,2.208,0,0,0,280.108,115.477Zm0,3.1a.894.894,0,1,1,.894-.894A.894.894,0,0,1,280.108,118.58Z" transform="translate(-204.272 -109.715)" fill="#00be62"/>
      <path id="Trazado_1379" data-name="Trazado 1379" d="M167.222,197.656a2.322,2.322,0,1,0,2.322,2.322A2.322,2.322,0,0,0,167.222,197.656Z" transform="translate(-162.029 -140.436)" fill="#00be62"/>
      <path id="Trazado_1380" data-name="Trazado 1380" d="M316.376,209.931a1.689,1.689,0,1,0,1.689,1.689A1.689,1.689,0,0,0,316.376,209.931Z" transform="translate(-218.024 -145.025)" fill="#00be62"/>
      <path id="Trazado_1381" data-name="Trazado 1381" d="M226.594,116.586a2.468,2.468,0,1,0,2.468,2.468A2.468,2.468,0,0,0,226.594,116.586Z" transform="translate(-184.17 -110.129)" fill="#00be62"/>
      <path id="Trazado_1383" data-name="Trazado 1383" d="M303.512,131.79a2.111,2.111,0,1,0,2.111,2.111A2.111,2.111,0,0,0,303.512,131.79Z" transform="translate(-213.058 -105.813)" fill="#00be62"/>
      <circle id="Elipse_13" data-name="Elipse 13" cx="1.202" cy="1.202" r="1.202" transform="translate(14.477 32.39)" fill="#00be62"/>
      <path id="Trazado_1384" data-name="Trazado 1384" d="M340.105,152.026a2.05,2.05,0,1,0,2.05,2.051A2.05,2.05,0,0,0,340.105,152.026Z" transform="translate(-236.76 -113.378)" fill="#00be62"/>
      <circle id="Elipse_14" data-name="Elipse 14" cx="1.308" cy="1.308" r="1.308" transform="translate(2.733 39.496)" fill="#00be62"/>
      <path id="Trazado_1385" data-name="Trazado 1385" d="M252.734,108.346l.822-.822a.732.732,0,1,0-1.035-1.036l-.822.822-.822-.822a.732.732,0,1,0-1.036,1.036l.822.822-.822.822a.732.732,0,1,0,1.036,1.036l.822-.822.822.822a.732.732,0,1,0,1.035-1.036Z" transform="translate(-193.703 -106.275)" fill="#00be62"/>
      <path id="Trazado_1386" data-name="Trazado 1386" d="M163.421,148l.822-.822a.732.732,0,0,0-1.036-1.036l-.822.822-.822-.822a.732.732,0,0,0-1.036,1.036l.822.822-.822.822a.732.732,0,0,0,1.036,1.036l.822-.822.822.822a.732.732,0,0,0,1.036-1.036Z" transform="translate(-160.315 -121.097)" fill="#00be62"/>
      <path id="Trazado_1387" data-name="Trazado 1387" d="M318.452,228.3l.7-.7a.62.62,0,0,0-.877-.877l-.7.7-.7-.7a.62.62,0,1,0-.877.877l.7.7-.7.7a.62.62,0,1,0,.877.877l.7-.7.7.7a.62.62,0,0,0,.877-.877Z" transform="translate(-218.449 -151.237)" fill="#00be62"/>
    </g>
    <g id="noun_deal_1464887" transform="translate(433 457.001)">
      <path id="Trazado_1505" data-name="Trazado 1505" d="M61,23H36a1,1,0,0,0-.707.293L32.5,26.086l-2.793-2.793A1,1,0,0,0,29,23H3a1,1,0,0,0-1,1V43a1,1,0,0,0,1,1H13.546a3.81,3.81,0,0,0,3.626,5c.065,0,.127-.016.192-.019A3.805,3.805,0,0,0,21.172,53c.065,0,.127-.016.192-.019A3.805,3.805,0,0,0,25.172,57c.065,0,.127-.016.192-.019a3.8,3.8,0,0,0,6.288,3.084l1.642,1.642a3.815,3.815,0,0,0,6.516-2.9c.064,0,.127.018.191.018a3.8,3.8,0,0,0,3.809-4.019c.064,0,.127.018.191.018a3.8,3.8,0,0,0,3.809-4.019c.064,0,.127.018.191.018a3.827,3.827,0,0,0,2.707-6.534L50.414,44H61a1,1,0,0,0,1-1V24A1,1,0,0,0,61,23ZM4,42V25h6V42Zm11.879,4.464a1.831,1.831,0,0,1,0-2.586l3-3a1.829,1.829,0,0,1,2.586,2.586l-3,3A1.87,1.87,0,0,1,15.879,46.464Zm4,4a1.831,1.831,0,0,1,0-2.586l3-3a1.829,1.829,0,0,1,2.586,2.586l-3,3A1.87,1.87,0,0,1,19.879,50.464Zm4,4a1.831,1.831,0,0,1,0-2.586l3-3a1.829,1.829,0,0,1,2.586,2.586l-3,3A1.87,1.87,0,0,1,23.879,54.464Zm4,4a1.831,1.831,0,0,1,0-2.586l3-3a1.829,1.829,0,0,1,2.586,2.586l-3,3A1.87,1.87,0,0,1,27.879,58.464Zm9.414,1.829a1.831,1.831,0,0,1-2.586,0l-1.621-1.621,1.793-1.793a3.768,3.768,0,0,0,.66-.925l1.754,1.754A1.829,1.829,0,0,1,37.293,60.293Zm12-12a1.831,1.831,0,0,1-2.586,0l-2-2-1.414,1.414,2,2a1.829,1.829,0,0,1-2.586,2.586l-2-2-1.414,1.414,2,2a1.829,1.829,0,0,1-2.586,2.586l-2-2-.85.85a3.79,3.79,0,0,0-3.877-4.78,3.783,3.783,0,0,0-4-4,3.783,3.783,0,0,0-4-4,3.814,3.814,0,0,0-6.515-2.9L14.929,42H12V25H28.586l2.5,2.5-7.793,7.793a1,1,0,0,0,0,1.414,8.08,8.08,0,0,0,11.414,0L37.5,33.914,49.293,45.707A1.831,1.831,0,0,1,49.293,48.293ZM38.914,32.5l.793-.793-1.414-1.414-5,5a6.084,6.084,0,0,1-7.82.649L36.414,25H52V42H48.414ZM60,42H54V25h6Z" fill="#00a72c"/>
      <path id="Trazado_1506" data-name="Trazado 1506" d="M23,21H41a1,1,0,0,0,1-1V11a1,1,0,0,0-.336-.748L40,8.773V3a1,1,0,0,0-1-1H35a1,1,0,0,0-1,1v.44L32.664,2.252a1,1,0,0,0-1.328,0l-9,8A1,1,0,0,0,22,11v9A1,1,0,0,0,23,21Zm8-2V14h2v5Zm-7-7.551,8-7.111,2.336,2.076A1,1,0,0,0,36,5.667V4h2V9.222a1,1,0,0,0,.336.748L40,11.449V19H35V13a1,1,0,0,0-1-1H30a1,1,0,0,0-1,1v6H24Z" fill="#00a72c"/>
      <rect id="Rectángulo_1165" data-name="Rectángulo 1165" width="7" height="2" transform="translate(45 11)" fill="#00a72c"/>
      <rect id="Rectángulo_1166" data-name="Rectángulo 1166" width="6" height="2" transform="translate(45.173 7.538) rotate(-45)" fill="#00a72c"/>
      <rect id="Rectángulo_1167" data-name="Rectángulo 1167" width="2" height="6" transform="translate(45.171 16.707) rotate(-45)" fill="#00a72c"/>
      <rect id="Rectángulo_1168" data-name="Rectángulo 1168" width="7" height="2" transform="translate(12 11)" fill="#00a72c"/>
      <rect id="Rectángulo_1169" data-name="Rectángulo 1169" width="2" height="6" transform="translate(13.171 4.707) rotate(-45)" fill="#00a72c"/>
      <rect id="Rectángulo_1170" data-name="Rectángulo 1170" width="6" height="2" transform="translate(13.171 19.537) rotate(-45)" fill="#00a72c"/>
      <rect id="Rectángulo_1171" data-name="Rectángulo 1171" width="2" height="2" transform="translate(56 38)" fill="#00a72c"/>
    </g>
  </g>
</svg>
