<svg xmlns="http://www.w3.org/2000/svg" width="115.395" height="87.003" viewBox="0 0 115.395 87.003">
  <g id="modelo-1" transform="translate(-408 -442)">
    <g id="noun_option_1286946" transform="translate(430.8 457)">
      <g id="_131-Squares" data-name="131-Squares">
        <path id="Trazado_1487" data-name="Trazado 1487" d="M67.813,0H19.688A2.187,2.187,0,0,0,17.5,2.188V17.5H2.188A2.188,2.188,0,0,0,0,19.688V67.813A2.188,2.188,0,0,0,2.188,70H50.313A2.187,2.187,0,0,0,52.5,67.813V52.5H67.813A2.187,2.187,0,0,0,70,50.313V2.188A2.188,2.188,0,0,0,67.813,0ZM48.125,65.625H4.375V21.875H17.5V50.313A2.187,2.187,0,0,0,19.688,52.5H48.125Zm17.5-17.5H21.875V4.375h43.75Z" fill="#00a82d"/>
        <g id="Grupo_513" data-name="Grupo 513" transform="translate(29.773 16.349)">
          <path id="Trazado_1489" data-name="Trazado 1489" d="M37.916,976.237,24.277,989.876l-7.461-5.907-2.8,3.542,9.038,7.155,1.577,1.247,1.424-1.424,15.063-15.063-3.2-3.189Z" transform="translate(-14.016 -976.237)" fill="#00a82d"/>
        </g>
      </g>
    </g>
    <g id="Grupo_376" data-name="Grupo 376" transform="translate(408 442)" opacity="0.4">
      <path id="Trazado_1375" data-name="Trazado 1375" d="M186.145,218.877a2.728,2.728,0,1,0,2.728,2.728A2.728,2.728,0,0,0,186.145,218.877Zm0,3.832a1.1,1.1,0,1,1,1.1-1.1A1.1,1.1,0,0,1,186.145,222.709Z" transform="translate(-168.951 -148.369)" fill="#00be62"/>
      <path id="Trazado_1376" data-name="Trazado 1376" d="M302.892,236.507a2.728,2.728,0,1,0,2.728,2.728A2.728,2.728,0,0,0,302.892,236.507Zm0,3.832a1.1,1.1,0,1,1,1.1-1.1A1.1,1.1,0,0,1,302.892,240.339Z" transform="translate(-212.595 -154.96)" fill="#00be62"/>
      <path id="Trazado_1377" data-name="Trazado 1377" d="M338.917,168.839a2.089,2.089,0,1,0,2.089,2.089A2.089,2.089,0,0,0,338.917,168.839Zm0,2.934a.845.845,0,1,1,.845-.845A.845.845,0,0,1,338.917,171.773Z" transform="translate(-226.302 -129.663)" fill="#00be62"/>
      <path id="Trazado_1378" data-name="Trazado 1378" d="M280.108,115.477a2.208,2.208,0,1,0,2.208,2.208A2.208,2.208,0,0,0,280.108,115.477Zm0,3.1a.894.894,0,1,1,.894-.894A.894.894,0,0,1,280.108,118.58Z" transform="translate(-204.272 -109.715)" fill="#00be62"/>
      <path id="Trazado_1379" data-name="Trazado 1379" d="M167.222,197.656a2.322,2.322,0,1,0,2.322,2.322A2.322,2.322,0,0,0,167.222,197.656Z" transform="translate(-162.029 -140.436)" fill="#00be62"/>
      <path id="Trazado_1380" data-name="Trazado 1380" d="M316.376,209.931a1.689,1.689,0,1,0,1.689,1.689A1.689,1.689,0,0,0,316.376,209.931Z" transform="translate(-218.024 -145.025)" fill="#00be62"/>
      <path id="Trazado_1381" data-name="Trazado 1381" d="M226.594,116.586a2.468,2.468,0,1,0,2.468,2.468A2.468,2.468,0,0,0,226.594,116.586Z" transform="translate(-184.17 -110.129)" fill="#00be62"/>
      <path id="Trazado_1383" data-name="Trazado 1383" d="M303.512,131.79a2.111,2.111,0,1,0,2.111,2.111A2.111,2.111,0,0,0,303.512,131.79Z" transform="translate(-213.058 -115.813)" fill="#00be62"/>
      <circle id="Elipse_13" data-name="Elipse 13" cx="1.202" cy="1.202" r="1.202" transform="translate(14.477 32.39)" fill="#00be62"/>
      <path id="Trazado_1384" data-name="Trazado 1384" d="M340.105,152.026a2.05,2.05,0,1,0,2.05,2.051A2.05,2.05,0,0,0,340.105,152.026Z" transform="translate(-226.76 -123.378)" fill="#00be62"/>
      <circle id="Elipse_14" data-name="Elipse 14" cx="1.308" cy="1.308" r="1.308" transform="translate(2.733 39.496)" fill="#00be62"/>
      <path id="Trazado_1385" data-name="Trazado 1385" d="M252.734,108.346l.822-.822a.732.732,0,1,0-1.035-1.036l-.822.822-.822-.822a.732.732,0,1,0-1.036,1.036l.822.822-.822.822a.732.732,0,1,0,1.036,1.036l.822-.822.822.822a.732.732,0,1,0,1.035-1.036Z" transform="translate(-193.703 -106.275)" fill="#00be62"/>
      <path id="Trazado_1386" data-name="Trazado 1386" d="M163.421,148l.822-.822a.732.732,0,0,0-1.036-1.036l-.822.822-.822-.822a.732.732,0,0,0-1.036,1.036l.822.822-.822.822a.732.732,0,0,0,1.036,1.036l.822-.822.822.822a.732.732,0,0,0,1.036-1.036Z" transform="translate(-160.315 -121.097)" fill="#00be62"/>
      <path id="Trazado_1387" data-name="Trazado 1387" d="M318.452,228.3l.7-.7a.62.62,0,0,0-.877-.877l-.7.7-.7-.7a.62.62,0,1,0-.877.877l.7.7-.7.7a.62.62,0,1,0,.877.877l.7-.7.7.7a.62.62,0,0,0,.877-.877Z" transform="translate(-218.449 -151.237)" fill="#00be62"/>
    </g>
  </g>
</svg>
