<svg xmlns="http://www.w3.org/2000/svg" width="59.852" height="69.205" viewBox="0 0 59.852 69.205">
  <g id="mover-tap" transform="translate(-26.314 -36.035)">
    <g id="Grupo_1261" data-name="Grupo 1261" transform="translate(26.314 36.035)">
      <path id="Trazado_9308" data-name="Trazado 9308" d="M182.539,72.923c-1.861-3.17-3.611-7.25-3.2-8.3.51-1.282,3.308-8.89,3.322-11.771V39.678a3.774,3.774,0,0,0-3.749-3.763H178.9a1.268,1.268,0,0,0-1.24,1.268V39.54a.861.861,0,0,1-.8.868.83.83,0,0,1-.855-.8V34.8a4.289,4.289,0,0,0-4.052-4.314h-.248a2.63,2.63,0,0,0-2.577,2.633V35.53a.839.839,0,0,1-.8.855.83.83,0,0,1-.855-.8V29.63a4.245,4.245,0,0,0-4.011-4.273h-.248a2.609,2.609,0,0,0-2.577,2.619v5.872a.827.827,0,0,1-1.654.055V9.273A4.248,4.248,0,0,0,154.959,5h-.221a5.166,5.166,0,0,0-5.058,5.169V45.136a51.731,51.731,0,0,0-5.279-7.663,5.7,5.7,0,0,0-6.781-1.544,3.077,3.077,0,0,0-1.93,2.412,3.233,3.233,0,0,0,.441,2.136,80,80,0,0,1,3.5,7.195c3.129,6.892,6.671,14.693,10.475,17.091,3.032,1.916,9.593,9.1,9.648,9.166a.787.787,0,0,0,.606.276h21.474a.827.827,0,0,0,.813-.662A.861.861,0,0,0,182.539,72.923Z" transform="translate(-122.813 -5)" fill="#fff"/>
      <g id="Grupo_1263" data-name="Grupo 1263" transform="translate(0 0.403)">
        <path id="Trazado_9306" data-name="Trazado 9306" d="M35.938,10.562h7.837l-.721.587a.64.64,0,0,0,.8,1l2.119-1.717h0c.019-.013.032-.032.051-.045l.013-.013a.169.169,0,0,0,.032-.038c.006-.006.006-.013.013-.019s.019-.026.026-.038.006-.013.013-.019l.019-.038a.023.023,0,0,0,.006-.019c.006-.013.013-.032.019-.045s.006-.013.006-.019.006-.032.013-.045.006-.013.006-.019a.141.141,0,0,0,.006-.051V10c0-.026.006-.045.006-.07h0a.262.262,0,0,0-.006-.07V9.841c0-.019-.006-.032-.006-.051a.023.023,0,0,0-.006-.019.408.408,0,0,0-.013-.045c0-.006-.006-.013-.006-.019s-.013-.032-.019-.045-.006-.013-.006-.019l-.019-.038c-.006-.006-.006-.013-.013-.019s-.019-.026-.026-.038-.006-.013-.013-.019-.019-.026-.032-.038l-.013-.013a.172.172,0,0,0-.051-.045h0L43.858,7.71a.64.64,0,1,0-.8,1l.721.587H35.938a.64.64,0,0,0-.638.638A.631.631,0,0,0,35.938,10.562Z" transform="translate(-22.67 1.887)" fill="#fff"/>
        <path id="Trazado_9307" data-name="Trazado 9307" d="M38.553,94.589l-.721-.581h7.837a.638.638,0,1,0,0-1.276H37.832l.721-.587a.64.64,0,0,0-.8-1L35.63,92.872h0c-.019.013-.032.032-.051.045l-.013.013a.169.169,0,0,0-.032.038c-.006.006-.006.013-.013.019s-.019.026-.026.038-.006.013-.013.019l-.019.038a.023.023,0,0,0-.006.019c-.006.013-.013.032-.019.045s-.006.013-.006.019a.118.118,0,0,0-.013.045c0,.006-.006.013-.006.019a.141.141,0,0,0-.006.051V93.3c0,.026-.006.045-.006.07a.262.262,0,0,0,.006.07v.019c0,.019.006.032.006.051a.023.023,0,0,0,.006.019.408.408,0,0,0,.013.045c0,.006.006.013.006.019s.013.032.019.045.006.013.013.019l.019.038c.006.006.006.013.013.019s.019.026.026.038.006.013.013.019.019.026.032.038l.013.013a.366.366,0,0,0,.051.045h0l2.119,1.717a.643.643,0,0,0,.4.14.651.651,0,0,0,.5-.236A.658.658,0,0,0,38.553,94.589Z" transform="translate(-35.4 -81.645)" fill="#fff"/>
        <path id="Trazado_9314" data-name="Trazado 9314" d="M.638,3H8.476l-.721.587a.64.64,0,0,0,.8,1l2.119-1.717h0c.019-.013.032-.032.051-.045l.013-.013a.169.169,0,0,0,.032-.038c.006-.006.006-.013.013-.019s.019-.026.026-.038.006-.013.013-.019l.019-.038a.023.023,0,0,0,.006-.019c.006-.013.013-.032.019-.045s.006-.013.006-.019.006-.032.013-.045.006-.013.006-.019a.141.141,0,0,0,.006-.051V2.434c0-.026.006-.045.006-.07h0a.262.262,0,0,0-.006-.07V2.274c0-.019-.006-.032-.006-.051a.023.023,0,0,0-.006-.019.406.406,0,0,0-.013-.045c0-.006-.006-.013-.006-.019s-.013-.032-.019-.045-.006-.013-.006-.019l-.019-.038c-.006-.006-.006-.013-.013-.019s-.019-.026-.026-.038-.006-.013-.013-.019-.019-.026-.032-.038l-.013-.013a.172.172,0,0,0-.051-.045h0L8.558.143a.64.64,0,1,0-.8,1l.721.587H.638A.64.64,0,0,0,0,2.364.631.631,0,0,0,.638,3Z" transform="translate(14.083 12.63) rotate(90)" fill="#fff"/>
        <path id="Trazado_9315" data-name="Trazado 9315" d="M3.153,3.58,2.432,3h7.837a.638.638,0,0,0,0-1.276H2.432l.721-.587a.645.645,0,0,0,.1-.9.645.645,0,0,0-.9-.1L.23,1.863h0c-.019.013-.032.032-.051.045L.166,1.92a.169.169,0,0,0-.032.038c-.006.006-.006.013-.013.019S.1,2,.1,2.016s-.006.013-.013.019l-.019.038a.023.023,0,0,0-.006.019c-.006.013-.013.032-.019.045s-.006.013-.006.019A.118.118,0,0,0,.019,2.2c0,.006-.006.013-.006.019a.14.14,0,0,0-.006.051v.019c0,.026-.006.045-.006.07a.262.262,0,0,0,.006.07V2.45c0,.019.006.032.006.051a.023.023,0,0,0,.006.019.406.406,0,0,0,.013.045c0,.006.006.013.006.019s.013.032.019.045.006.013.013.019l.019.038C.1,2.693.1,2.7.1,2.705s.019.026.026.038.006.013.013.019.019.026.032.038l.013.013a.365.365,0,0,0,.051.045h0L2.355,4.575a.643.643,0,0,0,.4.14.651.651,0,0,0,.5-.236A.658.658,0,0,0,3.153,3.58Z" transform="translate(14.173) rotate(90)" fill="#fff"/>
      </g>
    </g>
  </g>
</svg>
