<svg id="Capa_1" data-name="Capa 1" xmlns="http://www.w3.org/2000/svg" viewBox="0 0 1000 1000"><defs><style>.cls-1{fill:#3368f0;}</style></defs><title>Mesa de trabajo 11</title><path class="cls-1" d="M283.71,732.17V623.53h16a6.42,6.42,0,0,1,6.67,4.76l1.8,8.58a58.77,58.77,0,0,1,6.94-6.14,47.71,47.71,0,0,1,7.73-4.77,39.76,39.76,0,0,1,8.73-3.07,45.69,45.69,0,0,1,10.17-1.06,39,39,0,0,1,15.78,3A31.24,31.24,0,0,1,369,633.32a37.16,37.16,0,0,1,7,13A55.21,55.21,0,0,1,378.38,663v69.15H352.22V663q0-9.94-4.6-15.41t-13.82-5.45a27.32,27.32,0,0,0-12.71,3.07,45.67,45.67,0,0,0-11.22,8.37v78.57Z"/><path class="cls-1" d="M457.05,621.83a53,53,0,0,1,18.9,3.28,41.51,41.51,0,0,1,14.88,9.59,43.82,43.82,0,0,1,9.74,15.46,58.32,58.32,0,0,1,3.49,20.91,39,39,0,0,1-.26,4.92,7.88,7.88,0,0,1-1,3.07,3.81,3.81,0,0,1-1.85,1.59,7.85,7.85,0,0,1-3,.48H430.89q1.17,16.73,9,24.56t20.76,7.84a35.92,35.92,0,0,0,11-1.48,51.32,51.32,0,0,0,8-3.28q3.45-1.8,6-3.29a10.22,10.22,0,0,1,5-1.48,5.59,5.59,0,0,1,2.75.64,5.92,5.92,0,0,1,2,1.8l7.63,9.53a43.55,43.55,0,0,1-9.74,8.52A55,55,0,0,1,482.09,730a62.57,62.57,0,0,1-12,2.91,86.33,86.33,0,0,1-11.8.84A58.11,58.11,0,0,1,437.25,730a47,47,0,0,1-16.94-11.12A52,52,0,0,1,409,700.66q-4.14-10.85-4.14-25.14a60.23,60.23,0,0,1,3.6-20.92,50.5,50.5,0,0,1,10.33-17,48.45,48.45,0,0,1,16.41-11.49A54,54,0,0,1,457.05,621.83Zm.53,18.74q-11.44,0-17.9,6.46t-8.26,18.32h49.13a32.82,32.82,0,0,0-1.37-9.58,22.1,22.1,0,0,0-4.24-7.89,20,20,0,0,0-7.2-5.35A24.59,24.59,0,0,0,457.58,640.57Z"/><path class="cls-1" d="M618.52,732.17H606.77a12.65,12.65,0,0,1-5.82-1.12c-1.42-.74-2.48-2.23-3.18-4.5l-2.33-7.73a87.36,87.36,0,0,1-8.1,6.52,49.06,49.06,0,0,1-8.21,4.71,42,42,0,0,1-9,2.86,54.52,54.52,0,0,1-10.58,1A41.53,41.53,0,0,1,546.84,732a27.4,27.4,0,0,1-10-5.57,25.33,25.33,0,0,1-6.51-9.25A32.93,32.93,0,0,1,528,704.33a25.47,25.47,0,0,1,3.23-12.17q3.22-6,10.75-10.84t20-8q12.49-3.18,31-3.18v-6.41q0-11-4.6-16.27T575,642.16a32.41,32.41,0,0,0-10.59,1.49,40.7,40.7,0,0,0-7.35,3.33c-2.09,1.24-4,2.35-5.78,3.34a11.66,11.66,0,0,1-5.82,1.48,7.55,7.55,0,0,1-4.55-1.38,10.81,10.81,0,0,1-3.07-3.39l-4.77-8.36q18.75-17.16,45.22-17.16a43.73,43.73,0,0,1,17,3.13,36,36,0,0,1,12.65,8.68,37.21,37.21,0,0,1,7.89,13.29,51,51,0,0,1,2.7,16.94ZM567.7,715.86a35,35,0,0,0,7.41-.73,28.6,28.6,0,0,0,6.4-2.19,33.92,33.92,0,0,0,5.83-3.59,52.26,52.26,0,0,0,5.66-5.06V686.11a105.25,105.25,0,0,0-19.11,1.44,50.33,50.33,0,0,0-12.34,3.67,15.91,15.91,0,0,0-6.61,5.23,11.6,11.6,0,0,0-2,6.51q0,6.93,4.08,9.91T567.7,715.86Z"/><path class="cls-1" d="M688,733.86q-14.07,0-21.7-8t-7.63-22.08V643.11h-11a5,5,0,0,1-5.19-5.5V627.23l17.47-2.86,5.51-29.65a5.25,5.25,0,0,1,2-3.28,6.24,6.24,0,0,1,3.86-1.16h13.56v34.2H713.4v18.63H684.81V702q0,5.09,2.54,7.94a8.6,8.6,0,0,0,6.78,2.86,12.49,12.49,0,0,0,4.07-.58,22.73,22.73,0,0,0,2.86-1.22c.81-.42,1.54-.83,2.17-1.22a3.62,3.62,0,0,1,1.91-.58,3,3,0,0,1,1.9.58,8.5,8.5,0,0,1,1.59,1.75l7.84,12.7a39.66,39.66,0,0,1-13.13,7.21A49,49,0,0,1,688,733.86Z"/><path class="cls-1" d="M294.67,560.1a11.44,11.44,0,0,1-11.44-11.44V239.23a25.17,25.17,0,0,1,42.43-18.34L463.14,318.8a32.12,32.12,0,0,1,13.62,18.38,32.71,32.71,0,0,1,1.07,8.31V492.75c0,4.17,3.69,4.79,5.89,4.79s5.56-.55,5.56-4.23V363.51a32.38,32.38,0,0,1,32.35-32.35H651.48a32.43,32.43,0,0,1,32.4,32.4v162.2a11.45,11.45,0,1,1-22.89,0V363.56a9.53,9.53,0,0,0-9.51-9.51H521.63a9.47,9.47,0,0,0-9.46,9.46v129.8c0,15.47-12.23,27.13-28.45,27.13-16.41,0-28.78-11.91-28.78-27.69V345.49a9.64,9.64,0,0,0-.33-2.5,10,10,0,0,0-4.4-5.3L310.78,238.4l-.73-.76a2.29,2.29,0,0,0-3.93,1.59V548.66A11.45,11.45,0,0,1,294.67,560.1Z"/><path class="cls-1" d="M391.56,410.87h-28.2a11.46,11.46,0,0,1-11.45-11.45v-28.2a11.46,11.46,0,0,1,11.45-11.45h28.2A11.46,11.46,0,0,1,403,371.22v28.2A11.46,11.46,0,0,1,391.56,410.87Zm0-11.45v0Zm-28.2-28.2v28.2h28.18l0-28.2Z"/><path class="cls-1" d="M391.56,513.75h-28.2a11.45,11.45,0,0,1-11.45-11.44v-28.2a11.45,11.45,0,0,1,11.45-11.45h28.2A11.45,11.45,0,0,1,403,474.11v28.2A11.45,11.45,0,0,1,391.56,513.75Zm0-11.44v0Zm-28.2-28.2v28.2h28.18l0-28.2Z"/><path class="cls-1" d="M598,464.2h-28.2a11.46,11.46,0,0,1-11.45-11.45v-28.2a11.46,11.46,0,0,1,11.45-11.45H598a11.46,11.46,0,0,1,11.44,11.45v28.2A11.46,11.46,0,0,1,598,464.2Zm0-11.45v0Zm-28.2-28.2v28.2H598l0-28.2Z"/></svg>