<svg xmlns="http://www.w3.org/2000/svg" width="105" height="105" viewBox="0 0 105 105">
  <g id="Grupo_2399" data-name="Grupo 2399" transform="translate(-921 -966)">
    <circle id="Elipse_49" data-name="Elipse 49" cx="52.5" cy="52.5" r="52.5" transform="translate(921 966)" fill="#f5f5f5"/>
    <g id="Grupo_2398" data-name="Grupo 2398" transform="translate(1512.902 455.423)">
      <path id="Trazado_173" data-name="Trazado 173" d="M-526.961,568.958h7.2a16.2,16.2,0,0,0-16.2-16.2,16.2,16.2,0,0,0-16.2,16.2h7.2" transform="translate(-3.141 -2.131)" fill="none" stroke="#26a72b" stroke-linecap="round" stroke-linejoin="round" stroke-width="2"/>
      <circle id="Elipse_68" data-name="Elipse 68" cx="8.998" cy="8.998" r="8.998" transform="translate(-548.097 532.577)" fill="none" stroke="#26a72b" stroke-linecap="round" stroke-linejoin="round" stroke-width="2"/>
      <path id="Trazado_174" data-name="Trazado 174" d="M-549.5,583.75a16.2,16.2,0,0,0-16.2-16.2,16.2,16.2,0,0,0-16.2,16.2Z" transform="translate(0 -3.693)" fill="none" stroke="#26a72b" stroke-linecap="round" stroke-linejoin="round" stroke-width="2"/>
      <circle id="Elipse_69" data-name="Elipse 69" cx="8.998" cy="8.998" r="8.998" transform="translate(-574.697 545.808)" fill="none" stroke="#26a72b" stroke-linecap="round" stroke-linejoin="round" stroke-width="2"/>
      <path id="Trazado_175" data-name="Trazado 175" d="M-519.758,599.318a16.2,16.2,0,0,0-16.2-16.2,16.2,16.2,0,0,0-16.2,16.2Z" transform="translate(-3.141 -5.337)" fill="none" stroke="#26a72b" stroke-linecap="round" stroke-linejoin="round" stroke-width="2"/>
      <circle id="Elipse_70" data-name="Elipse 70" cx="8.998" cy="8.998" r="8.998" transform="translate(-548.097 559.732)" fill="none" stroke="#26a72b" stroke-linecap="round" stroke-linejoin="round" stroke-width="2"/>
      <path id="Trazado_176" data-name="Trazado 176" d="M-490.14,583.75a16.2,16.2,0,0,0-16.2-16.2,16.2,16.2,0,0,0-16.2,16.2Z" transform="translate(-6.268 -3.693)" fill="none" stroke="#26a72b" stroke-linecap="round" stroke-linejoin="round" stroke-width="2"/>
      <circle id="Elipse_71" data-name="Elipse 71" cx="8.998" cy="8.998" r="8.998" transform="translate(-521.607 545.808)" fill="none" stroke="#26a72b" stroke-linecap="round" stroke-linejoin="round" stroke-width="2"/>
    </g>
  </g>
</svg>
