<svg xmlns="http://www.w3.org/2000/svg" width="105" height="105" viewBox="0 0 105 105">
  <g id="Grupo_2397" data-name="Grupo 2397" transform="translate(-1380 -966)">
    <circle id="Elipse_51" data-name="Elipse 51" cx="52.5" cy="52.5" r="52.5" transform="translate(1380 966)" fill="#f5f5f5"/>
    <g id="Grupo_2393" data-name="Grupo 2393" transform="translate(1635.146 460.128)">
      <path id="Trazado_165" data-name="Trazado 165" d="M-221.3,551.082l-.057-6.038-3.794-1.617,2.552-6.943,4.2,1.5,4.6-4.893-1.755-3.947,6.753-3,1.776,3.995,6.673-.118,1.628-4.141,7.007,2.695-1.437,3.942,4.909,4.766,3.995-1.776,3.171,7.133-3.662,1.628-.147,6.659" fill="none" stroke="#26a72b" stroke-linecap="round" stroke-linejoin="round" stroke-width="2"/>
      <path id="Trazado_166" data-name="Trazado 166" d="M-212.727,551.084a10.09,10.09,0,0,1,.293-6.395,10.129,10.129,0,0,1,13.09-5.819,10.129,10.129,0,0,1,6.112,12.212" fill="none" stroke="#26a72b" stroke-linecap="round" stroke-linejoin="round" stroke-width="2"/>
      <g id="Grupo_2392" data-name="Grupo 2392">
        <g id="Grupo_2391" data-name="Grupo 2391">
          <path id="Trazado_167" data-name="Trazado 167" d="M-184.9,551.082a19.811,19.811,0,0,1-4.117,12.274c-4.521,5.8-7.159,9.646-7.159,15l0,8.267H-210.02v-8.267c0-5.351-2.637-9.194-7.159-15a19.818,19.818,0,0,1-4.117-12.274Z" fill="none" stroke="#26a72b" stroke-miterlimit="10" stroke-width="2"/>
          <path id="Trazado_168" data-name="Trazado 168" d="M-203.894,561.214h-3.736s-2.291-1.966-.667-3.675,3.921.341,3.921.341Z" fill="none" stroke="#26a72b" stroke-miterlimit="10" stroke-width="2"/>
          <path id="Trazado_169" data-name="Trazado 169" d="M-205.315,578.839l1.422-17.625h1.636" fill="none" stroke="#26a72b" stroke-miterlimit="10" stroke-width="2"/>
          <path id="Trazado_170" data-name="Trazado 170" d="M-202.258,561.214h3.736s2.291-1.966.667-3.675-3.921.341-3.921.341Z" fill="none" stroke="#26a72b" stroke-miterlimit="10" stroke-width="2"/>
          <path id="Trazado_171" data-name="Trazado 171" d="M-200.836,578.839l-1.422-17.625h-1.636" fill="none" stroke="#26a72b" stroke-miterlimit="10" stroke-width="2"/>
          <line id="Línea_65" data-name="Línea 65" x2="13.848" transform="translate(-210.02 578.839)" fill="none" stroke="#26a72b" stroke-miterlimit="10" stroke-width="2"/>
          <line id="Línea_66" data-name="Línea 66" x2="13.848" transform="translate(-210.003 582.706)" fill="none" stroke="#26a72b" stroke-miterlimit="10" stroke-width="2"/>
          <path id="Trazado_172" data-name="Trazado 172" d="M-197.921,586.786c0,2.276-2.317,4.121-5.175,4.121s-5.174-1.845-5.174-4.121" fill="none" stroke="#26a72b" stroke-miterlimit="10" stroke-width="2"/>
        </g>
      </g>
    </g>
  </g>
</svg>
