<svg xmlns="http://www.w3.org/2000/svg" width="105" height="105" viewBox="0 0 105 105">
  <g id="Grupo_2394" data-name="Grupo 2394" transform="translate(-435 -966)">
    <circle id="Elipse_47" data-name="Elipse 47" cx="52.5" cy="52.5" r="52.5" transform="translate(435 966)" fill="#f5f5f5"/>
    <g id="Grupo_2389" data-name="Grupo 2389" transform="translate(1481.205 450.357)">
      <g id="Grupo_2388" data-name="Grupo 2388">
        <path id="Trazado_158" data-name="Trazado 158" d="M-986.327,588.817c0-5.35,2.637-9.194,7.159-15a19.81,19.81,0,0,0,4.117-12.274,18.219,18.219,0,0,0-18.22-18.22h.04a18.219,18.219,0,0,0-18.22,18.22,19.81,19.81,0,0,0,4.117,12.274c4.521,5.8,7.159,9.646,7.159,15v8.268h13.851Z" fill="none" stroke="#26a72b" stroke-miterlimit="10" stroke-width="2"/>
        <path id="Trazado_159" data-name="Trazado 159" d="M-994.049,571.679h-3.737s-2.29-1.966-.666-3.676,3.921.342,3.921.342Z" fill="none" stroke="#26a72b" stroke-miterlimit="10" stroke-width="2"/>
        <path id="Trazado_160" data-name="Trazado 160" d="M-995.471,589.3l1.422-17.625h1.636" fill="none" stroke="#26a72b" stroke-miterlimit="10" stroke-width="2"/>
        <path id="Trazado_161" data-name="Trazado 161" d="M-992.414,571.679h3.737s2.291-1.966.666-3.676-3.921.342-3.921.342Z" fill="none" stroke="#26a72b" stroke-miterlimit="10" stroke-width="2"/>
        <path id="Trazado_162" data-name="Trazado 162" d="M-990.992,589.3l-1.422-17.625h-1.636" fill="none" stroke="#26a72b" stroke-miterlimit="10" stroke-width="2"/>
        <line id="Línea_44" data-name="Línea 44" x2="13.848" transform="translate(-1000.175 589.304)" fill="none" stroke="#26a72b" stroke-miterlimit="10" stroke-width="2"/>
        <line id="Línea_45" data-name="Línea 45" x2="13.848" transform="translate(-1000.158 593.171)" fill="none" stroke="#26a72b" stroke-miterlimit="10" stroke-width="2"/>
        <path id="Trazado_163" data-name="Trazado 163" d="M-988.077,597.251c0,2.276-2.316,4.12-5.174,4.12s-5.174-1.844-5.174-4.12" fill="none" stroke="#26a72b" stroke-miterlimit="10" stroke-width="2"/>
      </g>
      <line id="Línea_46" data-name="Línea 46" y2="6.304" transform="translate(-993.246 534.643)" fill="none" stroke="#26a72b" stroke-linecap="round" stroke-miterlimit="10" stroke-width="2"/>
      <line id="Línea_47" data-name="Línea 47" x1="5.455" y2="3.154" transform="translate(-975.22 548.21)" fill="none" stroke="#26a72b" stroke-linecap="round" stroke-miterlimit="10" stroke-width="2"/>
      <line id="Línea_48" data-name="Línea 48" x1="5.455" y1="3.154" transform="translate(-975.227 571.901)" fill="none" stroke="#26a72b" stroke-linecap="round" stroke-miterlimit="10" stroke-width="2"/>
      <line id="Línea_49" data-name="Línea 49" x2="5.455" y2="3.154" transform="translate(-1016.737 548.21)" fill="none" stroke="#26a72b" stroke-linecap="round" stroke-miterlimit="10" stroke-width="2"/>
      <line id="Línea_50" data-name="Línea 50" y1="3.154" x2="5.455" transform="translate(-1016.731 571.901)" fill="none" stroke="#26a72b" stroke-linecap="round" stroke-miterlimit="10" stroke-width="2"/>
      <line id="Línea_51" data-name="Línea 51" x2="7.191" y2="8.577" transform="translate(-1012.148 534.643)" fill="none" stroke="#26a72b" stroke-linecap="round" stroke-miterlimit="10" stroke-width="2"/>
      <line id="Línea_52" data-name="Línea 52" x1="7.191" y2="8.577" transform="translate(-981.573 534.643)" fill="none" stroke="#26a72b" stroke-linecap="round" stroke-miterlimit="10" stroke-width="2"/>
      <line id="Línea_53" data-name="Línea 53" x2="11.15" y2="0.98" transform="translate(-1025.205 562.756)" fill="none" stroke="#26a72b" stroke-linecap="round" stroke-miterlimit="10" stroke-width="2"/>
      <line id="Línea_54" data-name="Línea 54" x1="11.15" y2="0.98" transform="translate(-972.447 562.756)" fill="none" stroke="#26a72b" stroke-linecap="round" stroke-miterlimit="10" stroke-width="2"/>
    </g>
  </g>
</svg>
