<svg xmlns="http://www.w3.org/2000/svg" width="105" height="105" viewBox="0 0 105 105">
  <g id="Grupo_2396" data-name="Grupo 2396" transform="translate(-1155 -966)">
    <circle id="Elipse_50" data-name="Elipse 50" cx="52.5" cy="52.5" r="52.5" transform="translate(1155 966)" fill="#f5f5f5"/>
    <g id="Grupo_2387" data-name="Grupo 2387" transform="translate(1566.711 458.287)">
      <g id="Grupo_2384" data-name="Grupo 2384" transform="translate(-390.71 526.713)">
        <path id="Trazado_155" data-name="Trazado 155" d="M-384.987,536.858l-2.341-2.514,4.292-4.422,2.688,2.558,5.159-2.168v-3.6h6.156v3.642l5.119,2.168,2.641-2.6,4.422,4.422-2.428,2.514,2.124,5.289h3.642v6.5h-3.338l-2.3,5.072,2.254,2.6-4.249,4.292-2.514-2.384-5.246,2.384-.043,3.815H-375.1l.043-3.9-5.462-2.3-2.558,2.471-4.249-4.422,2.254-2.471-2.254-5.463-3.382-.043V542.32h3.468Z" transform="translate(390.71 -526.713)" fill="none" stroke="#26a72b" stroke-linecap="round" stroke-linejoin="round" stroke-width="2"/>
        <circle id="Elipse_64" data-name="Elipse 64" cx="8.438" cy="8.438" r="8.438" transform="translate(10.16 10.42)" fill="none" stroke="#26a72b" stroke-linecap="round" stroke-linejoin="round" stroke-width="2"/>
      </g>
      <g id="Grupo_2385" data-name="Grupo 2385" transform="translate(-348.956 534.644)">
        <path id="Trazado_156" data-name="Trazado 156" d="M-348.191,543.091l-1.777-.917,1.482-3.266,1.975.873,2.4-2.2-.707-1.971,3.373-1.21.716,2,3.231.181.935-1.944,3.292,1.553-.836,1.855,2.2,2.48,2-.716,1.278,3.563-1.829.656-.262,3.23,1.746.982-1.484,3.186-1.846-.812-2.405,2.337.726,2.1-3.373,1.21-.743-2.146-3.444-.185-.916,1.857-3.2-1.588.749-1.8-2.309-2.549-1.861.641-1.176-3.278,1.9-.682Z" transform="translate(350.252 -534.398)" fill="none" stroke="#26a72b" stroke-linecap="round" stroke-linejoin="round" stroke-width="2"/>
        <circle id="Elipse_65" data-name="Elipse 65" cx="4.911" cy="4.911" r="4.911" transform="translate(5.917 6.025)" fill="none" stroke="#26a72b" stroke-linecap="round" stroke-linejoin="round" stroke-width="2"/>
      </g>
      <g id="Grupo_2386" data-name="Grupo 2386" transform="translate(-363.595 560.042)">
        <path id="Trazado_157" data-name="Trazado 157" d="M-360.795,571.171l-2.547-1.614,2.659-4.709,2.851,1.573,3.9-2.988-.8-3.055,5.226-1.37.811,3.092,4.829.7,1.663-2.8,4.738,2.77-1.5,2.675,2.981,4.017,3.092-.81,1.447,5.521-2.834.743-.822,4.818,2.493,1.707-2.652,4.589-2.665-1.465-3.923,3.192.812,3.248-5.226,1.37-.832-3.322-5.149-.735-1.621,2.667-4.591-2.809,1.364-2.6-3.13-4.136-2.88.716-1.332-5.079,2.944-.772Z" transform="translate(364.437 -559.008)" fill="none" stroke="#26a72b" stroke-linecap="round" stroke-linejoin="round" stroke-width="2"/>
        <circle id="Elipse_66" data-name="Elipse 66" cx="7.406" cy="7.406" r="7.406" transform="translate(9.107 9.289)" fill="none" stroke="#26a72b" stroke-linecap="round" stroke-linejoin="round" stroke-width="2"/>
      </g>
    </g>
  </g>
</svg>
