<svg xmlns="http://www.w3.org/2000/svg" width="50.779" height="68.843" viewBox="0 0 50.779 68.843">
  <g id="play-tap" transform="translate(-26.341 -37.838)">
    <g id="Grupo_1264" data-name="Grupo 1264" transform="translate(-70.128 35.338)">
      <path id="Trazado_9316" data-name="Trazado 9316" d="M218.458,9.588a1.362,1.362,0,0,0,1.358-1.358V3.858a1.358,1.358,0,1,0-2.716,0V8.23A1.362,1.362,0,0,0,218.458,9.588Z" transform="translate(-95.501)" fill="#fff"/>
      <path id="Trazado_9317" data-name="Trazado 9317" d="M251.9,25.485a1.415,1.415,0,0,0,.788.244,1.4,1.4,0,0,0,1.113-.57l2.526-3.558a1.354,1.354,0,0,0-2.213-1.562L251.585,23.6A1.351,1.351,0,0,0,251.9,25.485Z" transform="translate(-125.084 -14.661)" fill="#fff"/>
      <path id="Trazado_9318" data-name="Trazado 9318" d="M269.7,73.858a1.362,1.362,0,0,0,1.358,1.358h4.372a1.358,1.358,0,1,0,0-2.716h-4.372A1.362,1.362,0,0,0,269.7,73.858Z" transform="translate(-140.959 -60.495)" fill="#fff"/>
      <path id="Trazado_9319" data-name="Trazado 9319" d="M167.126,25.159a1.377,1.377,0,0,0,1.113.57,1.415,1.415,0,0,0,.788-.244,1.352,1.352,0,0,0,.326-1.887l-2.526-3.558a1.354,1.354,0,1,0-2.213,1.562Z" transform="translate(-49.927 -14.661)" fill="#fff"/>
      <path id="Trazado_9320" data-name="Trazado 9320" d="M133.658,75.216h4.372a1.358,1.358,0,0,0,0-2.716h-4.372a1.358,1.358,0,0,0,0,2.716Z" transform="translate(-22.216 -60.495)" fill="#fff"/>
      <path id="Trazado_9321" data-name="Trazado 9321" d="M147.085,128.041c-1.792-3.042-3.042-6.246-2.729-7.006.027-.068,2.838-7.387,2.865-10.157V99.554a3.367,3.367,0,0,0-3.367-3.367h-.014a.756.756,0,0,0-.747.76v2.607a.877.877,0,0,1-.815.883.841.841,0,0,1-.869-.828V95.25a3.754,3.754,0,0,0-3.53-3.761h-.2a1.991,1.991,0,0,0-1.955,2V96a.868.868,0,0,1-.815.883.847.847,0,0,1-.869-.815V90.755A3.631,3.631,0,0,0,130.6,87.1h-.2a1.913,1.913,0,0,0-1.887,1.942V94.53a.879.879,0,0,1-.828.883.847.847,0,0,1-.869-.815V73.334a3.716,3.716,0,0,0-3.558-3.734h-.19a4.548,4.548,0,0,0-4.427,4.576v29.547a45.745,45.745,0,0,0-4.291-6.178,5.06,5.06,0,0,0-5.988-1.358,2.781,2.781,0,0,0-1.738,2.173,2.929,2.929,0,0,0,.407,1.928c.842,1.4,1.887,3.72,3,6.165,2.689,5.934,5.744,12.655,9.057,14.746,2.593,1.629,8.215,7.794,8.269,7.862a.854.854,0,0,0,.625.272H146.42a.833.833,0,0,0,.828-.679A1.321,1.321,0,0,0,147.085,128.041Z" transform="translate(0 -57.989)" fill="#fff"/>
    </g>
    <g id="Grupo_1265" data-name="Grupo 1265" transform="translate(-4 18.186)">
      <path id="Trazado_9305" data-name="Trazado 9305" d="M40.12,27.325,35.23,31.046l-4.889,3.721V19.884L35.23,23.6Z" fill="#fff"/>
    </g>
  </g>
</svg>
