<?xml version="1.0" encoding="UTF-8" standalone="no"?>
<!-- Generator: Adobe Illustrator 16.0.0, SVG Export Plug-In . SVG Version: 6.00 Build 0)  -->

<svg
   xmlns:dc="http://purl.org/dc/elements/1.1/"
   xmlns:cc="http://creativecommons.org/ns#"
   xmlns:rdf="http://www.w3.org/1999/02/22-rdf-syntax-ns#"
   xmlns:svg="http://www.w3.org/2000/svg"
   xmlns="http://www.w3.org/2000/svg"
   xmlns:sodipodi="http://sodipodi.sourceforge.net/DTD/sodipodi-0.dtd"
   xmlns:inkscape="http://www.inkscape.org/namespaces/inkscape"
   version="1.1"
   id="Capa_1"
   x="0px"
   y="0px"
   width="405.07px"
   height="405.07px"
   viewBox="0 0 405.07 405.07"
   style="enable-background:new 0 0 405.07 405.07;"
   xml:space="preserve"
   sodipodi:docname="round.svg"
   inkscape:version="0.92.4 (5da689c313, 2019-01-14)"><metadata
   id="metadata3811"><rdf:RDF><cc:Work
       rdf:about=""><dc:format>image/svg+xml</dc:format><dc:type
         rdf:resource="http://purl.org/dc/dcmitype/StillImage" /></cc:Work></rdf:RDF></metadata><defs
   id="defs3809" /><sodipodi:namedview
   pagecolor="#ffffff"
   bordercolor="#666666"
   borderopacity="1"
   objecttolerance="10"
   gridtolerance="10"
   guidetolerance="10"
   inkscape:pageopacity="0"
   inkscape:pageshadow="2"
   inkscape:window-width="1920"
   inkscape:window-height="1017"
   id="namedview3807"
   showgrid="false"
   inkscape:zoom="2.0934653"
   inkscape:cx="202.535"
   inkscape:cy="202.535"
   inkscape:window-x="-8"
   inkscape:window-y="-8"
   inkscape:window-maximized="1"
   inkscape:current-layer="Capa_1" />
<g
   id="g3774"
   style="fill:#cccccc">
	<path
   d="M202.531,0C90.676,0,0,90.678,0,202.535C0,314.393,90.676,405.07,202.531,405.07c111.859,0,202.539-90.678,202.539-202.535   C405.07,90.678,314.391,0,202.531,0z M243.192,312.198c0,8.284-6.716,15-15,15h-27.629c-8.284,0-15-6.716-15-15v-168.35   l-17.1,9.231c-4.069,2.197-8.924,2.393-13.155,0.536c-4.233-1.858-7.373-5.565-8.51-10.046l-5.459-21.518   c-1.695-6.683,1.383-13.66,7.461-16.913l47.626-25.491c2.177-1.166,4.608-1.775,7.078-1.775h24.688c8.284,0,15,6.716,15,15V312.198   z"
   id="path3772"
   style="fill:#cccccc" />
</g>
<g
   id="g3776">
</g>
<g
   id="g3778">
</g>
<g
   id="g3780">
</g>
<g
   id="g3782">
</g>
<g
   id="g3784">
</g>
<g
   id="g3786">
</g>
<g
   id="g3788">
</g>
<g
   id="g3790">
</g>
<g
   id="g3792">
</g>
<g
   id="g3794">
</g>
<g
   id="g3796">
</g>
<g
   id="g3798">
</g>
<g
   id="g3800">
</g>
<g
   id="g3802">
</g>
<g
   id="g3804">
</g>
<path
   style="fill:#000000;stroke-width:0.4776769"
   d="m 196.56404,326.35253 c -4.03902,-1.2708 -7.27678,-3.95852 -9.23239,-7.66396 l -1.2765,-2.4187 -0.12453,-86.3782 c -0.0685,-47.50801 -0.28712,-86.30732 -0.48586,-86.22068 -0.19873,0.0866 -4.47332,2.36944 -9.49907,5.0729 -5.02576,2.70346 -9.85714,5.1217 -10.73639,5.37386 -3.97759,1.14076 -8.90975,0.18519 -12.55464,-2.43237 -3.95857,-2.84283 -4.78763,-4.74518 -8.47047,-19.43604 -3.12786,-12.47709 -3.29616,-13.4197 -2.85048,-15.96427 0.60482,-3.45313 2.00535,-6.18446 4.31824,-8.42145 1.20628,-1.16669 10.33762,-6.31835 26.74368,-15.088056 13.70159,-7.324061 25.71198,-13.602048 26.68975,-13.951082 1.32855,-0.474255 5.5451,-0.639907 16.68724,-0.655575 14.12289,-0.01986 15.05456,0.03331 17.65924,1.007849 3.71213,1.388885 7.32353,4.992731 8.55793,8.540013 0.88347,2.538803 0.90891,5.761772 0.90891,115.114901 v 112.50297 l -1.5925,3.23481 c -1.88538,3.82974 -5.05317,6.61106 -8.79546,7.7224 -3.23661,0.96117 -32.92535,1.01128 -35.9467,0.0607 z"
   id="path3823"
   inkscape:connector-curvature="0" /></svg>