<svg xmlns="http://www.w3.org/2000/svg" xmlns:xlink="http://www.w3.org/1999/xlink" width="72" height="72" viewBox="0 0 72 72">
  <defs>
    <clipPath id="clip-Mesa_de_trabajo_2">
      <rect width="72" height="72"/>
    </clipPath>
  </defs>
  <g id="Mesa_de_trabajo_2" data-name="Mesa de trabajo – 2" clip-path="url(#clip-Mesa_de_trabajo_2)">
    <rect width="72" height="72" fill="#fff"/>
    <g id="Grupo_2947" data-name="Grupo 2947" transform="translate(-840 -567.134)">
      <path id="Trazado_967" data-name="Trazado 967" d="M62.682,26.742l-.167-.155L61.5,25.594l-.908-.872a20.635,20.635,0,0,1-2.916-3.143,4.78,4.78,0,0,1-1.195-2.6,3.441,3.441,0,0,1,.8-2.39,3.226,3.226,0,0,1,1.828-1.075,3.286,3.286,0,0,1,2.055.275,4.23,4.23,0,0,1,1.47,1.195,4.23,4.23,0,0,1,1.47-1.195,3.3,3.3,0,0,1,2.055-.275,3.226,3.226,0,0,1,1.828,1.075,3.441,3.441,0,0,1,.8,2.39,4.779,4.779,0,0,1-1.195,2.6,20,20,0,0,1-2.916,3.143l-.908.872-1.016.992Z" transform="translate(837.479 561.427)" fill="none" stroke="#4a4a4a" stroke-linecap="round" stroke-linejoin="round" stroke-width="2"/>
      <path id="Trazado_968" data-name="Trazado 968" d="M56.178,32.259H55.5A2.521,2.521,0,0,1,53,29.726V14a2.509,2.509,0,0,1,2.521-2.521h15.7A2.509,2.509,0,0,1,73.743,14V29.726a2.521,2.521,0,0,1-2.521,2.533h-9.8" transform="translate(836.741 560.654)" fill="rgba(0,0,0,0)" stroke="#4a4a4a" stroke-linecap="round" stroke-linejoin="round" stroke-width="2"/>
      <path id="Trazado_969" data-name="Trazado 969" d="M55.66,28.87v3.561l5.246-3.561" transform="translate(837.259 564.043)" fill="rgba(0,0,0,0)" stroke="#4a4a4a" stroke-linecap="round" stroke-linejoin="round" stroke-width="2"/>
      <path id="Trazado_970" data-name="Trazado 970" d="M7.021,43.008h3.348l1.753-1.982v-2.72S15.6,36.565,15.4,43.141h2.321s.991,0,.991,1.571v3.324s0,1.547-.87,1.6H7.553a.58.58,0,0,1-.653-.616C6.924,48.411,7.021,43.008,7.021,43.008Z" transform="translate(838.705 561.271)" fill="none" stroke="#4a4a4a" stroke-linecap="round" stroke-linejoin="round" stroke-width="2"/>
      <path id="Trazado_973" data-name="Trazado 973" d="M.116,0V6.386" transform="translate(848.958 604.279)" fill="none" stroke="#4a4a4a" stroke-linecap="round" stroke-width="2"/>
      <path id="Trazado_971" data-name="Trazado 971" d="M24.109,52.01V52.7a2.55,2.55,0,0,1-2.55,2.55H5.64A2.55,2.55,0,0,1,3.09,52.7V36.792A2.562,2.562,0,0,1,5.64,34.23H21.559a2.562,2.562,0,0,1,2.55,2.562V46.7" transform="translate(837.91 560.464)" fill="none" stroke="#4a4a4a" stroke-linecap="round" stroke-linejoin="round" stroke-width="2"/>
      <path id="Trazado_972" data-name="Trazado 972" d="M20.48,49.856l3.554-5.306H20.48" transform="translate(841.539 562.617)" fill="none" stroke="#4a4a4a" stroke-linecap="round" stroke-linejoin="round" stroke-width="2"/>
      <rect id="Rectángulo_2448" data-name="Rectángulo 2448" width="13.164" height="8.721" transform="translate(873.2 612.309)" fill="none" stroke="#4a4a4a" stroke-linecap="round" stroke-linejoin="round" stroke-width="1"/>
      <path id="Trazado_974" data-name="Trazado 974" d="M51.7,43.935,48.5,41.61v4.66Z" transform="translate(829.68 572.73)" fill="none" stroke="#4a4a4a" stroke-linecap="round" stroke-linejoin="round" stroke-width="1"/>
      <line id="Línea_118" data-name="Línea 118" x2="13.139" transform="translate(873.225 610.008)" fill="none" stroke="#4a4a4a" stroke-linecap="round" stroke-linejoin="round" stroke-width="1"/>
      <line id="Línea_119" data-name="Línea 119" x2="13.139" transform="translate(873.2 608.735)" fill="none" stroke="#4a4a4a" stroke-linecap="round" stroke-linejoin="round" stroke-width="1"/>
      <line id="Línea_120" data-name="Línea 120" x2="13.139" transform="translate(873.2 607.472)" fill="none" stroke="#4a4a4a" stroke-linecap="round" stroke-linejoin="round" stroke-width="1"/>
      <path id="Icon_ionic-ios-phone-portrait" data-name="Icon ionic-ios-phone-portrait" d="M27.8,2.25H13.177a3.034,3.034,0,0,0-3.052,3.033V40.413a3.124,3.124,0,0,0,3.052,3.144H27.791a3.062,3.062,0,0,0,2.978-3.144V5.283A2.959,2.959,0,0,0,27.8,2.25ZM19.069,4.371h2.766a.369.369,0,1,1,0,.738H19.069a.369.369,0,1,1,0-.738Zm1.429,37.8a1.6,1.6,0,1,1,1.6-1.6A1.605,1.605,0,0,1,20.5,42.174Zm8.621-4.518H11.785a.185.185,0,0,1-.184-.184V7.137a.185.185,0,0,1,.184-.184H29.119a.185.185,0,0,1,.184.184V37.471A.185.185,0,0,1,29.119,37.656Z" transform="translate(859.335 591.437)" fill="#4a4a4a"/>
    </g>
  </g>
</svg>
