<svg xmlns="http://www.w3.org/2000/svg" width="408.09" height="386.02" viewBox="0 0 408.09 386.02">
  <g id="success" transform="translate(-4324.91 3436.933)">
    <g id="Mail-ilustracion" transform="translate(4168.685 -3539.234)">
      <g id="Grupo_375" data-name="Grupo 375" transform="translate(163.877 102.301)">
        <g id="Grupo_364" data-name="Grupo 364" transform="translate(3.581)">
          <path id="Trazado_1388" data-name="Trazado 1388" d="M136.479,0A136.479,136.479,0,1,1,0,136.479,136.479,136.479,0,0,1,136.479,0Z" transform="translate(0 193.01) rotate(-45)" fill="#00a82d"/>
        </g>
        <g id="Grupo_374" data-name="Grupo 374" transform="translate(-10 7.906)">
          <g id="Grupo_365" data-name="Grupo 365" transform="translate(2.348)">
            <path id="Trazado_1354" data-name="Trazado 1354" d="M163.011,110.469l40.05,93.97,29.272-20.025L249.3,209.063l3.061-41.58L287.783,145.9Z" transform="translate(-163.011 -110.469)" fill="#ffab00"/>
            <path id="Trazado_1355" data-name="Trazado 1355" d="M220.931,167.244,185.17,191.717l29.272-20.025,16.964,24.649,3.061-41.58-56.45-33.619Z" transform="translate(-145.12 -97.746)" fill="#ff9433"/>
            <path id="Trazado_1356" data-name="Trazado 1356" d="M233.717,164.952l-55.7-43.811,56.45,33.619Z" transform="translate(-145.12 -97.746)" fill="#f73"/>
          </g>
        </g>
      </g>
      <g id="Grupo_376" data-name="Grupo 376" transform="translate(160.315 111.012)" opacity="0.4">
        <path id="Trazado_1375" data-name="Trazado 1375" d="M192.968,218.877a9.55,9.55,0,1,0,9.549,9.551A9.55,9.55,0,0,0,192.968,218.877Zm0,13.416a3.866,3.866,0,1,1,3.865-3.865A3.866,3.866,0,0,1,192.968,232.293Z" transform="translate(-132.772 27.971)" fill="#00be62"/>
        <path id="Trazado_1376" data-name="Trazado 1376" d="M309.715,236.507a9.55,9.55,0,1,0,9.549,9.549A9.549,9.549,0,0,0,309.715,236.507Zm0,13.416a3.866,3.866,0,1,1,3.865-3.867A3.868,3.868,0,0,1,309.715,249.923Z" transform="translate(6.416 48.99)" fill="#00be62"/>
        <path id="Trazado_1377" data-name="Trazado 1377" d="M344.14,168.839a7.313,7.313,0,1,0,7.313,7.313A7.312,7.312,0,0,0,344.14,168.839Zm0,10.273a2.959,2.959,0,1,1,2.96-2.959A2.96,2.96,0,0,1,344.14,179.112Z" transform="translate(50.128 -31.685)" fill="#00be62"/>
        <path id="Trazado_1378" data-name="Trazado 1378" d="M285.632,115.477a7.732,7.732,0,1,0,7.732,7.732A7.732,7.732,0,0,0,285.632,115.477Zm0,10.862a3.129,3.129,0,1,1,3.128-3.13A3.13,3.13,0,0,1,285.632,126.339Z" transform="translate(-20.128 -95.304)" fill="#00be62"/>
        <path id="Trazado_1379" data-name="Trazado 1379" d="M173.029,197.656a8.129,8.129,0,1,0,8.131,8.129A8.128,8.128,0,0,0,173.029,197.656Z" transform="translate(-154.848 2.671)" fill="#00be62"/>
        <path id="Trazado_1380" data-name="Trazado 1380" d="M320.6,209.931a5.912,5.912,0,1,0,5.912,5.912A5.912,5.912,0,0,0,320.6,209.931Z" transform="translate(23.73 17.306)" fill="#00be62"/>
        <path id="Trazado_1381" data-name="Trazado 1381" d="M232.768,116.586a8.642,8.642,0,1,0,8.642,8.642A8.642,8.642,0,0,0,232.768,116.586Z" transform="translate(-84.238 -93.982)" fill="#00be62"/>
        <path id="Trazado_1383" data-name="Trazado 1383" d="M308.791,131.79a7.391,7.391,0,1,0,7.392,7.392A7.391,7.391,0,0,0,308.791,131.79Z" transform="translate(7.891 -75.855)" fill="#00be62"/>
        <circle id="Elipse_13" data-name="Elipse 13" cx="4.207" cy="4.207" r="4.207" transform="translate(50.685 113.396)" fill="#00be62"/>
        <path id="Trazado_1384" data-name="Trazado 1384" d="M345.232,152.026a7.177,7.177,0,1,0,7.177,7.18A7.178,7.178,0,0,0,345.232,152.026Z" transform="translate(51.59 -51.729)" fill="#00be62"/>
        <circle id="Elipse_14" data-name="Elipse 14" cx="4.58" cy="4.58" r="4.58" transform="translate(9.569 138.277)" fill="#00be62"/>
        <path id="Trazado_1385" data-name="Trazado 1385" d="M260.5,113.525l2.876-2.876a2.563,2.563,0,0,0-3.624-3.626l-2.876,2.876L254,107.023a2.564,2.564,0,0,0-3.626,3.626l2.876,2.876-2.876,2.876A2.564,2.564,0,0,0,254,120.027l2.876-2.876,2.876,2.876a2.563,2.563,0,0,0,3.624-3.626Z" transform="translate(-53.834 -106.275)" fill="#00be62"/>
        <path id="Trazado_1386" data-name="Trazado 1386" d="M171.191,153.175l2.876-2.876a2.564,2.564,0,0,0-3.626-3.626l-2.876,2.876-2.876-2.876a2.564,2.564,0,0,0-3.626,3.626l2.876,2.876-2.876,2.876a2.564,2.564,0,1,0,3.626,3.626l2.876-2.876,2.876,2.876a2.564,2.564,0,1,0,3.626-3.626Z" transform="translate(-160.315 -59.003)" fill="#00be62"/>
        <path id="Trazado_1387" data-name="Trazado 1387" d="M325.032,232.688l2.438-2.436a2.172,2.172,0,0,0-3.071-3.071l-2.436,2.436-2.436-2.436a2.172,2.172,0,0,0-3.071,3.071l2.436,2.436-2.436,2.436a2.172,2.172,0,0,0,3.071,3.071l2.436-2.436,2.436,2.436a2.172,2.172,0,0,0,3.071-3.071Z" transform="translate(25.083 37.117)" fill="#00be62"/>
      </g>
    </g>
    <path id="icon-check-white" d="M22.55,47.9l41.612,37.23L152.275,0l23.479,24.409L65.08,131.33,0,73.1Z" transform="translate(4442.909 -3310)" fill="#fff"/>
  </g>
</svg>
