<svg xmlns="http://www.w3.org/2000/svg" width="370.602" height="172.921" viewBox="0 0 370.602 172.921">
  <g id="Grupo_2889" data-name="Grupo 2889" transform="translate(-947.791 -1514.574)">
    <path id="Trazado_987" data-name="Trazado 987" d="M1039.36,480.477l.977,7.162-6.836.651.977-8.79Z" transform="translate(250.744 1191.174)" fill="#a0616a"/>
    <path id="Trazado_988" data-name="Trazado 988" d="M969.911,364.916s.651,8.79.651,9.115S966,396.82,966,396.82s-6.511,12.371,0,12.045,4.558-11.72,4.558-11.72l6.836-18.882-2.93-13.347Z" transform="translate(287.963 1208.42)" fill="#a0616a"/>
    <path id="Trazado_989" data-name="Trazado 989" d="M983.477,480.477l-.977,7.162,6.836.651-.977-8.79Z" transform="translate(285.141 1191.174)" fill="#a0616a"/>
    <path id="Trazado_990" data-name="Trazado 990" d="M989.728,457.544l-1.628,2.279s-.977,9.766,0,13.022,2.93,18.231,2.93,19.207.326,1.628,0,1.953-1.3.326-.651.977.651,2.6.651,2.6v1.628l4.232,24.091s-2.6,2.93-.651,2.93,9.115,0,8.79-3.255l-.651-.326s-.977-21.486-.651-22.463a8.309,8.309,0,0,0,0-2.93s-.651-.977,0-1.3.651-2.93.651-2.93l2.93-19.858s2.6,13.347,4.232,14.65,1.3,4.558,1.3,4.558l1.3,28.648s-1.3,3.255,0,3.907,6.837,2.93,7.162-.326,1.953-31.578,1.953-32.88-.326-1.953,0-2.93-.326-.977,0-.977-.651-.977-.651-1.628V470.24a24.04,24.04,0,0,1,.651-3.907c.326-.651-.326-1.3,0-2.279s-.651-4.232-.651-4.232l-14.65-3.907Z" transform="translate(271.402 1147.044)" fill="#2f2e41"/>
    <path id="Trazado_991" data-name="Trazado 991" d="M1009.837,681.544s1.628-1.628-.651-1.628a10.6,10.6,0,0,0-4.232.977l-1.628,5.86s-6.674,5.372.814,4.72,6.348-.163,6.348-.163,2.279-.651,2.6-1.3-.651-10.092-.651-10.092S1011.464,682.52,1009.837,681.544Z" transform="translate(262.688 995.967)" fill="#2f2e41"/>
    <path id="Trazado_992" data-name="Trazado 992" d="M1063.156,681.544s-1.628-1.628.651-1.628a10.6,10.6,0,0,1,4.232.977l1.628,5.86s6.674,5.372-.814,4.72-7.325-.163-7.325-.163-2.279-.651-2.6-1.3,1.628-10.092,1.628-10.092S1061.529,682.52,1063.156,681.544Z" transform="translate(223.367 995.967)" fill="#2f2e41"/>
    <rect id="Rectángulo_2447" data-name="Rectángulo 2447" width="2.898" height="114.48" transform="translate(1040.943 1572.337)" fill="#3f3d56"/>
    <path id="Trazado_993" data-name="Trazado 993" d="M291.387,256.768c.184,40.031-27.979,72.613-27.979,72.613s-28.463-32.321-28.647-72.352,27.979-72.613,27.979-72.613S291.2,216.737,291.387,256.768Z" transform="translate(779.202 1330.158)" fill="#134609"/>
    <rect id="Rectángulo_2448" data-name="Rectángulo 2448" width="224.302" height="47.53" transform="translate(1021.202 1639.422)" fill="#f2f2f2"/>
    <path id="Trazado_994" data-name="Trazado 994" d="M203.5,293.611,227.916,242.5h195l18.231,51.111Z" transform="translate(810.54 1351.02)" fill="#3f3d56"/>
    <rect id="Rectángulo_2449" data-name="Rectángulo 2449" width="90.502" height="29.95" transform="translate(1074.917 1596.775)" fill="#f2f2f2"/>
    <path id="Trazado_995" data-name="Trazado 995" d="M378.824,177.5,364.5,207.45H471.931l-8.464-29.95Z" transform="translate(701.953 1394.859)" fill="#3f3d56"/>
    <rect id="Rectángulo_2450" data-name="Rectángulo 2450" width="71.458" height="38.089" transform="translate(1082.893 1648.862)" fill="#ccc"/>
    <rect id="Rectángulo_2451" data-name="Rectángulo 2451" width="38.089" height="36.787" transform="translate(1029.992 1650.165)" fill="#ccc"/>
    <rect id="Rectángulo_2452" data-name="Rectángulo 2452" width="19.696" height="34.508" transform="translate(1166.722 1652.443)" fill="#3f3d56"/>
    <rect id="Rectángulo_2453" data-name="Rectángulo 2453" width="370.602" transform="translate(947.791 1687.158)" fill="#3f3d56"/>
    <rect id="Rectángulo_2454" data-name="Rectángulo 2454" width="1.913" height="75.544" transform="translate(1006.358 1611.281)" fill="#3f3d56"/>
    <path id="Trazado_996" data-name="Trazado 996" d="M194.08,412.133c.122,26.416-18.463,47.917-18.463,47.917s-18.782-21.328-18.9-47.744,18.463-47.917,18.463-47.917S193.958,385.717,194.08,412.133Z" transform="translate(831.841 1208.775)" fill="#e6e6e6"/>
    <rect id="Rectángulo_2455" data-name="Rectángulo 2455" width="1.913" height="75.544" transform="translate(981.496 1611.281)" fill="#3f3d56"/>
    <path id="Trazado_998" data-name="Trazado 998" d="M117.708,412.133c.122,26.416-18.463,47.917-18.463,47.917s-18.782-21.328-18.9-47.744S98.8,364.389,98.8,364.389,117.586,385.717,117.708,412.133Z" transform="translate(883.351 1208.775)" fill="#dbecdf"/>
    <rect id="Rectángulo_2456" data-name="Rectángulo 2456" width="9.604" height="8.953" transform="translate(1207.74 1654.397)" fill="#3f3d56"/>
    <rect id="Rectángulo_2457" data-name="Rectángulo 2457" width="9.604" height="8.953" transform="translate(1220.6 1654.397)" fill="#3f3d56"/>
    <rect id="Rectángulo_2458" data-name="Rectángulo 2458" width="9.604" height="9.278" transform="translate(1207.74 1666.605)" fill="#3f3d56"/>
    <rect id="Rectángulo_2459" data-name="Rectángulo 2459" width="9.604" height="9.278" transform="translate(1220.6 1666.605)" fill="#3f3d56"/>
    <rect id="Rectángulo_2460" data-name="Rectángulo 2460" width="7.516" height="7.006" transform="translate(1083.219 1604.97)" fill="#3f3d56"/>
    <rect id="Rectángulo_2461" data-name="Rectángulo 2461" width="7.516" height="7.006" transform="translate(1093.282 1604.97)" fill="#3f3d56"/>
    <rect id="Rectángulo_2462" data-name="Rectángulo 2462" width="7.516" height="7.261" transform="translate(1083.219 1614.524)" fill="#3f3d56"/>
    <rect id="Rectángulo_2463" data-name="Rectángulo 2463" width="7.516" height="7.261" transform="translate(1093.282 1614.524)" fill="#3f3d56"/>
    <rect id="Rectángulo_2464" data-name="Rectángulo 2464" width="7.516" height="7.006" transform="translate(1139.538 1604.97)" fill="#3f3d56"/>
    <rect id="Rectángulo_2465" data-name="Rectángulo 2465" width="7.516" height="7.006" transform="translate(1149.602 1604.97)" fill="#3f3d56"/>
    <rect id="Rectángulo_2466" data-name="Rectángulo 2466" width="7.516" height="7.261" transform="translate(1139.538 1614.524)" fill="#3f3d56"/>
    <rect id="Rectángulo_2467" data-name="Rectángulo 2467" width="7.516" height="7.261" transform="translate(1149.602 1614.524)" fill="#3f3d56"/>
    <rect id="Rectángulo_2468" data-name="Rectángulo 2468" width="7.516" height="7.006" transform="translate(1111.541 1604.97)" fill="#3f3d56"/>
    <rect id="Rectángulo_2469" data-name="Rectángulo 2469" width="7.516" height="7.006" transform="translate(1121.605 1604.97)" fill="#3f3d56"/>
    <rect id="Rectángulo_2470" data-name="Rectángulo 2470" width="7.516" height="7.261" transform="translate(1111.541 1614.524)" fill="#3f3d56"/>
    <rect id="Rectángulo_2471" data-name="Rectángulo 2471" width="7.516" height="7.261" transform="translate(1121.605 1614.524)" fill="#3f3d56"/>
    <rect id="Rectángulo_2472" data-name="Rectángulo 2472" width="4.732" height="4.411" transform="translate(1171.116 1655.939)" fill="#f2f2f2"/>
    <rect id="Rectángulo_2473" data-name="Rectángulo 2473" width="4.732" height="4.411" transform="translate(1177.453 1655.939)" fill="#f2f2f2"/>
    <rect id="Rectángulo_2474" data-name="Rectángulo 2474" width="4.732" height="4.572" transform="translate(1171.116 1661.955)" fill="#f2f2f2"/>
    <rect id="Rectángulo_2475" data-name="Rectángulo 2475" width="4.732" height="4.572" transform="translate(1177.453 1661.955)" fill="#f2f2f2"/>
    <circle id="Elipse_55" data-name="Elipse 55" cx="1.363" cy="1.363" r="1.363" transform="translate(1182.142 1670.809)" fill="#f2f2f2"/>
    <rect id="Rectángulo_2476" data-name="Rectángulo 2476" width="71.759" height="0.908" transform="translate(1083.133 1652.642)" fill="#f2f2f2"/>
    <rect id="Rectángulo_2477" data-name="Rectángulo 2477" width="71.759" transform="translate(1083.133 1656.275)" fill="#f2f2f2"/>
    <rect id="Rectángulo_2478" data-name="Rectángulo 2478" width="71.759" transform="translate(1083.133 1659)" fill="#f2f2f2"/>
    <rect id="Rectángulo_2479" data-name="Rectángulo 2479" width="71.759" height="0.908" transform="translate(1083.133 1661.725)" fill="#f2f2f2"/>
    <rect id="Rectángulo_2480" data-name="Rectángulo 2480" width="71.759" height="0.908" transform="translate(1083.133 1664.45)" fill="#f2f2f2"/>
    <rect id="Rectángulo_2481" data-name="Rectángulo 2481" width="71.759" height="0.908" transform="translate(1083.133 1667.175)" fill="#f2f2f2"/>
    <rect id="Rectángulo_2482" data-name="Rectángulo 2482" width="71.759" transform="translate(1083.133 1670.809)" fill="#f2f2f2"/>
    <rect id="Rectángulo_2483" data-name="Rectángulo 2483" width="71.759" height="0.908" transform="translate(1083.133 1673.533)" fill="#f2f2f2"/>
    <rect id="Rectángulo_2484" data-name="Rectángulo 2484" width="71.759" height="0.908" transform="translate(1083.133 1676.258)" fill="#f2f2f2"/>
    <rect id="Rectángulo_2485" data-name="Rectángulo 2485" width="71.759" height="0.908" transform="translate(1083.133 1678.983)" fill="#f2f2f2"/>
    <rect id="Rectángulo_2486" data-name="Rectángulo 2486" width="71.759" transform="translate(1083.133 1682.617)" fill="#f2f2f2"/>
    <rect id="Rectángulo_2487" data-name="Rectángulo 2487" width="38.089" height="0.651" transform="translate(1029.992 1652.932)" fill="#f2f2f2"/>
    <rect id="Rectángulo_2488" data-name="Rectángulo 2488" width="38.089" height="0.651" transform="translate(1029.992 1655.862)" fill="#f2f2f2"/>
    <rect id="Rectángulo_2489" data-name="Rectángulo 2489" width="38.089" height="0.651" transform="translate(1029.992 1658.792)" fill="#f2f2f2"/>
    <rect id="Rectángulo_2490" data-name="Rectángulo 2490" width="38.089" height="0.651" transform="translate(1029.992 1661.722)" fill="#f2f2f2"/>
    <rect id="Rectángulo_2491" data-name="Rectángulo 2491" width="38.089" height="0.651" transform="translate(1029.992 1664.651)" fill="#f2f2f2"/>
    <rect id="Rectángulo_2492" data-name="Rectángulo 2492" width="38.089" height="0.651" transform="translate(1029.992 1667.582)" fill="#f2f2f2"/>
    <rect id="Rectángulo_2493" data-name="Rectángulo 2493" width="38.089" height="0.651" transform="translate(1029.992 1670.512)" fill="#f2f2f2"/>
    <rect id="Rectángulo_2494" data-name="Rectángulo 2494" width="38.089" height="0.651" transform="translate(1029.992 1673.441)" fill="#f2f2f2"/>
    <rect id="Rectángulo_2495" data-name="Rectángulo 2495" width="38.089" height="0.651" transform="translate(1029.992 1676.371)" fill="#f2f2f2"/>
    <rect id="Rectángulo_2496" data-name="Rectángulo 2496" width="38.089" height="0.651" transform="translate(1029.992 1679.301)" fill="#f2f2f2"/>
    <rect id="Rectángulo_2497" data-name="Rectángulo 2497" width="38.089" height="0.651" transform="translate(1029.992 1682.231)" fill="#f2f2f2"/>
    <circle id="Elipse_56" data-name="Elipse 56" cx="30.718" cy="30.718" r="30.718" transform="translate(1198.065 1557.898)" fill="#134609"/>
    <circle id="Elipse_57" data-name="Elipse 57" cx="8.464" cy="8.464" r="8.464" transform="translate(1256.898 1530.689)" fill="#a0616a"/>
    <path id="Trazado_1000" data-name="Trazado 1000" d="M998,272.171s1.3,6.511,1.3,7.488,5.534,3.907,5.534,3.907l6.185-7.813s-3.907-5.534-3.907-6.836Z" transform="translate(264.433 1273.167)" fill="#a0616a"/>
    <path id="Trazado_1001" data-name="Trazado 1001" d="M986.7,290.8s-2.837-.755-3.7-2.005c0,0-9,8.842-9,10.47l7.162,12.7s0,4.558.651,4.883,0,0,0,1.3-1.953,9.766-1.3,11.069,1.3.326.651,2.279-2.279,12.371-2.279,12.371,5.86-1.953,14.324,1.3,18.556-1.3,18.556-1.3-2.6-5.86-1.953-7.813-1.628-5.534-1.628-5.534l-1.628-29.95s2.279-13.347.651-14l-3.255-1.3-10.425-1.281S990.928,290.47,986.7,290.8Z" transform="translate(280.619 1263.007)" fill="#d0cde1"/>
    <path id="Trazado_1002" data-name="Trazado 1002" d="M975.757,323.916l-3.255,2.279s-1.628,4.883,0,7.162a16.694,16.694,0,0,1,2.279,5.534l6.511-.651Z" transform="translate(282.118 1236.072)" fill="#d0cde1"/>
    <path id="Trazado_1004" data-name="Trazado 1004" d="M980.3,222.142h0s2.551-4.477,6.823-4.183h0a10.86,10.86,0,0,1,4.4.588,26.054,26.054,0,0,1,4.039,5.677l.349.495.568.95v.666l-.061.519a8,8,0,0,1-.223,3.742l.063,1.142s-2.733-4.228-2.733-4.816l1.221,2.214s-2.689-2.067-2.689-2.949l1.468.735-2.669-1.323-8.365.068,4.228.225-4.228-.225,2.359-.95s-3.47,1.91-3.6,3.527-1.869,3.674-1.869,3.674l-.8-1.47S976.433,224.346,980.3,222.142Z" transform="translate(277.646 1308.576)" fill="#2f2e41"/>
    <path id="Trazado_1005" data-name="Trazado 1005" d="M1056.279,291.916h4.883s3.581.651,4.558,7.162,1.953,8.139.977,8.139-12.7-.326-12.7-.651S1056.279,291.916,1056.279,291.916Z" transform="translate(226.663 1257.655)" fill="#d0cde1"/>
    <path id="Path_341" data-name="Path 341" d="M615.446,256.9a32.528,32.528,0,1,0,32.528,32.528A32.528,32.528,0,0,0,615.446,256.9Zm0,9.759a9.759,9.759,0,1,1-9.758,9.758,9.758,9.758,0,0,1,9.758-9.758Zm0,46.977a23.7,23.7,0,0,1-19.517-10.415c.156-6.505,13.011-10.087,19.517-10.087s19.361,3.581,19.517,10.087a23.735,23.735,0,0,1-19.517,10.418Z" transform="translate(612.814 1299.832)" fill="#91aa98"/>
    <path id="Trazado_1003" data-name="Trazado 1003" d="M991.714,332.916a24.9,24.9,0,0,0-1.491,9.644,5.083,5.083,0,0,0,.84,2.4h0l-23.1,10.965s-10.436,1.08-7.831,5.638,12.045-2.279,12.045-2.279,24.742-3.581,26.695-7.162,3.255-18.556,3.255-18.556Z" transform="translate(290.252 1230.002)" fill="#a0616a"/>
  </g>
</svg>
