<svg xmlns="http://www.w3.org/2000/svg" width="259.732" height="230.786" viewBox="0 0 259.732 230.786">
  <g id="Grupo_2891" data-name="Grupo 2891" transform="translate(-584.457 -1506)">
    <path id="Path_339" data-name="Path 339" d="M566.777,164.843h-1.268V130.105A20.105,20.105,0,0,0,545.4,110h-73.6A20.106,20.106,0,0,0,451.7,130.105V320.68a20.106,20.106,0,0,0,20.106,20.106h73.6A20.106,20.106,0,0,0,565.51,320.68V189.57h1.267Z" transform="translate(217.967 1396)" fill="#3f3d56"/>
    <path id="Path_340" data-name="Path 340" d="M569.4,135.6V328.864a15.248,15.248,0,0,1-15.241,15.246H479.047a15.251,15.251,0,0,1-15.253-15.249V135.6a15.251,15.251,0,0,1,15.253-15.246h9.111a7.251,7.251,0,0,0,6.708,9.982h42.82a7.251,7.251,0,0,0,6.706-9.983h9.759A15.248,15.248,0,0,1,569.4,135.59Z" transform="translate(209.979 1389.163)" fill="#e6e6e6"/>
    <path id="Trazado_985" data-name="Trazado 985" d="M571.358,372.057h-89.6a2.888,2.888,0,0,1-2.885-2.885V180.81a2.888,2.888,0,0,1,2.885-2.885h89.6a2.888,2.888,0,0,1,2.885,2.885V369.172a2.888,2.888,0,0,1-2.885,2.885Z" transform="translate(200.017 1351.128)" fill="#fff"/>
    <circle id="Ellipse_56" data-name="Ellipse 56" cx="24.686" cy="24.686" r="24.686" transform="translate(701.55 1543.277)" fill="#e6e6e6"/>
    <circle id="Ellipse_60" data-name="Ellipse 60" cx="21.344" cy="21.344" r="21.344" transform="translate(704.553 1546.619)" fill="#fff"/>
    <path id="Path_341" data-name="Path 341" d="M595.087,256.9a12.169,12.169,0,1,0,12.169,12.169A12.169,12.169,0,0,0,595.087,256.9Zm0,3.651a3.651,3.651,0,1,1-3.651,3.651,3.651,3.651,0,0,1,3.651-3.651Zm0,17.575a8.865,8.865,0,0,1-7.3-3.9c.058-2.434,4.868-3.774,7.3-3.774s7.243,1.34,7.3,3.774a8.88,8.88,0,0,1-7.3,3.9Z" transform="translate(131.284 1298.957)" fill="#91aa98"/>
    <rect id="Rectangle_26" data-name="Rectangle 26" width="42.708" height="3.21" transform="translate(703.901 1600.944)" fill="#e6e6e6"/>
    <rect id="Rectangle_27" data-name="Rectangle 27" width="53.749" height="3.21" transform="translate(698.187 1609.286)" fill="#e6e6e6"/>
    <rect id="Rectangle_25-2" data-name="Rectangle 25-2" width="75.716" height="75.716" transform="translate(688.718 1633.245)" fill="#e6e6e6"/>
    <rect id="Rectangle_25-3" data-name="Rectangle 25-3" width="72.513" height="72.513" transform="translate(689.921 1634.847)" fill="#fff"/>
    <g id="Group_22" data-name="Group 22" transform="translate(704.854 1641.847)">
      <rect id="Rectangle_28" data-name="Rectangle 28" width="28.226" height="2.122" fill="#dbecdf"/>
      <rect id="Rectangle_29" data-name="Rectangle 29" width="43.588" height="2.122" transform="translate(0 6.229)" fill="#134609"/>
      <rect id="Rectangle_30" data-name="Rectangle 30" width="35.523" height="2.122" transform="translate(0.453 12.16)" fill="#e6e6e6"/>
      <rect id="Rectangle_31" data-name="Rectangle 31" width="20.738" height="2.122" transform="translate(0 18.668)" fill="#dbecdf"/>
      <rect id="Rectangle_32" data-name="Rectangle 32" width="31.299" height="2.122" transform="translate(0 25.025)" fill="#134609"/>
      <rect id="Rectangle_38" data-name="Rectangle 38" width="28.226" height="2.122" transform="translate(0 31.422)" fill="#e6e6e6"/>
      <rect id="Rectangle_39" data-name="Rectangle 39" width="43.588" height="2.122" transform="translate(0 37.65)" fill="#134609"/>
      <rect id="Rectangle_40" data-name="Rectangle 40" width="35.523" height="2.122" transform="translate(0.453 43.582)" fill="#dbecdf"/>
      <rect id="Rectangle_41" data-name="Rectangle 41" width="20.738" height="2.122" transform="translate(0 50.09)" fill="#e6e6e6"/>
      <rect id="Rectangle_42" data-name="Rectangle 42" width="31.299" height="2.122" transform="translate(0 56.447)" fill="#e6e6e6"/>
    </g>
    <g id="Group_23" data-name="Group 23" transform="translate(764.434 1546.619)">
      <path id="Path_385" data-name="Path 385" d="M915.942,553.732a4.391,4.391,0,1,1-7.623-4.359l.03-.051a4.728,4.728,0,0,1,.413-.587l-3.693-26.325-.11-.789-.75-5.372-.111-.774.409.019,7.156.327,1.919.086.24,4.9,1.361,27.551A4.384,4.384,0,0,1,915.942,553.732Z" transform="translate(-853.168 -457.329)" fill="#ffb8b8"/>
      <path id="Path_386" data-name="Path 386" d="M900.825,498.585l9.087-.833a1.794,1.794,0,0,0,1.618-1.941l-1.683-18.9a6.89,6.89,0,0,0-13.725,1.225q.018.2.046.389l2.725,18.534a1.791,1.791,0,0,0,1.769,1.53A1.26,1.26,0,0,0,900.825,498.585Z" transform="translate(-849.014 -434.054)" fill="#48999a"/>
      <path id="Path_387" data-name="Path 387" d="M887.263,479.38a12.656,12.656,0,0,0-4.655-14.566c-3.427-2.344-8.115-3.186-13.165,2.825A62.864,62.864,0,0,0,856.7,492.887l20.679,3.366S884.411,487.657,887.263,479.38Z" transform="translate(-828.565 -430.115)" fill="#48999a"/>
      <path id="Path_388" data-name="Path 388" d="M841.315,754.068h-5.9l-2.8-22.741h8.7Z" transform="translate(-816.062 -569.376)" fill="#ffb8b8"/>
      <path id="Path_389" data-name="Path 389" d="M814.805,782.27h18.53V775.11H821.965A7.159,7.159,0,0,0,814.805,782.27Z" transform="translate(-806.818 -592.104)" fill="#2f2e41"/>
      <path id="Path_390" data-name="Path 390" d="M934.879,744.615l-5.6,1.85-9.8-20.712,8.262-2.731Z" transform="translate(-861.154 -565.065)" fill="#ffb8b8"/>
      <path id="Path_391" data-name="Path 391" d="M920.591,776.383l17.594-5.815-2.247-6.8-10.8,3.568A7.159,7.159,0,0,0,920.591,776.383Z" transform="translate(-861.541 -586.217)" fill="#2f2e41"/>
      <circle id="Ellipse_65" data-name="Ellipse 65" cx="11.812" cy="11.812" r="11.812" transform="translate(33.906 5.113)" fill="#ffb8b8"/>
      <path id="Path_392" data-name="Path 392" d="M836.609,639.2l5.475-36.138a1.683,1.683,0,0,1,3.3-.144l8.338,34.439a2.18,2.18,0,0,0,2.447,1.628l23-3.7a2.164,2.164,0,0,0,1.728-2.765l-29.99-98.875a1.684,1.684,0,0,1-.029-.866l1-4.328a2.156,2.156,0,0,0-1.119-2.411c-4.084-2.084-14.427-6.416-22.233-1.671a2.188,2.188,0,0,0-1,1.407L804.1,635.892a2.164,2.164,0,0,0,1.924,2.606l28.257,2.531q.1.009.192.009a2.168,2.168,0,0,0,2.139-1.839Z" transform="translate(-801.234 -460.836)" fill="#2f2e41"/>
      <path id="Path_393" data-name="Path 393" d="M906.319,405.477a8.935,8.935,0,0,1-2.335-2.029,3.03,3.03,0,0,1-.467-2.933,3.078,3.078,0,0,1,3.744-1.285,8.942,8.942,0,0,1,3.44,2.565,8.841,8.841,0,0,1,2.212,3.073,2.688,2.688,0,0,1-4.321,3.11,8.879,8.879,0,0,1-2.176-3.015Z" transform="translate(-852.77 -396.897)" fill="#2f2e41"/>
      <path id="Path_394" data-name="Path 394" d="M917.865,399.781c.065-3.328,3.859-5.715,7.135-5.125s5.794,3.383,7.055,6.464c2.663,6.509.664,13.936-1.9,20.487s-5.742,13.2-5.367,20.219a21.124,21.124,0,0,0,12.27,17.794c-3.7,1.676-8.117-.055-11.224-2.668A22.431,22.431,0,0,1,919.5,432.4c1.6-4.151,4.407-7.7,6.6-11.569s3.805-8.424,2.672-12.724-5.956-7.781-10.079-6.117Z" transform="translate(-860.315 -394.567)" fill="#2f2e41"/>
      <path id="Path_395" data-name="Path 395" d="M877.639,420.659c1.03-1.74,2.068-4.024.187-5.545a3.878,3.878,0,0,0-2.91-.77,13.877,13.877,0,0,1-6.486-.41,6.08,6.08,0,0,1-3.527-3.17c-1.058-2.512.267-5.565,2.484-7.153a8.368,8.368,0,0,1,9.261-.164,9.541,9.541,0,0,1,8.963,1.042,14.245,14.245,0,0,1,5.363,7.526,14.529,14.529,0,0,1,.444,7.99,11.875,11.875,0,0,1-7.366,8.117,4.276,4.276,0,0,1-4.223-.625,7.941,7.941,0,0,1-2.137-3.133C877.3,423.05,877.09,421.589,877.639,420.659Z" transform="translate(-832.63 -398.493)" fill="#2f2e41"/>
      <path id="Path_397" data-name="Path 397" d="M808.165,458.368a5.059,5.059,0,0,1,.115.789l20.659,11.918,5.021-2.891,5.353,7.008-8.392,5.982a3.847,3.847,0,0,1-4.617-.112L805,464.255a5.049,5.049,0,1,1,3.162-5.887Z" transform="translate(-798.196 -425.662)" fill="#ffb8b8"/>
      <path id="Path_398" data-name="Path 398" d="M863.07,479.539l6.677,8.653a2.164,2.164,0,0,0,3.27.179l7.558-7.849a6.011,6.011,0,1,0-7.178-9.645q-.1.073-.193.15l-9.48,5.3a2.164,2.164,0,0,0-.656,3.211Z" transform="translate(-831.637 -433.562)" fill="#48999a"/>
    </g>
    <path id="Path_552" data-name="Path 552" d="M325.458,517.313a4.846,4.846,0,0,0-.677.378l-21.533-9.19-.768-5.672-8.6-.053.508,13.01L322.8,523.3a5.066,5.066,0,0,0,.215.58,4.914,4.914,0,1,0,2.438-6.568Z" transform="translate(318.386 1096.119)" fill="#a0616a"/>
    <path id="Path_553" data-name="Path 553" d="M287.356,754.03h5.886l2.8-22.7h-8.687Z" transform="translate(321.776 977.291)" fill="#a0616a"/>
    <path id="Path_554" data-name="Path 554" d="M296.081,775.11H284.73v7.145h18.5a7.147,7.147,0,0,0-7.147-7.147h0Z" transform="translate(323.141 954.529)" fill="#2f2e41"/>
    <path id="Path_555" data-name="Path 555" d="M239.677,750.686l5.857.576,5.013-22.318-8.645-.849Z" transform="translate(346.565 978.972)" fill="#a0616a"/>
    <path id="Path_556" data-name="Path 556" d="M247.954,772.523l-11.294-1.112-.7,7.111,18.405,1.813a7.146,7.146,0,0,0-6.411-7.812Z" transform="translate(348.498 956.451)" fill="#2f2e41"/>
    <circle id="Ellipse_84" data-name="Ellipse 84" cx="11.791" cy="11.791" r="11.791" transform="translate(595.703 1551.286)" fill="#a0616a"/>
    <path id="Path_557" data-name="Path 557" d="M268.12,679.186a2.146,2.146,0,0,0,2.12-1.776c3.044-16.908,13-72.2,13.242-73.737a.681.681,0,0,0,.008-.107v-4.123a.715.715,0,0,0-.134-.419l-1.315-1.843a.71.71,0,0,0-.549-.3c-7.5-.351-32.062-1.382-33.249.1h0c-1.192,1.488-.768,6-.672,6.894l0,.093L236.531,674.54a2.166,2.166,0,0,0,1.784,2.465l6.892,1.135a2.17,2.17,0,0,0,2.412-1.485c2.132-6.811,9.279-29.726,11.757-38.592a.24.24,0,0,1,.471.067c-.124,8.452-.423,30.016-.528,37.464l-.011.8a2.169,2.169,0,0,0,1.965,2.178l6.646.6A1.986,1.986,0,0,0,268.12,679.186Z" transform="translate(348.214 1047.544)" fill="#2f2e41"/>
    <path id="Path_99" data-name="Path 99" d="M273.17,461.2a9.858,9.858,0,0,1,4,5.761A54.579,54.579,0,0,1,279.51,480l.747,13.25,9.244,35.128c-8.012,6.779-12.633,5.238-23.419-.307s-12.017,1.849-12.017,1.849l-2.157-29.889-3.081-32.661a14.488,14.488,0,0,1,2.334-2.244,23.84,23.84,0,0,1,20.376-4.321Z" transform="translate(341.808 1118.305)" fill="#e6e6e6"/>
    <path id="Path_102" data-name="Path 102" d="M260.011,413.463c1.469-1.175,3.474.96,3.474.96l1.175-10.577s7.345.88,12.047-.294,5.436,4.261,5.436,4.261a37.727,37.727,0,0,0,.147-6.611c-.294-2.644-4.113-5.289-10.871-7.052s-10.284,5.877-10.284,5.877C256.431,402.377,258.541,414.638,260.011,413.463Z" transform="translate(336.912 1152.733)" fill="#2f2e41"/>
    <g id="Grupo_2890" data-name="Grupo 2890" transform="translate(613 1605.994)">
      <path id="Trazado_1050" data-name="Trazado 1050" d="M765.679,186H732.59v-29.44h33.089Z" transform="translate(-731.916 -155.888)" fill="#fff"/>
      <path id="Trazado_1051" data-name="Trazado 1051" d="M570.537,375.861H536.09v-30.8h34.447ZM537.448,374.5h31.731V346.421H537.448Z" transform="translate(-536.09 -345.063)" fill="#ccc"/>
    </g>
    <path id="Icon_awesome-home" data-name="Icon awesome-home" d="M13.981,8.049,4.787,15.621v8.173a.8.8,0,0,0,.8.8l5.588-.014a.8.8,0,0,0,.794-.8V19.007a.8.8,0,0,1,.8-.8h3.192a.8.8,0,0,1,.8.8v4.769a.8.8,0,0,0,.8.8l5.586.015a.8.8,0,0,0,.8-.8V15.616L14.744,8.049A.608.608,0,0,0,13.981,8.049ZM28.5,13.2,24.336,9.759V2.852a.6.6,0,0,0-.6-.6H20.945a.6.6,0,0,0-.6.6V6.473L15.881,2.8a2.394,2.394,0,0,0-3.042,0L.216,13.2a.6.6,0,0,0-.08.843l1.272,1.546a.6.6,0,0,0,.843.081L13.981,6a.608.608,0,0,1,.763,0l11.731,9.662a.6.6,0,0,0,.843-.08l1.272-1.546A.6.6,0,0,0,28.5,13.2Z" transform="translate(615.861 1607.971)" fill="#134609"/>
    <path id="Path_558" data-name="Path 558" d="M271.545,529.747a5.044,5.044,0,0,0-.72.336l-21.292-10.658-.353-5.774-8.783-.605-.47,13.16,28.453,9.41a5.041,5.041,0,1,0,3.165-5.872Z" transform="translate(346.436 1090.779)" fill="#a0616a"/>
    <path id="Path_101" data-name="Path 101" d="M242.475,474.856c-5.238,1.849-6.161,21.879-6.161,21.879,6.163-3.389,13.558,2.157,13.558,2.157s1.541-5.239,3.389-12.017a11.776,11.776,0,0,0-2.465-11.093S247.713,473.006,242.475,474.856Z" transform="translate(348.314 1110.966)" fill="#e6e6e6"/>
  </g>
</svg>
