<svg xmlns="http://www.w3.org/2000/svg" width="207" height="230.786" viewBox="0 0 207 230.786">
  <g id="Grupo_2888" data-name="Grupo 2888" transform="translate(-1839.929 -6890.661)">
    <path id="Icon_open-home" data-name="Icon open-home" d="M19.973,0,0,14.98H4.993V34.953H14.98V24.966h9.986v9.986h9.986V14.83l4.993.15Z" transform="translate(1845.481 7033.402) rotate(-30)" fill="#91aa98"/>
    <path id="Trazado_1006" data-name="Trazado 1006" d="M394.667,200.228H345.59V156.562h49.077Z" transform="translate(1495.346 6735.247)" fill="#fff"/>
    <path id="Trazado_1007" data-name="Trazado 1007" d="M394.181,199.742H343.09v-45.68h51.091ZM345.1,197.728h47.062V156.077H345.1Z" transform="translate(1496.839 6736.74)" fill="#ccc"/>
    <path id="Trazado_1008" data-name="Trazado 1008" d="M136.949,557.84H132.01l-2.35-19.051h7.29Z" transform="translate(1762.504 6558.377)" fill="#ffb7b7"/>
    <path id="Trazado_1009" data-name="Trazado 1009" d="M470.364,715.989H454.439v-.2a6.2,6.2,0,0,1,6.2-6.2h9.728Z" transform="translate(1430.349 6405.015)" fill="#2f2e41"/>
    <path id="Trazado_1010" data-name="Trazado 1010" d="M245.554,550.967l-4.824,1.059-6.381-18.1,7.12-1.563Z" transform="translate(1699.991 6562.215)" fill="#ffb7b7"/>
    <path id="Trazado_1011" data-name="Trazado 1011" d="M587.519,707.734l-15.555,3.415-.043-.2a6.2,6.2,0,0,1,4.725-7.384h0l9.5-2.086Z" transform="translate(1360.283 6409.856)" fill="#2f2e41"/>
    <path id="Trazado_1018" data-name="Trazado 1018" d="M581.7,465.184a4.684,4.684,0,0,0-2.007-6.9l.221-10.7-6.47-1.72-.1,15.116a4.709,4.709,0,0,0,8.356,4.2Z" transform="translate(1359.517 6562.493)" fill="#ffb7b7"/>
    <path id="Trazado_1026" data-name="Trazado 1026" d="M781.667,391.228H732.59V347.562h49.077Z" transform="translate(1264.254 6621.193)" fill="#fff"/>
    <path id="Trazado_1027" data-name="Trazado 1027" d="M781.181,390.742H730.09v-45.68h51.091ZM732.1,388.728h47.063V347.077H732.1Z" transform="translate(1265.748 6622.687)" fill="#e6e6e6"/>
    <path id="Trazado_1028" data-name="Trazado 1028" d="M781.667,200.228H732.59V156.562h49.077Z" transform="translate(1264.254 6735.247)" fill="#fff"/>
    <path id="Trazado_1029" data-name="Trazado 1029" d="M781.181,199.742H730.09v-45.68h51.091ZM732.1,197.728h47.063V156.077H732.1Z" transform="translate(1265.748 6736.74)" fill="#e6e6e6"/>
    <path id="Trazado_1030" data-name="Trazado 1030" d="M587.667,391.228H538.59V347.562h49.077Z" transform="translate(1380.099 6621.193)" fill="#fff"/>
    <path id="Trazado_1031" data-name="Trazado 1031" d="M587.181,390.742H536.09v-45.68h51.091ZM538.1,388.728h47.063V347.077H538.1Z" transform="translate(1381.591 6622.687)" fill="#ccc"/>
    <path id="Trazado_1032" data-name="Trazado 1032" d="M394.667,391.228H345.59V347.562h49.077Z" transform="translate(1495.346 6621.193)" fill="#fff"/>
    <path id="Trazado_1033" data-name="Trazado 1033" d="M394.181,390.742H343.09v-45.68h51.091ZM345.1,388.728h47.062V347.077H345.1Z" transform="translate(1496.839 6622.687)" fill="#e6e6e6"/>
    <path id="Trazado_1034" data-name="Trazado 1034" d="M587.667,200.228H538.59V156.562h49.077Z" transform="translate(1380.099 6735.247)" fill="#fff"/>
    <path id="Trazado_1035" data-name="Trazado 1035" d="M587.181,199.742H536.09v-45.68h51.091ZM538.1,197.728h47.063V156.077H538.1Z" transform="translate(1381.591 6736.74)" fill="#e6e6e6"/>
    <path id="Trazado_1040" data-name="Trazado 1040" d="M466.824,448.229s-2.381.952,0,37.145l.952,59.051H477.3l10.72-80.25,13.091,37.391,11.905,44.288,9.524-2.381s-10-89.529-18.572-95.243S466.824,448.229,466.824,448.229Z" transform="translate(1423.585 6562.599)" fill="#2f2e41"/>
    <circle id="Elipse_59" data-name="Elipse 59" cx="9.898" cy="9.898" r="9.898" transform="translate(1899.636 6917.723)" fill="#ffb8b8"/>
    <path id="Trazado_1042" data-name="Trazado 1042" d="M490.938,224.314l2.1,5.353c.859,2.194,1.842,4.541,3.855,5.765,2.485,1.512,5.8.775,8.207-.863a12.816,12.816,0,0,0-5.768-23.327l-.1,1.792-2.2-1.843a2.138,2.138,0,0,1-3.323.47c.578,1.2-.089,2.657-1.052,3.575-1.183,1.127-4.565,2.481-4.425,4.495C488.323,221.074,490.392,222.921,490.938,224.314Z" transform="translate(1410.174 6702.626)" fill="#2f2e41"/>
    <path id="Trazado_1043" data-name="Trazado 1043" d="M438.024,464.472a4.683,4.683,0,0,0,.01-7.182l3.216-10.208-5.727-3.468-4.34,14.48a4.709,4.709,0,0,0,6.841,6.378Z" transform="translate(1444.779 6563.838)" fill="#ffb7b7"/>
    <path id="Trazado_1046" data-name="Trazado 1046" d="M498.883,725.38H345.391a.4.4,0,1,1,0-.806H498.883a.4.4,0,1,1,0,.806Z" transform="translate(1495.705 6396.067)" fill="#cbcbcb"/>
    <path id="Trazado_1047" data-name="Trazado 1047" d="M587.181,390.742H536.09v-45.68h51.091ZM538.1,388.728h47.063V347.077H538.1Z" transform="translate(1459.747 6545.599)" fill="#ccc"/>
    <path id="Icon_awesome-home" data-name="Icon awesome-home" d="M20.737,10.849,7.1,22.08V34.2a1.183,1.183,0,0,0,1.183,1.183l8.288-.021a1.183,1.183,0,0,0,1.178-1.183V27.1a1.183,1.183,0,0,1,1.183-1.183h4.734A1.183,1.183,0,0,1,24.851,27.1v7.074a1.183,1.183,0,0,0,1.183,1.187l8.285.023A1.183,1.183,0,0,0,35.5,34.2V22.072L21.869,10.849A.9.9,0,0,0,20.737,10.849Zm21.541,7.634-6.183-5.1V3.141a.888.888,0,0,0-.888-.888H31.065a.888.888,0,0,0-.888.888V8.512L23.555,3.063a3.55,3.55,0,0,0-4.512,0L.321,18.483A.888.888,0,0,0,.2,19.733l1.886,2.293a.888.888,0,0,0,1.251.121l17.4-14.33a.9.9,0,0,1,1.132,0l17.4,14.33a.888.888,0,0,0,1.25-.118L42.4,19.735a.888.888,0,0,0-.126-1.252Z" transform="translate(1844.172 6894.68)" fill="#134609"/>
    <g id="Icon_ionic-ios-home" data-name="Icon ionic-ios-home" transform="translate(2002.992 6895.114)">
      <path id="Trazado_1048" data-name="Trazado 1048" d="M21.114,7.336a.347.347,0,0,0-.442,0L6.883,18.367a.371.371,0,0,0-.133.274V38.972a.177.177,0,0,0,.177.177h9.547a.177.177,0,0,0,.177-.177V26.6a.177.177,0,0,1,.177-.177h8.132a.177.177,0,0,1,.177.177V38.972a.177.177,0,0,0,.177.177h9.547a.177.177,0,0,0,.177-.177V18.641a.357.357,0,0,0-.133-.274Z" transform="translate(-2.506 -2.377)" fill="#dbecdf"/>
      <path id="Trazado_1049" data-name="Trazado 1049" d="M39.679,17.182,22.972,3.8a1.94,1.94,0,0,0-2.422,0L13.275,9.713V5.983a.177.177,0,0,0-.177-.177H7.8a.177.177,0,0,0-.177.177v8.15l-3.774,3.1a1.237,1.237,0,0,0-.106,1.847,1.23,1.23,0,0,0,.875.362,1.246,1.246,0,0,0,.778-.274L21.646,6.089a.158.158,0,0,1,.115-.035.214.214,0,0,1,.115.035L38.132,19.118a1.246,1.246,0,0,0,.778.274,1.254,1.254,0,0,0,1.246-1.308A1.256,1.256,0,0,0,39.679,17.182Z" transform="translate(-3.374 -3.375)" fill="#dbecdf"/>
    </g>
    <path id="Icon_ionic-md-home" data-name="Icon ionic-md-home" d="M17.523,38.454V27.136h8.489V38.454h8.63V21.477h5.518L21.767,4.5,3.375,21.477H8.893V38.454Z" transform="translate(1999.617 6969.112)" fill="#91aa98"/>
    <g id="Icon_ionic-ios-home-2" data-name="Icon ionic-ios-home" transform="translate(1926.745 6971.795)">
      <path id="Trazado_1048-2" data-name="Trazado 1048" d="M21.432,7.338a.354.354,0,0,0-.452,0L6.886,18.613a.38.38,0,0,0-.136.28V39.674a.181.181,0,0,0,.181.181h9.758a.181.181,0,0,0,.181-.181V27.025a.181.181,0,0,1,.181-.181h8.312a.181.181,0,0,1,.181.181V39.674a.181.181,0,0,0,.181.181h9.758a.181.181,0,0,0,.181-.181V18.894a.365.365,0,0,0-.136-.28Z" transform="translate(-2.412 -2.269)" fill="#dbecdf"/>
      <path id="Trazado_1049-2" data-name="Trazado 1049" d="M40.483,17.488,23.406,3.809a1.983,1.983,0,0,0-2.476,0L13.495,9.853V6.04a.181.181,0,0,0-.181-.181H7.893a.181.181,0,0,0-.181.181v8.33L3.854,17.542a1.264,1.264,0,0,0-.108,1.888,1.257,1.257,0,0,0,.894.37,1.273,1.273,0,0,0,.8-.28L22.051,6.149a.162.162,0,0,1,.117-.036.219.219,0,0,1,.117.036L38.9,19.467a1.273,1.273,0,0,0,.8.28,1.282,1.282,0,0,0,1.274-1.337A1.284,1.284,0,0,0,40.483,17.488Z" transform="translate(-3.374 -3.375)" fill="#dbecdf"/>
    </g>
    <path id="Trazado_1041" data-name="Trazado 1041" d="M493.436,281.748s-8.572-4.286-16.668-1.429a47.516,47.516,0,0,0-12.382,6.191l5.238,27.621-7.143,37.145s36.669-2.857,40,0,3.333-3.334,3.333-3.334L502.96,312.7,508.2,290.32Z" transform="translate(1425.546 6661.933)" fill="#3f3d56"/>
    <path id="Trazado_1044" data-name="Trazado 1044" d="M451.486,297.142h-3.334s-5.238,3.334-5.238,8.1-7.619,60.48-7.619,60.48l8.1,1.428,7.143-39.05,5.239-10.477Z" transform="translate(1441.78 6651.302)" fill="#3f3d56"/>
    <path id="Trazado_1045" data-name="Trazado 1045" d="M553.5,306.6h9.048s2.857,2.857,4.286,9.524,2.857,32.859,2.857,32.859l-.953,23.811H561.6l-.952-30.954-4.762-20Z" transform="translate(1371.195 6645.655)" fill="#3f3d56"/>
  </g>
</svg>
