<svg xmlns="http://www.w3.org/2000/svg" width="255" height="366" viewBox="0 0 255 366">
  <g id="Grupo_2468" data-name="Grupo 2468" transform="translate(-0.458 -0.116)">
    <rect id="Rectángulo_2141" data-name="Rectángulo 2141" width="255" height="320" rx="57" transform="translate(0.458 46.116)" fill="rgba(216,232,222,0.92)"/>
    <g id="Grupo_2466" data-name="Grupo 2466" transform="translate(65.545)">
      <ellipse id="Elipse_38" data-name="Elipse 38" cx="63" cy="62.5" rx="63" ry="62.5" transform="translate(-0.087 0.116)" fill="#f5f5f5"/>
      <g id="Grupo_2304" data-name="Grupo 2304" transform="translate(20.938 32.829)">
        <path id="Trazado_77" data-name="Trazado 77" d="M25.05,26.128V20H93.319V68.346H85.007" transform="translate(-9.872 -20)" fill="none" stroke="#00a72c" stroke-linecap="round" stroke-linejoin="round" stroke-width="2"/>
        <rect id="Rectángulo_2132" data-name="Rectángulo 2132" width="68.268" height="48.33" transform="translate(0 11.25)" fill="none" stroke="#00a72c" stroke-linecap="round" stroke-linejoin="round" stroke-width="2"/>
        <path id="Trazado_78" data-name="Trazado 78" d="M19.76,29.022V23.9H88.028V72.23H81.162" transform="translate(-12.894 -17.772)" fill="none" stroke="#00a72c" stroke-linecap="round" stroke-linejoin="round" stroke-width="2"/>
        <path id="Trazado_79" data-name="Trazado 79" d="M42.451,32.04,28.2,47.328H56.859Z" transform="translate(-8.073 -13.123)" fill="none" stroke="#00a72c" stroke-linecap="round" stroke-linejoin="round" stroke-width="2" fill-rule="evenodd"/>
        <rect id="Rectángulo_2133" data-name="Rectángulo 2133" width="24.385" height="17.723" transform="translate(22.264 34.221)" fill="none" stroke="#00a72c" stroke-linecap="round" stroke-linejoin="round" stroke-width="2"/>
        <rect id="Rectángulo_2134" data-name="Rectángulo 2134" width="7.196" height="11.313" transform="translate(30.858 40.615)" fill="none" stroke="#00a72c" stroke-linecap="round" stroke-linejoin="round" stroke-width="2"/>
        <path id="Trazado_80" data-name="Trazado 80" d="M45.275,42.3V34.52H42.51V39.5" transform="translate(0.101 -11.706)" fill="none" stroke="#00a72c" stroke-linecap="round" stroke-linejoin="round" stroke-width="2" fill-rule="evenodd"/>
        <circle id="Elipse_32" data-name="Elipse 32" cx="3.378" cy="3.378" r="3.378" transform="translate(7.385 17.126)" fill="none" stroke="#00a72c" stroke-linecap="round" stroke-linejoin="round" stroke-width="2"/>
      </g>
    </g>
  </g>
</svg>
