<svg xmlns="http://www.w3.org/2000/svg" width="256" height="366" viewBox="0 0 256 366">
  <g id="Grupo_2469" data-name="Grupo 2469" transform="translate(0.458 -0.116)">
    <rect id="Rectángulo_2142" data-name="Rectángulo 2142" width="256" height="320" rx="57" transform="translate(-0.458 46.116)" fill="rgba(216,232,222,0.92)"/>
    <ellipse id="Elipse_39" data-name="Elipse 39" cx="63" cy="62.5" rx="63" ry="62.5" transform="translate(64.542 0.116)" fill="#f5f5f5"/>
    <g id="PlanoVirtual-02" transform="translate(80.672 25.619)">
      <path id="Trazado_81" data-name="Trazado 81" d="M66.148,21.107,61.584,18.77,9.15,55.362,47.766,91.5l55.053-51.665-7.607-3.89" transform="translate(-9.15 -18.77)" fill="none" stroke="#00a72c" stroke-linecap="round" stroke-linejoin="round" stroke-width="2"/>
      <path id="Trazado_82" data-name="Trazado 82" d="M43.263,74.4l42.8-36.436.737-5.286-27.15-13.3L27.515,40.209l9.254,7.168L24.3,55.016,42.9,70.183Z" transform="translate(-0.538 -18.423)" fill="none" stroke="#00a72c" stroke-linecap="round" stroke-linejoin="round" stroke-width="2"/>
      <line id="Línea_30" data-name="Línea 30" y1="37.345" x2="43.651" transform="translate(42.364 14.414)" fill="none" stroke="#00a72c" stroke-linecap="round" stroke-linejoin="round" stroke-width="2"/>
      <path id="Trazado_83" data-name="Trazado 83" d="M24.3,42.1v4.439l8.376,6.729" transform="translate(-0.538 -5.508)" fill="none" stroke="#00a72c" stroke-linecap="round" stroke-linejoin="round" stroke-width="2"/>
      <path id="Trazado_84" data-name="Trazado 84" d="M52.792,46.362l-9.442-6.87L55.4,30.16l9.332,5.756" transform="translate(10.292 -12.295)" fill="none" stroke="#00a72c" stroke-linecap="round" stroke-linejoin="round" stroke-width="2"/>
      <path id="Trazado_85" data-name="Trazado 85" d="M46.84,19.38l.329,5.709,22.288,11.2" transform="translate(12.276 -18.423)" fill="none" stroke="#00a72c" stroke-linecap="round" stroke-linejoin="round" stroke-width="2"/>
      <path id="Trazado_86" data-name="Trazado 86" d="M49.072,40.151l7.074-5.756.063-4.627L47.222,23.4v5.9L29.09,41.265" transform="translate(2.185 -16.138)" fill="none" stroke="#00a72c" stroke-linecap="round" stroke-linejoin="round" stroke-width="2"/>
      <path id="Trazado_87" data-name="Trazado 87" d="M46.6,37.183,39.65,32.65V37.4l5.8,3.576" transform="translate(8.188 -10.88)" fill="none" stroke="#00a72c" stroke-linecap="round" stroke-linejoin="round" stroke-width="2"/>
      <path id="Trazado_88" data-name="Trazado 88" d="M43.35,36.11v5.819l6.1,3.905" transform="translate(10.292 -8.913)" fill="none" stroke="#00a72c" stroke-linecap="round" stroke-linejoin="round" stroke-width="2"/>
      <line id="Línea_31" data-name="Línea 31" y1="8.14" x2="10.571" transform="translate(47.838 13.63)" fill="none" stroke="#00a72c" stroke-linecap="round" stroke-linejoin="round" stroke-width="2"/>
      <line id="Línea_32" data-name="Línea 32" x1="5.552" y2="3.78" transform="translate(53.893 6.666)" fill="none" stroke="#00a72c" stroke-linecap="round" stroke-linejoin="round" stroke-width="2"/>
      <path id="Trazado_89" data-name="Trazado 89" d="M26.35,32.66l.533,5.945,5.1,3.451" transform="translate(0.628 -10.874)" fill="none" stroke="#00a72c" stroke-linecap="round" stroke-linejoin="round" stroke-width="2"/>
      <path id="Trazado_90" data-name="Trazado 90" d="M35.206,37.23l.376,5.443L27.05,48.382" transform="translate(1.026 -8.276)" fill="none" stroke="#00a72c" stroke-linecap="round" stroke-linejoin="round" stroke-width="2"/>
      <line id="Línea_33" data-name="Línea 33" x1="5.505" y1="3.137" transform="translate(49.407 13.175)" fill="none" stroke="#00a72c" stroke-linecap="round" stroke-linejoin="round" stroke-width="2"/>
      <path id="Trazado_91" data-name="Trazado 91" d="M31.842,51.532,27.184,54.9l2.588,2.321L26.98,59.186,40.563,72.455l2.086-1.992-7.042-6.791,6.133-4.658L31.152,50.795V46.45" transform="translate(0.986 -3.035)" fill="none" stroke="#00a72c" stroke-linecap="round" stroke-linejoin="round" stroke-width="2"/>
    </g>
  </g>
</svg>
