<svg xmlns="http://www.w3.org/2000/svg" width="323" height="313" viewBox="0 0 323 313">
  <g id="Grupo_2561" data-name="Grupo 2561" transform="translate(13673 -8815)">
    <rect id="Rectángulo_2248" data-name="Rectángulo 2248" width="323" height="313" transform="translate(-13673 8815)" fill="#f5f5f5"/>
    <g id="Grupo_2410" data-name="Grupo 2410" transform="translate(-13543.506 8969)">
      <circle id="Elipse_37" data-name="Elipse 37" cx="32.5" cy="32.5" r="32.5" transform="translate(-0.494)" fill="#48999a"/>
    </g>
    <g id="Grupo_2457" data-name="Grupo 2457" transform="translate(-12241.488 8323.061)">
      <g id="Grupo_2424" data-name="Grupo 2424" transform="translate(-1318.512 526.819)">
        <path id="Trazado_41" data-name="Trazado 41" d="M-1293.1,565.19a12.707,12.707,0,0,0-12.707-12.707,12.707,12.707,0,0,0-12.707,12.707Z" transform="translate(1318.512 -538.735)" fill="#48999a"/>
        <circle id="Elipse_43" data-name="Elipse 43" cx="7.052" cy="7.052" r="7.052" transform="translate(5.654 0)" fill="#48999a"/>
        <g id="Icon_feather-plus-circle" data-name="Icon feather-plus-circle" transform="translate(16.266 17.562)">
          <path id="Trazado_24" data-name="Trazado 24" d="M-1277.34,565.987a7.251,7.251,0,0,1-7.251,7.251,7.251,7.251,0,0,1-7.251-7.251,7.251,7.251,0,0,1,7.251-7.251,7.251,7.251,0,0,1,7.251,7.251Z" transform="translate(1291.841 -558.736)" fill="#fff" stroke="#48999a" stroke-linecap="round" stroke-linejoin="round" stroke-width="3"/>
          <path id="Trazado_25" data-name="Trazado 25" d="M-1279.952,565.869v5.8" transform="translate(1287.203 -561.519)" fill="#fff" stroke="#48999a" stroke-linecap="round" stroke-linejoin="round" stroke-width="3"/>
          <path id="Trazado_26" data-name="Trazado 26" d="M-1284.708,570.625h5.8" transform="translate(1289.058 -563.374)" fill="#fff" stroke="#48999a" stroke-linecap="round" stroke-linejoin="round" stroke-width="3"/>
        </g>
      </g>
      <g id="Grupo_2425" data-name="Grupo 2425" transform="translate(-1281.92 537.796)">
        <path id="Trazado_41-2" data-name="Trazado 41-2" d="M-1233.1,583.19a12.707,12.707,0,0,0-12.707-12.707,12.707,12.707,0,0,0-12.706,12.707Z" transform="translate(1258.512 -556.735)" fill="#48999a"/>
        <circle id="Elipse_43-2" data-name="Elipse 43-2" cx="7.052" cy="7.052" r="7.052" transform="translate(5.654)" fill="#48999a"/>
        <g id="Icon_feather-plus-circle-2" data-name="Icon feather-plus-circle-2" transform="translate(16.266 17.562)">
          <path id="Trazado_24-2" data-name="Trazado 24-2" d="M-1217.34,583.987a7.251,7.251,0,0,1-7.251,7.251,7.251,7.251,0,0,1-7.251-7.251,7.251,7.251,0,0,1,7.251-7.251,7.251,7.251,0,0,1,7.251,7.251Z" transform="translate(1231.841 -576.736)" fill="#fff" stroke="#48999a" stroke-linecap="round" stroke-linejoin="round" stroke-width="3"/>
          <path id="Trazado_25-2" data-name="Trazado 25-2" d="M-1219.952,583.869v5.8" transform="translate(1227.203 -579.519)" fill="#fff" stroke="#48999a" stroke-linecap="round" stroke-linejoin="round" stroke-width="3"/>
          <path id="Trazado_26-2" data-name="Trazado 26-2" d="M-1224.708,588.625h5.8" transform="translate(1229.058 -581.374)" fill="#fff" stroke="#48999a" stroke-linecap="round" stroke-linejoin="round" stroke-width="3"/>
        </g>
      </g>
      <g id="Grupo_2426" data-name="Grupo 2426" transform="translate(-1308.144 565.24)">
        <path id="Trazado_41-3" data-name="Trazado 41-3" d="M-1276.1,628.19a12.707,12.707,0,0,0-12.707-12.707,12.707,12.707,0,0,0-12.706,12.707Z" transform="translate(1301.512 -601.735)" fill="#48999a"/>
        <circle id="Elipse_43-3" data-name="Elipse 43-3" cx="7.052" cy="7.052" r="7.052" transform="translate(5.654 0)" fill="#48999a"/>
        <g id="Icon_feather-plus-circle-3" data-name="Icon feather-plus-circle-3" transform="translate(16.266 17.562)">
          <path id="Trazado_24-3" data-name="Trazado 24-3" d="M-1260.34,628.987a7.251,7.251,0,0,1-7.251,7.251,7.251,7.251,0,0,1-7.251-7.251,7.251,7.251,0,0,1,7.251-7.251,7.251,7.251,0,0,1,7.251,7.251Z" transform="translate(1274.841 -621.736)" fill="#fff" stroke="#48999a" stroke-linecap="round" stroke-linejoin="round" stroke-width="3"/>
          <path id="Trazado_25-3" data-name="Trazado 25-3" d="M-1262.952,628.869v5.8" transform="translate(1270.203 -624.519)" fill="#fff" stroke="#48999a" stroke-linecap="round" stroke-linejoin="round" stroke-width="3"/>
          <path id="Trazado_26-3" data-name="Trazado 26-3" d="M-1267.708,633.625h5.8" transform="translate(1272.058 -626.374)" fill="#fff" stroke="#48999a" stroke-linecap="round" stroke-linejoin="round" stroke-width="3"/>
        </g>
      </g>
      <g id="Grupo_2427" data-name="Grupo 2427" transform="translate(-1253.257 567.68)">
        <path id="Trazado_41-4" data-name="Trazado 41-4" d="M-1186.1,632.19a12.707,12.707,0,0,0-12.707-12.707,12.707,12.707,0,0,0-12.706,12.707Z" transform="translate(1211.512 -605.735)" fill="#48999a"/>
        <circle id="Elipse_43-4" data-name="Elipse 43-4" cx="7.052" cy="7.052" r="7.052" transform="translate(5.654 0)" fill="#48999a"/>
        <g id="Icon_feather-plus-circle-4" data-name="Icon feather-plus-circle-4" transform="translate(16.266 17.562)">
          <path id="Trazado_24-4" data-name="Trazado 24-4" d="M-1170.34,632.987a7.251,7.251,0,0,1-7.251,7.251,7.251,7.251,0,0,1-7.251-7.251,7.251,7.251,0,0,1,7.251-7.251,7.251,7.251,0,0,1,7.251,7.251Z" transform="translate(1184.841 -625.736)" fill="#fff" stroke="#48999a" stroke-linecap="round" stroke-linejoin="round" stroke-width="3"/>
          <path id="Trazado_25-4" data-name="Trazado 25-4" d="M-1172.952,632.869v5.8" transform="translate(1180.203 -628.519)" fill="#fff" stroke="#48999a" stroke-linecap="round" stroke-linejoin="round" stroke-width="3"/>
          <path id="Trazado_26-4" data-name="Trazado 26-4" d="M-1177.708,637.625h5.8" transform="translate(1182.058 -630.374)" fill="#fff" stroke="#48999a" stroke-linecap="round" stroke-linejoin="round" stroke-width="3"/>
        </g>
      </g>
      <g id="Grupo_2428" data-name="Grupo 2428" transform="translate(-1252.647 521.94)">
        <path id="Trazado_41-5" data-name="Trazado 41-5" d="M-1185.1,557.19a12.707,12.707,0,0,0-12.707-12.707,12.707,12.707,0,0,0-12.706,12.707Z" transform="translate(1210.512 -530.735)" fill="#48999a"/>
        <circle id="Elipse_43-5" data-name="Elipse 43-5" cx="7.052" cy="7.052" r="7.052" transform="translate(5.654)" fill="#48999a"/>
        <g id="Icon_feather-plus-circle-5" data-name="Icon feather-plus-circle-5" transform="translate(16.266 17.562)">
          <path id="Trazado_24-5" data-name="Trazado 24-5" d="M-1169.34,557.987a7.251,7.251,0,0,1-7.251,7.251,7.251,7.251,0,0,1-7.251-7.251,7.251,7.251,0,0,1,7.251-7.251,7.251,7.251,0,0,1,7.251,7.251Z" transform="translate(1183.841 -550.736)" fill="#fff" stroke="#48999a" stroke-linecap="round" stroke-linejoin="round" stroke-width="3"/>
          <path id="Trazado_25-5" data-name="Trazado 25-5" d="M-1171.952,557.869v5.8" transform="translate(1179.203 -553.519)" fill="#fff" stroke="#48999a" stroke-linecap="round" stroke-linejoin="round" stroke-width="3"/>
          <path id="Trazado_26-5" data-name="Trazado 26-5" d="M-1176.708,562.625h5.8" transform="translate(1181.058 -555.374)" fill="#fff" stroke="#48999a" stroke-linecap="round" stroke-linejoin="round" stroke-width="3"/>
        </g>
      </g>
    </g>
  </g>
</svg>
