<svg xmlns="http://www.w3.org/2000/svg" xmlns:xlink="http://www.w3.org/1999/xlink" width="404" height="386.02" viewBox="0 0 404 386.02">
  <defs>
    <clipPath id="clip-path">
      <path id="Trazado_9291" data-name="Trazado 9291" d="M136.479,0A136.479,136.479,0,1,1,0,136.479,136.479,136.479,0,0,1,136.479,0Z" transform="translate(0 193.01) rotate(-45)" fill="#dbecdf"/>
    </clipPath>
  </defs>
  <g id="tarjeta-segura" transform="translate(-160.315 -102.301)">
    <g id="Grupo_375" data-name="Grupo 375" transform="translate(163.877 102.301)">
      <g id="Grupo_364" data-name="Grupo 364" transform="translate(3.581)">
        <path id="Trazado_1388" data-name="Trazado 1388" d="M136.479,0A136.479,136.479,0,1,1,0,136.479,136.479,136.479,0,0,1,136.479,0Z" transform="translate(0 193.01) rotate(-45)" fill="#dbecdf"/>
        <g id="Enmascarar_grupo_15" data-name="Enmascarar grupo 15" clip-path="url(#clip-path)">
          <g id="Grupo_1254" data-name="Grupo 1254" transform="translate(-71.546 -130.731)">
            <path id="Trazado_9257" data-name="Trazado 9257" d="M346.826,671.515l.951-12.914L367.2,648.044l3.564,6.456,6.186-7.735,19.1,16.388.656,13.7L383.9,697.3l-2.012,33.652-29.949,3.308,7.662-41.828Z" transform="translate(-152.727 -331.35)" fill="#ebceb1"/>
            <path id="Trazado_9258" data-name="Trazado 9258" d="M393.343,928.693l-.689-12.627-33.518-5.51-1.607,14.463Z" transform="translate(-160.883 -532.368)" fill="#dae0e3"/>
            <path id="Trazado_9259" data-name="Trazado 9259" d="M299.129,948.181l39.258,5.969-.069,70.614H282.4Z" transform="translate(-103.631 -561.04)" fill="#293a53"/>
          </g>
          <g id="Grupo_1255" data-name="Grupo 1255" transform="translate(-71.546 -130.731)">
            <path id="Trazado_9260" data-name="Trazado 9260" d="M847.769,883.856H812.754L803.669,804.8s-11.21-20.01-10.944-19.79,2.986-19.727,2.986-19.727l19.921,9.1,7.615,2.142-.2-2.482-8.232-4.12,3.044-6.66,16.824,4.285,3.047,16.619-11.114,18.453Z" transform="translate(-492.513 -420.132)" fill="#f2d0ad"/>
            <path id="Trazado_9261" data-name="Trazado 9261" d="M865.319,992.647l-2.294-9.169-34.177,6.057,1.641,8.657Z" transform="translate(-520.044 -587.937)" fill="#eee"/>
            <path id="Trazado_9262" data-name="Trazado 9262" d="M829.641,1070.434l-2.715-56.166,37.413-6.155,15.672,62.321Z" transform="translate(-518.579 -606.71)" fill="#293a53"/>
          </g>
        </g>
      </g>
      <g id="Grupo_374" data-name="Grupo 374" transform="translate(0 17.906)">
        <g id="Grupo_366" data-name="Grupo 366" transform="translate(34.408 104.15)">
          <path id="Trazado_1357" data-name="Trazado 1357" d="M203.345,164.143c-.316-1.83-.717-3.657-1.19-5.43l2.747-.734c.5,1.855.914,3.766,1.245,5.68Z" transform="translate(-148.402 -157.978)" fill="#00a82d"/>
          <path id="Trazado_1359" data-name="Trazado 1359" d="M270.259,177.175l-1.011-2.657q2.654-1.013,5.3-2.05l1.033,2.65Q272.928,176.154,270.259,177.175Z" transform="translate(-68.413 -140.703)" fill="#00c8b7"/>
        </g>
        <g id="Grupo_1253" data-name="Grupo 1253" transform="translate(-67.966 -148.637)">
          <g id="Grupo_1245" data-name="Grupo 1245" transform="translate(146.404 211.94)">
            <g id="Grupo_1244" data-name="Grupo 1244" transform="translate(0)">
              <g id="Grupo_1222" data-name="Grupo 1222">
                <path id="Trazado_9263" data-name="Trazado 9263" d="M314.408,309.877,175.088,344.927a5.448,5.448,0,0,1-6.58-3.964l-21.939-87.2a5.447,5.447,0,0,1,3.92-6.606L289.809,212.1a5.448,5.448,0,0,1,6.58,3.964l21.939,87.2A5.448,5.448,0,0,1,314.408,309.877Z" transform="translate(-146.404 -211.94)" fill="#363636"/>
              </g>
              <g id="Grupo_1223" data-name="Grupo 1223" transform="translate(28.956 40.455)" opacity="0.3">
                <path id="Trazado_9264" data-name="Trazado 9264" d="M268.083,472.575l136.9-34.443a5.448,5.448,0,0,0,3.92-6.606l-12.475-49.585C369.679,431.331,300.15,461,268.083,472.575Z" transform="translate(-268.083 -381.941)" fill="#363636"/>
              </g>
              <g id="Grupo_1224" data-name="Grupo 1224" transform="translate(14.881 61.714)">
                <rect id="Rectángulo_1211" data-name="Rectángulo 1211" width="27.024" height="20.242" rx="3.387" transform="matrix(0.97, -0.244, 0.244, 0.97, 0, 6.593)" fill="#e0c173"/>
              </g>
              <g id="Grupo_1225" data-name="Grupo 1225" transform="translate(20.511 69.799)">
                <path id="Trazado_9265" data-name="Trazado 9265" d="M257.227,513.274l-2.018-8.021c-4.844,7.734-15.783,13.669-22.611,16.793a3.585,3.585,0,0,0,2.808.464l19.208-4.832A3.632,3.632,0,0,0,257.227,513.274Z" transform="translate(-232.597 -505.253)" fill="#c5a45d"/>
              </g>
              <g id="Grupo_1230" data-name="Grupo 1230" transform="translate(21.49 61.446)">
                <g id="Grupo_1226" data-name="Grupo 1226" transform="translate(0 25.507)">
                  <rect id="Rectángulo_1212" data-name="Rectángulo 1212" width="31.241" height="9.991" transform="translate(0 7.622) rotate(-14.122)" fill="#c4c2c2"/>
                </g>
                <g id="Grupo_1227" data-name="Grupo 1227" transform="translate(33.795 17.004)">
                  <rect id="Rectángulo_1213" data-name="Rectángulo 1213" width="31.241" height="9.991" transform="translate(0 7.622) rotate(-14.122)" fill="#c4c2c2"/>
                </g>
                <g id="Grupo_1228" data-name="Grupo 1228" transform="translate(67.589 8.502)">
                  <rect id="Rectángulo_1214" data-name="Rectángulo 1214" width="31.241" height="9.991" transform="translate(0 7.622) rotate(-14.122)" fill="#c4c2c2"/>
                </g>
                <g id="Grupo_1229" data-name="Grupo 1229" transform="translate(101.384 0)">
                  <rect id="Rectángulo_1215" data-name="Rectángulo 1215" width="31.241" height="9.991" transform="translate(0 7.622) rotate(-14.122)" fill="#c4c2c2"/>
                </g>
              </g>
              <g id="Grupo_1231" data-name="Grupo 1231" transform="translate(11.919 28.552)">
                <path id="Trazado_9266" data-name="Trazado 9266" d="M206.869,419.125a5.517,5.517,0,0,1-3.453,2.607,5.6,5.6,0,0,1-2.73-10.853,5.528,5.528,0,0,1,4.258.652l-.533.838a4.578,4.578,0,1,0,1.582,6.286Z" transform="translate(-196.491 -391.963)" fill="#f5f5f5" stroke="#f5f5f5" stroke-miterlimit="10" stroke-width="1"/>
                <path id="Trazado_9267" data-name="Trazado 9267" d="M240.223,413.888l-2.659-10.571,3.15-.792a3.032,3.032,0,0,1,2.339,5.511l3.624,4.228-1.106.278-3.505-4.108-2.044.514,1.181,4.693Zm-.449-5.927,2.17-.546a2.013,2.013,0,0,0-.982-3.9l-2.17.546Z" transform="translate(-227.79 -385.655)" fill="#f5f5f5" stroke="#f5f5f5" stroke-miterlimit="10" stroke-width="1"/>
                <path id="Trazado_9268" data-name="Trazado 9268" d="M271.249,394.41l.745,2.96,3.78-.951.248.987-3.78.951,1.17,4.651,4.326-1.089.248.987-5.348,1.345-2.659-10.571,5.348-1.345.248.987Z" transform="translate(-252.491 -377.959)" fill="#f5f5f5" stroke="#f5f5f5" stroke-miterlimit="10" stroke-width="1"/>
                <path id="Trazado_9269" data-name="Trazado 9269" d="M302.759,398.358,300.1,387.787l2.352-.592c3.248-.817,5.907.582,6.741,3.894s-.833,5.859-4.081,6.677Zm.732-1.233,1.372-.345c2.7-.68,4.048-2.667,3.35-5.444s-2.81-3.834-5.513-3.154l-1.372.345Z" transform="translate(-275.444 -373.869)" fill="#f5f5f5" stroke="#f5f5f5" stroke-miterlimit="10" stroke-width="1"/>
                <path id="Trazado_9270" data-name="Trazado 9270" d="M343.45,389.956l-.98.247-2.66-10.571.98-.247Z" transform="translate(-305.705 -368.091)" fill="#f5f5f5" stroke="#f5f5f5" stroke-miterlimit="10" stroke-width="1"/>
                <path id="Trazado_9271" data-name="Trazado 9271" d="M355.364,372.335l-2.744.69,2.411,9.584-.98.247-2.411-9.584-2.758.694-.248-.987,6.482-1.631Z" transform="translate(-312.429 -361.966)" fill="#f5f5f5" stroke="#f5f5f5" stroke-miterlimit="10" stroke-width="1"/>
                <path id="Trazado_9272" data-name="Trazado 9272" d="M411.124,367.737a5.517,5.517,0,0,1-3.453,2.607,5.6,5.6,0,0,1-2.73-10.853,5.53,5.53,0,0,1,4.258.652l-.533.839a4.578,4.578,0,1,0,1.581,6.286Z" transform="translate(-352.139 -352.804)" fill="#f5f5f5" stroke="#f5f5f5" stroke-miterlimit="10" stroke-width="1"/>
                <path id="Trazado_9273" data-name="Trazado 9273" d="M451.538,350.168l7.686,9.306-1.078.271-2.415-2.914L450.7,358.1l-.735,3.707-1.092.275,2.381-11.839Zm-.606,6.822,4.074-1.025-3.108-3.774Z" transform="translate(-388.817 -345.826)" fill="#f5f5f5" stroke="#f5f5f5" stroke-miterlimit="10" stroke-width="1"/>
                <path id="Trazado_9274" data-name="Trazado 9274" d="M489.131,351.267,486.471,340.7l3.15-.792a3.032,3.032,0,0,1,2.339,5.511l3.625,4.228-1.106.278-3.5-4.109-2.044.514,1.181,4.693Zm-.449-5.926,2.17-.546a2.013,2.013,0,0,0-.982-3.9l-2.17.546Z" transform="translate(-417.465 -337.936)" fill="#f5f5f5" stroke="#f5f5f5" stroke-miterlimit="10" stroke-width="1"/>
                <path id="Trazado_9275" data-name="Trazado 9275" d="M521.546,343.314l-2.66-10.571,2.352-.592c3.248-.817,5.908.582,6.741,3.894s-.833,5.86-4.081,6.677Zm.732-1.233,1.372-.345c2.7-.68,4.048-2.667,3.35-5.443s-2.81-3.834-5.513-3.154l-1.372.345Z" transform="translate(-442.166 -331.924)" fill="#f5f5f5" stroke="#f5f5f5" stroke-miterlimit="10" stroke-width="1"/>
              </g>
              <g id="Grupo_1238" data-name="Grupo 1238" transform="translate(93.252 78.035)">
                <rect id="Rectángulo_1216" data-name="Rectángulo 1216" width="66.089" height="3.028" transform="matrix(0.97, -0.244, 0.244, 0.97, 0, 16.125)" fill="#ebecec"/>
              </g>
              <g id="Grupo_1239" data-name="Grupo 1239" transform="translate(109.989 84.348)">
                <rect id="Rectángulo_1217" data-name="Rectángulo 1217" width="50.468" height="3.028" transform="translate(0 12.313) rotate(-14.122)" fill="#c5c6c7"/>
              </g>
              <g id="Grupo_1240" data-name="Grupo 1240" transform="translate(15.679 64.885)">
                <path id="Trazado_9279" data-name="Trazado 9279" d="M238.675,485.308l-.177-.7-12.754,3.208-.8-3.171-.7.176.8,3.171L212.291,491.2l.177.7,12.754-3.209.76,3.022-12.754,3.208.177.7,12.754-3.209.007.026.368-.121c.127-.04,3.079-.988,3.934,1.273a1.851,1.851,0,0,1-.113,1.377,3.928,3.928,0,0,1-2.689,1.713L214.505,500l.177.7,12.816-3.224.774,3.078-12.816,3.224.177.7,12.816-3.224.8,3.171.7-.176-.8-3.171,12.692-3.193-.177-.7-12.692,3.193-.777-3.088A4.331,4.331,0,0,0,231,495.3a2.586,2.586,0,0,0,.232-1.616l8.982-2.26-.177-.7L230.99,493c-.905-1.776-3.014-1.785-4.311-1.47l-.757-3.011Z" transform="translate(-212.291 -484.603)" fill="#ebecec"/>
              </g>
              <g id="Grupo_1241" data-name="Grupo 1241" transform="translate(103.379 78.035)">
                <path id="Trazado_9280" data-name="Trazado 9280" d="M635.531,542.8l-.739-2.936-46.736,11.758q-3.579,2.54-7.229,4.941Z" transform="translate(-580.827 -539.863)" fill="#c5c6c7"/>
              </g>
              <g id="Grupo_1242" data-name="Grupo 1242" transform="translate(125.235 61.446)">
                <path id="Trazado_9281" data-name="Trazado 9281" d="M700.609,470.15l-13.7,3.446a167.366,167.366,0,0,1-14.237,13.565l.076.3,30.3-7.622Z" transform="translate(-672.674 -470.15)" fill="#9b9c9d"/>
              </g>
              <g id="Grupo_1243" data-name="Grupo 1243" transform="translate(1.972 31.258)">
                <path id="Trazado_9282" data-name="Trazado 9282" d="M154.855,354.294l3.813,15.158c-1.221-6.537-1.667-21.318,17.578-26.16l-17.471,4.4A5.448,5.448,0,0,0,154.855,354.294Z" transform="translate(-154.689 -343.292)" fill="#4e4e4e"/>
              </g>
            </g>
          </g>
          <g id="Grupo_1251" data-name="Grupo 1251" transform="translate(273.44 249.025)">
            <g id="Grupo_1250" data-name="Grupo 1250" transform="translate(0 0)">
              <g id="Grupo_1249" data-name="Grupo 1249">
                <g id="Grupo_1248" data-name="Grupo 1248">
                  <g id="Grupo_1246" data-name="Grupo 1246" transform="translate(21.875)">
                    <path id="Trazado_9283" data-name="Trazado 9283" d="M834.62,434.43l-8.633-1.715,5.678-28.572a23.038,23.038,0,1,0-45.192-8.98l-5.678,28.572-8.633-1.716,5.678-28.572A31.84,31.84,0,1,1,840.3,405.858Z" transform="translate(-772.162 -367.782)" fill="#72716f"/>
                  </g>
                  <g id="Grupo_1247" data-name="Grupo 1247" transform="translate(0 38.652)">
                    <path id="Trazado_9284" data-name="Trazado 9284" d="M769.193,604.073a3.414,3.414,0,0,1-4.013,2.685l-82.193-16.333a3.414,3.414,0,0,1-2.682-4.016l10.622-53.453a3.414,3.414,0,0,1,4.013-2.685L777.134,546.6a3.415,3.415,0,0,1,2.682,4.016Z" transform="translate(-680.24 -530.205)" fill="#f2cb30"/>
                  </g>
                </g>
              </g>
              <path id="Trazado_9285" data-name="Trazado 9285" d="M770.212,735.736l6.508-32.752c-31.635,17.55-72.391,18.407-95.144,17.172a3.4,3.4,0,0,0,2.43,1.931L766.2,738.421A3.414,3.414,0,0,0,770.212,735.736Z" transform="translate(-681.258 -623.217)" fill="#eab531"/>
              <path id="Trazado_9286" data-name="Trazado 9286" d="M868.7,630.576a7.489,7.489,0,1,0-12.886,3.573l-5.642,16.16,13.412,2.665.966-17.09A7.479,7.479,0,0,0,868.7,630.576Z" transform="translate(-809.735 -561.214)" fill="#58595a"/>
              <path id="Trazado_9287" data-name="Trazado 9287" d="M727.11,546.115l-2.287,11.51c1.276-4.827,5.739-15,20.438-12.075L731.917,542.9A4.1,4.1,0,0,0,727.11,546.115Z" transform="translate(-714.214 -501.167)" fill="#f7db5e"/>
              <path id="Trazado_9288" data-name="Trazado 9288" d="M850.174,695.992s10.513-.838,14.378-14.424l-.966,17.09Z" transform="translate(-809.735 -606.897)" fill="#3e3d40"/>
            </g>
          </g>
          <path id="Trazado_9289" data-name="Trazado 9289" d="M894.44,781.955l-2.483,1.382c1.406,4,5.058,7.745,8.3,10.786q.717.674,1.448,1.332l6.794-11.281-3.047-16.619-16.824-4.285-3.044,6.66,8.232,4.12Z" transform="translate(-563.276 -420.132)" fill="#f2d0ad"/>
          <path id="Trazado_9290" data-name="Trazado 9290" d="M372.127,683.052c-4.452,1.047-8.684,2.866-13.213,3.665-1.591.281-3.2.529-4.8.822l-7.285-11.926.951-12.914L367.2,652.143l4.406,7.982L358.8,673.562Z" transform="translate(-152.728 -335.449)" fill="#ebceb1"/>
        </g>
      </g>
    </g>
    <g id="Grupo_376" data-name="Grupo 376" transform="translate(160.315 111.012)" opacity="0.4">
      <path id="Trazado_1375" data-name="Trazado 1375" d="M192.968,218.877a9.55,9.55,0,1,0,9.549,9.551A9.55,9.55,0,0,0,192.968,218.877Zm0,13.416a3.866,3.866,0,1,1,3.865-3.865A3.866,3.866,0,0,1,192.968,232.293Z" transform="translate(-132.772 27.971)" fill="#00be62"/>
      <path id="Trazado_1376" data-name="Trazado 1376" d="M309.715,236.507a9.55,9.55,0,1,0,9.549,9.549A9.549,9.549,0,0,0,309.715,236.507Zm0,13.416a3.866,3.866,0,1,1,3.865-3.867A3.868,3.868,0,0,1,309.715,249.923Z" transform="translate(6.416 48.99)" fill="#00be62"/>
      <path id="Trazado_1377" data-name="Trazado 1377" d="M344.14,168.839a7.313,7.313,0,1,0,7.313,7.313A7.312,7.312,0,0,0,344.14,168.839Zm0,10.273a2.959,2.959,0,1,1,2.96-2.959A2.96,2.96,0,0,1,344.14,179.112Z" transform="translate(50.128 -31.685)" fill="#00be62"/>
      <path id="Trazado_1378" data-name="Trazado 1378" d="M285.632,115.477a7.732,7.732,0,1,0,7.732,7.732A7.732,7.732,0,0,0,285.632,115.477Zm0,10.862a3.129,3.129,0,1,1,3.128-3.13A3.13,3.13,0,0,1,285.632,126.339Z" transform="translate(-20.128 -95.304)" fill="#00be62"/>
      <path id="Trazado_1379" data-name="Trazado 1379" d="M173.029,197.656a8.129,8.129,0,1,0,8.131,8.129A8.128,8.128,0,0,0,173.029,197.656Z" transform="translate(-154.848 2.671)" fill="#00be62"/>
      <path id="Trazado_1380" data-name="Trazado 1380" d="M320.6,209.931a5.912,5.912,0,1,0,5.912,5.912A5.912,5.912,0,0,0,320.6,209.931Z" transform="translate(23.73 17.306)" fill="#00be62"/>
      <path id="Trazado_1381" data-name="Trazado 1381" d="M232.768,116.586a8.642,8.642,0,1,0,8.642,8.642A8.642,8.642,0,0,0,232.768,116.586Z" transform="translate(-84.238 -93.982)" fill="#00be62"/>
      <path id="Trazado_1383" data-name="Trazado 1383" d="M308.791,131.79a7.391,7.391,0,1,0,7.392,7.392A7.391,7.391,0,0,0,308.791,131.79Z" transform="translate(7.891 -75.855)" fill="#00be62"/>
      <circle id="Elipse_13" data-name="Elipse 13" cx="4.207" cy="4.207" r="4.207" transform="translate(50.685 113.396)" fill="#00be62"/>
      <path id="Trazado_1384" data-name="Trazado 1384" d="M345.232,152.026a7.177,7.177,0,1,0,7.177,7.18A7.178,7.178,0,0,0,345.232,152.026Z" transform="translate(51.59 -51.729)" fill="#00be62"/>
      <circle id="Elipse_14" data-name="Elipse 14" cx="4.58" cy="4.58" r="4.58" transform="translate(9.569 138.277)" fill="#00be62"/>
      <path id="Trazado_1385" data-name="Trazado 1385" d="M260.5,113.525l2.876-2.876a2.563,2.563,0,0,0-3.624-3.626l-2.876,2.876L254,107.023a2.564,2.564,0,0,0-3.626,3.626l2.876,2.876-2.876,2.876A2.564,2.564,0,0,0,254,120.027l2.876-2.876,2.876,2.876a2.563,2.563,0,0,0,3.624-3.626Z" transform="translate(-53.834 -106.275)" fill="#00be62"/>
      <path id="Trazado_1386" data-name="Trazado 1386" d="M171.191,153.175l2.876-2.876a2.564,2.564,0,0,0-3.626-3.626l-2.876,2.876-2.876-2.876a2.564,2.564,0,0,0-3.626,3.626l2.876,2.876-2.876,2.876a2.564,2.564,0,1,0,3.626,3.626l2.876-2.876,2.876,2.876a2.564,2.564,0,1,0,3.626-3.626Z" transform="translate(-160.315 -59.003)" fill="#00be62"/>
      <path id="Trazado_1387" data-name="Trazado 1387" d="M325.032,232.688l2.438-2.436a2.172,2.172,0,0,0-3.071-3.071l-2.436,2.436-2.436-2.436a2.172,2.172,0,0,0-3.071,3.071l2.436,2.436-2.436,2.436a2.172,2.172,0,0,0,3.071,3.071l2.436-2.436,2.436,2.436a2.172,2.172,0,0,0,3.071-3.071Z" transform="translate(25.083 37.117)" fill="#00be62"/>
    </g>
  </g>
</svg>
