<svg xmlns="http://www.w3.org/2000/svg" width="75" height="75" viewBox="0 0 75 75">
  <g id="tasacion" transform="translate(-2 -2)">
    <path id="Trazado_1405" data-name="Trazado 1405" d="M75.75,19.5H66.77A3.745,3.745,0,0,0,63.25,17H61.911a8.751,8.751,0,0,0-17.323,0h-.923L24,2.25a1.251,1.251,0,0,0-1.531.024L15.75,7.65V5.75A1.25,1.25,0,0,0,14.5,4.5H7A1.25,1.25,0,0,0,5.75,5.75V15.5L2.661,17.146A1.254,1.254,0,0,0,2,18.25v30A1.25,1.25,0,0,0,3.25,49.5H29.5V75.75A1.25,1.25,0,0,0,30.75,77h45A1.25,1.25,0,0,0,77,75.75v-55A1.25,1.25,0,0,0,75.75,19.5ZM39.714,27c.015.043.037.08.054.121.028.069.059.135.09.2a3.693,3.693,0,0,0,.219.4c.039.061.075.122.116.181a3.709,3.709,0,0,0,.346.419c.026.028.047.059.075.085a3.745,3.745,0,0,0,.5.416c.05.035.1.063.156.1a3.739,3.739,0,0,0,.424.23c.069.031.138.059.208.086a3.7,3.7,0,0,0,.451.14c.069.016.135.036.205.05a3.677,3.677,0,0,0,.689.07h20a3.676,3.676,0,0,0,.689-.07c.07-.013.136-.032.205-.05a3.857,3.857,0,0,0,.451-.14c.07-.027.14-.055.207-.086a3.738,3.738,0,0,0,.424-.23c.053-.032.106-.06.156-.1a3.744,3.744,0,0,0,.5-.416c.027-.026.049-.057.075-.085a3.71,3.71,0,0,0,.346-.419c.041-.059.077-.12.116-.181a3.794,3.794,0,0,0,.219-.4c.031-.067.063-.134.09-.2.016-.041.039-.079.054-.121H69.5V69.5H37V27Zm6.036-7.5A1.25,1.25,0,0,0,47,18.25a6.25,6.25,0,1,1,12.5,0,1.25,1.25,0,0,0,1.25,1.25h2.5a1.251,1.251,0,0,1,1.25,1.25v5A1.251,1.251,0,0,1,63.25,27h-20A1.251,1.251,0,0,1,42,25.75v-5a1.251,1.251,0,0,1,1.25-1.25ZM4.5,19l3.089-1.645a1.256,1.256,0,0,0,.661-1.1V7h5v3.25a1.251,1.251,0,0,0,2.031.976l7.994-6.4,17.5,13.125A3.743,3.743,0,0,0,39.731,19.5H30.75a1.25,1.25,0,0,0-1.25,1.25V29.5h-15a1.25,1.25,0,0,0-1.25,1.25V47H4.5ZM15.75,47V32H29.5V47ZM74.5,74.5H32V22h7.5v2.5H35.75a1.25,1.25,0,0,0-1.25,1.25v45A1.25,1.25,0,0,0,35.75,72h35A1.25,1.25,0,0,0,72,70.75v-45a1.25,1.25,0,0,0-1.25-1.25H67V22h7.5Z" transform="translate(0)" fill="#3c3b3b"/>
    <path id="Trazado_1406" data-name="Trazado 1406" d="M43.625,19.25A3.625,3.625,0,1,0,40,15.625,3.629,3.629,0,0,0,43.625,19.25Zm0-4.833a1.208,1.208,0,1,1-1.208,1.208A1.21,1.21,0,0,1,43.625,14.417Z" transform="translate(9.676 2.546)" fill="#3c3b3b"/>
    <path id="Trazado_1407" data-name="Trazado 1407" d="M33.208,41.5H45.292A1.208,1.208,0,0,0,46.5,40.292V34.25H44.083v4.833H34.417V29.417h6.042V27h-7.25A1.208,1.208,0,0,0,32,28.208V40.292A1.208,1.208,0,0,0,33.208,41.5Z" transform="translate(7.812 6.51)" fill="#3c3b3b"/>
    <path id="Trazado_1408" data-name="Trazado 1408" d="M37,32.323l-1.709,1.709,2.417,2.417a1.207,1.207,0,0,0,.854.354h.047a1.209,1.209,0,0,0,.871-.422l7.25-8.458L44.9,26.349l-6.4,7.467Z" transform="translate(8.583 6.258)" fill="#3c3b3b"/>
    <path id="Trazado_1409" data-name="Trazado 1409" d="M33.208,56.5H45.292A1.208,1.208,0,0,0,46.5,55.292V49.25H44.083v4.833H34.417V44.417h6.042V42h-7.25A1.208,1.208,0,0,0,32,43.208V55.292A1.208,1.208,0,0,0,33.208,56.5Z" transform="translate(7.812 10.833)" fill="#3c3b3b"/>
    <path id="Trazado_1410" data-name="Trazado 1410" d="M38.5,48.817,37,47.323l-1.709,1.709,2.417,2.417a1.207,1.207,0,0,0,.854.354h.047a1.209,1.209,0,0,0,.871-.422l7.25-8.458L44.9,41.349Z" transform="translate(8.583 10.113)" fill="#3c3b3b"/>
    <rect id="Rectángulo_1117" data-name="Rectángulo 1117" width="8.458" height="2.417" transform="translate(58.875 35.789)" fill="#3c3b3b"/>
    <rect id="Rectángulo_1118" data-name="Rectángulo 1118" width="6.042" height="2.417" transform="translate(58.42 43.297)" fill="#3c3b3b"/>
    <rect id="Rectángulo_1119" data-name="Rectángulo 1119" width="8.458" height="2.417" transform="translate(58.875 54.56)" fill="#3c3b3b"/>
    <rect id="Rectángulo_1120" data-name="Rectángulo 1120" width="6.042" height="2.417" transform="translate(58.42 62.069)" fill="#3c3b3b"/>
  </g>
</svg>
