<svg xmlns="http://www.w3.org/2000/svg" xmlns:xlink="http://www.w3.org/1999/xlink" width="72" height="72" viewBox="0 0 72 72">
  <defs>
    <clipPath id="clip-Mesa_de_trabajo_1">
      <rect width="72" height="72"/>
    </clipPath>
  </defs>
  <g id="Mesa_de_trabajo_1" data-name="Mesa de trabajo – 1" clip-path="url(#clip-Mesa_de_trabajo_1)">
    <rect width="72" height="72" fill="#fff"/>
    <g id="Grupo_2946" data-name="Grupo 2946" transform="translate(4 4.264)">
      <path id="Trazado_962" data-name="Trazado 962" d="M47.683,11.177a1.051,1.051,0,0,0-1.226,1.039l.015,14.715c-.515.08-1.046.156-1.572.228V20.634a5.965,5.965,0,0,0-1.311-4.307,5.669,5.669,0,0,0-4.607-2.16H36.5a1.038,1.038,0,0,0-.72.27l-3.6,3.37-3.458-3.353a1.041,1.041,0,0,0-.733-.286H25.352A5.948,5.948,0,0,0,19.387,20.1c0,.181.012.357.012.538v6.541c-.657-.1-1.418-.2-2.111-.313l.027-14.574a1.048,1.048,0,0,0-.372-.806,1.067,1.067,0,0,0-.857-.261C6,12.986.212,16.27.2,19.951L0,42.915c0,5.591,12.074,8.993,25.279,9.854l.21,7.09A3.868,3.868,0,0,0,32.18,62.37a3.87,3.87,0,0,0,6.689-2.514l.21-7.09a77.548,77.548,0,0,0,12.541-1.8,1.054,1.054,0,0,0,.469-.113c.678-.168,1.336-.345,1.972-.53,6.373-1.869,9.741-4.415,9.741-7.364L64,20.345h-.013c.008-.131.013-.215.013-.321C64,14.528,52.59,12,47.683,11.177ZM61.9,20.019c0,1.815-3.172,3.868-8.278,5.359-1.55.453-3.239.85-5.04,1.19l-.017-13.1C57.761,15.19,61.9,17.962,61.9,20.019Zm-40.387.458q-.016-.194-.013-.388a3.829,3.829,0,0,1,3.856-3.818h2.208l3.872,3.752c.007.006.013,0,.021.01s.029.023.045.035.024.017.037.027l.048.033.039.024.05.028.042.021.05.023.045.017.051.017.047.013.051.012.047.008.053.007.047,0,.054,0h.046c.018,0,.036,0,.055,0l.045-.005.055-.009.044-.009.054-.014.044-.013.052-.019.044-.019.049-.024.044-.024.046-.028.042-.029.043-.032.04-.034c.008-.007.016,0,.024-.005l4.028-3.765h2.068a3.567,3.567,0,0,1,2.981,1.393,3.809,3.809,0,0,1,.843,2.817.989.989,0,0,0-.009.1v6.831q-1.577.166-3.155.284V25.377a1.052,1.052,0,0,0-2.1,0v2.455c-1.709.094-3.589.143-5.452.143-1.82,0-3.617-.047-5.326-.138v-2.46a1.052,1.052,0,0,0-2.1,0v2.331q-1.577-.115-3.155-.279V20.583C21.5,20.547,21.513,20.512,21.51,20.477Zm-6.294-6.927L15.2,26.486c-1.642-.321-3.187-.691-4.615-1.108-5.106-1.491-8.278-3.545-8.278-5.36,0-2.01,4-4.738,12.911-6.468ZM32,50.9c-1.768,0-3.514-.044-5.221-.128l4.071-3.863,0,0,6.8-6.453,11.509,8.9A89.013,89.013,0,0,1,32,50.9Zm-8.082-.313a72.721,72.721,0,0,1-11.977-1.873l8.54-8.108,8,5.652ZM29.344,61.5a1.755,1.755,0,0,1-1.76-1.7l-.216-6.9c1.245.056,2.547.089,3.73.1v6.727A1.758,1.758,0,0,1,29.344,61.5Zm7.424-1.705a1.784,1.784,0,0,1-3.567-.064V53c1.314-.014,2.526-.05,3.757-.108ZM53.47,48.3q-.8.233-1.643.448l-13.6-10.516a1.052,1.052,0,0,0-1.367.069l-6.826,6.477L21,38.39a1.051,1.051,0,0,0-1.331.1L9.59,48.048C4.949,46.582,2.1,44.656,2.1,42.954l.169-19.175c3.266,2.75,10.051,4.638,17.826,5.587a1.013,1.013,0,0,0,.513.062c1.554.181,3.146.324,4.754.429a1.022,1.022,0,0,0,.495.031c2.07.126,4.164.191,6.241.191,2.107,0,4.233-.066,6.332-.2a1.073,1.073,0,0,0,.215.022,1.055,1.055,0,0,0,.343-.059c1.624-.109,3.231-.257,4.8-.443.023,0,.045,0,.067,0a1.056,1.056,0,0,0,.32-.05c7.694-.946,14.409-2.812,17.69-5.524L61.7,42.945C61.7,44.761,58.546,46.815,53.47,48.3Z" fill="#4a4a4a"/>
      <path id="Trazado_963" data-name="Trazado 963" d="M32.018,14.175A5.787,5.787,0,0,0,37.8,8.406V6.52a5.784,5.784,0,1,0-11.567,0V8.406A5.787,5.787,0,0,0,32.018,14.175ZM28.337,6.52A3.669,3.669,0,0,1,32,2.855h.016A3.683,3.683,0,0,1,35.7,6.52V8.406a3.681,3.681,0,0,1-7.361,0Z" fill="#4a4a4a"/>
      <path id="Trazado_964" data-name="Trazado 964" d="M29.019,31.679a4.063,4.063,0,1,0,4.063,4.063A4.062,4.062,0,0,0,29.019,31.679Zm0,6.022a1.959,1.959,0,1,1,1.959-1.959A1.959,1.959,0,0,1,29.019,37.7Z" fill="#4a4a4a"/>
    </g>
  </g>
</svg>
