<svg xmlns="http://www.w3.org/2000/svg" width="19" height="19" viewBox="0 0 19 19">
  <g id="Grupo_27" data-name="Grupo 27" transform="translate(-34 -34)">
    <path id="Trazado_7" data-name="Trazado 7" d="M52.258,34H34.742a.742.742,0,0,0-.742.742V52.258a.742.742,0,0,0,.742.742H52.258A.742.742,0,0,0,53,52.258V34.742A.742.742,0,0,0,52.258,34Zm-.742,1.484V45.618H46.661a.742.742,0,0,0-.742.742,2.419,2.419,0,0,1-4.838,0,.742.742,0,0,0-.742-.742H35.484V35.484ZM35.484,51.516V47.1h4.183a3.9,3.9,0,0,0,7.665,0h4.183v4.413Z" fill="#fff"/>
    <path id="Trazado_8" data-name="Trazado 8" d="M46.326,44.428a.739.739,0,0,0,.517-.21l.622-.6v3.836a.742.742,0,1,0,1.484,0V43.616l.622.6A.742.742,0,0,0,50.6,43.152l-1.88-1.823a.727.727,0,0,0-.094-.061.715.715,0,0,0-.142-.091.745.745,0,0,0-.268-.054l-.013,0-.013,0a.743.743,0,0,0-.268.054.761.761,0,0,0-.142.091.687.687,0,0,0-.094.061l-1.88,1.823a.742.742,0,0,0-.016,1.05A.733.733,0,0,0,46.326,44.428Z" transform="translate(-4.706 -2.892)" fill="#fff"/>
  </g>
</svg>
