<svg xmlns="http://www.w3.org/2000/svg" width="42.065" height="13.501" viewBox="0 0 42.065 13.501">
  <g id="v-fotografo" transform="translate(0 0)">
    <g id="Grupo_1269" data-name="Grupo 1269" transform="translate(17.88 10.211) rotate(-90)">
      <g id="Grupo_1269-2" data-name="Grupo 1269">
        <path id="Trazado_9323" data-name="Trazado 9323" d="M3.5.165A.544.544,0,0,0,3.105,0a.563.563,0,0,0-.57.57V6.8L.97,5.235a.544.544,0,0,0-.4-.165.563.563,0,0,0-.57.57.544.544,0,0,0,.165.4L2.7,8.575a.554.554,0,0,0,.406.171.534.534,0,0,0,.4-.171L6.04,6.04a.534.534,0,0,0,.171-.4.554.554,0,0,0-.171-.406.544.544,0,0,0-.4-.165.565.565,0,0,0-.406.165L3.676,6.8V.57A.554.554,0,0,0,3.5.165Z" fill="#00a82d"/>
      </g>
    </g>
    <g id="Grupo_1270" data-name="Grupo 1270" transform="translate(28.38 0.5)">
      <path id="Trazado_9322" data-name="Trazado 9322" d="M22.684,15H35a.684.684,0,0,0,.684-.684V8.158a.684.684,0,0,0-.23-.512L34.316,6.634V2.684A.684.684,0,0,0,33.632,2H30.895a.684.684,0,0,0-.684.684v.3L29.3,2.172a.683.683,0,0,0-.909,0L22.23,7.646a.684.684,0,0,0-.23.512v6.158A.684.684,0,0,0,22.684,15Zm5.474-1.368V10.21h1.368v3.421Zm-4.79-5.167L28.842,3.6l1.6,1.42a.684.684,0,0,0,1.139-.511V3.368h1.368V6.941a.684.684,0,0,0,.23.512l1.139,1.012v5.167H30.895V9.526a.684.684,0,0,0-.684-.684H27.474a.684.684,0,0,0-.684.684v4.105H23.368Z" transform="translate(-22 -1.999)" fill="#00a82d"/>
    </g>
    <g id="noun_panorama_736042">
      <g id="Grupo_1268" data-name="Grupo 1268">
        <path id="Trazado_1491" data-name="Trazado 1491" d="M27.775,29.344H26.492A3.2,3.2,0,0,0,23.3,32.536v5.232a3.2,3.2,0,0,0,3.192,3.192h9.642a3.2,3.2,0,0,0,3.192-3.192V32.5a3.2,3.2,0,0,0-3.192-3.192H34.85a3.22,3.22,0,0,0-2.8-1.711H30.638A3.314,3.314,0,0,0,27.775,29.344Zm1.119.889a1.769,1.769,0,0,1,1.678-1.218h1.415a1.769,1.769,0,0,1,1.678,1.218.671.671,0,0,0,.658.461h1.744a1.77,1.77,0,0,1,1.777,1.777V37.7a1.77,1.77,0,0,1-1.777,1.777H26.492A1.77,1.77,0,0,1,24.715,37.7V32.5a1.77,1.77,0,0,1,1.777-1.777h1.744A.7.7,0,0,0,28.894,30.233Z" transform="translate(-23.3 -27.6)" fill="#00a82d"/>
        <path id="Trazado_1492" data-name="Trazado 1492" d="M39.616,45.932A3.916,3.916,0,1,0,35.7,42.016,3.9,3.9,0,0,0,39.616,45.932Zm0-6.417a2.5,2.5,0,1,1-2.5,2.5A2.5,2.5,0,0,1,39.616,39.515Z" transform="translate(-31.619 -34.645)" fill="#00a82d"/>
      </g>
    </g>
  </g>
</svg>
