<svg xmlns="http://www.w3.org/2000/svg" width="39.065" height="13.501" viewBox="0 0 39.065 13.501">
  <g id="v-propiedad" transform="translate(-5.62 -4.871)">
    <g id="Grupo_1272" data-name="Grupo 1272">
      <g id="Grupo_529" data-name="Grupo 529" transform="translate(8.258 4.871)">
        <g id="Grupo_528" data-name="Grupo 528">
          <path id="Trazado_1497" data-name="Trazado 1497" d="M14.832,13.663A3.732,3.732,0,1,0,11.1,9.932,3.734,3.734,0,0,0,14.832,13.663Zm0-6.112A2.445,2.445,0,1,1,12.387,10,2.444,2.444,0,0,1,14.832,7.551Z" transform="translate(-11.1 -6.2)" fill="#00a82d"/>
        </g>
      </g>
      <g id="Grupo_531" data-name="Grupo 531" transform="translate(5.62 12.527)">
        <g id="Grupo_530" data-name="Grupo 530">
          <path id="Trazado_1498" data-name="Trazado 1498" d="M19.1,23.89a.608.608,0,0,0,.643-.643v-.708A4.448,4.448,0,0,0,15.3,18.1h-3.86A4.448,4.448,0,0,0,7,22.539v.708a.608.608,0,0,0,.643.643ZM8.287,22.6a3.158,3.158,0,0,1,3.153-3.153H15.3A3.158,3.158,0,0,1,18.452,22.6v.064L8.287,22.6Z" transform="translate(-7 -18.1)" fill="#00a82d"/>
        </g>
      </g>
    </g>
    <path id="Trazado_9322" data-name="Trazado 9322" d="M22.684,15H35a.684.684,0,0,0,.684-.684V8.158a.684.684,0,0,0-.23-.512L34.316,6.634V2.684A.684.684,0,0,0,33.632,2H30.895a.684.684,0,0,0-.684.684v.3L29.3,2.172a.683.683,0,0,0-.909,0L22.23,7.646a.684.684,0,0,0-.23.512v6.158A.684.684,0,0,0,22.684,15Zm5.474-1.368V10.21h1.368v3.421Zm-4.79-5.167L28.842,3.6l1.6,1.42a.684.684,0,0,0,1.139-.511V3.368h1.368V6.941a.684.684,0,0,0,.23.512l1.139,1.012v5.167H30.895V9.526a.684.684,0,0,0-.684-.684H27.474a.684.684,0,0,0-.684.684v4.105H23.368Z" transform="translate(9 3.371)" fill="#00a82d"/>
  </g>
</svg>
