<svg xmlns="http://www.w3.org/2000/svg" width="289.992" height="230.186" viewBox="0 0 289.992 230.186"><defs><style>.a{fill:#4b4a4a;}.b{fill:#4b328b;}.c{fill:#3eb7ae;}.d{opacity:0.4;}.e{fill:#fff;}.f{fill:#bdbcbc;}.g{fill:#3dbcd3;}.h{fill:#626261;}.i{fill:#eee;}.j{fill:none;stroke:#4b328b;stroke-miterlimit:10;stroke-width:2px;}</style></defs><path class="a" d="M401.288,319.6A97.965,97.965,0,1,0,359.3,482.981q2.9-.837,5.763-1.859a97.4,97.4,0,0,0,20.817-10.384q1.992-1.3,3.936-2.739a98.049,98.049,0,0,0,11.468-148.4Z" transform="translate(-188.343 -256.671)"/><g transform="translate(65.835 81.275)"><path class="b" d="M296.907,440.25c-.227-1.314-.519-2.625-.857-3.894l1.976-.526c.36,1.33.649,2.7.892,4.076Z" transform="translate(-296.05 -435.83)"/><path class="c" d="M622.127,509.458l-.727-1.9q1.9-.73,3.8-1.473l.743,1.9Q624.045,508.728,622.127,509.458Z" transform="translate(-515.822 -483.283)"/></g><g class="d" transform="translate(0 0)"><path class="b" d="M212.017,731.13A6.86,6.86,0,1,0,218.87,738h0A6.86,6.86,0,0,0,212.017,731.13Zm0,9.631a2.778,2.778,0,1,1,2.775-2.778h0a2.778,2.778,0,0,1-2.771,2.778Z" transform="translate(-168.812 -554.028)"/><path class="b" d="M778.15,816.61a6.863,6.863,0,1,0,6.857,6.867h0a6.863,6.863,0,0,0-6.857-6.854Zm0,9.631a2.775,2.775,0,1,1,2.774-2.775h0a2.775,2.775,0,0,1-2.771,2.778h0Z" transform="translate(-551.229 -611.769)"/><path class="b" d="M954.36,488.48a5.251,5.251,0,1,0,5.251,5.251h0a5.247,5.247,0,0,0-5.247-5.247h0Zm0,7.376a2.126,2.126,0,1,1,2.126-2.126A2.125,2.125,0,0,1,954.36,495.856Z" transform="translate(-671.352 -390.119)"/><path class="b" d="M668.9,229.72a5.552,5.552,0,1,0,5.552,5.549h0a5.549,5.549,0,0,0-5.549-5.549Zm0,7.788a2.246,2.246,0,1,1,2.246-2.249h0A2.242,2.242,0,0,1,668.9,237.5Z" transform="translate(-478.323 -215.329)"/><path class="b" d="M121.221,628.22a5.841,5.841,0,1,0,5.841,5.841A5.841,5.841,0,0,0,121.221,628.22Z" transform="translate(-108.173 -484.513)"/><path class="b" d="M845.995,687.75a4.245,4.245,0,1,0,4.245,4.245h0A4.245,4.245,0,0,0,846,687.75Z" transform="translate(-598.831 -524.725)"/><path class="b" d="M408.795,235.09a6.2,6.2,0,1,0,6.2,6.2h0A6.2,6.2,0,0,0,408.795,235.09Z" transform="translate(-302.182 -218.956)"/><path class="b" d="M782.626,308.82a5.3,5.3,0,1,0,5.3,5.3h0a5.309,5.309,0,0,0-5.3-5.3Z" transform="translate(-555.309 -268.76)"/><circle class="b" cx="3.021" cy="3.021" r="3.021" transform="translate(36.377 81.304)"/><path class="b" d="M960.207,407a5.153,5.153,0,1,0,5.15,5.152A5.153,5.153,0,0,0,960.207,407Z" transform="translate(-675.364 -335.08)"/><circle class="b" cx="3.287" cy="3.287" r="3.287" transform="translate(6.866 99.169)"/><path class="b" d="M534.262,190.486l2.064-2.064a1.84,1.84,0,0,0-2.6-2.6h0l-2.064,2.064-2.064-2.064a1.84,1.84,0,0,0-2.6,2.6l2.067,2.064-2.067,2.064a1.84,1.84,0,0,0,2.6,2.6l2.064-2.064,2.064,2.064a1.84,1.84,0,0,0,2.6-2.6Z" transform="translate(-385.918 -185.373)"/><path class="b" d="M100.976,382.729l2.064-2.064a1.84,1.84,0,0,0-2.6-2.6l-2.064,2.067-2.067-2.08a1.84,1.84,0,0,0-2.6,2.6l2.064,2.064-2.064,2.064a1.843,1.843,0,0,0,2.6,2.616h0l2.064-2.067,2.064,2.067a1.843,1.843,0,0,0,2.616-2.6h0Z" transform="translate(-93.172 -315.223)"/><path class="b" d="M853.866,772.733l1.749-1.749a1.558,1.558,0,0,0-2.2-2.2l-1.749,1.749-1.749-1.749a1.558,1.558,0,0,0-2.2,2.2l1.746,1.749-1.746,1.749a1.558,1.558,0,0,0,2.2,2.2l1.749-1.746,1.749,1.746a1.558,1.558,0,0,0,2.2-2.2Z" transform="translate(-602.549 -579.152)"/></g><g transform="translate(75.308 80.214)"><path class="e" d="M461.965,439.842V544.658H344.194L325.24,525.7V439.842a7.285,7.285,0,0,1,7.285-7.282H454.683a7.282,7.282,0,0,1,7.282,7.282Z" transform="translate(-325.24 -432.56)"/></g><path class="b" d="M332.515,432.54H451.571a10.384,10.384,0,0,1,10.384,10.384h0v11.393H325.24V439.828a7.276,7.276,0,0,1,7.275-7.288Z" transform="translate(-249.932 -352.332)"/><rect class="b" width="9.953" height="9.953" transform="translate(170.126 114.102)"/><rect class="f" width="9.953" height="9.953" transform="translate(154.41 114.102)"/><rect class="f" width="9.953" height="9.953" transform="translate(138.694 114.102)"/><rect class="f" width="9.953" height="9.953" transform="translate(122.978 114.102)"/><rect class="f" width="9.953" height="9.953" transform="translate(107.265 114.102)"/><rect class="f" width="9.953" height="9.953" transform="translate(91.549 114.102)"/><rect class="b" width="9.953" height="9.953" transform="translate(185.841 130.866)"/><rect class="b" width="9.953" height="9.953" transform="translate(170.126 130.866)"/><rect class="f" width="9.953" height="9.953" transform="translate(154.41 130.866)"/><rect class="f" width="9.953" height="9.953" transform="translate(138.694 130.866)"/><rect class="f" width="9.953" height="9.953" transform="translate(122.978 130.866)"/><rect class="f" width="9.953" height="9.953" transform="translate(107.265 130.866)"/><rect class="f" width="9.953" height="9.953" transform="translate(91.549 130.866)"/><rect class="b" width="9.953" height="9.953" transform="translate(185.841 147.63)"/><rect class="b" width="9.953" height="9.953" transform="translate(170.126 147.63)"/><rect class="f" width="9.953" height="9.953" transform="translate(154.41 147.63)"/><rect class="f" width="9.953" height="9.953" transform="translate(138.694 147.63)"/><rect class="f" width="9.953" height="9.953" transform="translate(122.978 147.63)"/><rect class="f" width="9.953" height="9.953" transform="translate(107.265 147.63)"/><rect class="f" width="9.953" height="9.953" transform="translate(91.549 147.63)"/><rect class="b" width="9.953" height="9.953" transform="translate(185.841 164.391)"/><rect class="b" width="9.953" height="9.953" transform="translate(170.126 164.391)"/><rect class="f" width="9.953" height="9.953" transform="translate(154.41 164.391)"/><rect class="f" width="9.953" height="9.953" transform="translate(138.694 164.391)"/><rect class="f" width="9.953" height="9.953" transform="translate(122.978 164.391)"/><path class="b" d="M396.364,419.21h0a5.741,5.741,0,0,1,5.737,5.741v10.761H390.62V424.951A5.741,5.741,0,0,1,396.364,419.21Z" transform="translate(-294.096 -343.328)"/><path class="g" d="M657.3,435.711H645.82V424.954a5.741,5.741,0,0,1,5.741-5.744h0a5.741,5.741,0,0,1,5.744,5.741h0Z" transform="translate(-466.482 -343.328)"/><path class="h" d="M396.364,407.52h0a5.741,5.741,0,0,1,5.737,5.741v10.761H390.62V413.261A5.741,5.741,0,0,1,396.364,407.52Z" transform="translate(-294.096 -335.432)"/><path class="h" d="M657.3,424.021H645.82V413.264a5.741,5.741,0,0,1,5.741-5.744h0a5.741,5.741,0,0,1,5.744,5.741h0Z" transform="translate(-466.482 -335.432)"/><path class="i" d="M404.5,418.727a3.534,3.534,0,1,1-3.534-3.537,3.534,3.534,0,0,1,3.534,3.537Z" transform="translate(-298.696 -340.613)"/><path class="i" d="M659.688,418.727a3.534,3.534,0,1,1-3.534-3.537,3.534,3.534,0,0,1,3.534,3.537Z" transform="translate(-471.075 -340.613)"/><path class="f" d="M344.194,719.59H325.24l18.954,18.954Z" transform="translate(-249.932 -546.233)"/><circle class="j" cx="9.456" cy="9.456" r="9.456" transform="translate(149.928 109.621)"/><path class="b" d="M720.973,538.193a2.041,2.041,0,0,1-.2-4.073,48.485,48.485,0,0,0,31.951-16.579,2.039,2.039,0,1,1,3.076,2.677,52.515,52.515,0,0,1-34.631,17.961C721.107,538.187,721.038,538.193,720.973,538.193Z" transform="translate(-515.869 -409.277)"/><path class="b" d="M612.905,289.2a42.887,42.887,0,0,0-38.292,39.4,42.406,42.406,0,0,0,7.512,27.362,10.352,10.352,0,0,1,.974,9.875l-3.372,8.113,13.795-3.57a10.384,10.384,0,0,1,6.756.519,42.708,42.708,0,1,0,12.627-81.7Z" transform="translate(-418.306 -255.357)"/><path class="e" d="M683.942,362.558V362.4a.088.088,0,0,0,0-.049,1.128,1.128,0,0,0-.042-.149.042.042,0,0,0-.019-.036,1.162,1.162,0,0,0-.055-.11l-.032-.049a1.127,1.127,0,0,0-.1-.12h0l-5.517-5.517V341.384a.974.974,0,0,0-.974-.974h-7.733a.974.974,0,0,0-.974.974h0v5.341l-5.328-5.338a3.411,3.411,0,0,0-4.676,0l-5.338,5.338-9.622,9.618v.039l-5.351,5.351a.974.974,0,0,0-.289.273l-.029.049a.723.723,0,0,0-.058.11l-.019.036a1.168,1.168,0,0,0-.042.152.283.283,0,0,1,0,.045v.165a.663.663,0,0,0,0,.078.606.606,0,0,0,0,.11.522.522,0,0,0,.029.094l.026.084c.016.032.032.065.052.1a.427.427,0,0,0,.039.065.647.647,0,0,0,.084.1l.036.042a.681.681,0,0,0,.1.088l.039.029a.863.863,0,0,0,.12.065l.042.023.114.036.068.019h.084a.5.5,0,0,0,.1,0h4.809V385.63a.974.974,0,0,0,.974.974h32.746a.974.974,0,0,0,.974-.974h0V363.5h4.907a.4.4,0,0,0,.088,0l.068-.019.114-.036.042-.023a.893.893,0,0,0,.123-.065l.039-.029a.87.87,0,0,0,.1-.088h0l.029-.036a.87.87,0,0,0,.088-.1l.036-.068a.621.621,0,0,0,.052-.1.8.8,0,0,0,.029-.081.512.512,0,0,1,.026-.094.6.6,0,0,0,0-.1v-.071A.026.026,0,0,0,683.942,362.558Zm-15.395,15.385a.974.974,0,0,1-.974.974h-13.5a.974.974,0,0,1-.974-.974h0V366.4a.974.974,0,0,1,.974-.974h13.513a.974.974,0,0,1,.974.974h0Z" transform="translate(-461.025 -290.099)"/></svg>