<svg xmlns="http://www.w3.org/2000/svg" width="30" height="30" viewBox="0 0 30 30">
  <g id="whatsapp" transform="translate(-1203 -1999)">
    <path id="Trazado_9252" data-name="Trazado 9252" d="M15,0A15,15,0,1,1,0,15,15,15,0,0,1,15,0Z" transform="translate(1203 1999)" fill="#25d366"/>
    <path id="WA_Logo" data-name="WA Logo" d="M432.038,338.591a8.785,8.785,0,1,1,7.612,4.4h0a8.777,8.777,0,0,1-4.2-1.069l-4.657,1.222Zm3.893,1.9a7.29,7.29,0,0,0,3.716,1.018h0a7.3,7.3,0,1,0-6.185-3.422l.174.276-.738,2.694,2.763-.725Zm5.153-2.194a12.62,12.62,0,0,1-1.251-.462,9.785,9.785,0,0,1-3.75-3.314,4.269,4.269,0,0,1-.9-2.271,2.462,2.462,0,0,1,.768-1.831.807.807,0,0,1,.585-.275c.146,0,.293,0,.421.008h.049c.128,0,.287,0,.444.376.183.44.622,1.52.677,1.63a.4.4,0,0,1,.018.385,1.5,1.5,0,0,1-.219.366c-.11.128-.23.286-.329.385s-.224.228-.1.448a6.614,6.614,0,0,0,1.221,1.521,5.994,5.994,0,0,0,1.765,1.089c.219.11.348.091.475-.055s.549-.641.7-.861.293-.183.494-.11,1.28.6,1.5.714.366.165.421.256a1.835,1.835,0,0,1-.128,1.044,2.261,2.261,0,0,1-1.482,1.044,3.589,3.589,0,0,1-.533.042A2.784,2.784,0,0,1,441.083,338.3Z" transform="translate(778.818 1679.159)" fill="#fff"/>
  </g>
</svg>
