<svg xmlns="http://www.w3.org/2000/svg" width="62.405" height="69.045" viewBox="0 0 62.405 69.045">
  <g id="zoom-tap" transform="translate(-25.3 -37.838)">
    <g id="Grupo_1262" data-name="Grupo 1262" transform="translate(25.3 37.838)">
      <path id="Trazado_9309" data-name="Trazado 9309" d="M123.08,18.027,129.01,8.4l.477,3.653a1.376,1.376,0,0,0,1.35,1.186.777.777,0,0,0,.177-.014,1.356,1.356,0,0,0,1.172-1.527l-.982-7.457h0a.485.485,0,0,0-.027-.136c0-.014-.014-.027-.014-.041s-.014-.068-.027-.1-.014-.027-.014-.041l-.041-.082c-.014-.014-.014-.027-.027-.041A.285.285,0,0,0,131,3.727c-.014-.014-.014-.027-.027-.041s-.041-.055-.055-.082-.014-.027-.027-.027c-.027-.027-.041-.055-.068-.082l-.027-.027a.361.361,0,0,0-.082-.068l-.027-.027-.123-.082a.426.426,0,0,0-.136-.068c-.014,0-.014-.014-.027-.014-.041-.014-.068-.027-.109-.041-.014,0-.027-.014-.041-.014a.321.321,0,0,0-.109-.027.05.05,0,0,1-.041-.014c-.027,0-.068-.014-.1-.014h-.341c-.041,0-.068.014-.109.014h-.041c-.041.014-.1.027-.136.041h0l-7.1,2.495a1.358,1.358,0,1,0,.9,2.563L126.652,7l-5.93,9.638a1.371,1.371,0,0,0,.45,1.881,1.336,1.336,0,0,0,.709.2A1.519,1.519,0,0,0,123.08,18.027Z" transform="translate(-107.788 -3.073)" fill="#fff"/>
      <path id="Trazado_9310" data-name="Trazado 9310" d="M37.734,148.022a1.371,1.371,0,0,0-1.881.45L30.3,157.5l-.477-3.667a1.361,1.361,0,0,0-2.7.354l.982,7.47h0a.484.484,0,0,0,.027.136c0,.014.014.027.014.041.014.041.014.068.027.109,0,.014.014.027.014.041l.041.082c.014.014.014.027.027.041a.286.286,0,0,0,.055.082c.014.014.014.027.027.041s.041.055.055.082.014.027.027.027c.027.027.041.055.068.082l.027.027a.361.361,0,0,0,.082.068l.027.027.123.082c.014.014.041.014.055.027a.408.408,0,0,0,.109.055,1.259,1.259,0,0,0,.545.109h.014a.559.559,0,0,0,.15-.014h.041a.4.4,0,0,0,.136-.027h0a.422.422,0,0,1,.109-.027l7.1-2.495a1.358,1.358,0,0,0-.9-2.563L32.636,158.9l5.548-9.024A1.342,1.342,0,0,0,37.734,148.022Z" transform="translate(-27.117 -128.065)" fill="#fff"/>
      <path id="Trazado_9311" data-name="Trazado 9311" d="M220.47,25.819a1.363,1.363,0,0,0,2.072-1.772,7.533,7.533,0,0,1,5.071-12.392,1.376,1.376,0,0,0,1.118-.777,8.755,8.755,0,0,1,1.322-2.045,9.119,9.119,0,1,1,13.877,11.833A1.363,1.363,0,1,0,246,22.438a11.716,11.716,0,0,0,2.795-8.629,11.865,11.865,0,0,0-20.843-6.748,12.143,12.143,0,0,0-1.363,1.977,10.247,10.247,0,0,0-6.121,16.781Z" transform="translate(-191.981 -2.904)" fill="#fff"/>
      <path id="Trazado_9312" data-name="Trazado 9312" d="M138.25,225.906a6.671,6.671,0,1,1,7.348-11.137,6.606,6.606,0,0,1,1.486,1.336,1.366,1.366,0,1,0,2.113-1.731,9.585,9.585,0,0,0-2.1-1.895,9.4,9.4,0,0,0-10.347,15.69,1.385,1.385,0,0,0,.75.232,1.4,1.4,0,0,0,1.145-.613A1.367,1.367,0,0,0,138.25,225.906Z" transform="translate(-118.158 -182.57)" fill="#fff"/>
      <path id="Trazado_9313" data-name="Trazado 9313" d="M217.916,105.512c-2.14-3.722-3.149-6.83-2.863-7.566.027-.082,2.945-7.838,2.972-10.769v-12a3.5,3.5,0,0,0-3.313-3.558H214.7a1.076,1.076,0,0,0-1.091,1.05V75.44a.842.842,0,0,1-.791.859.821.821,0,0,1-.845-.791V70.491a3.8,3.8,0,0,0-3.6-3.831h-.218A2.185,2.185,0,0,0,206,68.855v2.9a.842.842,0,0,1-.791.859.821.821,0,0,1-.845-.791V47a3.779,3.779,0,0,0-3.572-3.8h-.409a3.8,3.8,0,0,0-3.572,3.8V70.328a.852.852,0,0,1-.791.859.8.8,0,0,1-.832-.791V50.739a2.159,2.159,0,0,0-2.127-2.181h-.027a4.667,4.667,0,0,0-4.608,4.7V79.8a46.262,46.262,0,0,0-4.567-6.734,5.122,5.122,0,0,0-6.162-1.431,2.854,2.854,0,0,0-1.636,1.731,2.924,2.924,0,0,0,.245,2.454c.872,1.486,1.922,3.872,3.149,6.612,2.781,6.312,5.957,13.455,9.365,15.663,2.7,1.745,8.547,8.3,8.6,8.384a.806.806,0,0,0,.613.273h19.153a.949.949,0,0,0,.5-.15A.868.868,0,0,0,217.916,105.512Z" transform="translate(-155.62 -37.707)" fill="#fff"/>
    </g>
  </g>
</svg>
